<?plantuml 1.2026.2?><svg xmlns="http://www.w3.org/2000/svg" xmlns:xlink="http://www.w3.org/1999/xlink" contentStyleType="text/css" data-diagram-type="DESCRIPTION" height="923px" preserveAspectRatio="none" style="width:1493px;height:923px;background:#FFFFFF;" version="1.1" viewBox="0 0 1493 923" width="1493px" zoomAndPan="magnify"><title>Diagrama de arquitectura del sistema</title><defs/><g><g class="title" data-source-line="1"><text fill="#000000" font-family="sans-serif" font-size="14" font-weight="bold" lengthAdjust="spacing" textLength="299.9268" x="589.8782" y="22.9951">Diagrama de arquitectura del sistema</text></g><!--cluster Capa de presentaci?n--><g class="cluster" data-qualified-name="Capa de presentaci.n" data-source-line="10" id="ent0004"><rect fill="none" height="87" rx="2.5" ry="2.5" style="stroke:#181818;stroke-width:1;" width="187" x="730" y="497.2969"/><text fill="#000000" font-family="sans-serif" font-size="14" font-weight="bold" lengthAdjust="spacing" textLength="171.4932" x="737.7534" y="512.292">Capa de presentaci&#243;n</text></g><!--cluster Capa de procesamiento--><g class="cluster" data-qualified-name="Capa de procesamiento" data-source-line="14" id="ent0006"><rect fill="none" height="404" rx="2.5" ry="2.5" style="stroke:#181818;stroke-width:1;" width="298" x="364" y="180.2969"/><text fill="#000000" font-family="sans-serif" font-size="14" font-weight="bold" lengthAdjust="spacing" textLength="185.7324" x="420.1338" y="195.292">Capa de procesamiento</text></g><!--cluster Capa de servicios--><g class="cluster" data-qualified-name="Capa de servicios" data-source-line="20" id="ent0010"><rect fill="none" height="260" rx="2.5" ry="2.5" style="stroke:#181818;stroke-width:1;" width="1004" x="7" y="648.2969"/><text fill="#000000" font-family="sans-serif" font-size="14" font-weight="bold" lengthAdjust="spacing" textLength="138.1611" x="439.9194" y="663.292">Capa de servicios</text></g><!--cluster Capa de persistencia--><g class="cluster" data-qualified-name="Capa de persistencia" data-source-line="29" id="ent0017"><rect fill="none" height="105" rx="2.5" ry="2.5" style="stroke:#181818;stroke-width:1;" width="399" x="1060" y="812.2969"/><text fill="#000000" font-family="sans-serif" font-size="14" font-weight="bold" lengthAdjust="spacing" textLength="165.04" x="1176.98" y="827.292">Capa de persistencia</text></g><!--cluster Capa de captura--><g class="cluster" data-qualified-name="Capa de captura" data-source-line="34" id="ent0020"><rect fill="none" height="87" rx="2.5" ry="2.5" style="stroke:#181818;stroke-width:1;" width="324" x="729" y="44.2969"/><text fill="#000000" font-family="sans-serif" font-size="14" font-weight="bold" lengthAdjust="spacing" textLength="129.2334" x="826.3833" y="59.292">Capa de captura</text></g><!--entity App--><g class="entity" data-qualified-name="Capa de presentaci.n.App" data-source-line="11" id="ent0005"><rect fill="#F1F1F1" height="36.2969" rx="2.5" ry="2.5" style="stroke:#181818;stroke-width:0.5;" width="134.2627" x="756" y="532.2969"/><text fill="#000000" font-family="sans-serif" font-size="14" lengthAdjust="spacing" textLength="114.2627" x="766" y="555.292">Aplicaci&#243;n m&#243;vil</text></g><!--entity Procesamiento--><g class="entity" data-qualified-name="Capa de procesamiento.Procesamiento" data-source-line="15" id="ent0007"><rect fill="#F1F1F1" height="36.2969" rx="2.5" ry="2.5" style="stroke:#181818;stroke-width:0.5;" width="266.3604" x="380" y="215.2969"/><text fill="#000000" font-family="sans-serif" font-size="14" lengthAdjust="spacing" textLength="246.3604" x="390" y="238.292">M&#243;dulo de procesamiento de v&#237;deo</text></g><!--entity Deteccion--><g class="entity" data-qualified-name="Capa de procesamiento.Deteccion" data-source-line="16" id="ent0008"><rect fill="#F1F1F1" height="36.2969" rx="2.5" ry="2.5" style="stroke:#181818;stroke-width:0.5;" width="237.1025" x="387.5" y="348.2969"/><text fill="#000000" font-family="sans-serif" font-size="14" lengthAdjust="spacing" textLength="217.1025" x="397.5" y="371.292">Servicio de detecci&#243;n de swing</text></g><!--entity GeneracionClip--><g class="entity" data-qualified-name="Capa de procesamiento.GeneracionClip" data-source-line="17" id="ent0009"><rect fill="#F1F1F1" height="36.2969" rx="2.5" ry="2.5" style="stroke:#181818;stroke-width:0.5;" width="231.0938" x="384.5" y="532.2969"/><text fill="#000000" font-family="sans-serif" font-size="14" lengthAdjust="spacing" textLength="211.0938" x="394.5" y="555.292">Servicio de generaci&#243;n de clip</text></g><!--entity Backend--><g class="entity" data-qualified-name="Capa de servicios.Backend" data-source-line="21" id="ent0011"><rect fill="#F1F1F1" height="36.2969" rx="2.5" ry="2.5" style="stroke:#181818;stroke-width:0.5;" width="156.5889" x="702.5" y="683.2969"/><text fill="#000000" font-family="sans-serif" font-size="14" lengthAdjust="spacing" textLength="136.5889" x="712.5" y="706.292">Backend / API REST</text></g><!--entity AutenticacionUsuarios--><g class="entity" data-qualified-name="Capa de servicios.AutenticacionUsuarios" data-source-line="22" id="ent0012"><rect fill="#F1F1F1" height="36.2969" rx="2.5" ry="2.5" style="stroke:#181818;stroke-width:0.5;" width="192.416" x="441" y="856.2969"/><text fill="#000000" font-family="sans-serif" font-size="14" lengthAdjust="spacing" textLength="172.416" x="451" y="879.292">Autenticaci&#243;n y usuarios</text></g><!--entity Sesiones--><g class="entity" data-qualified-name="Capa de servicios.Sesiones" data-source-line="23" id="ent0013"><rect fill="#F1F1F1" height="36.2969" rx="2.5" ry="2.5" style="stroke:#181818;stroke-width:0.5;" width="160.4102" x="668" y="856.2969"/><text fill="#000000" font-family="sans-serif" font-size="14" lengthAdjust="spacing" textLength="140.4102" x="678" y="879.292">Gesti&#243;n de sesiones</text></g><!--entity Clips--><g class="entity" data-qualified-name="Capa de servicios.Clips" data-source-line="24" id="ent0014"><rect fill="#F1F1F1" height="36.2969" rx="2.5" ry="2.5" style="stroke:#181818;stroke-width:0.5;" width="131.6309" x="863" y="856.2969"/><text fill="#000000" font-family="sans-serif" font-size="14" lengthAdjust="spacing" textLength="111.6309" x="873" y="879.292">Gesti&#243;n de clips</text></g><!--entity Permisos--><g class="entity" data-qualified-name="Capa de servicios.Permisos" data-source-line="25" id="ent0015"><rect fill="#F1F1F1" height="36.2969" rx="2.5" ry="2.5" style="stroke:#181818;stroke-width:0.5;" width="166.7949" x="22.5" y="856.2969"/><text fill="#000000" font-family="sans-serif" font-size="14" lengthAdjust="spacing" textLength="146.7949" x="32.5" y="879.292">Comprobar permisos</text></g><!--entity Estadisticas--><g class="entity" data-qualified-name="Capa de servicios.Estadisticas" data-source-line="26" id="ent0016"><rect fill="#F1F1F1" height="36.2969" rx="2.5" ry="2.5" style="stroke:#181818;stroke-width:0.5;" width="180.665" x="224.5" y="856.2969"/><text fill="#000000" font-family="sans-serif" font-size="14" lengthAdjust="spacing" textLength="160.665" x="234.5" y="879.292">C&#225;lculo de estad&#237;sticas</text></g><!--entity BD--><g class="entity" data-qualified-name="Capa de persistencia.BD" data-source-line="30" id="ent0018"><path d="M1076.5,861.7969 C1076.5,851.7969 1136.1528,851.7969 1136.1528,851.7969 C1136.1528,851.7969 1195.8057,851.7969 1195.8057,861.7969 L1195.8057,887.0938 C1195.8057,897.0938 1136.1528,897.0938 1136.1528,897.0938 C1136.1528,897.0938 1076.5,897.0938 1076.5,887.0938 L1076.5,861.7969" fill="#F1F1F1" style="stroke:#181818;stroke-width:0.5;"/><path d="M1076.5,861.7969 C1076.5,871.7969 1136.1528,871.7969 1136.1528,871.7969 C1136.1528,871.7969 1195.8057,871.7969 1195.8057,861.7969" fill="none" style="stroke:#181818;stroke-width:0.5;"/><text fill="#000000" font-family="sans-serif" font-size="14" lengthAdjust="spacing" textLength="99.3057" x="1086.5" y="888.792">Base de datos</text></g><!--entity Almacenamiento--><g class="entity" data-qualified-name="Capa de persistencia.Almacenamiento" data-source-line="31" id="ent0019"><path d="M1233,847.2969 L1274,847.2969 A3.75,3.75 0 0 1 1276.5,849.7969 L1283.5,868.2969 L1441.1553,868.2969 A2.5,2.5 0 0 1 1443.6553,870.7969 L1443.6553,899.0938 A2.5,2.5 0 0 1 1441.1553,901.5938 L1233,901.5938 A2.5,2.5 0 0 1 1230.5,899.0938 L1230.5,849.7969 A2.5,2.5 0 0 1 1233,847.2969" fill="#F1F1F1" style="stroke:#181818;stroke-width:0.5;"/><line style="stroke:#181818;stroke-width:0.5;" x1="1230.5" x2="1283.5" y1="868.2969" y2="868.2969"/><text fill="#000000" font-family="sans-serif" font-size="14" lengthAdjust="spacing" textLength="183.1553" x="1240.5" y="888.292">Almacenamiento de v&#237;deo</text></g><!--entity Camaras--><g class="entity" data-qualified-name="Capa de captura.Camaras" data-source-line="35" id="ent0021"><rect fill="#F1F1F1" height="36.2969" rx="2.5" ry="2.5" style="stroke:#181818;stroke-width:0.5;" width="291.585" x="745" y="79.2969"/><text fill="#000000" font-family="sans-serif" font-size="14" lengthAdjust="spacing" textLength="271.585" x="755" y="102.292">C&#225;maras del hoyo TEE / BACK / GREEN</text></g><!--entity Jugador--><g class="entity" data-qualified-name="Jugador" data-source-line="7" id="ent0002"><ellipse cx="881.8379" cy="336.7969" fill="#F1F1F1" rx="8" ry="8" style="stroke:#181818;stroke-width:0.5;"/><path d="M881.8379,344.7969 L881.8379,371.7969 M868.8379,352.7969 L894.8379,352.7969 M881.8379,371.7969 L868.8379,386.7969 M881.8379,371.7969 L894.8379,386.7969" fill="none" style="stroke:#181818;stroke-width:0.5;"/><text fill="#000000" font-family="sans-serif" font-size="14" lengthAdjust="spacing" textLength="53.6758" x="855" y="401.292">Jugador</text></g><!--entity Administrador--><g class="entity" data-qualified-name="Administrador" data-source-line="8" id="ent0003"><ellipse cx="728.04" cy="336.7969" fill="#F1F1F1" rx="8" ry="8" style="stroke:#181818;stroke-width:0.5;"/><path d="M728.04,344.7969 L728.04,371.7969 M715.04,352.7969 L741.04,352.7969 M728.04,371.7969 L715.04,386.7969 M728.04,371.7969 L741.04,386.7969" fill="none" style="stroke:#181818;stroke-width:0.5;"/><text fill="#000000" font-family="sans-serif" font-size="14" lengthAdjust="spacing" textLength="99.0801" x="678.5" y="401.292">Administrador</text></g><!--link Jugador to App--><g class="link" data-entity-1="ent0002" data-entity-2="ent0005" data-link-type="dependency" data-source-line="38" id="lnk22"><path d="M869.92,404.5669 C857.31,443.4569 839.9409,497.0495 830.4909,526.1895" fill="none" id="Jugador-to-App" style="stroke:#181818;stroke-width:1;"/><polygon fill="#181818" points="828.64,531.8969,835.2212,524.5697,830.1824,527.1407,827.6114,522.1019,828.64,531.8969" style="stroke:#181818;stroke-width:1;"/><text fill="#000000" font-family="sans-serif" font-size="13" lengthAdjust="spacing" textLength="79.6694" x="896.9624" y="447.3638">inicia sesi&#243;n</text><text fill="#000000" font-family="sans-serif" font-size="13" lengthAdjust="spacing" textLength="153.5942" x="860" y="462.4966">activa captura del hoyo</text><text fill="#000000" font-family="sans-serif" font-size="13" lengthAdjust="spacing" textLength="88.5562" x="892.519" y="477.6294">consulta clips</text></g><!--link Administrador to App--><g class="link" data-entity-1="ent0003" data-entity-2="ent0005" data-link-type="dependency" data-source-line="39" id="lnk23"><path d="M710.12,404.3669 C701.55,427.7769 695.72,457.9169 709,481.2969 C722.54,505.1469 742.6685,519.0325 766.1685,529.7225" fill="none" id="Administrador-to-App" style="stroke:#181818;stroke-width:1;"/><polygon fill="#181818" points="771.63,532.2069,765.094,524.8393,767.0788,530.1365,761.7815,532.1213,771.63,532.2069" style="stroke:#181818;stroke-width:1;"/><text fill="#000000" font-family="sans-serif" font-size="13" lengthAdjust="spacing" textLength="126.877" x="710" y="454.8638">consulta y gestiona</text><text fill="#000000" font-family="sans-serif" font-size="13" lengthAdjust="spacing" textLength="100.2549" x="723.311" y="469.9966">usuarios y clips</text></g><!--link App to Backend--><g class="link" data-entity-1="ent0005" data-entity-2="ent0011" data-link-type="dependency" data-source-line="41" id="lnk24"><path d="M755.71,560.5869 C731.87,567.4869 707.41,579.4669 693,600.2969 C671.29,631.6769 708.9206,661.1525 742.1206,680.2725" fill="none" id="App-to-Backend" style="stroke:#181818;stroke-width:1;"/><polygon fill="#181818" points="747.32,683.2669,741.5171,675.3091,742.9872,680.7716,737.5247,682.2416,747.32,683.2669" style="stroke:#181818;stroke-width:1;"/><text fill="#000000" font-family="sans-serif" font-size="13" lengthAdjust="spacing" textLength="129.2573" x="694" y="620.8638">peticiones HTTP/API</text></g><!--link Backend to App--><g class="link" data-entity-1="ent0011" data-entity-2="ent0005" data-link-type="dependency" data-source-line="58" id="lnk37"><path d="M797.28,683.1569 C808.33,670.2769 821.97,651.6169 828,632.2969 C834.63,611.0469 832.4411,591.0407 828.8211,574.3407" fill="none" id="Backend-to-App" style="stroke:#181818;stroke-width:1;"/><polygon fill="#181818" points="827.55,568.4769,825.5474,578.12,828.6092,573.3634,833.3658,576.4252,827.55,568.4769" style="stroke:#181818;stroke-width:1;"/><text fill="#000000" font-family="sans-serif" font-size="13" lengthAdjust="spacing" textLength="97.1445" x="865.5474" y="613.3638">devuelve clips,</text><text fill="#000000" font-family="sans-serif" font-size="13" lengthAdjust="spacing" textLength="164.2393" x="832" y="628.4966">estad&#237;sticas y respuestas</text></g><!--link Backend to AutenticacionUsuarios--><g class="link" data-entity-1="ent0011" data-entity-2="ent0012" data-link-type="dependency" data-source-line="43" id="lnk25"><path d="M702.32,709.6769 C646.74,716.5469 578.76,728.8769 559,749.2969 C531.03,778.2069 531.2948,823.6475 533.9948,850.2775" fill="none" id="Backend-to-AutenticacionUsuarios" style="stroke:#181818;stroke-width:1;"/><polygon fill="#181818" points="534.6,856.2469,537.6717,846.8893,534.0956,851.2724,529.7126,847.6963,534.6,856.2469" style="stroke:#181818;stroke-width:1;"/><text fill="#000000" font-family="sans-serif" font-size="13" lengthAdjust="spacing" textLength="113.623" x="560" y="769.8638">autentica usuario</text><text fill="#000000" font-family="sans-serif" font-size="13" lengthAdjust="spacing" textLength="111.4839" x="561.0696" y="784.9966">gestiona cuentas</text></g><!--link Backend to Sesiones--><g class="link" data-entity-1="ent0011" data-entity-2="ent0013" data-link-type="dependency" data-source-line="44" id="lnk26"><path d="M724.3,719.2969 C710.38,726.2969 697.15,735.9869 689,749.2969 C666.72,785.6969 700.175,827.5967 724.885,852.0467" fill="none" id="Backend-to-Sesiones" style="stroke:#181818;stroke-width:1;"/><polygon fill="#181818" points="729.15,856.2669,725.5659,847.0933,725.5958,852.7501,719.939,852.78,729.15,856.2669" style="stroke:#181818;stroke-width:1;"/><text fill="#000000" font-family="sans-serif" font-size="13" lengthAdjust="spacing" textLength="136.7476" x="690" y="777.3638">crea/actualiza sesi&#243;n</text></g><!--link Backend to Permisos--><g class="link" data-entity-1="ent0011" data-entity-2="ent0015" data-link-type="dependency" data-source-line="45" id="lnk27"><path d="M702.3,705.3569 C555.47,711.5569 250.73,726.9369 208,749.2969 C162.06,773.3369 131.8055,822.5874 117.1755,850.6274" fill="none" id="Backend-to-Permisos" style="stroke:#181818;stroke-width:1;"/><polygon fill="#181818" points="114.4,855.9469,122.1095,849.818,116.7129,851.514,115.0169,846.1174,114.4,855.9469" style="stroke:#181818;stroke-width:1;"/><text fill="#000000" font-family="sans-serif" font-size="13" lengthAdjust="spacing" textLength="137.3188" x="209" y="777.3638">comprueba permisos</text></g><!--link Backend to Clips--><g class="link" data-entity-1="ent0011" data-entity-2="ent0014" data-link-type="dependency" data-source-line="46" id="lnk28"><path d="M800.71,719.4569 C810.21,728.0669 821.57,738.8669 831,749.2969 C848.64,768.8169 850.75,775.6069 867,796.2969 C883.33,817.0869 898.664,836.0722 911.304,851.6122" fill="none" id="Backend-to-Clips" style="stroke:#181818;stroke-width:1;"/><polygon fill="#181818" points="915.09,856.2669,912.5141,846.7608,911.935,852.388,906.3078,851.8089,915.09,856.2669" style="stroke:#181818;stroke-width:1;"/><text fill="#000000" font-family="sans-serif" font-size="13" lengthAdjust="spacing" textLength="89.4194" x="868" y="777.3638">gestiona clips</text></g><!--link Backend to Estadisticas--><g class="link" data-entity-1="ent0011" data-entity-2="ent0016" data-link-type="dependency" data-source-line="47" id="lnk29"><path d="M702.17,704.5469 C606,708.5769 450.14,719.5969 401,749.2969 C359.3,774.5069 335.0829,822.9981 323.7029,850.6581" fill="none" id="Backend-to-Estadisticas" style="stroke:#181818;stroke-width:1;"/><polygon fill="#181818" points="321.42,856.2069,328.5435,849.4057,323.3224,851.5829,321.1452,846.3619,321.42,856.2069" style="stroke:#181818;stroke-width:1;"/><text fill="#000000" font-family="sans-serif" font-size="13" lengthAdjust="spacing" textLength="126.8896" x="402" y="777.3638">calcula estad&#237;sticas</text></g><!--link Camaras to Procesamiento--><g class="link" data-entity-1="ent0021" data-entity-2="ent0007" data-link-type="dependency" data-source-line="49" id="lnk30"><path d="M842.74,115.4069 C770.1,141.1569 639.1053,187.5924 566.6253,213.2824" fill="none" id="Camaras-to-Procesamiento" style="stroke:#181818;stroke-width:1;"/><polygon fill="#181818" points="560.97,215.2869,570.7892,216.0504,565.6827,213.6165,568.1166,208.51,560.97,215.2869" style="stroke:#181818;stroke-width:1;"/><text fill="#000000" font-family="sans-serif" font-size="13" lengthAdjust="spacing" textLength="105.8599" x="747" y="160.3638">v&#237;deo capturado</text></g><!--link Procesamiento to Deteccion--><g class="link" data-entity-1="ent0007" data-entity-2="ent0008" data-link-type="dependency" data-source-line="51" id="lnk31"><path d="M512.08,251.4269 C510.74,276.5269 508.5797,317.0654 507.2397,342.1754" fill="none" id="Procesamiento-to-Deteccion" style="stroke:#181818;stroke-width:1;"/><polygon fill="#181818" points="506.92,348.1669,511.3939,339.3928,507.1864,343.174,503.4053,338.9665,506.92,348.1669" style="stroke:#181818;stroke-width:1;"/><text fill="#000000" font-family="sans-serif" font-size="13" lengthAdjust="spacing" textLength="95.6401" x="511" y="294.3638">analiza frames</text></g><!--link Deteccion to GeneracionClip--><g class="link" data-entity-1="ent0008" data-entity-2="ent0009" data-link-type="dependency" data-source-line="52" id="lnk32"><path d="M505.44,384.4169 C504.29,419.1069 501.9067,491.3301 500.7667,526.0901" fill="none" id="Deteccion-to-GeneracionClip" style="stroke:#181818;stroke-width:1;"/><polygon fill="#181818" points="500.57,532.0869,504.8629,523.2228,500.7339,527.0896,496.8672,522.9606,500.57,532.0869" style="stroke:#181818;stroke-width:1;"/><text fill="#000000" font-family="sans-serif" font-size="13" lengthAdjust="spacing" textLength="158.0947" x="504" y="462.3638">evento v&#225;lido detectado</text></g><!--link GeneracionClip to Backend--><g class="link" data-entity-1="ent0009" data-entity-2="ent0011" data-link-type="dependency" data-source-line="53" id="lnk33"><path d="M506.03,568.4569 C513.37,586.8869 527.51,615.7569 549,632.2969 C593.24,666.3469 648.2208,682.327 696.5208,690.827" fill="none" id="GeneracionClip-to-Backend" style="stroke:#181818;stroke-width:1;"/><polygon fill="#181818" points="702.43,691.8669,694.2595,686.3675,697.5057,691.0003,692.8729,694.2465,702.43,691.8669" style="stroke:#181818;stroke-width:1;"/><text fill="#000000" font-family="sans-serif" font-size="13" lengthAdjust="spacing" textLength="128.4004" x="550" y="620.8638">env&#237;a clip generado</text></g><!--link Backend to BD--><g class="link" data-entity-1="ent0011" data-entity-2="ent0018" data-link-type="dependency" data-source-line="55" id="lnk34"><path d="M859.62,711.1069 C893.26,717.6869 931.7,729.1969 962,749.2969 C983.93,763.8369 978.1,779.0869 998,796.2969 C1002.23,799.9569 1051.7566,827.2864 1091.0066,848.7664" fill="none" id="Backend-to-BD" style="stroke:#181818;stroke-width:1;"/><polygon fill="#181818" points="1096.27,851.6469,1090.2952,843.8173,1091.8839,849.2465,1086.4547,850.8351,1096.27,851.6469" style="stroke:#181818;stroke-width:1;"/><text fill="#000000" font-family="sans-serif" font-size="13" lengthAdjust="spacing" textLength="109.186" x="1006.5791" y="762.3638">guarda usuarios,</text><text fill="#000000" font-family="sans-serif" font-size="13" lengthAdjust="spacing" textLength="124.3442" x="999" y="777.4966">sesiones, c&#225;maras,</text><text fill="#000000" font-family="sans-serif" font-size="13" lengthAdjust="spacing" textLength="115.1211" x="1003.6116" y="792.6294">clips y metadatos</text></g><!--link Backend to BD--><g class="link" data-entity-1="ent0011" data-entity-2="ent0018" data-link-type="dependency" data-source-line="56" id="lnk35"><path d="M859.84,701.8469 C950.89,703.1469 1092.71,711.4469 1128,749.2969 C1153.59,776.7569 1149.3968,818.3109 1143.2468,845.8709" fill="none" id="Backend-to-BD-1" style="stroke:#181818;stroke-width:1;"/><polygon fill="#181818" points="1141.94,851.7269,1147.8041,843.8141,1143.029,846.8469,1139.9962,842.0717,1141.94,851.7269" style="stroke:#181818;stroke-width:1;"/><text fill="#000000" font-family="sans-serif" font-size="13" lengthAdjust="spacing" textLength="128.8638" x="1147" y="769.8638">consulta datos para</text><text fill="#000000" font-family="sans-serif" font-size="13" lengthAdjust="spacing" textLength="77.0669" x="1172.8984" y="784.9966">estad&#237;sticas</text></g><!--link Backend to Almacenamiento--><g class="link" data-entity-1="ent0011" data-entity-2="ent0019" data-link-type="dependency" data-source-line="57" id="lnk36"><path d="M859.71,705.2669 C992.65,710.9169 1250.54,724.8969 1284,749.2969 C1315.59,772.3269 1327.468,833.1698 1332.638,862.1998" fill="none" id="Backend-to-Almacenamiento" style="stroke:#181818;stroke-width:1;"/><polygon fill="#181818" points="1333.69,868.1069,1336.05,858.545,1332.8133,863.1843,1328.174,859.9476,1333.69,868.1069" style="stroke:#181818;stroke-width:1;"/><text fill="#000000" font-family="sans-serif" font-size="13" lengthAdjust="spacing" textLength="166.6831" x="1319" y="777.3638">guarda y recupera v&#237;deos</text></g><!--link Backend to Camaras--><g class="link" data-entity-1="ent0011" data-entity-2="ent0021" data-link-type="dependency" data-source-line="59" id="lnk38"><path d="M859.83,691.8569 C942.33,678.1469 1060,642.5869 1060,551.2969 C1060,232.2969 1060,232.2969 1060,232.2969 C1060,172.3869 999.5588,137.2254 950.0488,117.6254" fill="none" id="Backend-to-Camaras" style="stroke:#181818;stroke-width:1;"/><polygon fill="#181818" points="944.47,115.4169,951.3658,122.4488,949.119,117.2573,954.3105,115.0105,944.47,115.4169" style="stroke:#181818;stroke-width:1;"/><text fill="#000000" font-family="sans-serif" font-size="13" lengthAdjust="spacing" textLength="93.6279" x="1094.5759" y="363.3638">activa captura</text><text fill="#000000" font-family="sans-serif" font-size="13" lengthAdjust="spacing" textLength="160.7798" x="1061" y="378.4966">seg&#250;n contexto del hoyo</text></g><?plantuml-src TLMzRjim4Dxv58Jd1Dap58X_aFwWXH6xcvSBTN68IAHAKchTeW_J1-YKhQjVh7Sa9PksCqcw--x_krFGeKOvrx1rq82iK8Bxrkc0AdIElslfjG_OW13-HPiM22ULRLfhq8HLs96v8pIOROr7a1RK2spnRO1_Xif-rsOhdw3sA0IeO9sSVEosf70J2Lxczq5rLpNQK3Pk11GI8N9GEPb16ujf7NfA4vJUlvg9_2Na8NVorzPQ9Prizg-zhfFJjXM_Bpgp2ZqqcepjcRFF-zUgg-qPa0Nz_c-5DZfV7kjA3ojqlLOwMbH88qYPqPVdFaNpUP9RyxRf5Wqw66rLhTjeUf_brin8TB52dztui-gc14LJoHjvj_mW7nQhTVIPnITjxG8znyxkPESxSD4hT_UWjUPhrfGExj67iNJqXCDakyeVRyEvseJb8a-0CtfrzX6SRD4rskUCbldZ1Bp_KwiyK0e0rVwlvxIJpO8bEWakamLTN1oZDAHkLX3W4JnoCpt68KF8AKpd17YoTOLCyxe1XUOoVqhbnT0AMbxUinbIHGsjdezR_MntLguN2vhez6xsYHxt3ul5bzGwY3XsdZTGNb-_uxsGjvBsZKgASw6URmpjfkvX23hwtXXbZU_g06acebZL8tyZR4VCfOPQ0nipC8Q4oLemc8q68jvIXmDpbUWWtw_NoniYfX23Elg_n3GoX44-47DZXiXITNmkVE5dO1qdwn1kgE8EQlrpR4A17jWKIoE-TVW88zyAP6GemGx1Owd7a6EQiKDWIaB9Ho7ol5BuulRSPkeCuwci42M2RSQZmiqngRGdkj6qQ0SL0yiJGcZievEUTaLNDbsjm55EaENaq51MgTnyhJYluxgdS-uB3QSQX-IlDcOu1bTIPIwJC7QDYD8WHUQDElSqSYpg9V-0DgPiOa6SSW77J7Ry8-jebf3RUc8M-LnXts7TvrDqTH8d-l1jny8JDkGXqWYAZUAgj_j_Xei8-2CUXBHY_m40?></g></svg>