<?plantuml 1.2026.2?><svg xmlns="http://www.w3.org/2000/svg" xmlns:xlink="http://www.w3.org/1999/xlink" contentStyleType="text/css" data-diagram-type="CLASS" height="275px" preserveAspectRatio="none" style="width:1072px;height:275px;background:#FFFFFF;" version="1.1" viewBox="0 0 1072 275" width="1072px" zoomAndPan="magnify"><defs/><g><!--class Usuario--><g class="entity" data-qualified-name="Usuario" data-source-line="5" id="ent0002"><rect fill="#F1F1F1" height="113.1875" rx="2.5" ry="2.5" style="stroke:#181818;stroke-width:0.5;" width="97.0869" x="209" y="7"/><ellipse cx="229.3473" cy="23" fill="#ADD1B2" rx="11" ry="11" style="stroke:#181818;stroke-width:1;"/><path d="M232.316,28.6406 Q231.7379,28.9375 231.0973,29.0781 Q230.4566,29.2344 229.7535,29.2344 Q227.2535,29.2344 225.9254,27.5938 Q224.6129,25.9375 224.6129,22.8125 Q224.6129,19.6875 225.9254,18.0313 Q227.2535,16.375 229.7535,16.375 Q230.4566,16.375 231.0973,16.5313 Q231.7535,16.6875 232.316,16.9844 L232.316,19.7031 Q231.691,19.125 231.0973,18.8594 Q230.5035,18.5781 229.8785,18.5781 Q228.5348,18.5781 227.8473,19.6563 Q227.1598,20.7188 227.1598,22.8125 Q227.1598,24.9063 227.8473,25.9844 Q228.5348,27.0469 229.8785,27.0469 Q230.5035,27.0469 231.0973,26.7813 Q231.691,26.5 232.316,25.9219 L232.316,28.6406 Z " fill="#000000"/><text fill="#000000" font-family="sans-serif" font-size="14" lengthAdjust="spacing" textLength="53.2041" x="244.5355" y="27.8467">Usuario</text><line style="stroke:#181818;stroke-width:0.5;" x1="210" x2="305.0869" y1="39" y2="39"/><text fill="#000000" font-family="sans-serif" font-size="14" lengthAdjust="spacing" textLength="71.0322" x="215" y="55.9951">-idUsuario</text><text fill="#000000" font-family="sans-serif" font-size="14" lengthAdjust="spacing" textLength="59.3838" x="215" y="72.292">-nombre</text><text fill="#000000" font-family="sans-serif" font-size="14" lengthAdjust="spacing" textLength="43.6611" x="215" y="88.5889">-email</text><text fill="#000000" font-family="sans-serif" font-size="14" lengthAdjust="spacing" textLength="85.0869" x="215" y="104.8857">-tipoUsuario</text><line style="stroke:#181818;stroke-width:0.5;" x1="210" x2="305.0869" y1="112.1875" y2="112.1875"/></g><!--class Campo--><g class="entity" data-qualified-name="Campo" data-source-line="12" id="ent0003"><rect fill="#F1F1F1" height="96.8906" rx="2.5" ry="2.5" style="stroke:#181818;stroke-width:0.5;" width="84.0029" x="7" y="163"/><ellipse cx="23.1514" cy="179" fill="#ADD1B2" rx="11" ry="11" style="stroke:#181818;stroke-width:1;"/><path d="M26.1201,184.6406 Q25.542,184.9375 24.9014,185.0781 Q24.2607,185.2344 23.5576,185.2344 Q21.0576,185.2344 19.7295,183.5938 Q18.417,181.9375 18.417,178.8125 Q18.417,175.6875 19.7295,174.0313 Q21.0576,172.375 23.5576,172.375 Q24.2607,172.375 24.9014,172.5313 Q25.5576,172.6875 26.1201,172.9844 L26.1201,175.7031 Q25.4951,175.125 24.9014,174.8594 Q24.3076,174.5781 23.6826,174.5781 Q22.3389,174.5781 21.6514,175.6563 Q20.9639,176.7188 20.9639,178.8125 Q20.9639,180.9063 21.6514,181.9844 Q22.3389,183.0469 23.6826,183.0469 Q24.3076,183.0469 24.9014,182.7813 Q25.4951,182.5 26.1201,181.9219 L26.1201,184.6406 Z " fill="#000000"/><text fill="#000000" font-family="sans-serif" font-size="14" lengthAdjust="spacing" textLength="49.4443" x="37.4072" y="183.8467">Campo</text><line style="stroke:#181818;stroke-width:0.5;" x1="8" x2="90.0029" y1="195" y2="195"/><text fill="#000000" font-family="sans-serif" font-size="14" lengthAdjust="spacing" textLength="67.2725" x="13" y="211.9951">-idCampo</text><text fill="#000000" font-family="sans-serif" font-size="14" lengthAdjust="spacing" textLength="59.3838" x="13" y="228.292">-nombre</text><text fill="#000000" font-family="sans-serif" font-size="14" lengthAdjust="spacing" textLength="72.0029" x="13" y="244.5889">-ubicacion</text><line style="stroke:#181818;stroke-width:0.5;" x1="8" x2="90.0029" y1="251.8906" y2="251.8906"/></g><!--class Hoyo--><g class="entity" data-qualified-name="Hoyo" data-source-line="18" id="ent0004"><rect fill="#F1F1F1" height="113.1875" rx="2.5" ry="2.5" style="stroke:#181818;stroke-width:0.5;" width="80.2295" x="217.5" y="155"/><ellipse cx="238.0288" cy="171" fill="#ADD1B2" rx="11" ry="11" style="stroke:#181818;stroke-width:1;"/><path d="M240.9975,176.6406 Q240.4194,176.9375 239.7788,177.0781 Q239.1381,177.2344 238.435,177.2344 Q235.935,177.2344 234.6069,175.5938 Q233.2944,173.9375 233.2944,170.8125 Q233.2944,167.6875 234.6069,166.0313 Q235.935,164.375 238.435,164.375 Q239.1381,164.375 239.7788,164.5313 Q240.435,164.6875 240.9975,164.9844 L240.9975,167.7031 Q240.3725,167.125 239.7788,166.8594 Q239.185,166.5781 238.56,166.5781 Q237.2163,166.5781 236.5288,167.6563 Q235.8413,168.7188 235.8413,170.8125 Q235.8413,172.9063 236.5288,173.9844 Q237.2163,175.0469 238.56,175.0469 Q239.185,175.0469 239.7788,174.7813 Q240.3725,174.5 240.9975,173.9219 L240.9975,176.6406 Z " fill="#000000"/><text fill="#000000" font-family="sans-serif" font-size="14" lengthAdjust="spacing" textLength="35.9434" x="253.2574" y="175.8467">Hoyo</text><line style="stroke:#181818;stroke-width:0.5;" x1="218.5" x2="296.7295" y1="187" y2="187"/><text fill="#000000" font-family="sans-serif" font-size="14" lengthAdjust="spacing" textLength="53.7715" x="223.5" y="203.9951">-idHoyo</text><text fill="#000000" font-family="sans-serif" font-size="14" lengthAdjust="spacing" textLength="59.3701" x="223.5" y="220.292">-numero</text><text fill="#000000" font-family="sans-serif" font-size="14" lengthAdjust="spacing" textLength="28.2734" x="223.5" y="236.5889">-par</text><text fill="#000000" font-family="sans-serif" font-size="14" lengthAdjust="spacing" textLength="68.2295" x="223.5" y="252.8857">-distancia</text><line style="stroke:#181818;stroke-width:0.5;" x1="218.5" x2="296.7295" y1="260.1875" y2="260.1875"/></g><!--class Sesion--><g class="entity" data-qualified-name="Sesion" data-source-line="25" id="ent0005"><rect fill="#F1F1F1" height="113.1875" rx="2.5" ry="2.5" style="stroke:#181818;stroke-width:0.5;" width="126.2148" x="417" y="81"/><ellipse cx="453.6417" cy="97" fill="#ADD1B2" rx="11" ry="11" style="stroke:#181818;stroke-width:1;"/><path d="M456.6105,102.6406 Q456.0324,102.9375 455.3917,103.0781 Q454.7511,103.2344 454.048,103.2344 Q451.548,103.2344 450.2199,101.5938 Q448.9074,99.9375 448.9074,96.8125 Q448.9074,93.6875 450.2199,92.0313 Q451.548,90.375 454.048,90.375 Q454.7511,90.375 455.3917,90.5313 Q456.048,90.6875 456.6105,90.9844 L456.6105,93.7031 Q455.9855,93.125 455.3917,92.8594 Q454.798,92.5781 454.173,92.5781 Q452.8292,92.5781 452.1417,93.6563 Q451.4542,94.7188 451.4542,96.8125 Q451.4542,98.9063 452.1417,99.9844 Q452.8292,101.0469 454.173,101.0469 Q454.798,101.0469 455.3917,100.7813 Q455.9855,100.5 456.6105,99.9219 L456.6105,102.6406 Z " fill="#000000"/><text fill="#000000" font-family="sans-serif" font-size="14" lengthAdjust="spacing" textLength="46.1221" x="472.451" y="101.8467">Sesion</text><line style="stroke:#181818;stroke-width:0.5;" x1="418" x2="542.2148" y1="113" y2="113"/><text fill="#000000" font-family="sans-serif" font-size="14" lengthAdjust="spacing" textLength="63.9502" x="423" y="129.9951">-idSesion</text><text fill="#000000" font-family="sans-serif" font-size="14" lengthAdjust="spacing" textLength="114.2148" x="423" y="146.292">-fechaHoraInicio</text><text fill="#000000" font-family="sans-serif" font-size="14" lengthAdjust="spacing" textLength="97.9863" x="423" y="162.5889">-fechaHoraFin</text><text fill="#000000" font-family="sans-serif" font-size="14" lengthAdjust="spacing" textLength="52.4795" x="423" y="178.8857">-estado</text><line style="stroke:#181818;stroke-width:0.5;" x1="418" x2="542.2148" y1="186.1875" y2="186.1875"/></g><!--class EventoDetectado--><g class="entity" data-qualified-name="EventoDetectado" data-source-line="32" id="ent0006"><rect fill="#F1F1F1" height="96.8906" rx="2.5" ry="2.5" style="stroke:#181818;stroke-width:0.5;" width="153.3857" x="651" y="89"/><ellipse cx="666" cy="105" fill="#ADD1B2" rx="11" ry="11" style="stroke:#181818;stroke-width:1;"/><path d="M668.9688,110.6406 Q668.3906,110.9375 667.75,111.0781 Q667.1094,111.2344 666.4063,111.2344 Q663.9063,111.2344 662.5781,109.5938 Q661.2656,107.9375 661.2656,104.8125 Q661.2656,101.6875 662.5781,100.0313 Q663.9063,98.375 666.4063,98.375 Q667.1094,98.375 667.75,98.5313 Q668.4063,98.6875 668.9688,98.9844 L668.9688,101.7031 Q668.3438,101.125 667.75,100.8594 Q667.1563,100.5781 666.5313,100.5781 Q665.1875,100.5781 664.5,101.6563 Q663.8125,102.7188 663.8125,104.8125 Q663.8125,106.9063 664.5,107.9844 Q665.1875,109.0469 666.5313,109.0469 Q667.1563,109.0469 667.75,108.7813 Q668.3438,108.5 668.9688,107.9219 L668.9688,110.6406 Z " fill="#000000"/><text fill="#000000" font-family="sans-serif" font-size="14" lengthAdjust="spacing" textLength="121.3857" x="680" y="109.8467">EventoDetectado</text><line style="stroke:#181818;stroke-width:0.5;" x1="652" x2="803.3857" y1="121" y2="121"/><text fill="#000000" font-family="sans-serif" font-size="14" lengthAdjust="spacing" textLength="139.2139" x="657" y="137.9951">-idEventoDetectado</text><text fill="#000000" font-family="sans-serif" font-size="14" lengthAdjust="spacing" textLength="77.1709" x="657" y="154.292">-fechaHora</text><text fill="#000000" font-family="sans-serif" font-size="14" lengthAdjust="spacing" textLength="47.1475" x="657" y="170.5889">-valido</text><line style="stroke:#181818;stroke-width:0.5;" x1="652" x2="803.3857" y1="177.8906" y2="177.8906"/></g><!--class Clip--><g class="entity" data-qualified-name="Clip" data-source-line="38" id="ent0007"><rect fill="#F1F1F1" height="145.7813" rx="2.5" ry="2.5" style="stroke:#181818;stroke-width:0.5;" width="154.085" x="911" y="64.5"/><ellipse cx="970.5718" cy="80.5" fill="#ADD1B2" rx="11" ry="11" style="stroke:#181818;stroke-width:1;"/><path d="M973.5405,86.1406 Q972.9624,86.4375 972.3218,86.5781 Q971.6812,86.7344 970.978,86.7344 Q968.478,86.7344 967.1499,85.0938 Q965.8374,83.4375 965.8374,80.3125 Q965.8374,77.1875 967.1499,75.5313 Q968.478,73.875 970.978,73.875 Q971.6812,73.875 972.3218,74.0313 Q972.978,74.1875 973.5405,74.4844 L973.5405,77.2031 Q972.9155,76.625 972.3218,76.3594 Q971.728,76.0781 971.103,76.0781 Q969.7593,76.0781 969.0718,77.1563 Q968.3843,78.2188 968.3843,80.3125 Q968.3843,82.4063 969.0718,83.4844 Q969.7593,84.5469 971.103,84.5469 Q971.728,84.5469 972.3218,84.2813 Q972.9155,84 973.5405,83.4219 L973.5405,86.1406 Z " fill="#000000"/><text fill="#000000" font-family="sans-serif" font-size="14" lengthAdjust="spacing" textLength="26.4414" x="991.0718" y="85.3467">Clip</text><line style="stroke:#181818;stroke-width:0.5;" x1="912" x2="1064.085" y1="96.5" y2="96.5"/><text fill="#000000" font-family="sans-serif" font-size="14" lengthAdjust="spacing" textLength="44.2695" x="917" y="113.4951">-idClip</text><text fill="#000000" font-family="sans-serif" font-size="14" lengthAdjust="spacing" textLength="138.9199" x="917" y="129.792">-fechaHoraCreacion</text><text fill="#000000" font-family="sans-serif" font-size="14" lengthAdjust="spacing" textLength="66.1719" x="917" y="146.0889">-duracion</text><text fill="#000000" font-family="sans-serif" font-size="14" lengthAdjust="spacing" textLength="142.085" x="917" y="162.3857">-urlAlmacenamiento</text><text fill="#000000" font-family="sans-serif" font-size="14" lengthAdjust="spacing" textLength="59.1104" x="917" y="178.6826">-favorito</text><text fill="#000000" font-family="sans-serif" font-size="14" lengthAdjust="spacing" textLength="117.0107" x="917" y="194.9795">-fechaExpiracion</text><line style="stroke:#181818;stroke-width:0.5;" x1="912" x2="1064.085" y1="202.2813" y2="202.2813"/></g><!--reverse link Campo to Hoyo--><g class="link" data-entity-1="ent0003" data-entity-2="ent0004" data-link-type="aggregation" data-source-line="47" id="lnk8"><path codeLine="47" d="M103.29,211.5 C140.01,211.5 181.33,211.5 217.38,211.5" fill="none" id="Campo-backto-Hoyo" style="stroke:#181818;stroke-width:1;"/><polygon fill="none" points="91.29,211.5,97.29,215.5,103.29,211.5,97.29,207.5,91.29,211.5" style="stroke:#181818;stroke-width:1;"/><text fill="#000000" font-family="sans-serif" font-size="13" lengthAdjust="spacing" textLength="56.2847" x="122" y="207.5669">contiene</text><text fill="#000000" font-family="sans-serif" font-size="13" lengthAdjust="spacing" textLength="8.271" x="98.979" y="224.8291">1</text><text fill="#000000" font-family="sans-serif" font-size="13" lengthAdjust="spacing" textLength="23.0356" x="186.4608" y="224.7111">1..*</text></g><!--link Usuario to Sesion--><g class="link" data-entity-1="ent0002" data-entity-2="ent0005" data-link-type="association" data-source-line="48" id="lnk9"><path codeLine="48" d="M306.07,79.47 C338.48,90.34 381.72,104.85 416.84,116.64" fill="none" id="Usuario-Sesion" style="stroke:#181818;stroke-width:1;"/><text fill="#000000" font-family="sans-serif" font-size="13" lengthAdjust="spacing" textLength="43.3228" x="340" y="86.5669">realiza</text><text fill="#000000" font-family="sans-serif" font-size="13" lengthAdjust="spacing" textLength="8.271" x="314.1339" y="95.1266">1</text><text fill="#000000" font-family="sans-serif" font-size="13" lengthAdjust="spacing" textLength="23.0356" x="386.1314" y="127.3263">0..*</text></g><!--link Hoyo to Sesion--><g class="link" data-entity-1="ent0004" data-entity-2="ent0005" data-link-type="association" data-source-line="49" id="lnk10"><path codeLine="49" d="M297.67,198.36 C330.71,187.27 378.6,171.19 416.87,158.35" fill="none" id="Hoyo-Sesion" style="stroke:#181818;stroke-width:1;"/><text fill="#000000" font-family="sans-serif" font-size="13" lengthAdjust="spacing" textLength="49.3911" x="337" y="166.5669">alberga</text><text fill="#000000" font-family="sans-serif" font-size="13" lengthAdjust="spacing" textLength="8.271" x="305.8177" y="209.382">1</text><text fill="#000000" font-family="sans-serif" font-size="13" lengthAdjust="spacing" textLength="23.0356" x="386.1645" y="173.3377">0..*</text></g><!--reverse link Sesion to EventoDetectado--><g class="link" data-entity-1="ent0005" data-entity-2="ent0006" data-link-type="composition" data-source-line="50" id="lnk11"><path codeLine="50" d="M555.27,137.5 C587.94,137.5 616.23,137.5 650.71,137.5" fill="none" id="Sesion-backto-EventoDetectado" style="stroke:#181818;stroke-width:1;"/><polygon fill="#181818" points="543.27,137.5,549.27,141.5,555.27,137.5,549.27,133.5,543.27,137.5" style="stroke:#181818;stroke-width:1;"/><text fill="#000000" font-family="sans-serif" font-size="13" lengthAdjust="spacing" textLength="46.541" x="574" y="133.5669">incluye</text><text fill="#000000" font-family="sans-serif" font-size="13" lengthAdjust="spacing" textLength="8.271" x="551.0513" y="150.4309">1</text><text fill="#000000" font-family="sans-serif" font-size="13" lengthAdjust="spacing" textLength="23.0356" x="619.8311" y="150.2456">1..*</text></g><!--link EventoDetectado to Clip--><g class="link" data-entity-1="ent0006" data-entity-2="ent0007" data-link-type="association" data-source-line="51" id="lnk12"><path codeLine="51" d="M804.31,137.5 C837.83,137.5 877.17,137.5 910.74,137.5" fill="none" id="EventoDetectado-Clip" style="stroke:#181818;stroke-width:1;"/><text fill="#000000" font-family="sans-serif" font-size="13" lengthAdjust="spacing" textLength="45.7983" x="835" y="133.5669">genera</text><text fill="#000000" font-family="sans-serif" font-size="13" lengthAdjust="spacing" textLength="8.271" x="812.6376" y="150.3528">1</text><text fill="#000000" font-family="sans-serif" font-size="13" lengthAdjust="spacing" textLength="24.8066" x="878.2668" y="150.2985">0..1</text></g><?plantuml-src TLB1Ri8m3BtdAooEI21sxGqnfd56-m0tDSLQcbHEoWRJ_drfKjg2j5FydFUUdTSQEWK83eJhSu2AXNHWPvN_PDkYO0FQeFVR48JBBj11Etla6y5cHl5dhDmNsnfEQ3mfbJJmuJiKTl2Z05R0rO0JigufXL993R99LU3MtKc_TvSTDktaaT2pGrUoHjslFQhUtNKIzI1hkeOabt7pT5Ri0rhDE6cFvAFNgCumWHFfCxuxmODbFRnaxBrn9b4qh6OFs5_81lTA8KORBqRVf_wZMK8ND3ntsXbkfoGYUDJiX78AwLsTJA0JipKDQhBOS3yr2_7YXCDiylwxPHcJpCalNXRWLgjuhjVBHGwsWFWRXEX4wlwHUrhFsYJM4641SIN3DrH9zWy7JKbIeneQFMiv3NoEhm2ssdHNKiytC_jOfR0AgEEIWdy0?></g></svg>