<?plantuml 1.2026.2?><svg xmlns="http://www.w3.org/2000/svg" xmlns:xlink="http://www.w3.org/1999/xlink" contentStyleType="text/css" data-diagram-type="CLASS" height="781px" preserveAspectRatio="none" style="width:335px;height:781px;background:#FFFFFF;" version="1.1" viewBox="0 0 335 781" width="335px" zoomAndPan="magnify"><title>Diagrama de clases modelo</title><defs/><g><g class="title" data-source-line="1"><text fill="#000000" font-family="sans-serif" font-size="14" font-weight="bold" lengthAdjust="spacing" textLength="217.2598" x="52.3501" y="22.9951">Diagrama de clases modelo</text></g><!--class Usuario--><g class="entity" data-qualified-name="Usuario" data-source-line="6" id="ent0002"><rect fill="#F1F1F1" height="145.7813" rx="2.5" ry="2.5" style="stroke:#181818;stroke-width:0.5;" width="124.5879" x="200" y="44.2969"/><ellipse cx="232.7227" cy="60.2969" fill="#ADD1B2" rx="11" ry="11" style="stroke:#181818;stroke-width:1;"/><path d="M235.6915,65.9375 Q235.1133,66.2344 234.4727,66.375 Q233.8321,66.5313 233.129,66.5313 Q230.629,66.5313 229.3008,64.8906 Q227.9883,63.2344 227.9883,60.1094 Q227.9883,56.9844 229.3008,55.3281 Q230.629,53.6719 233.129,53.6719 Q233.8321,53.6719 234.4727,53.8281 Q235.129,53.9844 235.6915,54.2813 L235.6915,57 Q235.0665,56.4219 234.4727,56.1563 Q233.879,55.875 233.254,55.875 Q231.9102,55.875 231.2227,56.9531 Q230.5352,58.0156 230.5352,60.1094 Q230.5352,62.2031 231.2227,63.2813 Q231.9102,64.3438 233.254,64.3438 Q233.879,64.3438 234.4727,64.0781 Q235.0665,63.7969 235.6915,63.2188 L235.6915,65.9375 Z " fill="#000000"/><text fill="#000000" font-family="sans-serif" font-size="14" lengthAdjust="spacing" textLength="53.2041" x="250.6611" y="65.1436">Usuario</text><line style="stroke:#181818;stroke-width:0.5;" x1="201" x2="323.5879" y1="76.2969" y2="76.2969"/><text fill="#000000" font-family="sans-serif" font-size="14" lengthAdjust="spacing" textLength="17.8281" x="206" y="93.292">-id</text><text fill="#000000" font-family="sans-serif" font-size="14" lengthAdjust="spacing" textLength="112.5879" x="206" y="109.5889">-nombreUsuario</text><text fill="#000000" font-family="sans-serif" font-size="14" lengthAdjust="spacing" textLength="43.6611" x="206" y="125.8857">-email</text><text fill="#000000" font-family="sans-serif" font-size="14" lengthAdjust="spacing" textLength="83.3711" x="206" y="142.1826">-contrase&#241;a</text><text fill="#000000" font-family="sans-serif" font-size="14" lengthAdjust="spacing" textLength="101.9648" x="206" y="158.4795">-fechaRegistro</text><text fill="#000000" font-family="sans-serif" font-size="14" lengthAdjust="spacing" textLength="85.0869" x="206" y="174.7764">-tipoUsuario</text><line style="stroke:#181818;stroke-width:0.5;" x1="201" x2="323.5879" y1="182.0781" y2="182.0781"/></g><!--class Campo--><g class="entity" data-qualified-name="Campo" data-source-line="15" id="ent0003"><rect fill="#F1F1F1" height="96.8906" rx="2.5" ry="2.5" style="stroke:#181818;stroke-width:0.5;" width="84.0029" x="8.5" y="258.2969"/><ellipse cx="24.6514" cy="274.2969" fill="#ADD1B2" rx="11" ry="11" style="stroke:#181818;stroke-width:1;"/><path d="M27.6201,279.9375 Q27.042,280.2344 26.4014,280.375 Q25.7607,280.5313 25.0576,280.5313 Q22.5576,280.5313 21.2295,278.8906 Q19.917,277.2344 19.917,274.1094 Q19.917,270.9844 21.2295,269.3281 Q22.5576,267.6719 25.0576,267.6719 Q25.7607,267.6719 26.4014,267.8281 Q27.0576,267.9844 27.6201,268.2813 L27.6201,271 Q26.9951,270.4219 26.4014,270.1563 Q25.8076,269.875 25.1826,269.875 Q23.8389,269.875 23.1514,270.9531 Q22.4639,272.0156 22.4639,274.1094 Q22.4639,276.2031 23.1514,277.2813 Q23.8389,278.3438 25.1826,278.3438 Q25.8076,278.3438 26.4014,278.0781 Q26.9951,277.7969 27.6201,277.2188 L27.6201,279.9375 Z " fill="#000000"/><text fill="#000000" font-family="sans-serif" font-size="14" lengthAdjust="spacing" textLength="49.4443" x="38.9072" y="279.1436">Campo</text><line style="stroke:#181818;stroke-width:0.5;" x1="9.5" x2="91.5029" y1="290.2969" y2="290.2969"/><text fill="#000000" font-family="sans-serif" font-size="14" lengthAdjust="spacing" textLength="17.8281" x="14.5" y="307.292">-id</text><text fill="#000000" font-family="sans-serif" font-size="14" lengthAdjust="spacing" textLength="59.3838" x="14.5" y="323.5889">-nombre</text><text fill="#000000" font-family="sans-serif" font-size="14" lengthAdjust="spacing" textLength="72.0029" x="14.5" y="339.8857">-ubicacion</text><line style="stroke:#181818;stroke-width:0.5;" x1="9.5" x2="91.5029" y1="347.1875" y2="347.1875"/></g><!--class Hoyo--><g class="entity" data-qualified-name="Hoyo" data-source-line="21" id="ent0004"><rect fill="#F1F1F1" height="96.8906" rx="2.5" ry="2.5" style="stroke:#181818;stroke-width:0.5;" width="71.3701" x="15" y="439.2969"/><ellipse cx="31.542" cy="455.2969" fill="#ADD1B2" rx="11" ry="11" style="stroke:#181818;stroke-width:1;"/><path d="M34.5108,460.9375 Q33.9327,461.2344 33.292,461.375 Q32.6514,461.5313 31.9483,461.5313 Q29.4483,461.5313 28.1202,459.8906 Q26.8077,458.2344 26.8077,455.1094 Q26.8077,451.9844 28.1202,450.3281 Q29.4483,448.6719 31.9483,448.6719 Q32.6514,448.6719 33.292,448.8281 Q33.9483,448.9844 34.5108,449.2813 L34.5108,452 Q33.8858,451.4219 33.292,451.1563 Q32.6983,450.875 32.0733,450.875 Q30.7295,450.875 30.042,451.9531 Q29.3545,453.0156 29.3545,455.1094 Q29.3545,457.2031 30.042,458.2813 Q30.7295,459.3438 32.0733,459.3438 Q32.6983,459.3438 33.292,459.0781 Q33.8858,458.7969 34.5108,458.2188 L34.5108,460.9375 Z " fill="#000000"/><text fill="#000000" font-family="sans-serif" font-size="14" lengthAdjust="spacing" textLength="35.9434" x="45.8847" y="460.1436">Hoyo</text><line style="stroke:#181818;stroke-width:0.5;" x1="16" x2="85.3701" y1="471.2969" y2="471.2969"/><text fill="#000000" font-family="sans-serif" font-size="14" lengthAdjust="spacing" textLength="17.8281" x="21" y="488.292">-id</text><text fill="#000000" font-family="sans-serif" font-size="14" lengthAdjust="spacing" textLength="59.3701" x="21" y="504.5889">-numero</text><text fill="#000000" font-family="sans-serif" font-size="14" lengthAdjust="spacing" textLength="28.2734" x="21" y="520.8857">-par</text><line style="stroke:#181818;stroke-width:0.5;" x1="16" x2="85.3701" y1="528.1875" y2="528.1875"/></g><!--class Camara--><g class="entity" data-qualified-name="Camara" data-source-line="27" id="ent0005"><rect fill="#F1F1F1" height="113.1875" rx="2.5" ry="2.5" style="stroke:#181818;stroke-width:0.5;" width="86.9063" x="7" y="636.7969"/><ellipse cx="22" cy="652.7969" fill="#ADD1B2" rx="11" ry="11" style="stroke:#181818;stroke-width:1;"/><path d="M24.9688,658.4375 Q24.3906,658.7344 23.75,658.875 Q23.1094,659.0313 22.4063,659.0313 Q19.9063,659.0313 18.5781,657.3906 Q17.2656,655.7344 17.2656,652.6094 Q17.2656,649.4844 18.5781,647.8281 Q19.9063,646.1719 22.4063,646.1719 Q23.1094,646.1719 23.75,646.3281 Q24.4063,646.4844 24.9688,646.7813 L24.9688,649.5 Q24.3438,648.9219 23.75,648.6563 Q23.1563,648.375 22.5313,648.375 Q21.1875,648.375 20.5,649.4531 Q19.8125,650.5156 19.8125,652.6094 Q19.8125,654.7031 20.5,655.7813 Q21.1875,656.8438 22.5313,656.8438 Q23.1563,656.8438 23.75,656.5781 Q24.3438,656.2969 24.9688,655.7188 L24.9688,658.4375 Z " fill="#000000"/><text fill="#000000" font-family="sans-serif" font-size="14" lengthAdjust="spacing" textLength="54.9063" x="36" y="657.6436">Camara</text><line style="stroke:#181818;stroke-width:0.5;" x1="8" x2="92.9063" y1="668.7969" y2="668.7969"/><text fill="#000000" font-family="sans-serif" font-size="14" lengthAdjust="spacing" textLength="17.8281" x="13" y="685.792">-id</text><text fill="#000000" font-family="sans-serif" font-size="14" lengthAdjust="spacing" textLength="59.3838" x="13" y="702.0889">-nombre</text><text fill="#000000" font-family="sans-serif" font-size="14" lengthAdjust="spacing" textLength="23.2627" x="13" y="718.3857">-rol</text><text fill="#000000" font-family="sans-serif" font-size="14" lengthAdjust="spacing" textLength="52.4795" x="13" y="734.6826">-estado</text><line style="stroke:#181818;stroke-width:0.5;" x1="8" x2="92.9063" y1="741.9844" y2="741.9844"/></g><!--class SesionCaptura--><g class="entity" data-qualified-name="SesionCaptura" data-source-line="35" id="ent0006"><rect fill="#F1F1F1" height="113.1875" rx="2.5" ry="2.5" style="stroke:#181818;stroke-width:0.5;" width="134.0605" x="130.5" y="250.2969"/><ellipse cx="145.5" cy="266.2969" fill="#ADD1B2" rx="11" ry="11" style="stroke:#181818;stroke-width:1;"/><path d="M148.4688,271.9375 Q147.8906,272.2344 147.25,272.375 Q146.6094,272.5313 145.9063,272.5313 Q143.4063,272.5313 142.0781,270.8906 Q140.7656,269.2344 140.7656,266.1094 Q140.7656,262.9844 142.0781,261.3281 Q143.4063,259.6719 145.9063,259.6719 Q146.6094,259.6719 147.25,259.8281 Q147.9063,259.9844 148.4688,260.2813 L148.4688,263 Q147.8438,262.4219 147.25,262.1563 Q146.6563,261.875 146.0313,261.875 Q144.6875,261.875 144,262.9531 Q143.3125,264.0156 143.3125,266.1094 Q143.3125,268.2031 144,269.2813 Q144.6875,270.3438 146.0313,270.3438 Q146.6563,270.3438 147.25,270.0781 Q147.8438,269.7969 148.4688,269.2188 L148.4688,271.9375 Z " fill="#000000"/><text fill="#000000" font-family="sans-serif" font-size="14" lengthAdjust="spacing" textLength="102.0605" x="159.5" y="271.1436">SesionCaptura</text><line style="stroke:#181818;stroke-width:0.5;" x1="131.5" x2="263.5605" y1="282.2969" y2="282.2969"/><text fill="#000000" font-family="sans-serif" font-size="14" lengthAdjust="spacing" textLength="17.8281" x="136.5" y="299.292">-id</text><text fill="#000000" font-family="sans-serif" font-size="14" lengthAdjust="spacing" textLength="80.7871" x="136.5" y="315.5889">-fechaInicio</text><text fill="#000000" font-family="sans-serif" font-size="14" lengthAdjust="spacing" textLength="64.5586" x="136.5" y="331.8857">-fechaFin</text><text fill="#000000" font-family="sans-serif" font-size="14" lengthAdjust="spacing" textLength="52.4795" x="136.5" y="348.1826">-estado</text><line style="stroke:#181818;stroke-width:0.5;" x1="131.5" x2="263.5605" y1="355.4844" y2="355.4844"/></g><!--class EventoDetectado--><g class="entity" data-qualified-name="EventoDetectado" data-source-line="42" id="ent0007"><rect fill="#F1F1F1" height="129.4844" rx="2.5" ry="2.5" style="stroke:#181818;stroke-width:0.5;" width="153.3857" x="121" y="423.2969"/><ellipse cx="136" cy="439.2969" fill="#ADD1B2" rx="11" ry="11" style="stroke:#181818;stroke-width:1;"/><path d="M138.9688,444.9375 Q138.3906,445.2344 137.75,445.375 Q137.1094,445.5313 136.4063,445.5313 Q133.9063,445.5313 132.5781,443.8906 Q131.2656,442.2344 131.2656,439.1094 Q131.2656,435.9844 132.5781,434.3281 Q133.9063,432.6719 136.4063,432.6719 Q137.1094,432.6719 137.75,432.8281 Q138.4063,432.9844 138.9688,433.2813 L138.9688,436 Q138.3438,435.4219 137.75,435.1563 Q137.1563,434.875 136.5313,434.875 Q135.1875,434.875 134.5,435.9531 Q133.8125,437.0156 133.8125,439.1094 Q133.8125,441.2031 134.5,442.2813 Q135.1875,443.3438 136.5313,443.3438 Q137.1563,443.3438 137.75,443.0781 Q138.3438,442.7969 138.9688,442.2188 L138.9688,444.9375 Z " fill="#000000"/><text fill="#000000" font-family="sans-serif" font-size="14" lengthAdjust="spacing" textLength="121.3857" x="150" y="444.1436">EventoDetectado</text><line style="stroke:#181818;stroke-width:0.5;" x1="122" x2="273.3857" y1="455.2969" y2="455.2969"/><text fill="#000000" font-family="sans-serif" font-size="14" lengthAdjust="spacing" textLength="17.8281" x="127" y="472.292">-id</text><text fill="#000000" font-family="sans-serif" font-size="14" lengthAdjust="spacing" textLength="132.3711" x="127" y="488.5889">-instanteDeteccion</text><text fill="#000000" font-family="sans-serif" font-size="14" lengthAdjust="spacing" textLength="80.5547" x="127" y="504.8857">-tipoEvento</text><text fill="#000000" font-family="sans-serif" font-size="14" lengthAdjust="spacing" textLength="47.1475" x="127" y="521.1826">-valido</text><text fill="#000000" font-family="sans-serif" font-size="14" lengthAdjust="spacing" textLength="72.3857" x="127" y="537.4795">-confianza</text><line style="stroke:#181818;stroke-width:0.5;" x1="122" x2="273.3857" y1="544.7813" y2="544.7813"/></g><!--class Clip--><g class="entity" data-qualified-name="Clip" data-source-line="50" id="ent0008"><rect fill="#F1F1F1" height="162.0781" rx="2.5" ry="2.5" style="stroke:#181818;stroke-width:0.5;" width="129.0107" x="133" y="612.2969"/><ellipse cx="180.0347" cy="628.2969" fill="#ADD1B2" rx="11" ry="11" style="stroke:#181818;stroke-width:1;"/><path d="M183.0034,633.9375 Q182.4253,634.2344 181.7847,634.375 Q181.144,634.5313 180.4409,634.5313 Q177.9409,634.5313 176.6128,632.8906 Q175.3003,631.2344 175.3003,628.1094 Q175.3003,624.9844 176.6128,623.3281 Q177.9409,621.6719 180.4409,621.6719 Q181.144,621.6719 181.7847,621.8281 Q182.4409,621.9844 183.0034,622.2813 L183.0034,625 Q182.3784,624.4219 181.7847,624.1563 Q181.1909,623.875 180.5659,623.875 Q179.2222,623.875 178.5347,624.9531 Q177.8472,626.0156 177.8472,628.1094 Q177.8472,630.2031 178.5347,631.2813 Q179.2222,632.3438 180.5659,632.3438 Q181.1909,632.3438 181.7847,632.0781 Q182.3784,631.7969 183.0034,631.2188 L183.0034,633.9375 Z " fill="#000000"/><text fill="#000000" font-family="sans-serif" font-size="14" lengthAdjust="spacing" textLength="26.4414" x="200.5347" y="633.1436">Clip</text><line style="stroke:#181818;stroke-width:0.5;" x1="134" x2="261.0107" y1="644.2969" y2="644.2969"/><text fill="#000000" font-family="sans-serif" font-size="14" lengthAdjust="spacing" textLength="17.8281" x="139" y="661.292">-id</text><text fill="#000000" font-family="sans-serif" font-size="14" lengthAdjust="spacing" textLength="56.6973" x="139" y="677.5889">-archivo</text><text fill="#000000" font-family="sans-serif" font-size="14" lengthAdjust="spacing" textLength="105.4922" x="139" y="693.8857">-fechaCreacion</text><text fill="#000000" font-family="sans-serif" font-size="14" lengthAdjust="spacing" textLength="52.4795" x="139" y="710.1826">-estado</text><text fill="#000000" font-family="sans-serif" font-size="14" lengthAdjust="spacing" textLength="78.1416" x="139" y="726.4795">-esFavorito</text><text fill="#000000" font-family="sans-serif" font-size="14" lengthAdjust="spacing" textLength="117.0107" x="139" y="742.7764">-fechaExpiracion</text><text fill="#000000" font-family="sans-serif" font-size="14" lengthAdjust="spacing" textLength="107.9941" x="139" y="759.0732">-vistasIncluidas</text><line style="stroke:#181818;stroke-width:0.5;" x1="134" x2="261.0107" y1="766.375" y2="766.375"/></g><!--reverse link Campo to Hoyo--><g class="link" data-entity-1="ent0003" data-entity-2="ent0004" data-link-type="composition" data-source-line="61" id="lnk9"><path codeLine="61" d="M50.5,367.7669 C50.5,393.5469 50.5,413.2469 50.5,439.0069" fill="none" id="Campo-backto-Hoyo" style="stroke:#181818;stroke-width:1;"/><polygon fill="#181818" points="50.5,355.7669,46.5,361.7669,50.5,367.7669,54.5,361.7669,50.5,355.7669" style="stroke:#181818;stroke-width:1;"/><text fill="#000000" font-family="sans-serif" font-size="13" lengthAdjust="spacing" textLength="8.271" x="42.0047" y="375.0845">1</text><text fill="#000000" font-family="sans-serif" font-size="13" lengthAdjust="spacing" textLength="23.0356" x="25.8593" y="428.175">1..*</text></g><!--reverse link Hoyo to Camara--><g class="link" data-entity-1="ent0004" data-entity-2="ent0005" data-link-type="aggregation" data-source-line="62" id="lnk10"><path codeLine="62" d="M50.5,548.5069 C50.5,578.4669 50.5,605.2269 50.5,636.5869" fill="none" id="Hoyo-backto-Camara" style="stroke:#181818;stroke-width:1;"/><polygon fill="none" points="50.5,536.5069,46.5,542.5069,50.5,548.5069,54.5,542.5069,50.5,536.5069" style="stroke:#181818;stroke-width:1;"/><text fill="#000000" font-family="sans-serif" font-size="13" lengthAdjust="spacing" textLength="8.271" x="41.9558" y="556.1433">1</text><text fill="#000000" font-family="sans-serif" font-size="13" lengthAdjust="spacing" textLength="23.0356" x="26.1063" y="625.8248">1..*</text></g><!--link Usuario to SesionCaptura--><g class="link" data-entity-1="ent0002" data-entity-2="ent0006" data-link-type="association" data-source-line="64" id="lnk11"><path codeLine="64" d="M237.46,190.5169 C230.6,210.3269 223.26,231.4869 216.77,250.2069" fill="none" id="Usuario-SesionCaptura" style="stroke:#181818;stroke-width:1;"/><text fill="#000000" font-family="sans-serif" font-size="13" lengthAdjust="spacing" textLength="8.271" x="226.8144" y="210.0413">1</text><text fill="#000000" font-family="sans-serif" font-size="13" lengthAdjust="spacing" textLength="23.0356" x="194.7639" y="239.0587">0..*</text></g><!--link SesionCaptura to Hoyo--><g class="link" data-entity-1="ent0006" data-entity-2="ent0004" data-link-type="association" data-source-line="65" id="lnk12"><path codeLine="65" d="M151.79,363.4569 C130.64,389.2169 105.88,419.3569 86.14,443.3969" fill="none" id="SesionCaptura-Hoyo" style="stroke:#181818;stroke-width:1;"/><text fill="#000000" font-family="sans-serif" font-size="13" lengthAdjust="spacing" textLength="8.271" x="137.4344" y="383.7408">1</text><text fill="#000000" font-family="sans-serif" font-size="13" lengthAdjust="spacing" textLength="8.271" x="94.3055" y="429.7844">1</text></g><!--reverse link SesionCaptura to EventoDetectado--><g class="link" data-entity-1="ent0006" data-entity-2="ent0007" data-link-type="composition" data-source-line="66" id="lnk13"><path codeLine="66" d="M197.5,375.4569 C197.5,394.3369 197.5,403.5769 197.5,423.0469" fill="none" id="SesionCaptura-backto-EventoDetectado" style="stroke:#181818;stroke-width:1;"/><polygon fill="#181818" points="197.5,363.4569,193.5,369.4569,197.5,375.4569,201.5,369.4569,197.5,363.4569" style="stroke:#181818;stroke-width:1;"/><text fill="#000000" font-family="sans-serif" font-size="13" lengthAdjust="spacing" textLength="8.271" x="189.001" y="383.7408">1</text><text fill="#000000" font-family="sans-serif" font-size="13" lengthAdjust="spacing" textLength="23.0356" x="173.223" y="412.1922">0..*</text></g><!--link EventoDetectado to Clip--><g class="link" data-entity-1="ent0007" data-entity-2="ent0008" data-link-type="association" data-source-line="68" id="lnk14"><path codeLine="68" d="M197.5,552.3469 C197.5,571.2369 197.5,592.1869 197.5,611.9969" fill="none" id="EventoDetectado-Clip" style="stroke:#181818;stroke-width:1;"/><text fill="#000000" font-family="sans-serif" font-size="13" lengthAdjust="spacing" textLength="8.271" x="189.0309" y="572.7242">1</text><text fill="#000000" font-family="sans-serif" font-size="13" lengthAdjust="spacing" textLength="24.8066" x="172.4667" y="601.1575">0..1</text></g><!--link Usuario to Clip--><g class="link" data-entity-1="ent0002" data-entity-2="ent0008" data-link-type="association" data-source-line="69" id="lnk15"><path codeLine="69" d="M282.69,190.3569 C303.77,277.9569 328.96,429.3069 291.5,552.2969 C285.06,573.4369 274.24,594.2869 262.19,613.1769" fill="none" id="Usuario-Clip" style="stroke:#181818;stroke-width:1;"/><text fill="#000000" font-family="sans-serif" font-size="13" lengthAdjust="spacing" textLength="8.271" x="276.2657" y="210.1189">1</text><text fill="#000000" font-family="sans-serif" font-size="13" lengthAdjust="spacing" textLength="23.0356" x="270.0484" y="601.2108">0..*</text></g><!--link Hoyo to Clip--><g class="link" data-entity-1="ent0004" data-entity-2="ent0008" data-link-type="association" data-source-line="70" id="lnk16"><path codeLine="70" d="M84.96,536.5069 C101.26,559.0669 121.16,586.6069 139.67,612.2369" fill="none" id="Hoyo-Clip" style="stroke:#181818;stroke-width:1;"/><text fill="#000000" font-family="sans-serif" font-size="13" lengthAdjust="spacing" textLength="8.271" x="81.0464" y="556.1433">1</text><text fill="#000000" font-family="sans-serif" font-size="13" lengthAdjust="spacing" textLength="23.0356" x="110.2798" y="601.1422">0..*</text></g><?plantuml-src TL9TRi8m37xFAI8UaK1mX8aVZLVG3c1I0zRIk4hIRcFQeNQ6NMofsqBRZQSu-UpF_ZudKhIermHd3pde3BMn433ed3Eqh5Hu9LT00WK8Jp5wEfOHTuRTWQwe5xsKS86CtyYTzGbiGAMaHh-44Zon_bHQppHbSZZEZnvRI5um1x8I9UxeqnW_to3t4veBxF5C8VecDrB1NUrNrsS5UV5l5mdB8namnEvUyCmVu_monxP5aZIWJWeVSdjk1iSGamDrMLjtm90whg28vRXSHEqScLQ-tBVaHaGDpwP25tcD4KqD39d8fMmNKM1Hs5dKbCcr0aiPT_QU2DmLUlei5KDIyEP2LM-qbKUuaRVpDU4MAlOKUxcRzuByBRjAUuEmSyQMb44GUvfTJPOJFPtDqZcVJoUo3oLBgG6-0utzIdK_gOPhT27em6GrjBpBNBRiVz7fdMZaib9ZstjzKrIRzc0aWMvAXk-_?></g></svg>