<?plantuml 1.2026.2?><svg xmlns="http://www.w3.org/2000/svg" xmlns:xlink="http://www.w3.org/1999/xlink" contentStyleType="text/css" data-diagram-type="CLASS" height="419px" preserveAspectRatio="none" style="width:2783px;height:419px;background:#FFFFFF;" version="1.1" viewBox="0 0 2783 419" width="2783px" zoomAndPan="magnify"><title>Diagrama de clases controladoras por caso de uso</title><defs/><g><g class="title" data-source-line="1"><text fill="#000000" font-family="sans-serif" font-size="14" font-weight="bold" lengthAdjust="spacing" textLength="397.9609" x="1185.5195" y="22.9951">Diagrama de clases controladoras por caso de uso</text></g><!--cluster Clases vista--><g class="cluster" data-qualified-name="Clases vista" data-source-line="10" id="ent0002"><rect fill="none" height="107" rx="2.5" ry="2.5" style="stroke:#000000;stroke-width:1.5;" width="1857" x="511" y="44.2969"/><text fill="#000000" font-family="sans-serif" font-size="14" font-weight="bold" lengthAdjust="spacing" textLength="93.9531" x="1392.5234" y="59.292">Clases vista</text></g><!--cluster Clases controladoras--><g class="cluster" data-qualified-name="Clases controladoras" data-source-line="22" id="ent0012"><rect fill="none" height="107" rx="2.5" ry="2.5" style="stroke:#000000;stroke-width:1.5;" width="2770" x="7" y="175.2969"/><text fill="#000000" font-family="sans-serif" font-size="14" font-weight="bold" lengthAdjust="spacing" textLength="165.2246" x="1309.3877" y="190.292">Clases controladoras</text></g><!--cluster Clases modelo--><g class="cluster" data-qualified-name="Clases modelo" data-source-line="34" id="ent0022"><rect fill="none" height="107" rx="2.5" ry="2.5" style="stroke:#000000;stroke-width:1.5;" width="781" x="1699" y="306.2969"/><text fill="#000000" font-family="sans-serif" font-size="14" font-weight="bold" lengthAdjust="spacing" textLength="113.6953" x="2032.6523" y="321.292">Clases modelo</text></g><!--class VistaLogin--><g class="entity" data-qualified-name="Clases vista.VistaLogin" data-source-line="11" id="ent0003"><rect fill="#F1F1F1" height="56.2656" rx="2.5" ry="2.5" style="stroke:#181818;stroke-width:0.5;" width="104.8438" x="1401.5" y="79.2969"/><ellipse cx="1416.5" cy="99.4297" fill="#ADD1B2" rx="11" ry="11" style="stroke:#181818;stroke-width:1;"/><path d="M1419.4688,105.0703 Q1418.8906,105.3672 1418.25,105.5078 Q1417.6094,105.6641 1416.9063,105.6641 Q1414.4063,105.6641 1413.0781,104.0234 Q1411.7656,102.3672 1411.7656,99.2422 Q1411.7656,96.1172 1413.0781,94.4609 Q1414.4063,92.8047 1416.9063,92.8047 Q1417.6094,92.8047 1418.25,92.9609 Q1418.9063,93.1172 1419.4688,93.4141 L1419.4688,96.1328 Q1418.8438,95.5547 1418.25,95.2891 Q1417.6563,95.0078 1417.0313,95.0078 Q1415.6875,95.0078 1415,96.0859 Q1414.3125,97.1484 1414.3125,99.2422 Q1414.3125,101.3359 1415,102.4141 Q1415.6875,103.4766 1417.0313,103.4766 Q1417.6563,103.4766 1418.25,103.2109 Q1418.8438,102.9297 1419.4688,102.3516 L1419.4688,105.0703 Z " fill="#000000"/><text fill="#000000" font-family="sans-serif" font-size="12" font-style="italic" lengthAdjust="spacing" textLength="43.5586" x="1445.1426" y="95.4355">&#171;vista&#187;</text><text fill="#000000" font-family="sans-serif" font-size="14" lengthAdjust="spacing" textLength="72.8438" x="1430.5" y="111.2607">VistaLogin</text><line style="stroke:#181818;stroke-width:0.5;" x1="1402.5" x2="1505.3438" y1="119.5625" y2="119.5625"/><line style="stroke:#181818;stroke-width:0.5;" x1="1402.5" x2="1505.3438" y1="127.5625" y2="127.5625"/></g><!--class VistaEscaneoQR--><g class="entity" data-qualified-name="Clases vista.VistaEscaneoQR" data-source-line="12" id="ent0004"><rect fill="#F1F1F1" height="56.2656" rx="2.5" ry="2.5" style="stroke:#181818;stroke-width:0.5;" width="146.0439" x="2206" y="79.2969"/><ellipse cx="2221" cy="99.4297" fill="#ADD1B2" rx="11" ry="11" style="stroke:#181818;stroke-width:1;"/><path d="M2223.9688,105.0703 Q2223.3906,105.3672 2222.75,105.5078 Q2222.1094,105.6641 2221.4063,105.6641 Q2218.9063,105.6641 2217.5781,104.0234 Q2216.2656,102.3672 2216.2656,99.2422 Q2216.2656,96.1172 2217.5781,94.4609 Q2218.9063,92.8047 2221.4063,92.8047 Q2222.1094,92.8047 2222.75,92.9609 Q2223.4063,93.1172 2223.9688,93.4141 L2223.9688,96.1328 Q2223.3438,95.5547 2222.75,95.2891 Q2222.1563,95.0078 2221.5313,95.0078 Q2220.1875,95.0078 2219.5,96.0859 Q2218.8125,97.1484 2218.8125,99.2422 Q2218.8125,101.3359 2219.5,102.4141 Q2220.1875,103.4766 2221.5313,103.4766 Q2222.1563,103.4766 2222.75,103.2109 Q2223.3438,102.9297 2223.9688,102.3516 L2223.9688,105.0703 Z " fill="#000000"/><text fill="#000000" font-family="sans-serif" font-size="12" font-style="italic" lengthAdjust="spacing" textLength="43.5586" x="2270.2427" y="95.4355">&#171;vista&#187;</text><text fill="#000000" font-family="sans-serif" font-size="14" lengthAdjust="spacing" textLength="114.0439" x="2235" y="111.2607">VistaEscaneoQR</text><line style="stroke:#181818;stroke-width:0.5;" x1="2207" x2="2351.0439" y1="119.5625" y2="119.5625"/><line style="stroke:#181818;stroke-width:0.5;" x1="2207" x2="2351.0439" y1="127.5625" y2="127.5625"/></g><!--class VistaListadoClips--><g class="entity" data-qualified-name="Clases vista.VistaListadoClips" data-source-line="13" id="ent0005"><rect fill="#F1F1F1" height="56.2656" rx="2.5" ry="2.5" style="stroke:#181818;stroke-width:0.5;" width="151.0684" x="2019.5" y="79.2969"/><ellipse cx="2034.5" cy="99.4297" fill="#ADD1B2" rx="11" ry="11" style="stroke:#181818;stroke-width:1;"/><path d="M2037.4688,105.0703 Q2036.8906,105.3672 2036.25,105.5078 Q2035.6094,105.6641 2034.9063,105.6641 Q2032.4063,105.6641 2031.0781,104.0234 Q2029.7656,102.3672 2029.7656,99.2422 Q2029.7656,96.1172 2031.0781,94.4609 Q2032.4063,92.8047 2034.9063,92.8047 Q2035.6094,92.8047 2036.25,92.9609 Q2036.9063,93.1172 2037.4688,93.4141 L2037.4688,96.1328 Q2036.8438,95.5547 2036.25,95.2891 Q2035.6563,95.0078 2035.0313,95.0078 Q2033.6875,95.0078 2033,96.0859 Q2032.3125,97.1484 2032.3125,99.2422 Q2032.3125,101.3359 2033,102.4141 Q2033.6875,103.4766 2035.0313,103.4766 Q2035.6563,103.4766 2036.25,103.2109 Q2036.8438,102.9297 2037.4688,102.3516 L2037.4688,105.0703 Z " fill="#000000"/><text fill="#000000" font-family="sans-serif" font-size="12" font-style="italic" lengthAdjust="spacing" textLength="43.5586" x="2086.2549" y="95.4355">&#171;vista&#187;</text><text fill="#000000" font-family="sans-serif" font-size="14" lengthAdjust="spacing" textLength="119.0684" x="2048.5" y="111.2607">VistaListadoClips</text><line style="stroke:#181818;stroke-width:0.5;" x1="2020.5" x2="2169.5684" y1="119.5625" y2="119.5625"/><line style="stroke:#181818;stroke-width:0.5;" x1="2020.5" x2="2169.5684" y1="127.5625" y2="127.5625"/></g><!--class VistaDetalleClip--><g class="entity" data-qualified-name="Clases vista.VistaDetalleClip" data-source-line="14" id="ent0006"><rect fill="#F1F1F1" height="56.2656" rx="2.5" ry="2.5" style="stroke:#181818;stroke-width:0.5;" width="143.125" x="977.5" y="79.2969"/><ellipse cx="992.5" cy="99.4297" fill="#ADD1B2" rx="11" ry="11" style="stroke:#181818;stroke-width:1;"/><path d="M995.4688,105.0703 Q994.8906,105.3672 994.25,105.5078 Q993.6094,105.6641 992.9063,105.6641 Q990.4063,105.6641 989.0781,104.0234 Q987.7656,102.3672 987.7656,99.2422 Q987.7656,96.1172 989.0781,94.4609 Q990.4063,92.8047 992.9063,92.8047 Q993.6094,92.8047 994.25,92.9609 Q994.9063,93.1172 995.4688,93.4141 L995.4688,96.1328 Q994.8438,95.5547 994.25,95.2891 Q993.6563,95.0078 993.0313,95.0078 Q991.6875,95.0078 991,96.0859 Q990.3125,97.1484 990.3125,99.2422 Q990.3125,101.3359 991,102.4141 Q991.6875,103.4766 993.0313,103.4766 Q993.6563,103.4766 994.25,103.2109 Q994.8438,102.9297 995.4688,102.3516 L995.4688,105.0703 Z " fill="#000000"/><text fill="#000000" font-family="sans-serif" font-size="12" font-style="italic" lengthAdjust="spacing" textLength="43.5586" x="1040.2832" y="95.4355">&#171;vista&#187;</text><text fill="#000000" font-family="sans-serif" font-size="14" lengthAdjust="spacing" textLength="111.125" x="1006.5" y="111.2607">VistaDetalleClip</text><line style="stroke:#181818;stroke-width:0.5;" x1="978.5" x2="1119.625" y1="119.5625" y2="119.5625"/><line style="stroke:#181818;stroke-width:0.5;" x1="978.5" x2="1119.625" y1="127.5625" y2="127.5625"/></g><!--class VistaEstadisticasPersonales--><g class="entity" data-qualified-name="Clases vista.VistaEstadisticasPersonales" data-source-line="15" id="ent0007"><rect fill="#F1F1F1" height="56.2656" rx="2.5" ry="2.5" style="stroke:#181818;stroke-width:0.5;" width="225.9766" x="716" y="79.2969"/><ellipse cx="731" cy="99.4297" fill="#ADD1B2" rx="11" ry="11" style="stroke:#181818;stroke-width:1;"/><path d="M733.9688,105.0703 Q733.3906,105.3672 732.75,105.5078 Q732.1094,105.6641 731.4063,105.6641 Q728.9063,105.6641 727.5781,104.0234 Q726.2656,102.3672 726.2656,99.2422 Q726.2656,96.1172 727.5781,94.4609 Q728.9063,92.8047 731.4063,92.8047 Q732.1094,92.8047 732.75,92.9609 Q733.4063,93.1172 733.9688,93.4141 L733.9688,96.1328 Q733.3438,95.5547 732.75,95.2891 Q732.1563,95.0078 731.5313,95.0078 Q730.1875,95.0078 729.5,96.0859 Q728.8125,97.1484 728.8125,99.2422 Q728.8125,101.3359 729.5,102.4141 Q730.1875,103.4766 731.5313,103.4766 Q732.1563,103.4766 732.75,103.2109 Q733.3438,102.9297 733.9688,102.3516 L733.9688,105.0703 Z " fill="#000000"/><text fill="#000000" font-family="sans-serif" font-size="12" font-style="italic" lengthAdjust="spacing" textLength="43.5586" x="820.209" y="95.4355">&#171;vista&#187;</text><text fill="#000000" font-family="sans-serif" font-size="14" lengthAdjust="spacing" textLength="193.9766" x="745" y="111.2607">VistaEstadisticasPersonales</text><line style="stroke:#181818;stroke-width:0.5;" x1="717" x2="940.9766" y1="119.5625" y2="119.5625"/><line style="stroke:#181818;stroke-width:0.5;" x1="717" x2="940.9766" y1="127.5625" y2="127.5625"/></g><!--class VistaGestionClips--><g class="entity" data-qualified-name="Clases vista.VistaGestionClips" data-source-line="16" id="ent0008"><rect fill="#F1F1F1" height="56.2656" rx="2.5" ry="2.5" style="stroke:#181818;stroke-width:0.5;" width="154.1377" x="527" y="79.2969"/><ellipse cx="542" cy="99.4297" fill="#ADD1B2" rx="11" ry="11" style="stroke:#181818;stroke-width:1;"/><path d="M544.9688,105.0703 Q544.3906,105.3672 543.75,105.5078 Q543.1094,105.6641 542.4063,105.6641 Q539.9063,105.6641 538.5781,104.0234 Q537.2656,102.3672 537.2656,99.2422 Q537.2656,96.1172 538.5781,94.4609 Q539.9063,92.8047 542.4063,92.8047 Q543.1094,92.8047 543.75,92.9609 Q544.4063,93.1172 544.9688,93.4141 L544.9688,96.1328 Q544.3438,95.5547 543.75,95.2891 Q543.1563,95.0078 542.5313,95.0078 Q541.1875,95.0078 540.5,96.0859 Q539.8125,97.1484 539.8125,99.2422 Q539.8125,101.3359 540.5,102.4141 Q541.1875,103.4766 542.5313,103.4766 Q543.1563,103.4766 543.75,103.2109 Q544.3438,102.9297 544.9688,102.3516 L544.9688,105.0703 Z " fill="#000000"/><text fill="#000000" font-family="sans-serif" font-size="12" font-style="italic" lengthAdjust="spacing" textLength="43.5586" x="595.2896" y="95.4355">&#171;vista&#187;</text><text fill="#000000" font-family="sans-serif" font-size="14" lengthAdjust="spacing" textLength="122.1377" x="556" y="111.2607">VistaGestionClips</text><line style="stroke:#181818;stroke-width:0.5;" x1="528" x2="680.1377" y1="119.5625" y2="119.5625"/><line style="stroke:#181818;stroke-width:0.5;" x1="528" x2="680.1377" y1="127.5625" y2="127.5625"/></g><!--class VistaUsuariosAdministrador--><g class="entity" data-qualified-name="Clases vista.VistaUsuariosAdministrador" data-source-line="17" id="ent0009"><rect fill="#F1F1F1" height="56.2656" rx="2.5" ry="2.5" style="stroke:#181818;stroke-width:0.5;" width="226.4072" x="1542" y="79.2969"/><ellipse cx="1557" cy="99.4297" fill="#ADD1B2" rx="11" ry="11" style="stroke:#181818;stroke-width:1;"/><path d="M1559.9688,105.0703 Q1559.3906,105.3672 1558.75,105.5078 Q1558.1094,105.6641 1557.4063,105.6641 Q1554.9063,105.6641 1553.5781,104.0234 Q1552.2656,102.3672 1552.2656,99.2422 Q1552.2656,96.1172 1553.5781,94.4609 Q1554.9063,92.8047 1557.4063,92.8047 Q1558.1094,92.8047 1558.75,92.9609 Q1559.4063,93.1172 1559.9688,93.4141 L1559.9688,96.1328 Q1559.3438,95.5547 1558.75,95.2891 Q1558.1563,95.0078 1557.5313,95.0078 Q1556.1875,95.0078 1555.5,96.0859 Q1554.8125,97.1484 1554.8125,99.2422 Q1554.8125,101.3359 1555.5,102.4141 Q1556.1875,103.4766 1557.5313,103.4766 Q1558.1563,103.4766 1558.75,103.2109 Q1559.3438,102.9297 1559.9688,102.3516 L1559.9688,105.0703 Z " fill="#000000"/><text fill="#000000" font-family="sans-serif" font-size="12" font-style="italic" lengthAdjust="spacing" textLength="43.5586" x="1646.4243" y="95.4355">&#171;vista&#187;</text><text fill="#000000" font-family="sans-serif" font-size="14" lengthAdjust="spacing" textLength="194.4072" x="1571" y="111.2607">VistaUsuariosAdministrador</text><line style="stroke:#181818;stroke-width:0.5;" x1="1543" x2="1767.4072" y1="119.5625" y2="119.5625"/><line style="stroke:#181818;stroke-width:0.5;" x1="1543" x2="1767.4072" y1="127.5625" y2="127.5625"/></g><!--class VistaGestionUsuarios--><g class="entity" data-qualified-name="Clases vista.VistaGestionUsuarios" data-source-line="18" id="ent0010"><rect fill="#F1F1F1" height="56.2656" rx="2.5" ry="2.5" style="stroke:#181818;stroke-width:0.5;" width="180.9004" x="1803.5" y="79.2969"/><ellipse cx="1818.5" cy="99.4297" fill="#ADD1B2" rx="11" ry="11" style="stroke:#181818;stroke-width:1;"/><path d="M1821.4688,105.0703 Q1820.8906,105.3672 1820.25,105.5078 Q1819.6094,105.6641 1818.9063,105.6641 Q1816.4063,105.6641 1815.0781,104.0234 Q1813.7656,102.3672 1813.7656,99.2422 Q1813.7656,96.1172 1815.0781,94.4609 Q1816.4063,92.8047 1818.9063,92.8047 Q1819.6094,92.8047 1820.25,92.9609 Q1820.9063,93.1172 1821.4688,93.4141 L1821.4688,96.1328 Q1820.8438,95.5547 1820.25,95.2891 Q1819.6563,95.0078 1819.0313,95.0078 Q1817.6875,95.0078 1817,96.0859 Q1816.3125,97.1484 1816.3125,99.2422 Q1816.3125,101.3359 1817,102.4141 Q1817.6875,103.4766 1819.0313,103.4766 Q1819.6563,103.4766 1820.25,103.2109 Q1820.8438,102.9297 1821.4688,102.3516 L1821.4688,105.0703 Z " fill="#000000"/><text fill="#000000" font-family="sans-serif" font-size="12" font-style="italic" lengthAdjust="spacing" textLength="43.5586" x="1885.1709" y="95.4355">&#171;vista&#187;</text><text fill="#000000" font-family="sans-serif" font-size="14" lengthAdjust="spacing" textLength="148.9004" x="1832.5" y="111.2607">VistaGestionUsuarios</text><line style="stroke:#181818;stroke-width:0.5;" x1="1804.5" x2="1983.4004" y1="119.5625" y2="119.5625"/><line style="stroke:#181818;stroke-width:0.5;" x1="1804.5" x2="1983.4004" y1="127.5625" y2="127.5625"/></g><!--class VistaEstadisticasGlobales--><g class="entity" data-qualified-name="Clases vista.VistaEstadisticasGlobales" data-source-line="19" id="ent0011"><rect fill="#F1F1F1" height="56.2656" rx="2.5" ry="2.5" style="stroke:#181818;stroke-width:0.5;" width="210.623" x="1155.5" y="79.2969"/><ellipse cx="1170.5" cy="99.4297" fill="#ADD1B2" rx="11" ry="11" style="stroke:#181818;stroke-width:1;"/><path d="M1173.4688,105.0703 Q1172.8906,105.3672 1172.25,105.5078 Q1171.6094,105.6641 1170.9063,105.6641 Q1168.4063,105.6641 1167.0781,104.0234 Q1165.7656,102.3672 1165.7656,99.2422 Q1165.7656,96.1172 1167.0781,94.4609 Q1168.4063,92.8047 1170.9063,92.8047 Q1171.6094,92.8047 1172.25,92.9609 Q1172.9063,93.1172 1173.4688,93.4141 L1173.4688,96.1328 Q1172.8438,95.5547 1172.25,95.2891 Q1171.6563,95.0078 1171.0313,95.0078 Q1169.6875,95.0078 1169,96.0859 Q1168.3125,97.1484 1168.3125,99.2422 Q1168.3125,101.3359 1169,102.4141 Q1169.6875,103.4766 1171.0313,103.4766 Q1171.6563,103.4766 1172.25,103.2109 Q1172.8438,102.9297 1173.4688,102.3516 L1173.4688,105.0703 Z " fill="#000000"/><text fill="#000000" font-family="sans-serif" font-size="12" font-style="italic" lengthAdjust="spacing" textLength="43.5586" x="1252.0322" y="95.4355">&#171;vista&#187;</text><text fill="#000000" font-family="sans-serif" font-size="14" lengthAdjust="spacing" textLength="178.623" x="1184.5" y="111.2607">VistaEstadisticasGlobales</text><line style="stroke:#181818;stroke-width:0.5;" x1="1156.5" x2="1365.123" y1="119.5625" y2="119.5625"/><line style="stroke:#181818;stroke-width:0.5;" x1="1156.5" x2="1365.123" y1="127.5625" y2="127.5625"/></g><!--class ControladorLogin--><g class="entity" data-qualified-name="Clases controladoras.ControladorLogin" data-source-line="23" id="ent0013"><rect fill="#F1F1F1" height="56.2656" rx="2.5" ry="2.5" style="stroke:#181818;stroke-width:0.5;" width="152.7158" x="1377.5" y="210.2969"/><ellipse cx="1392.5" cy="230.4297" fill="#ADD1B2" rx="11" ry="11" style="stroke:#181818;stroke-width:1;"/><path d="M1395.4688,236.0703 Q1394.8906,236.3672 1394.25,236.5078 Q1393.6094,236.6641 1392.9063,236.6641 Q1390.4063,236.6641 1389.0781,235.0234 Q1387.7656,233.3672 1387.7656,230.2422 Q1387.7656,227.1172 1389.0781,225.4609 Q1390.4063,223.8047 1392.9063,223.8047 Q1393.6094,223.8047 1394.25,223.9609 Q1394.9063,224.1172 1395.4688,224.4141 L1395.4688,227.1328 Q1394.8438,226.5547 1394.25,226.2891 Q1393.6563,226.0078 1393.0313,226.0078 Q1391.6875,226.0078 1391,227.0859 Q1390.3125,228.1484 1390.3125,230.2422 Q1390.3125,232.3359 1391,233.4141 Q1391.6875,234.4766 1393.0313,234.4766 Q1393.6563,234.4766 1394.25,234.2109 Q1394.8438,233.9297 1395.4688,233.3516 L1395.4688,236.0703 Z " fill="#000000"/><text fill="#000000" font-family="sans-serif" font-size="12" font-style="italic" lengthAdjust="spacing" textLength="83.918" x="1424.8989" y="226.4355">&#171;controlador&#187;</text><text fill="#000000" font-family="sans-serif" font-size="14" lengthAdjust="spacing" textLength="120.7158" x="1406.5" y="242.2607">ControladorLogin</text><line style="stroke:#181818;stroke-width:0.5;" x1="1378.5" x2="1529.2158" y1="250.5625" y2="250.5625"/><line style="stroke:#181818;stroke-width:0.5;" x1="1378.5" x2="1529.2158" y1="258.5625" y2="258.5625"/></g><!--class ControladorEscanearQR--><g class="entity" data-qualified-name="Clases controladoras.ControladorEscanearQR" data-source-line="24" id="ent0014"><rect fill="#F1F1F1" height="56.2656" rx="2.5" ry="2.5" style="stroke:#181818;stroke-width:0.5;" width="199.6855" x="2561" y="210.2969"/><ellipse cx="2576" cy="230.4297" fill="#ADD1B2" rx="11" ry="11" style="stroke:#181818;stroke-width:1;"/><path d="M2578.9688,236.0703 Q2578.3906,236.3672 2577.75,236.5078 Q2577.1094,236.6641 2576.4063,236.6641 Q2573.9063,236.6641 2572.5781,235.0234 Q2571.2656,233.3672 2571.2656,230.2422 Q2571.2656,227.1172 2572.5781,225.4609 Q2573.9063,223.8047 2576.4063,223.8047 Q2577.1094,223.8047 2577.75,223.9609 Q2578.4063,224.1172 2578.9688,224.4141 L2578.9688,227.1328 Q2578.3438,226.5547 2577.75,226.2891 Q2577.1563,226.0078 2576.5313,226.0078 Q2575.1875,226.0078 2574.5,227.0859 Q2573.8125,228.1484 2573.8125,230.2422 Q2573.8125,232.3359 2574.5,233.4141 Q2575.1875,234.4766 2576.5313,234.4766 Q2577.1563,234.4766 2577.75,234.2109 Q2578.3438,233.9297 2578.9688,233.3516 L2578.9688,236.0703 Z " fill="#000000"/><text fill="#000000" font-family="sans-serif" font-size="12" font-style="italic" lengthAdjust="spacing" textLength="83.918" x="2631.8838" y="226.4355">&#171;controlador&#187;</text><text fill="#000000" font-family="sans-serif" font-size="14" lengthAdjust="spacing" textLength="167.6855" x="2590" y="242.2607">ControladorEscanearQR</text><line style="stroke:#181818;stroke-width:0.5;" x1="2562" x2="2759.6855" y1="250.5625" y2="250.5625"/><line style="stroke:#181818;stroke-width:0.5;" x1="2562" x2="2759.6855" y1="258.5625" y2="258.5625"/></g><!--class ControladorConsultarClipsGenerados--><g class="entity" data-qualified-name="Clases controladoras.ControladorConsultarClipsGenerados" data-source-line="25" id="ent0015"><rect fill="#F1F1F1" height="56.2656" rx="2.5" ry="2.5" style="stroke:#181818;stroke-width:0.5;" width="291.5605" x="2234" y="210.2969"/><ellipse cx="2249" cy="230.4297" fill="#ADD1B2" rx="11" ry="11" style="stroke:#181818;stroke-width:1;"/><path d="M2251.9688,236.0703 Q2251.3906,236.3672 2250.75,236.5078 Q2250.1094,236.6641 2249.4063,236.6641 Q2246.9063,236.6641 2245.5781,235.0234 Q2244.2656,233.3672 2244.2656,230.2422 Q2244.2656,227.1172 2245.5781,225.4609 Q2246.9063,223.8047 2249.4063,223.8047 Q2250.1094,223.8047 2250.75,223.9609 Q2251.4063,224.1172 2251.9688,224.4141 L2251.9688,227.1328 Q2251.3438,226.5547 2250.75,226.2891 Q2250.1563,226.0078 2249.5313,226.0078 Q2248.1875,226.0078 2247.5,227.0859 Q2246.8125,228.1484 2246.8125,230.2422 Q2246.8125,232.3359 2247.5,233.4141 Q2248.1875,234.4766 2249.5313,234.4766 Q2250.1563,234.4766 2250.75,234.2109 Q2251.3438,233.9297 2251.9688,233.3516 L2251.9688,236.0703 Z " fill="#000000"/><text fill="#000000" font-family="sans-serif" font-size="12" font-style="italic" lengthAdjust="spacing" textLength="83.918" x="2350.8213" y="226.4355">&#171;controlador&#187;</text><text fill="#000000" font-family="sans-serif" font-size="14" lengthAdjust="spacing" textLength="259.5605" x="2263" y="242.2607">ControladorConsultarClipsGenerados</text><line style="stroke:#181818;stroke-width:0.5;" x1="2235" x2="2524.5605" y1="250.5625" y2="250.5625"/><line style="stroke:#181818;stroke-width:0.5;" x1="2235" x2="2524.5605" y1="258.5625" y2="258.5625"/></g><!--class ControladorMarcarClipFavorito--><g class="entity" data-qualified-name="Clases controladoras.ControladorMarcarClipFavorito" data-source-line="26" id="ent0016"><rect fill="#F1F1F1" height="56.2656" rx="2.5" ry="2.5" style="stroke:#181818;stroke-width:0.5;" width="246.7715" x="733.5" y="210.2969"/><ellipse cx="748.5" cy="230.4297" fill="#ADD1B2" rx="11" ry="11" style="stroke:#181818;stroke-width:1;"/><path d="M751.4688,236.0703 Q750.8906,236.3672 750.25,236.5078 Q749.6094,236.6641 748.9063,236.6641 Q746.4063,236.6641 745.0781,235.0234 Q743.7656,233.3672 743.7656,230.2422 Q743.7656,227.1172 745.0781,225.4609 Q746.4063,223.8047 748.9063,223.8047 Q749.6094,223.8047 750.25,223.9609 Q750.9063,224.1172 751.4688,224.4141 L751.4688,227.1328 Q750.8438,226.5547 750.25,226.2891 Q749.6563,226.0078 749.0313,226.0078 Q747.6875,226.0078 747,227.0859 Q746.3125,228.1484 746.3125,230.2422 Q746.3125,232.3359 747,233.4141 Q747.6875,234.4766 749.0313,234.4766 Q749.6563,234.4766 750.25,234.2109 Q750.8438,233.9297 751.4688,233.3516 L751.4688,236.0703 Z " fill="#000000"/><text fill="#000000" font-family="sans-serif" font-size="12" font-style="italic" lengthAdjust="spacing" textLength="83.918" x="827.9268" y="226.4355">&#171;controlador&#187;</text><text fill="#000000" font-family="sans-serif" font-size="14" lengthAdjust="spacing" textLength="214.7715" x="762.5" y="242.2607">ControladorMarcarClipFavorito</text><line style="stroke:#181818;stroke-width:0.5;" x1="734.5" x2="979.2715" y1="250.5625" y2="250.5625"/><line style="stroke:#181818;stroke-width:0.5;" x1="734.5" x2="979.2715" y1="258.5625" y2="258.5625"/></g><!--class ControladorConsultarEstadisticasPersonales--><g class="entity" data-qualified-name="Clases controladoras.ControladorConsultarEstadisticasPersonales" data-source-line="27" id="ent0017"><rect fill="#F1F1F1" height="56.2656" rx="2.5" ry="2.5" style="stroke:#181818;stroke-width:0.5;" width="340.9434" x="357.5" y="210.2969"/><ellipse cx="372.5" cy="230.4297" fill="#ADD1B2" rx="11" ry="11" style="stroke:#181818;stroke-width:1;"/><path d="M375.4688,236.0703 Q374.8906,236.3672 374.25,236.5078 Q373.6094,236.6641 372.9063,236.6641 Q370.4063,236.6641 369.0781,235.0234 Q367.7656,233.3672 367.7656,230.2422 Q367.7656,227.1172 369.0781,225.4609 Q370.4063,223.8047 372.9063,223.8047 Q373.6094,223.8047 374.25,223.9609 Q374.9063,224.1172 375.4688,224.4141 L375.4688,227.1328 Q374.8438,226.5547 374.25,226.2891 Q373.6563,226.0078 373.0313,226.0078 Q371.6875,226.0078 371,227.0859 Q370.3125,228.1484 370.3125,230.2422 Q370.3125,232.3359 371,233.4141 Q371.6875,234.4766 373.0313,234.4766 Q373.6563,234.4766 374.25,234.2109 Q374.8438,233.9297 375.4688,233.3516 L375.4688,236.0703 Z " fill="#000000"/><text fill="#000000" font-family="sans-serif" font-size="12" font-style="italic" lengthAdjust="spacing" textLength="83.918" x="499.0127" y="226.4355">&#171;controlador&#187;</text><text fill="#000000" font-family="sans-serif" font-size="14" lengthAdjust="spacing" textLength="308.9434" x="386.5" y="242.2607">ControladorConsultarEstadisticasPersonales</text><line style="stroke:#181818;stroke-width:0.5;" x1="358.5" x2="697.4434" y1="250.5625" y2="250.5625"/><line style="stroke:#181818;stroke-width:0.5;" x1="358.5" x2="697.4434" y1="258.5625" y2="258.5625"/></g><!--class ControladorGestionarClipsRegistrados--><g class="entity" data-qualified-name="Clases controladoras.ControladorGestionarClipsRegistrados" data-source-line="28" id="ent0018"><rect fill="#F1F1F1" height="56.2656" rx="2.5" ry="2.5" style="stroke:#181818;stroke-width:0.5;" width="299.3262" x="23.5" y="210.2969"/><ellipse cx="38.5" cy="230.4297" fill="#ADD1B2" rx="11" ry="11" style="stroke:#181818;stroke-width:1;"/><path d="M41.4688,236.0703 Q40.8906,236.3672 40.25,236.5078 Q39.6094,236.6641 38.9063,236.6641 Q36.4063,236.6641 35.0781,235.0234 Q33.7656,233.3672 33.7656,230.2422 Q33.7656,227.1172 35.0781,225.4609 Q36.4063,223.8047 38.9063,223.8047 Q39.6094,223.8047 40.25,223.9609 Q40.9063,224.1172 41.4688,224.4141 L41.4688,227.1328 Q40.8438,226.5547 40.25,226.2891 Q39.6563,226.0078 39.0313,226.0078 Q37.6875,226.0078 37,227.0859 Q36.3125,228.1484 36.3125,230.2422 Q36.3125,232.3359 37,233.4141 Q37.6875,234.4766 39.0313,234.4766 Q39.6563,234.4766 40.25,234.2109 Q40.8438,233.9297 41.4688,233.3516 L41.4688,236.0703 Z " fill="#000000"/><text fill="#000000" font-family="sans-serif" font-size="12" font-style="italic" lengthAdjust="spacing" textLength="83.918" x="144.2041" y="226.4355">&#171;controlador&#187;</text><text fill="#000000" font-family="sans-serif" font-size="14" lengthAdjust="spacing" textLength="267.3262" x="52.5" y="242.2607">ControladorGestionarClipsRegistrados</text><line style="stroke:#181818;stroke-width:0.5;" x1="24.5" x2="321.8262" y1="250.5625" y2="250.5625"/><line style="stroke:#181818;stroke-width:0.5;" x1="24.5" x2="321.8262" y1="258.5625" y2="258.5625"/></g><!--class ControladorConsultarUsuariosSistema--><g class="entity" data-qualified-name="Clases controladoras.ControladorConsultarUsuariosSistema" data-source-line="29" id="ent0019"><rect fill="#F1F1F1" height="56.2656" rx="2.5" ry="2.5" style="stroke:#181818;stroke-width:0.5;" width="298.6836" x="1565.5" y="210.2969"/><ellipse cx="1580.5" cy="230.4297" fill="#ADD1B2" rx="11" ry="11" style="stroke:#181818;stroke-width:1;"/><path d="M1583.4688,236.0703 Q1582.8906,236.3672 1582.25,236.5078 Q1581.6094,236.6641 1580.9063,236.6641 Q1578.4063,236.6641 1577.0781,235.0234 Q1575.7656,233.3672 1575.7656,230.2422 Q1575.7656,227.1172 1577.0781,225.4609 Q1578.4063,223.8047 1580.9063,223.8047 Q1581.6094,223.8047 1582.25,223.9609 Q1582.9063,224.1172 1583.4688,224.4141 L1583.4688,227.1328 Q1582.8438,226.5547 1582.25,226.2891 Q1581.6563,226.0078 1581.0313,226.0078 Q1579.6875,226.0078 1579,227.0859 Q1578.3125,228.1484 1578.3125,230.2422 Q1578.3125,232.3359 1579,233.4141 Q1579.6875,234.4766 1581.0313,234.4766 Q1581.6563,234.4766 1582.25,234.2109 Q1582.8438,233.9297 1583.4688,233.3516 L1583.4688,236.0703 Z " fill="#000000"/><text fill="#000000" font-family="sans-serif" font-size="12" font-style="italic" lengthAdjust="spacing" textLength="83.918" x="1685.8828" y="226.4355">&#171;controlador&#187;</text><text fill="#000000" font-family="sans-serif" font-size="14" lengthAdjust="spacing" textLength="266.6836" x="1594.5" y="242.2607">ControladorConsultarUsuariosSistema</text><line style="stroke:#181818;stroke-width:0.5;" x1="1566.5" x2="1863.1836" y1="250.5625" y2="250.5625"/><line style="stroke:#181818;stroke-width:0.5;" x1="1566.5" x2="1863.1836" y1="258.5625" y2="258.5625"/></g><!--class ControladorGestionarUsuariosSistema--><g class="entity" data-qualified-name="Clases controladoras.ControladorGestionarUsuariosSistema" data-source-line="30" id="ent0020"><rect fill="#F1F1F1" height="56.2656" rx="2.5" ry="2.5" style="stroke:#181818;stroke-width:0.5;" width="299.4971" x="1899.5" y="210.2969"/><ellipse cx="1914.5" cy="230.4297" fill="#ADD1B2" rx="11" ry="11" style="stroke:#181818;stroke-width:1;"/><path d="M1917.4688,236.0703 Q1916.8906,236.3672 1916.25,236.5078 Q1915.6094,236.6641 1914.9063,236.6641 Q1912.4063,236.6641 1911.0781,235.0234 Q1909.7656,233.3672 1909.7656,230.2422 Q1909.7656,227.1172 1911.0781,225.4609 Q1912.4063,223.8047 1914.9063,223.8047 Q1915.6094,223.8047 1916.25,223.9609 Q1916.9063,224.1172 1917.4688,224.4141 L1917.4688,227.1328 Q1916.8438,226.5547 1916.25,226.2891 Q1915.6563,226.0078 1915.0313,226.0078 Q1913.6875,226.0078 1913,227.0859 Q1912.3125,228.1484 1912.3125,230.2422 Q1912.3125,232.3359 1913,233.4141 Q1913.6875,234.4766 1915.0313,234.4766 Q1915.6563,234.4766 1916.25,234.2109 Q1916.8438,233.9297 1917.4688,233.3516 L1917.4688,236.0703 Z " fill="#000000"/><text fill="#000000" font-family="sans-serif" font-size="12" font-style="italic" lengthAdjust="spacing" textLength="83.918" x="2020.2896" y="226.4355">&#171;controlador&#187;</text><text fill="#000000" font-family="sans-serif" font-size="14" lengthAdjust="spacing" textLength="267.4971" x="1928.5" y="242.2607">ControladorGestionarUsuariosSistema</text><line style="stroke:#181818;stroke-width:0.5;" x1="1900.5" x2="2197.9971" y1="250.5625" y2="250.5625"/><line style="stroke:#181818;stroke-width:0.5;" x1="1900.5" x2="2197.9971" y1="258.5625" y2="258.5625"/></g><!--class ControladorConsultarEstadisticasGlobales--><g class="entity" data-qualified-name="Clases controladoras.ControladorConsultarEstadisticasGlobales" data-source-line="31" id="ent0021"><rect fill="#F1F1F1" height="56.2656" rx="2.5" ry="2.5" style="stroke:#181818;stroke-width:0.5;" width="325.5898" x="1016" y="210.2969"/><ellipse cx="1031" cy="230.4297" fill="#ADD1B2" rx="11" ry="11" style="stroke:#181818;stroke-width:1;"/><path d="M1033.9688,236.0703 Q1033.3906,236.3672 1032.75,236.5078 Q1032.1094,236.6641 1031.4063,236.6641 Q1028.9063,236.6641 1027.5781,235.0234 Q1026.2656,233.3672 1026.2656,230.2422 Q1026.2656,227.1172 1027.5781,225.4609 Q1028.9063,223.8047 1031.4063,223.8047 Q1032.1094,223.8047 1032.75,223.9609 Q1033.4063,224.1172 1033.9688,224.4141 L1033.9688,227.1328 Q1033.3438,226.5547 1032.75,226.2891 Q1032.1563,226.0078 1031.5313,226.0078 Q1030.1875,226.0078 1029.5,227.0859 Q1028.8125,228.1484 1028.8125,230.2422 Q1028.8125,232.3359 1029.5,233.4141 Q1030.1875,234.4766 1031.5313,234.4766 Q1032.1563,234.4766 1032.75,234.2109 Q1033.3438,233.9297 1033.9688,233.3516 L1033.9688,236.0703 Z " fill="#000000"/><text fill="#000000" font-family="sans-serif" font-size="12" font-style="italic" lengthAdjust="spacing" textLength="83.918" x="1149.8359" y="226.4355">&#171;controlador&#187;</text><text fill="#000000" font-family="sans-serif" font-size="14" lengthAdjust="spacing" textLength="293.5898" x="1045" y="242.2607">ControladorConsultarEstadisticasGlobales</text><line style="stroke:#181818;stroke-width:0.5;" x1="1017" x2="1340.5898" y1="250.5625" y2="250.5625"/><line style="stroke:#181818;stroke-width:0.5;" x1="1017" x2="1340.5898" y1="258.5625" y2="258.5625"/></g><!--class Usuario--><g class="entity" data-qualified-name="Clases modelo.Usuario" data-source-line="35" id="ent0023"><rect fill="#F1F1F1" height="56.2656" rx="2.5" ry="2.5" style="stroke:#181818;stroke-width:0.5;" width="87.5195" x="1838" y="341.2969"/><ellipse cx="1853" cy="361.4297" fill="#ADD1B2" rx="11" ry="11" style="stroke:#181818;stroke-width:1;"/><path d="M1855.9688,367.0703 Q1855.3906,367.3672 1854.75,367.5078 Q1854.1094,367.6641 1853.4063,367.6641 Q1850.9063,367.6641 1849.5781,366.0234 Q1848.2656,364.3672 1848.2656,361.2422 Q1848.2656,358.1172 1849.5781,356.4609 Q1850.9063,354.8047 1853.4063,354.8047 Q1854.1094,354.8047 1854.75,354.9609 Q1855.4063,355.1172 1855.9688,355.4141 L1855.9688,358.1328 Q1855.3438,357.5547 1854.75,357.2891 Q1854.1563,357.0078 1853.5313,357.0078 Q1852.1875,357.0078 1851.5,358.0859 Q1850.8125,359.1484 1850.8125,361.2422 Q1850.8125,363.3359 1851.5,364.4141 Q1852.1875,365.4766 1853.5313,365.4766 Q1854.1563,365.4766 1854.75,365.2109 Q1855.3438,364.9297 1855.9688,364.3516 L1855.9688,367.0703 Z " fill="#000000"/><text fill="#000000" font-family="sans-serif" font-size="12" font-style="italic" lengthAdjust="spacing" textLength="59.5195" x="1865" y="357.4355">&#171;modelo&#187;</text><text fill="#000000" font-family="sans-serif" font-size="14" lengthAdjust="spacing" textLength="53.2041" x="1868.1577" y="373.2607">Usuario</text><line style="stroke:#181818;stroke-width:0.5;" x1="1839" x2="1924.5195" y1="381.5625" y2="381.5625"/><line style="stroke:#181818;stroke-width:0.5;" x1="1839" x2="1924.5195" y1="389.5625" y2="389.5625"/></g><!--class Campo--><g class="entity" data-qualified-name="Clases modelo.Campo" data-source-line="36" id="ent0024"><rect fill="#F1F1F1" height="56.2656" rx="2.5" ry="2.5" style="stroke:#181818;stroke-width:0.5;" width="87.5195" x="2084" y="341.2969"/><ellipse cx="2099" cy="361.4297" fill="#ADD1B2" rx="11" ry="11" style="stroke:#181818;stroke-width:1;"/><path d="M2101.9688,367.0703 Q2101.3906,367.3672 2100.75,367.5078 Q2100.1094,367.6641 2099.4063,367.6641 Q2096.9063,367.6641 2095.5781,366.0234 Q2094.2656,364.3672 2094.2656,361.2422 Q2094.2656,358.1172 2095.5781,356.4609 Q2096.9063,354.8047 2099.4063,354.8047 Q2100.1094,354.8047 2100.75,354.9609 Q2101.4063,355.1172 2101.9688,355.4141 L2101.9688,358.1328 Q2101.3438,357.5547 2100.75,357.2891 Q2100.1563,357.0078 2099.5313,357.0078 Q2098.1875,357.0078 2097.5,358.0859 Q2096.8125,359.1484 2096.8125,361.2422 Q2096.8125,363.3359 2097.5,364.4141 Q2098.1875,365.4766 2099.5313,365.4766 Q2100.1563,365.4766 2100.75,365.2109 Q2101.3438,364.9297 2101.9688,364.3516 L2101.9688,367.0703 Z " fill="#000000"/><text fill="#000000" font-family="sans-serif" font-size="12" font-style="italic" lengthAdjust="spacing" textLength="59.5195" x="2111" y="357.4355">&#171;modelo&#187;</text><text fill="#000000" font-family="sans-serif" font-size="14" lengthAdjust="spacing" textLength="49.4443" x="2116.0376" y="373.2607">Campo</text><line style="stroke:#181818;stroke-width:0.5;" x1="2085" x2="2170.5195" y1="381.5625" y2="381.5625"/><line style="stroke:#181818;stroke-width:0.5;" x1="2085" x2="2170.5195" y1="389.5625" y2="389.5625"/></g><!--class Hoyo--><g class="entity" data-qualified-name="Clases modelo.Hoyo" data-source-line="37" id="ent0025"><rect fill="#F1F1F1" height="56.2656" rx="2.5" ry="2.5" style="stroke:#181818;stroke-width:0.5;" width="87.5195" x="1961" y="341.2969"/><ellipse cx="1976" cy="361.4297" fill="#ADD1B2" rx="11" ry="11" style="stroke:#181818;stroke-width:1;"/><path d="M1978.9688,367.0703 Q1978.3906,367.3672 1977.75,367.5078 Q1977.1094,367.6641 1976.4063,367.6641 Q1973.9063,367.6641 1972.5781,366.0234 Q1971.2656,364.3672 1971.2656,361.2422 Q1971.2656,358.1172 1972.5781,356.4609 Q1973.9063,354.8047 1976.4063,354.8047 Q1977.1094,354.8047 1977.75,354.9609 Q1978.4063,355.1172 1978.9688,355.4141 L1978.9688,358.1328 Q1978.3438,357.5547 1977.75,357.2891 Q1977.1563,357.0078 1976.5313,357.0078 Q1975.1875,357.0078 1974.5,358.0859 Q1973.8125,359.1484 1973.8125,361.2422 Q1973.8125,363.3359 1974.5,364.4141 Q1975.1875,365.4766 1976.5313,365.4766 Q1977.1563,365.4766 1977.75,365.2109 Q1978.3438,364.9297 1978.9688,364.3516 L1978.9688,367.0703 Z " fill="#000000"/><text fill="#000000" font-family="sans-serif" font-size="12" font-style="italic" lengthAdjust="spacing" textLength="59.5195" x="1988" y="357.4355">&#171;modelo&#187;</text><text fill="#000000" font-family="sans-serif" font-size="14" lengthAdjust="spacing" textLength="35.9434" x="1999.7881" y="373.2607">Hoyo</text><line style="stroke:#181818;stroke-width:0.5;" x1="1962" x2="2047.5195" y1="381.5625" y2="381.5625"/><line style="stroke:#181818;stroke-width:0.5;" x1="1962" x2="2047.5195" y1="389.5625" y2="389.5625"/></g><!--class Camara--><g class="entity" data-qualified-name="Clases modelo.Camara" data-source-line="38" id="ent0026"><rect fill="#F1F1F1" height="56.2656" rx="2.5" ry="2.5" style="stroke:#181818;stroke-width:0.5;" width="87.5195" x="2376" y="341.2969"/><ellipse cx="2391" cy="361.4297" fill="#ADD1B2" rx="11" ry="11" style="stroke:#181818;stroke-width:1;"/><path d="M2393.9688,367.0703 Q2393.3906,367.3672 2392.75,367.5078 Q2392.1094,367.6641 2391.4063,367.6641 Q2388.9063,367.6641 2387.5781,366.0234 Q2386.2656,364.3672 2386.2656,361.2422 Q2386.2656,358.1172 2387.5781,356.4609 Q2388.9063,354.8047 2391.4063,354.8047 Q2392.1094,354.8047 2392.75,354.9609 Q2393.4063,355.1172 2393.9688,355.4141 L2393.9688,358.1328 Q2393.3438,357.5547 2392.75,357.2891 Q2392.1563,357.0078 2391.5313,357.0078 Q2390.1875,357.0078 2389.5,358.0859 Q2388.8125,359.1484 2388.8125,361.2422 Q2388.8125,363.3359 2389.5,364.4141 Q2390.1875,365.4766 2391.5313,365.4766 Q2392.1563,365.4766 2392.75,365.2109 Q2393.3438,364.9297 2393.9688,364.3516 L2393.9688,367.0703 Z " fill="#000000"/><text fill="#000000" font-family="sans-serif" font-size="12" font-style="italic" lengthAdjust="spacing" textLength="59.5195" x="2403" y="357.4355">&#171;modelo&#187;</text><text fill="#000000" font-family="sans-serif" font-size="14" lengthAdjust="spacing" textLength="54.9063" x="2405.3066" y="373.2607">Camara</text><line style="stroke:#181818;stroke-width:0.5;" x1="2377" x2="2462.5195" y1="381.5625" y2="381.5625"/><line style="stroke:#181818;stroke-width:0.5;" x1="2377" x2="2462.5195" y1="389.5625" y2="389.5625"/></g><!--class SesionCaptura--><g class="entity" data-qualified-name="Clases modelo.SesionCaptura" data-source-line="39" id="ent0027"><rect fill="#F1F1F1" height="56.2656" rx="2.5" ry="2.5" style="stroke:#181818;stroke-width:0.5;" width="134.0605" x="2207" y="341.2969"/><ellipse cx="2222" cy="361.4297" fill="#ADD1B2" rx="11" ry="11" style="stroke:#181818;stroke-width:1;"/><path d="M2224.9688,367.0703 Q2224.3906,367.3672 2223.75,367.5078 Q2223.1094,367.6641 2222.4063,367.6641 Q2219.9063,367.6641 2218.5781,366.0234 Q2217.2656,364.3672 2217.2656,361.2422 Q2217.2656,358.1172 2218.5781,356.4609 Q2219.9063,354.8047 2222.4063,354.8047 Q2223.1094,354.8047 2223.75,354.9609 Q2224.4063,355.1172 2224.9688,355.4141 L2224.9688,358.1328 Q2224.3438,357.5547 2223.75,357.2891 Q2223.1563,357.0078 2222.5313,357.0078 Q2221.1875,357.0078 2220.5,358.0859 Q2219.8125,359.1484 2219.8125,361.2422 Q2219.8125,363.3359 2220.5,364.4141 Q2221.1875,365.4766 2222.5313,365.4766 Q2223.1563,365.4766 2223.75,365.2109 Q2224.3438,364.9297 2224.9688,364.3516 L2224.9688,367.0703 Z " fill="#000000"/><text fill="#000000" font-family="sans-serif" font-size="12" font-style="italic" lengthAdjust="spacing" textLength="59.5195" x="2257.2705" y="357.4355">&#171;modelo&#187;</text><text fill="#000000" font-family="sans-serif" font-size="14" lengthAdjust="spacing" textLength="102.0605" x="2236" y="373.2607">SesionCaptura</text><line style="stroke:#181818;stroke-width:0.5;" x1="2208" x2="2340.0605" y1="381.5625" y2="381.5625"/><line style="stroke:#181818;stroke-width:0.5;" x1="2208" x2="2340.0605" y1="389.5625" y2="389.5625"/></g><!--class Clip--><g class="entity" data-qualified-name="Clases modelo.Clip" data-source-line="40" id="ent0028"><rect fill="#F1F1F1" height="56.2656" rx="2.5" ry="2.5" style="stroke:#181818;stroke-width:0.5;" width="87.5195" x="1715" y="341.2969"/><ellipse cx="1730" cy="361.4297" fill="#ADD1B2" rx="11" ry="11" style="stroke:#181818;stroke-width:1;"/><path d="M1732.9688,367.0703 Q1732.3906,367.3672 1731.75,367.5078 Q1731.1094,367.6641 1730.4063,367.6641 Q1727.9063,367.6641 1726.5781,366.0234 Q1725.2656,364.3672 1725.2656,361.2422 Q1725.2656,358.1172 1726.5781,356.4609 Q1727.9063,354.8047 1730.4063,354.8047 Q1731.1094,354.8047 1731.75,354.9609 Q1732.4063,355.1172 1732.9688,355.4141 L1732.9688,358.1328 Q1732.3438,357.5547 1731.75,357.2891 Q1731.1563,357.0078 1730.5313,357.0078 Q1729.1875,357.0078 1728.5,358.0859 Q1727.8125,359.1484 1727.8125,361.2422 Q1727.8125,363.3359 1728.5,364.4141 Q1729.1875,365.4766 1730.5313,365.4766 Q1731.1563,365.4766 1731.75,365.2109 Q1732.3438,364.9297 1732.9688,364.3516 L1732.9688,367.0703 Z " fill="#000000"/><text fill="#000000" font-family="sans-serif" font-size="12" font-style="italic" lengthAdjust="spacing" textLength="59.5195" x="1742" y="357.4355">&#171;modelo&#187;</text><text fill="#000000" font-family="sans-serif" font-size="14" lengthAdjust="spacing" textLength="26.4414" x="1758.5391" y="373.2607">Clip</text><line style="stroke:#181818;stroke-width:0.5;" x1="1716" x2="1801.5195" y1="381.5625" y2="381.5625"/><line style="stroke:#181818;stroke-width:0.5;" x1="1716" x2="1801.5195" y1="389.5625" y2="389.5625"/></g><!--link VistaLogin to ControladorLogin--><g class="link" data-entity-1="ent0003" data-entity-2="ent0013" data-link-type="dependency" data-source-line="44" id="lnk29"><path codeLine="44" d="M1454,135.3969 C1454,157.5069 1454,182.1469 1454,204.2369" fill="none" id="VistaLogin-to-ControladorLogin" style="stroke:#181818;stroke-width:1;"/><polygon fill="#181818" points="1454,210.2369,1458,201.2369,1454,205.2369,1450,201.2369,1454,210.2369" style="stroke:#181818;stroke-width:1;"/><text fill="#000000" font-family="sans-serif" font-size="13" lengthAdjust="spacing" textLength="39.8252" x="1414" y="168.8838">CU-01</text></g><!--link VistaEscaneoQR to ControladorEscanearQR--><g class="link" data-entity-1="ent0004" data-entity-2="ent0014" data-link-type="dependency" data-source-line="45" id="lnk30"><path codeLine="45" d="M2352.2,107.2969 C2463.12,107.2969 2661,107.2969 2661,107.2969 C2661,107.2969 2661,165.7069 2661,204.1969" fill="none" id="VistaEscaneoQR-to-ControladorEscanearQR" style="stroke:#181818;stroke-width:1;"/><polygon fill="#181818" points="2661,210.1969,2665,201.1969,2661,205.1969,2657,201.1969,2661,210.1969" style="stroke:#181818;stroke-width:1;"/><text fill="#000000" font-family="sans-serif" font-size="13" lengthAdjust="spacing" textLength="39.8252" x="2518.05" y="103.3638">CU-02</text></g><!--link VistaListadoClips to ControladorConsultarClipsGenerados--><g class="link" data-entity-1="ent0005" data-entity-2="ent0015" data-link-type="dependency" data-source-line="46" id="lnk31"><path codeLine="46" d="M2170.62,107.2969 C2187.75,107.2969 2201,107.2969 2201,107.2969 C2201,107.2969 2201,229.2969 2201,229.2969 C2201,229.2969 2208.38,229.2969 2227.83,229.2969" fill="none" id="VistaListadoClips-to-ControladorConsultarClipsGenerados" style="stroke:#181818;stroke-width:1;"/><polygon fill="#181818" points="2233.83,229.2969,2224.83,225.2969,2228.83,229.2969,2224.83,233.2969,2233.83,229.2969" style="stroke:#181818;stroke-width:1;"/><text fill="#000000" font-family="sans-serif" font-size="13" lengthAdjust="spacing" textLength="39.8252" x="2161" y="165.5938">CU-03</text></g><!--link VistaDetalleClip to ControladorMarcarClipFavorito--><g class="link" data-entity-1="ent0006" data-entity-2="ent0016" data-link-type="dependency" data-source-line="47" id="lnk32"><path codeLine="47" d="M977.38,107.2969 C967.01,107.2969 959.75,107.2969 959.75,107.2969 C959.75,107.2969 959.75,165.7069 959.75,204.1969" fill="none" id="VistaDetalleClip-to-ControladorMarcarClipFavorito" style="stroke:#181818;stroke-width:1;"/><polygon fill="#181818" points="959.75,210.1969,963.75,201.1969,959.75,205.1969,955.75,201.1969,959.75,210.1969" style="stroke:#181818;stroke-width:1;"/><text fill="#000000" font-family="sans-serif" font-size="13" lengthAdjust="spacing" textLength="39.8252" x="919.75" y="162.9938">CU-04</text></g><!--link VistaEstadisticasPersonales to ControladorConsultarEstadisticasPersonales--><g class="link" data-entity-1="ent0007" data-entity-2="ent0017" data-link-type="dependency" data-source-line="48" id="lnk33"><path codeLine="48" d="M715.79,107.2969 C702.01,107.2969 692.67,107.2969 692.67,107.2969 C692.67,107.2969 692.67,165.7069 692.67,204.1969" fill="none" id="VistaEstadisticasPersonales-to-ControladorConsultarEstadisticasPersonales" style="stroke:#181818;stroke-width:1;"/><polygon fill="#181818" points="692.67,210.1969,696.67,201.1969,692.67,205.1969,688.67,201.1969,692.67,210.1969" style="stroke:#181818;stroke-width:1;"/><text fill="#000000" font-family="sans-serif" font-size="13" lengthAdjust="spacing" textLength="39.8252" x="652.67" y="160.2538">CU-05</text></g><!--link VistaGestionClips to ControladorGestionarClipsRegistrados--><g class="link" data-entity-1="ent0008" data-entity-2="ent0018" data-link-type="dependency" data-source-line="49" id="lnk34"><path codeLine="49" d="M526.95,107.2969 C402.97,107.2969 173,107.2969 173,107.2969 C173,107.2969 173,165.7069 173,204.1969" fill="none" id="VistaGestionClips-to-ControladorGestionarClipsRegistrados" style="stroke:#181818;stroke-width:1;"/><polygon fill="#181818" points="173,210.1969,177,201.1969,173,205.1969,169,201.1969,173,210.1969" style="stroke:#181818;stroke-width:1;"/><text fill="#000000" font-family="sans-serif" font-size="13" lengthAdjust="spacing" textLength="39.8252" x="258.52" y="103.3638">CU-06</text></g><!--link VistaUsuariosAdministrador to ControladorConsultarUsuariosSistema--><g class="link" data-entity-1="ent0009" data-entity-2="ent0019" data-link-type="dependency" data-source-line="50" id="lnk35"><path codeLine="50" d="M1666.75,135.3969 C1666.75,157.5069 1666.75,182.1469 1666.75,204.2369" fill="none" id="VistaUsuariosAdministrador-to-ControladorConsultarUsuariosSistema" style="stroke:#181818;stroke-width:1;"/><polygon fill="#181818" points="1666.75,210.2369,1670.75,201.2369,1666.75,205.2369,1662.75,201.2369,1666.75,210.2369" style="stroke:#181818;stroke-width:1;"/><text fill="#000000" font-family="sans-serif" font-size="13" lengthAdjust="spacing" textLength="39.8252" x="1626.75" y="168.8838">CU-07</text></g><!--link VistaGestionUsuarios to ControladorGestionarUsuariosSistema--><g class="link" data-entity-1="ent0010" data-entity-2="ent0020" data-link-type="dependency" data-source-line="51" id="lnk36"><path codeLine="51" d="M1942,135.3969 C1942,157.5069 1942,182.1469 1942,204.2369" fill="none" id="VistaGestionUsuarios-to-ControladorGestionarUsuariosSistema" style="stroke:#181818;stroke-width:1;"/><polygon fill="#181818" points="1942,210.2369,1946,201.2369,1942,205.2369,1938,201.2369,1942,210.2369" style="stroke:#181818;stroke-width:1;"/><text fill="#000000" font-family="sans-serif" font-size="13" lengthAdjust="spacing" textLength="39.8252" x="1902" y="168.8838">CU-08</text></g><!--link VistaEstadisticasGlobales to ControladorConsultarEstadisticasGlobales--><g class="link" data-entity-1="ent0011" data-entity-2="ent0021" data-link-type="dependency" data-source-line="52" id="lnk37"><path codeLine="52" d="M1248.75,135.3969 C1248.75,157.5069 1248.75,182.1469 1248.75,204.2369" fill="none" id="VistaEstadisticasGlobales-to-ControladorConsultarEstadisticasGlobales" style="stroke:#181818;stroke-width:1;"/><polygon fill="#181818" points="1248.75,210.2369,1252.75,201.2369,1248.75,205.2369,1244.75,201.2369,1248.75,210.2369" style="stroke:#181818;stroke-width:1;"/><text fill="#000000" font-family="sans-serif" font-size="13" lengthAdjust="spacing" textLength="39.8252" x="1208.75" y="168.8838">CU-09</text></g><!--link ControladorLogin to Usuario--><g class="link" data-entity-1="ent0013" data-entity-2="ent0023" data-link-type="dependency" data-source-line="55" id="lnk38"><path codeLine="55" d="M1454,266.3469 C1454,279.0569 1454,291.2969 1454,291.2969 C1454,291.2969 1855.67,291.2969 1855.67,291.2969 C1855.67,291.2969 1855.67,312.7969 1855.67,335.1369" fill="none" id="ControladorLogin-to-Usuario" style="stroke:#181818;stroke-width:1;"/><polygon fill="#181818" points="1855.67,341.1369,1859.67,332.1369,1855.67,336.1369,1851.67,332.1369,1855.67,341.1369" style="stroke:#181818;stroke-width:1;"/></g><!--link ControladorEscanearQR to Usuario--><g class="link" data-entity-1="ent0014" data-entity-2="ent0023" data-link-type="dependency" data-source-line="57" id="lnk39"><path codeLine="57" d="M2594.33,266.4469 C2594.33,276.4569 2594.33,285.2969 2594.33,285.2969 C2594.33,285.2969 1919.38,285.2969 1919.38,285.2969 C1919.38,285.2969 1919.38,310.4869 1919.38,334.8569" fill="none" id="ControladorEscanearQR-to-Usuario" style="stroke:#181818;stroke-width:1;"/><polygon fill="#181818" points="1919.38,340.8569,1923.38,331.8569,1919.38,335.8569,1915.38,331.8569,1919.38,340.8569" style="stroke:#181818;stroke-width:1;"/></g><!--link ControladorEscanearQR to Camara--><g class="link" data-entity-1="ent0014" data-entity-2="ent0026" data-link-type="dependency" data-source-line="58" id="lnk40"><path codeLine="58" d="M2727.67,266.3969 C2727.67,304.8869 2727.67,369.2969 2727.67,369.2969 C2727.67,369.2969 2555.15,369.2969 2470.08,369.2969" fill="none" id="ControladorEscanearQR-to-Camara" style="stroke:#181818;stroke-width:1;"/><polygon fill="#181818" points="2464.08,369.2969,2473.08,373.2969,2469.08,369.2969,2473.08,365.2969,2464.08,369.2969" style="stroke:#181818;stroke-width:1;"/></g><!--link ControladorEscanearQR to Campo--><g class="link" data-entity-1="ent0014" data-entity-2="ent0024" data-link-type="dependency" data-source-line="59" id="lnk41"><path codeLine="59" d="M2661,266.5869 C2661,293.3069 2661,329.2969 2661,329.2969 C2661,329.2969 2128,329.2969 2128,329.2969 C2128,329.2969 2128,328.4669 2128,335.0769" fill="none" id="ControladorEscanearQR-to-Campo" style="stroke:#181818;stroke-width:1;"/><polygon fill="#181818" points="2128,341.0769,2132,332.0769,2128,336.0769,2124,332.0769,2128,341.0769" style="stroke:#181818;stroke-width:1;"/></g><!--link ControladorEscanearQR to Hoyo--><g class="link" data-entity-1="ent0014" data-entity-2="ent0025" data-link-type="dependency" data-source-line="60" id="lnk42"><path codeLine="60" d="M2627.67,266.5969 C2627.67,291.3269 2627.67,323.2969 2627.67,323.2969 C2627.67,323.2969 2019.67,323.2969 2019.67,323.2969 C2019.67,323.2969 2019.67,325.6369 2019.67,335.2169" fill="none" id="ControladorEscanearQR-to-Hoyo" style="stroke:#181818;stroke-width:1;"/><polygon fill="#181818" points="2019.67,341.2169,2023.67,332.2169,2019.67,336.2169,2015.67,332.2169,2019.67,341.2169" style="stroke:#181818;stroke-width:1;"/></g><!--link ControladorEscanearQR to SesionCaptura--><g class="link" data-entity-1="ent0014" data-entity-2="ent0027" data-link-type="dependency" data-source-line="61" id="lnk43"><path codeLine="61" d="M2694.33,266.3569 C2694.33,294.9969 2694.33,335.2969 2694.33,335.2969 C2694.33,335.2969 2319.6,335.2969 2319.6,335.2969 C2319.6,335.2969 2319.6,331.6969 2319.6,335.2169" fill="none" id="ControladorEscanearQR-to-SesionCaptura" style="stroke:#181818;stroke-width:1;"/><polygon fill="#181818" points="2319.6,341.2169,2323.6,332.2169,2319.6,336.2169,2315.6,332.2169,2319.6,341.2169" style="stroke:#181818;stroke-width:1;"/></g><!--link ControladorConsultarClipsGenerados to Usuario--><g class="link" data-entity-1="ent0015" data-entity-2="ent0023" data-link-type="dependency" data-source-line="63" id="lnk44"><path codeLine="63" d="M2276.8,266.3269 C2276.8,273.5269 2276.8,279.2969 2276.8,279.2969 C2276.8,279.2969 1912.75,279.2969 1912.75,279.2969 C1912.75,279.2969 1912.75,308.4569 1912.75,334.8169" fill="none" id="ControladorConsultarClipsGenerados-to-Usuario" style="stroke:#181818;stroke-width:1;"/><polygon fill="#181818" points="1912.75,340.8169,1916.75,331.8169,1912.75,335.8169,1908.75,331.8169,1912.75,340.8169" style="stroke:#181818;stroke-width:1;"/></g><!--link ControladorConsultarClipsGenerados to Clip--><g class="link" data-entity-1="ent0015" data-entity-2="ent0028" data-link-type="dependency" data-source-line="64" id="lnk45"><path codeLine="64" d="M2255.4,266.5469 C2255.4,270.5269 2255.4,273.2969 2255.4,273.2969 C2255.4,273.2969 1759,273.2969 1759,273.2969 C1759,273.2969 1759,306.9369 1759,335.2669" fill="none" id="ControladorConsultarClipsGenerados-to-Clip" style="stroke:#181818;stroke-width:1;"/><polygon fill="#181818" points="1759,341.2669,1763,332.2669,1759,336.2669,1755,332.2669,1759,341.2669" style="stroke:#181818;stroke-width:1;"/></g><!--link ControladorConsultarClipsGenerados to Campo--><g class="link" data-entity-1="ent0015" data-entity-2="ent0024" data-link-type="dependency" data-source-line="65" id="lnk46"><path codeLine="65" d="M2233.84,248.2969 C2215.77,248.2969 2203.5,248.2969 2203.5,248.2969 C2203.5,248.2969 2203.5,369.2969 2203.5,369.2969 C2203.5,369.2969 2194.79,369.2969 2178.36,369.2969" fill="none" id="ControladorConsultarClipsGenerados-to-Campo" style="stroke:#181818;stroke-width:1;"/><polygon fill="#181818" points="2172.36,369.2969,2181.36,373.2969,2177.36,369.2969,2181.36,365.2969,2172.36,369.2969" style="stroke:#181818;stroke-width:1;"/></g><!--link ControladorConsultarClipsGenerados to Hoyo--><g class="link" data-entity-1="ent0015" data-entity-2="ent0025" data-link-type="dependency" data-source-line="66" id="lnk47"><path codeLine="66" d="M2298.2,266.4569 C2298.2,288.7969 2298.2,316.2969 2298.2,316.2969 C2298.2,316.2969 1990.33,316.2969 1990.33,316.2969 C1990.33,316.2969 1990.33,322.5369 1990.33,335.2469" fill="none" id="ControladorConsultarClipsGenerados-to-Hoyo" style="stroke:#181818;stroke-width:1;"/><polygon fill="#181818" points="1990.33,341.2469,1994.33,332.2469,1990.33,336.2469,1986.33,332.2469,1990.33,341.2469" style="stroke:#181818;stroke-width:1;"/></g><!--link ControladorMarcarClipFavorito to Usuario--><g class="link" data-entity-1="ent0016" data-entity-2="ent0023" data-link-type="dependency" data-source-line="68" id="lnk48"><path codeLine="68" d="M815.83,266.6669 C815.83,284.5569 815.83,304.2969 815.83,304.2969 C815.83,304.2969 1846.83,304.2969 1846.83,304.2969 C1846.83,304.2969 1846.83,317.4569 1846.83,334.9769" fill="none" id="ControladorMarcarClipFavorito-to-Usuario" style="stroke:#181818;stroke-width:1;"/><polygon fill="#181818" points="1846.83,340.9769,1850.83,331.9769,1846.83,335.9769,1842.83,331.9769,1846.83,340.9769" style="stroke:#181818;stroke-width:1;"/></g><!--link ControladorMarcarClipFavorito to Clip--><g class="link" data-entity-1="ent0016" data-entity-2="ent0028" data-link-type="dependency" data-source-line="69" id="lnk49"><path codeLine="69" d="M898.17,266.5769 C898.17,303.7269 898.17,364.2969 898.17,364.2969 C898.17,364.2969 1532.98,364.2969 1708.83,364.2969" fill="none" id="ControladorMarcarClipFavorito-to-Clip" style="stroke:#181818;stroke-width:1;"/><polygon fill="#181818" points="1714.83,364.2969,1705.83,360.2969,1709.83,364.2969,1705.83,368.2969,1714.83,364.2969" style="stroke:#181818;stroke-width:1;"/></g><!--link ControladorConsultarEstadisticasPersonales to Usuario--><g class="link" data-entity-1="ent0017" data-entity-2="ent0023" data-link-type="dependency" data-source-line="71" id="lnk50"><path codeLine="71" d="M686.83,209.9769 C686.83,192.4569 686.83,173.2969 686.83,173.2969 C686.83,173.2969 1882,173.2969 1882,173.2969 C1882,173.2969 1882,281.0169 1882,335.2169" fill="none" id="ControladorConsultarEstadisticasPersonales-to-Usuario" style="stroke:#181818;stroke-width:1;"/><polygon fill="#181818" points="1882,341.2169,1886,332.2169,1882,336.2169,1878,332.2169,1882,341.2169" style="stroke:#181818;stroke-width:1;"/></g><!--link ControladorConsultarEstadisticasPersonales to Clip--><g class="link" data-entity-1="ent0017" data-entity-2="ent0028" data-link-type="dependency" data-source-line="72" id="lnk51"><path codeLine="72" d="M528,266.3469 C528,306.4369 528,375.2969 528,375.2969 C528,375.2969 1488.83,375.2969 1708.83,375.2969" fill="none" id="ControladorConsultarEstadisticasPersonales-to-Clip" style="stroke:#181818;stroke-width:1;"/><polygon fill="#181818" points="1714.83,375.2969,1705.83,371.2969,1709.83,375.2969,1705.83,379.2969,1714.83,375.2969" style="stroke:#181818;stroke-width:1;"/></g><!--link ControladorGestionarClipsRegistrados to Usuario--><g class="link" data-entity-1="ent0018" data-entity-2="ent0023" data-link-type="dependency" data-source-line="74" id="lnk52"><path codeLine="74" d="M123.17,266.3369 C123.17,286.5569 123.17,310.2969 123.17,310.2969 C123.17,310.2969 1842.42,310.2969 1842.42,310.2969 C1842.42,310.2969 1842.42,319.9869 1842.42,335.1769" fill="none" id="ControladorGestionarClipsRegistrados-to-Usuario" style="stroke:#181818;stroke-width:1;"/><polygon fill="#181818" points="1842.42,341.1769,1846.42,332.1769,1842.42,336.1769,1838.42,332.1769,1842.42,341.1769" style="stroke:#181818;stroke-width:1;"/></g><!--link ControladorGestionarClipsRegistrados to Clip--><g class="link" data-entity-1="ent0018" data-entity-2="ent0028" data-link-type="dependency" data-source-line="75" id="lnk53"><path codeLine="75" d="M222.83,266.4869 C222.83,309.4269 222.83,386.2969 222.83,386.2969 C222.83,386.2969 1456.81,386.2969 1708.68,386.2969" fill="none" id="ControladorGestionarClipsRegistrados-to-Clip" style="stroke:#181818;stroke-width:1;"/><polygon fill="#181818" points="1714.68,386.2969,1705.68,382.2969,1709.68,386.2969,1705.68,390.2969,1714.68,386.2969" style="stroke:#181818;stroke-width:1;"/></g><!--link ControladorConsultarUsuariosSistema to Usuario--><g class="link" data-entity-1="ent0019" data-entity-2="ent0023" data-link-type="dependency" data-source-line="77" id="lnk54"><path codeLine="77" d="M1860.08,266.3969 C1860.08,288.5069 1860.08,313.1469 1860.08,335.2369" fill="none" id="ControladorConsultarUsuariosSistema-to-Usuario" style="stroke:#181818;stroke-width:1;"/><polygon fill="#181818" points="1860.08,341.2369,1864.08,332.2369,1860.08,336.2369,1856.08,332.2369,1860.08,341.2369" style="stroke:#181818;stroke-width:1;"/></g><!--link ControladorGestionarUsuariosSistema to Usuario--><g class="link" data-entity-1="ent0020" data-entity-2="ent0023" data-link-type="dependency" data-source-line="79" id="lnk55"><path codeLine="79" d="M1906.12,266.3969 C1906.12,288.5069 1906.12,313.1469 1906.12,335.2369" fill="none" id="ControladorGestionarUsuariosSistema-to-Usuario" style="stroke:#181818;stroke-width:1;"/><polygon fill="#181818" points="1906.12,341.2369,1910.12,332.2369,1906.12,336.2369,1902.12,332.2369,1906.12,341.2369" style="stroke:#181818;stroke-width:1;"/></g><!--link ControladorConsultarEstadisticasGlobales to Usuario--><g class="link" data-entity-1="ent0021" data-entity-2="ent0023" data-link-type="dependency" data-source-line="81" id="lnk56"><path codeLine="81" d="M1124.67,266.5369 C1124.67,282.1069 1124.67,298.2969 1124.67,298.2969 C1124.67,298.2969 1851.25,298.2969 1851.25,298.2969 C1851.25,298.2969 1851.25,315.3869 1851.25,335.2369" fill="none" id="ControladorConsultarEstadisticasGlobales-to-Usuario" style="stroke:#181818;stroke-width:1;"/><polygon fill="#181818" points="1851.25,341.2369,1855.25,332.2369,1851.25,336.2369,1847.25,332.2369,1851.25,341.2369" style="stroke:#181818;stroke-width:1;"/></g><!--link ControladorConsultarEstadisticasGlobales to Clip--><g class="link" data-entity-1="ent0021" data-entity-2="ent0028" data-link-type="dependency" data-source-line="82" id="lnk57"><path codeLine="82" d="M1233.33,266.4269 C1233.33,300.4769 1233.33,353.2969 1233.33,353.2969 C1233.33,353.2969 1581.9,353.2969 1708.63,353.2969" fill="none" id="ControladorConsultarEstadisticasGlobales-to-Clip" style="stroke:#181818;stroke-width:1;"/><polygon fill="#181818" points="1714.63,353.2969,1705.63,349.2969,1709.63,353.2969,1705.63,357.2969,1714.63,353.2969" style="stroke:#181818;stroke-width:1;"/></g><?plantuml-src dLHDRzim3BthLmYzz1IW-_v04Q18jsn02sm9kZjZiwvGnJGafKCsxBzFifnETambsSKmnFV89ugFJZcDybf1PM0DiaHPQB1ePK6rCwIX90DMDcHa0PO2O6D92FkewWOyfyNRA-UCMcqSVlMyfVg5yYA1s0UVvgUgAtaFsc8IqQf6jsrGad4Fb0GQA1wXmgNRUda62mTrfL48Hurq95Va7ArbgK98KIr4Hv1diwZ_ILa7P_Ata56X_14ERgXIjRoyRAFJQJ_uoHPG8trVS82Ry2bffbLZESmrEj0Q0uQluxFu7-Kx-WsDfHeqiWddQCCDiqNlx0QC8djLhbNj3qnujWC9TvnZLCurhGOQ_-otl3SoQUjd_mAx1qYmIU4461y3JFiQ1z7-rswq0zEsQOurXXROOwYtO8h8-mnFP9IVhbCAiezvC4Nt3ftc1LRTmzcJwk-USUdPw1ryIk7_u8xUEncFVeAH8LbJYPhIwUXKU7ACfOLXtOm6lj2M8_ZrCHPPeWqkWiPjnW6TOv_FlVPpkK0DXUTXPmevcQRT4CbIcVH3yV2ZdDrDBbw8mNuPO9DPZuINOd_V33ZSnCS4hyJUCXhmHyO-Kb-Bt9BYL33mcFADsDzaWqIy6MAAjoApw3XHm_cEgTw9qJN82HfFybxmI_AO7Zs3OxeFWs5Bw67aRjkX57lZ5Ifr-eGO7wWKmYEYR_A09fSW638Jxhcl9vMROqPt3XwEZiOExvC3jvSJUVCmUXbaArMSOAH3xSZPTLYBznfJ9K_WxpAq3ZUkhDSuGjvIf_IgRrf_axy0?></g></svg>