<?plantuml 1.2026.2?><svg xmlns="http://www.w3.org/2000/svg" xmlns:xlink="http://www.w3.org/1999/xlink" contentStyleType="text/css" data-diagram-type="CLASS" height="930px" preserveAspectRatio="none" style="width:866px;height:930px;background:#FFFFFF;" version="1.1" viewBox="0 0 866 930" width="866px" zoomAndPan="magnify"><title>Diagrama de clases controladoras por caso de uso</title><defs/><g><g class="title" data-source-line="1"><text fill="#000000" font-family="sans-serif" font-size="14" font-weight="bold" lengthAdjust="spacing" textLength="397.9609" x="227.0195" y="22.9951">Diagrama de clases controladoras por caso de uso</text></g><!--cluster Clases vista--><g class="cluster" data-qualified-name="Clases vista" data-source-line="10" id="ent0002"><rect fill="none" height="835" rx="2.5" ry="2.5" style="stroke:#000000;stroke-width:1.5;" width="258" x="7" y="89.2969"/><text fill="#000000" font-family="sans-serif" font-size="14" font-weight="bold" lengthAdjust="spacing" textLength="93.9531" x="89.0234" y="104.292">Clases vista</text></g><!--cluster Clases controladoras--><g class="cluster" data-qualified-name="Clases controladoras" data-source-line="22" id="ent0012"><rect fill="none" height="835" rx="2.5" ry="2.5" style="stroke:#000000;stroke-width:1.5;" width="373" x="293" y="89.2969"/><text fill="#000000" font-family="sans-serif" font-size="14" font-weight="bold" lengthAdjust="spacing" textLength="165.2246" x="396.8877" y="104.292">Clases controladoras</text></g><!--cluster Clases modelo--><g class="cluster" data-qualified-name="Clases modelo" data-source-line="34" id="ent0022"><rect fill="none" height="562" rx="2.5" ry="2.5" style="stroke:#000000;stroke-width:1.5;" width="166" x="694" y="44.2969"/><text fill="#000000" font-family="sans-serif" font-size="14" font-weight="bold" lengthAdjust="spacing" textLength="113.6953" x="720.1523" y="59.292">Clases modelo</text></g><!--class VistaLogin--><g class="entity" data-qualified-name="Clases vista.VistaLogin" data-source-line="11" id="ent0003"><rect fill="#F1F1F1" height="56.2656" rx="2.5" ry="2.5" style="stroke:#181818;stroke-width:0.5;" width="104.8438" x="83.5" y="488.2969"/><ellipse cx="98.5" cy="508.4297" fill="#ADD1B2" rx="11" ry="11" style="stroke:#181818;stroke-width:1;"/><path d="M101.4688,514.0703 Q100.8906,514.3672 100.25,514.5078 Q99.6094,514.6641 98.9063,514.6641 Q96.4063,514.6641 95.0781,513.0234 Q93.7656,511.3672 93.7656,508.2422 Q93.7656,505.1172 95.0781,503.4609 Q96.4063,501.8047 98.9063,501.8047 Q99.6094,501.8047 100.25,501.9609 Q100.9063,502.1172 101.4688,502.4141 L101.4688,505.1328 Q100.8438,504.5547 100.25,504.2891 Q99.6563,504.0078 99.0313,504.0078 Q97.6875,504.0078 97,505.0859 Q96.3125,506.1484 96.3125,508.2422 Q96.3125,510.3359 97,511.4141 Q97.6875,512.4766 99.0313,512.4766 Q99.6563,512.4766 100.25,512.2109 Q100.8438,511.9297 101.4688,511.3516 L101.4688,514.0703 Z " fill="#000000"/><text fill="#000000" font-family="sans-serif" font-size="12" font-style="italic" lengthAdjust="spacing" textLength="43.5586" x="127.1426" y="504.4355">&#171;vista&#187;</text><text fill="#000000" font-family="sans-serif" font-size="14" lengthAdjust="spacing" textLength="72.8438" x="112.5" y="520.2607">VistaLogin</text><line style="stroke:#181818;stroke-width:0.5;" x1="84.5" x2="187.3438" y1="528.5625" y2="528.5625"/><line style="stroke:#181818;stroke-width:0.5;" x1="84.5" x2="187.3438" y1="536.5625" y2="536.5625"/></g><!--class VistaEscaneoQR--><g class="entity" data-qualified-name="Clases vista.VistaEscaneoQR" data-source-line="12" id="ent0004"><rect fill="#F1F1F1" height="56.2656" rx="2.5" ry="2.5" style="stroke:#181818;stroke-width:0.5;" width="146.0439" x="63" y="124.2969"/><ellipse cx="78" cy="144.4297" fill="#ADD1B2" rx="11" ry="11" style="stroke:#181818;stroke-width:1;"/><path d="M80.9688,150.0703 Q80.3906,150.3672 79.75,150.5078 Q79.1094,150.6641 78.4063,150.6641 Q75.9063,150.6641 74.5781,149.0234 Q73.2656,147.3672 73.2656,144.2422 Q73.2656,141.1172 74.5781,139.4609 Q75.9063,137.8047 78.4063,137.8047 Q79.1094,137.8047 79.75,137.9609 Q80.4063,138.1172 80.9688,138.4141 L80.9688,141.1328 Q80.3438,140.5547 79.75,140.2891 Q79.1563,140.0078 78.5313,140.0078 Q77.1875,140.0078 76.5,141.0859 Q75.8125,142.1484 75.8125,144.2422 Q75.8125,146.3359 76.5,147.4141 Q77.1875,148.4766 78.5313,148.4766 Q79.1563,148.4766 79.75,148.2109 Q80.3438,147.9297 80.9688,147.3516 L80.9688,150.0703 Z " fill="#000000"/><text fill="#000000" font-family="sans-serif" font-size="12" font-style="italic" lengthAdjust="spacing" textLength="43.5586" x="127.2427" y="140.4355">&#171;vista&#187;</text><text fill="#000000" font-family="sans-serif" font-size="14" lengthAdjust="spacing" textLength="114.0439" x="92" y="156.2607">VistaEscaneoQR</text><line style="stroke:#181818;stroke-width:0.5;" x1="64" x2="208.0439" y1="164.5625" y2="164.5625"/><line style="stroke:#181818;stroke-width:0.5;" x1="64" x2="208.0439" y1="172.5625" y2="172.5625"/></g><!--class VistaListadoClips--><g class="entity" data-qualified-name="Clases vista.VistaListadoClips" data-source-line="13" id="ent0005"><rect fill="#F1F1F1" height="56.2656" rx="2.5" ry="2.5" style="stroke:#181818;stroke-width:0.5;" width="151.0684" x="60.5" y="215.2969"/><ellipse cx="75.5" cy="235.4297" fill="#ADD1B2" rx="11" ry="11" style="stroke:#181818;stroke-width:1;"/><path d="M78.4688,241.0703 Q77.8906,241.3672 77.25,241.5078 Q76.6094,241.6641 75.9063,241.6641 Q73.4063,241.6641 72.0781,240.0234 Q70.7656,238.3672 70.7656,235.2422 Q70.7656,232.1172 72.0781,230.4609 Q73.4063,228.8047 75.9063,228.8047 Q76.6094,228.8047 77.25,228.9609 Q77.9063,229.1172 78.4688,229.4141 L78.4688,232.1328 Q77.8438,231.5547 77.25,231.2891 Q76.6563,231.0078 76.0313,231.0078 Q74.6875,231.0078 74,232.0859 Q73.3125,233.1484 73.3125,235.2422 Q73.3125,237.3359 74,238.4141 Q74.6875,239.4766 76.0313,239.4766 Q76.6563,239.4766 77.25,239.2109 Q77.8438,238.9297 78.4688,238.3516 L78.4688,241.0703 Z " fill="#000000"/><text fill="#000000" font-family="sans-serif" font-size="12" font-style="italic" lengthAdjust="spacing" textLength="43.5586" x="127.2549" y="231.4355">&#171;vista&#187;</text><text fill="#000000" font-family="sans-serif" font-size="14" lengthAdjust="spacing" textLength="119.0684" x="89.5" y="247.2607">VistaListadoClips</text><line style="stroke:#181818;stroke-width:0.5;" x1="61.5" x2="210.5684" y1="255.5625" y2="255.5625"/><line style="stroke:#181818;stroke-width:0.5;" x1="61.5" x2="210.5684" y1="263.5625" y2="263.5625"/></g><!--class VistaDetalleClip--><g class="entity" data-qualified-name="Clases vista.VistaDetalleClip" data-source-line="14" id="ent0006"><rect fill="#F1F1F1" height="56.2656" rx="2.5" ry="2.5" style="stroke:#181818;stroke-width:0.5;" width="143.125" x="64.5" y="670.2969"/><ellipse cx="79.5" cy="690.4297" fill="#ADD1B2" rx="11" ry="11" style="stroke:#181818;stroke-width:1;"/><path d="M82.4688,696.0703 Q81.8906,696.3672 81.25,696.5078 Q80.6094,696.6641 79.9063,696.6641 Q77.4063,696.6641 76.0781,695.0234 Q74.7656,693.3672 74.7656,690.2422 Q74.7656,687.1172 76.0781,685.4609 Q77.4063,683.8047 79.9063,683.8047 Q80.6094,683.8047 81.25,683.9609 Q81.9063,684.1172 82.4688,684.4141 L82.4688,687.1328 Q81.8438,686.5547 81.25,686.2891 Q80.6563,686.0078 80.0313,686.0078 Q78.6875,686.0078 78,687.0859 Q77.3125,688.1484 77.3125,690.2422 Q77.3125,692.3359 78,693.4141 Q78.6875,694.4766 80.0313,694.4766 Q80.6563,694.4766 81.25,694.2109 Q81.8438,693.9297 82.4688,693.3516 L82.4688,696.0703 Z " fill="#000000"/><text fill="#000000" font-family="sans-serif" font-size="12" font-style="italic" lengthAdjust="spacing" textLength="43.5586" x="127.2832" y="686.4355">&#171;vista&#187;</text><text fill="#000000" font-family="sans-serif" font-size="14" lengthAdjust="spacing" textLength="111.125" x="93.5" y="702.2607">VistaDetalleClip</text><line style="stroke:#181818;stroke-width:0.5;" x1="65.5" x2="206.625" y1="710.5625" y2="710.5625"/><line style="stroke:#181818;stroke-width:0.5;" x1="65.5" x2="206.625" y1="718.5625" y2="718.5625"/></g><!--class VistaEstadisticasPersonales--><g class="entity" data-qualified-name="Clases vista.VistaEstadisticasPersonales" data-source-line="15" id="ent0007"><rect fill="#F1F1F1" height="56.2656" rx="2.5" ry="2.5" style="stroke:#181818;stroke-width:0.5;" width="225.9766" x="23" y="761.2969"/><ellipse cx="38" cy="781.4297" fill="#ADD1B2" rx="11" ry="11" style="stroke:#181818;stroke-width:1;"/><path d="M40.9688,787.0703 Q40.3906,787.3672 39.75,787.5078 Q39.1094,787.6641 38.4063,787.6641 Q35.9063,787.6641 34.5781,786.0234 Q33.2656,784.3672 33.2656,781.2422 Q33.2656,778.1172 34.5781,776.4609 Q35.9063,774.8047 38.4063,774.8047 Q39.1094,774.8047 39.75,774.9609 Q40.4063,775.1172 40.9688,775.4141 L40.9688,778.1328 Q40.3438,777.5547 39.75,777.2891 Q39.1563,777.0078 38.5313,777.0078 Q37.1875,777.0078 36.5,778.0859 Q35.8125,779.1484 35.8125,781.2422 Q35.8125,783.3359 36.5,784.4141 Q37.1875,785.4766 38.5313,785.4766 Q39.1563,785.4766 39.75,785.2109 Q40.3438,784.9297 40.9688,784.3516 L40.9688,787.0703 Z " fill="#000000"/><text fill="#000000" font-family="sans-serif" font-size="12" font-style="italic" lengthAdjust="spacing" textLength="43.5586" x="127.209" y="777.4355">&#171;vista&#187;</text><text fill="#000000" font-family="sans-serif" font-size="14" lengthAdjust="spacing" textLength="193.9766" x="52" y="793.2607">VistaEstadisticasPersonales</text><line style="stroke:#181818;stroke-width:0.5;" x1="24" x2="247.9766" y1="801.5625" y2="801.5625"/><line style="stroke:#181818;stroke-width:0.5;" x1="24" x2="247.9766" y1="809.5625" y2="809.5625"/></g><!--class VistaGestionClips--><g class="entity" data-qualified-name="Clases vista.VistaGestionClips" data-source-line="16" id="ent0008"><rect fill="#F1F1F1" height="56.2656" rx="2.5" ry="2.5" style="stroke:#181818;stroke-width:0.5;" width="154.1377" x="59" y="852.2969"/><ellipse cx="74" cy="872.4297" fill="#ADD1B2" rx="11" ry="11" style="stroke:#181818;stroke-width:1;"/><path d="M76.9688,878.0703 Q76.3906,878.3672 75.75,878.5078 Q75.1094,878.6641 74.4063,878.6641 Q71.9063,878.6641 70.5781,877.0234 Q69.2656,875.3672 69.2656,872.2422 Q69.2656,869.1172 70.5781,867.4609 Q71.9063,865.8047 74.4063,865.8047 Q75.1094,865.8047 75.75,865.9609 Q76.4063,866.1172 76.9688,866.4141 L76.9688,869.1328 Q76.3438,868.5547 75.75,868.2891 Q75.1563,868.0078 74.5313,868.0078 Q73.1875,868.0078 72.5,869.0859 Q71.8125,870.1484 71.8125,872.2422 Q71.8125,874.3359 72.5,875.4141 Q73.1875,876.4766 74.5313,876.4766 Q75.1563,876.4766 75.75,876.2109 Q76.3438,875.9297 76.9688,875.3516 L76.9688,878.0703 Z " fill="#000000"/><text fill="#000000" font-family="sans-serif" font-size="12" font-style="italic" lengthAdjust="spacing" textLength="43.5586" x="127.2896" y="868.4355">&#171;vista&#187;</text><text fill="#000000" font-family="sans-serif" font-size="14" lengthAdjust="spacing" textLength="122.1377" x="88" y="884.2607">VistaGestionClips</text><line style="stroke:#181818;stroke-width:0.5;" x1="60" x2="212.1377" y1="892.5625" y2="892.5625"/><line style="stroke:#181818;stroke-width:0.5;" x1="60" x2="212.1377" y1="900.5625" y2="900.5625"/></g><!--class VistaUsuariosAdministrador--><g class="entity" data-qualified-name="Clases vista.VistaUsuariosAdministrador" data-source-line="17" id="ent0009"><rect fill="#F1F1F1" height="56.2656" rx="2.5" ry="2.5" style="stroke:#181818;stroke-width:0.5;" width="226.4072" x="23" y="397.2969"/><ellipse cx="38" cy="417.4297" fill="#ADD1B2" rx="11" ry="11" style="stroke:#181818;stroke-width:1;"/><path d="M40.9688,423.0703 Q40.3906,423.3672 39.75,423.5078 Q39.1094,423.6641 38.4063,423.6641 Q35.9063,423.6641 34.5781,422.0234 Q33.2656,420.3672 33.2656,417.2422 Q33.2656,414.1172 34.5781,412.4609 Q35.9063,410.8047 38.4063,410.8047 Q39.1094,410.8047 39.75,410.9609 Q40.4063,411.1172 40.9688,411.4141 L40.9688,414.1328 Q40.3438,413.5547 39.75,413.2891 Q39.1563,413.0078 38.5313,413.0078 Q37.1875,413.0078 36.5,414.0859 Q35.8125,415.1484 35.8125,417.2422 Q35.8125,419.3359 36.5,420.4141 Q37.1875,421.4766 38.5313,421.4766 Q39.1563,421.4766 39.75,421.2109 Q40.3438,420.9297 40.9688,420.3516 L40.9688,423.0703 Z " fill="#000000"/><text fill="#000000" font-family="sans-serif" font-size="12" font-style="italic" lengthAdjust="spacing" textLength="43.5586" x="127.4243" y="413.4355">&#171;vista&#187;</text><text fill="#000000" font-family="sans-serif" font-size="14" lengthAdjust="spacing" textLength="194.4072" x="52" y="429.2607">VistaUsuariosAdministrador</text><line style="stroke:#181818;stroke-width:0.5;" x1="24" x2="248.4072" y1="437.5625" y2="437.5625"/><line style="stroke:#181818;stroke-width:0.5;" x1="24" x2="248.4072" y1="445.5625" y2="445.5625"/></g><!--class VistaGestionUsuarios--><g class="entity" data-qualified-name="Clases vista.VistaGestionUsuarios" data-source-line="18" id="ent0010"><rect fill="#F1F1F1" height="56.2656" rx="2.5" ry="2.5" style="stroke:#181818;stroke-width:0.5;" width="180.9004" x="45.5" y="306.2969"/><ellipse cx="60.5" cy="326.4297" fill="#ADD1B2" rx="11" ry="11" style="stroke:#181818;stroke-width:1;"/><path d="M63.4688,332.0703 Q62.8906,332.3672 62.25,332.5078 Q61.6094,332.6641 60.9063,332.6641 Q58.4063,332.6641 57.0781,331.0234 Q55.7656,329.3672 55.7656,326.2422 Q55.7656,323.1172 57.0781,321.4609 Q58.4063,319.8047 60.9063,319.8047 Q61.6094,319.8047 62.25,319.9609 Q62.9063,320.1172 63.4688,320.4141 L63.4688,323.1328 Q62.8438,322.5547 62.25,322.2891 Q61.6563,322.0078 61.0313,322.0078 Q59.6875,322.0078 59,323.0859 Q58.3125,324.1484 58.3125,326.2422 Q58.3125,328.3359 59,329.4141 Q59.6875,330.4766 61.0313,330.4766 Q61.6563,330.4766 62.25,330.2109 Q62.8438,329.9297 63.4688,329.3516 L63.4688,332.0703 Z " fill="#000000"/><text fill="#000000" font-family="sans-serif" font-size="12" font-style="italic" lengthAdjust="spacing" textLength="43.5586" x="127.1709" y="322.4355">&#171;vista&#187;</text><text fill="#000000" font-family="sans-serif" font-size="14" lengthAdjust="spacing" textLength="148.9004" x="74.5" y="338.2607">VistaGestionUsuarios</text><line style="stroke:#181818;stroke-width:0.5;" x1="46.5" x2="225.4004" y1="346.5625" y2="346.5625"/><line style="stroke:#181818;stroke-width:0.5;" x1="46.5" x2="225.4004" y1="354.5625" y2="354.5625"/></g><!--class VistaEstadisticasGlobales--><g class="entity" data-qualified-name="Clases vista.VistaEstadisticasGlobales" data-source-line="19" id="ent0011"><rect fill="#F1F1F1" height="56.2656" rx="2.5" ry="2.5" style="stroke:#181818;stroke-width:0.5;" width="210.623" x="30.5" y="579.2969"/><ellipse cx="45.5" cy="599.4297" fill="#ADD1B2" rx="11" ry="11" style="stroke:#181818;stroke-width:1;"/><path d="M48.4688,605.0703 Q47.8906,605.3672 47.25,605.5078 Q46.6094,605.6641 45.9063,605.6641 Q43.4063,605.6641 42.0781,604.0234 Q40.7656,602.3672 40.7656,599.2422 Q40.7656,596.1172 42.0781,594.4609 Q43.4063,592.8047 45.9063,592.8047 Q46.6094,592.8047 47.25,592.9609 Q47.9063,593.1172 48.4688,593.4141 L48.4688,596.1328 Q47.8438,595.5547 47.25,595.2891 Q46.6563,595.0078 46.0313,595.0078 Q44.6875,595.0078 44,596.0859 Q43.3125,597.1484 43.3125,599.2422 Q43.3125,601.3359 44,602.4141 Q44.6875,603.4766 46.0313,603.4766 Q46.6563,603.4766 47.25,603.2109 Q47.8438,602.9297 48.4688,602.3516 L48.4688,605.0703 Z " fill="#000000"/><text fill="#000000" font-family="sans-serif" font-size="12" font-style="italic" lengthAdjust="spacing" textLength="43.5586" x="127.0322" y="595.4355">&#171;vista&#187;</text><text fill="#000000" font-family="sans-serif" font-size="14" lengthAdjust="spacing" textLength="178.623" x="59.5" y="611.2607">VistaEstadisticasGlobales</text><line style="stroke:#181818;stroke-width:0.5;" x1="31.5" x2="240.123" y1="619.5625" y2="619.5625"/><line style="stroke:#181818;stroke-width:0.5;" x1="31.5" x2="240.123" y1="627.5625" y2="627.5625"/></g><!--class ControladorLogin--><g class="entity" data-qualified-name="Clases controladoras.ControladorLogin" data-source-line="23" id="ent0013"><rect fill="#F1F1F1" height="56.2656" rx="2.5" ry="2.5" style="stroke:#181818;stroke-width:0.5;" width="152.7158" x="403" y="488.2969"/><ellipse cx="418" cy="508.4297" fill="#ADD1B2" rx="11" ry="11" style="stroke:#181818;stroke-width:1;"/><path d="M420.9688,514.0703 Q420.3906,514.3672 419.75,514.5078 Q419.1094,514.6641 418.4063,514.6641 Q415.9063,514.6641 414.5781,513.0234 Q413.2656,511.3672 413.2656,508.2422 Q413.2656,505.1172 414.5781,503.4609 Q415.9063,501.8047 418.4063,501.8047 Q419.1094,501.8047 419.75,501.9609 Q420.4063,502.1172 420.9688,502.4141 L420.9688,505.1328 Q420.3438,504.5547 419.75,504.2891 Q419.1563,504.0078 418.5313,504.0078 Q417.1875,504.0078 416.5,505.0859 Q415.8125,506.1484 415.8125,508.2422 Q415.8125,510.3359 416.5,511.4141 Q417.1875,512.4766 418.5313,512.4766 Q419.1563,512.4766 419.75,512.2109 Q420.3438,511.9297 420.9688,511.3516 L420.9688,514.0703 Z " fill="#000000"/><text fill="#000000" font-family="sans-serif" font-size="12" font-style="italic" lengthAdjust="spacing" textLength="83.918" x="450.3989" y="504.4355">&#171;controlador&#187;</text><text fill="#000000" font-family="sans-serif" font-size="14" lengthAdjust="spacing" textLength="120.7158" x="432" y="520.2607">ControladorLogin</text><line style="stroke:#181818;stroke-width:0.5;" x1="404" x2="554.7158" y1="528.5625" y2="528.5625"/><line style="stroke:#181818;stroke-width:0.5;" x1="404" x2="554.7158" y1="536.5625" y2="536.5625"/></g><!--class ControladorEscanearQR--><g class="entity" data-qualified-name="Clases controladoras.ControladorEscanearQR" data-source-line="24" id="ent0014"><rect fill="#F1F1F1" height="56.2656" rx="2.5" ry="2.5" style="stroke:#181818;stroke-width:0.5;" width="199.6855" x="379.5" y="124.2969"/><ellipse cx="394.5" cy="144.4297" fill="#ADD1B2" rx="11" ry="11" style="stroke:#181818;stroke-width:1;"/><path d="M397.4688,150.0703 Q396.8906,150.3672 396.25,150.5078 Q395.6094,150.6641 394.9063,150.6641 Q392.4063,150.6641 391.0781,149.0234 Q389.7656,147.3672 389.7656,144.2422 Q389.7656,141.1172 391.0781,139.4609 Q392.4063,137.8047 394.9063,137.8047 Q395.6094,137.8047 396.25,137.9609 Q396.9063,138.1172 397.4688,138.4141 L397.4688,141.1328 Q396.8438,140.5547 396.25,140.2891 Q395.6563,140.0078 395.0313,140.0078 Q393.6875,140.0078 393,141.0859 Q392.3125,142.1484 392.3125,144.2422 Q392.3125,146.3359 393,147.4141 Q393.6875,148.4766 395.0313,148.4766 Q395.6563,148.4766 396.25,148.2109 Q396.8438,147.9297 397.4688,147.3516 L397.4688,150.0703 Z " fill="#000000"/><text fill="#000000" font-family="sans-serif" font-size="12" font-style="italic" lengthAdjust="spacing" textLength="83.918" x="450.3838" y="140.4355">&#171;controlador&#187;</text><text fill="#000000" font-family="sans-serif" font-size="14" lengthAdjust="spacing" textLength="167.6855" x="408.5" y="156.2607">ControladorEscanearQR</text><line style="stroke:#181818;stroke-width:0.5;" x1="380.5" x2="578.1855" y1="164.5625" y2="164.5625"/><line style="stroke:#181818;stroke-width:0.5;" x1="380.5" x2="578.1855" y1="172.5625" y2="172.5625"/></g><!--class ControladorConsultarClipsGenerados--><g class="entity" data-qualified-name="Clases controladoras.ControladorConsultarClipsGenerados" data-source-line="25" id="ent0015"><rect fill="#F1F1F1" height="56.2656" rx="2.5" ry="2.5" style="stroke:#181818;stroke-width:0.5;" width="291.5605" x="333.5" y="215.2969"/><ellipse cx="348.5" cy="235.4297" fill="#ADD1B2" rx="11" ry="11" style="stroke:#181818;stroke-width:1;"/><path d="M351.4688,241.0703 Q350.8906,241.3672 350.25,241.5078 Q349.6094,241.6641 348.9063,241.6641 Q346.4063,241.6641 345.0781,240.0234 Q343.7656,238.3672 343.7656,235.2422 Q343.7656,232.1172 345.0781,230.4609 Q346.4063,228.8047 348.9063,228.8047 Q349.6094,228.8047 350.25,228.9609 Q350.9063,229.1172 351.4688,229.4141 L351.4688,232.1328 Q350.8438,231.5547 350.25,231.2891 Q349.6563,231.0078 349.0313,231.0078 Q347.6875,231.0078 347,232.0859 Q346.3125,233.1484 346.3125,235.2422 Q346.3125,237.3359 347,238.4141 Q347.6875,239.4766 349.0313,239.4766 Q349.6563,239.4766 350.25,239.2109 Q350.8438,238.9297 351.4688,238.3516 L351.4688,241.0703 Z " fill="#000000"/><text fill="#000000" font-family="sans-serif" font-size="12" font-style="italic" lengthAdjust="spacing" textLength="83.918" x="450.3213" y="231.4355">&#171;controlador&#187;</text><text fill="#000000" font-family="sans-serif" font-size="14" lengthAdjust="spacing" textLength="259.5605" x="362.5" y="247.2607">ControladorConsultarClipsGenerados</text><line style="stroke:#181818;stroke-width:0.5;" x1="334.5" x2="624.0605" y1="255.5625" y2="255.5625"/><line style="stroke:#181818;stroke-width:0.5;" x1="334.5" x2="624.0605" y1="263.5625" y2="263.5625"/></g><!--class ControladorMarcarClipFavorito--><g class="entity" data-qualified-name="Clases controladoras.ControladorMarcarClipFavorito" data-source-line="26" id="ent0016"><rect fill="#F1F1F1" height="56.2656" rx="2.5" ry="2.5" style="stroke:#181818;stroke-width:0.5;" width="246.7715" x="356" y="670.2969"/><ellipse cx="371" cy="690.4297" fill="#ADD1B2" rx="11" ry="11" style="stroke:#181818;stroke-width:1;"/><path d="M373.9688,696.0703 Q373.3906,696.3672 372.75,696.5078 Q372.1094,696.6641 371.4063,696.6641 Q368.9063,696.6641 367.5781,695.0234 Q366.2656,693.3672 366.2656,690.2422 Q366.2656,687.1172 367.5781,685.4609 Q368.9063,683.8047 371.4063,683.8047 Q372.1094,683.8047 372.75,683.9609 Q373.4063,684.1172 373.9688,684.4141 L373.9688,687.1328 Q373.3438,686.5547 372.75,686.2891 Q372.1563,686.0078 371.5313,686.0078 Q370.1875,686.0078 369.5,687.0859 Q368.8125,688.1484 368.8125,690.2422 Q368.8125,692.3359 369.5,693.4141 Q370.1875,694.4766 371.5313,694.4766 Q372.1563,694.4766 372.75,694.2109 Q373.3438,693.9297 373.9688,693.3516 L373.9688,696.0703 Z " fill="#000000"/><text fill="#000000" font-family="sans-serif" font-size="12" font-style="italic" lengthAdjust="spacing" textLength="83.918" x="450.4268" y="686.4355">&#171;controlador&#187;</text><text fill="#000000" font-family="sans-serif" font-size="14" lengthAdjust="spacing" textLength="214.7715" x="385" y="702.2607">ControladorMarcarClipFavorito</text><line style="stroke:#181818;stroke-width:0.5;" x1="357" x2="601.7715" y1="710.5625" y2="710.5625"/><line style="stroke:#181818;stroke-width:0.5;" x1="357" x2="601.7715" y1="718.5625" y2="718.5625"/></g><!--class ControladorConsultarEstadisticasPersonales--><g class="entity" data-qualified-name="Clases controladoras.ControladorConsultarEstadisticasPersonales" data-source-line="27" id="ent0017"><rect fill="#F1F1F1" height="56.2656" rx="2.5" ry="2.5" style="stroke:#181818;stroke-width:0.5;" width="340.9434" x="309" y="761.2969"/><ellipse cx="324" cy="781.4297" fill="#ADD1B2" rx="11" ry="11" style="stroke:#181818;stroke-width:1;"/><path d="M326.9688,787.0703 Q326.3906,787.3672 325.75,787.5078 Q325.1094,787.6641 324.4063,787.6641 Q321.9063,787.6641 320.5781,786.0234 Q319.2656,784.3672 319.2656,781.2422 Q319.2656,778.1172 320.5781,776.4609 Q321.9063,774.8047 324.4063,774.8047 Q325.1094,774.8047 325.75,774.9609 Q326.4063,775.1172 326.9688,775.4141 L326.9688,778.1328 Q326.3438,777.5547 325.75,777.2891 Q325.1563,777.0078 324.5313,777.0078 Q323.1875,777.0078 322.5,778.0859 Q321.8125,779.1484 321.8125,781.2422 Q321.8125,783.3359 322.5,784.4141 Q323.1875,785.4766 324.5313,785.4766 Q325.1563,785.4766 325.75,785.2109 Q326.3438,784.9297 326.9688,784.3516 L326.9688,787.0703 Z " fill="#000000"/><text fill="#000000" font-family="sans-serif" font-size="12" font-style="italic" lengthAdjust="spacing" textLength="83.918" x="450.5127" y="777.4355">&#171;controlador&#187;</text><text fill="#000000" font-family="sans-serif" font-size="14" lengthAdjust="spacing" textLength="308.9434" x="338" y="793.2607">ControladorConsultarEstadisticasPersonales</text><line style="stroke:#181818;stroke-width:0.5;" x1="310" x2="648.9434" y1="801.5625" y2="801.5625"/><line style="stroke:#181818;stroke-width:0.5;" x1="310" x2="648.9434" y1="809.5625" y2="809.5625"/></g><!--class ControladorGestionarClipsRegistrados--><g class="entity" data-qualified-name="Clases controladoras.ControladorGestionarClipsRegistrados" data-source-line="28" id="ent0018"><rect fill="#F1F1F1" height="56.2656" rx="2.5" ry="2.5" style="stroke:#181818;stroke-width:0.5;" width="299.3262" x="330" y="852.2969"/><ellipse cx="345" cy="872.4297" fill="#ADD1B2" rx="11" ry="11" style="stroke:#181818;stroke-width:1;"/><path d="M347.9688,878.0703 Q347.3906,878.3672 346.75,878.5078 Q346.1094,878.6641 345.4063,878.6641 Q342.9063,878.6641 341.5781,877.0234 Q340.2656,875.3672 340.2656,872.2422 Q340.2656,869.1172 341.5781,867.4609 Q342.9063,865.8047 345.4063,865.8047 Q346.1094,865.8047 346.75,865.9609 Q347.4063,866.1172 347.9688,866.4141 L347.9688,869.1328 Q347.3438,868.5547 346.75,868.2891 Q346.1563,868.0078 345.5313,868.0078 Q344.1875,868.0078 343.5,869.0859 Q342.8125,870.1484 342.8125,872.2422 Q342.8125,874.3359 343.5,875.4141 Q344.1875,876.4766 345.5313,876.4766 Q346.1563,876.4766 346.75,876.2109 Q347.3438,875.9297 347.9688,875.3516 L347.9688,878.0703 Z " fill="#000000"/><text fill="#000000" font-family="sans-serif" font-size="12" font-style="italic" lengthAdjust="spacing" textLength="83.918" x="450.7041" y="868.4355">&#171;controlador&#187;</text><text fill="#000000" font-family="sans-serif" font-size="14" lengthAdjust="spacing" textLength="267.3262" x="359" y="884.2607">ControladorGestionarClipsRegistrados</text><line style="stroke:#181818;stroke-width:0.5;" x1="331" x2="628.3262" y1="892.5625" y2="892.5625"/><line style="stroke:#181818;stroke-width:0.5;" x1="331" x2="628.3262" y1="900.5625" y2="900.5625"/></g><!--class ControladorConsultarUsuariosSistema--><g class="entity" data-qualified-name="Clases controladoras.ControladorConsultarUsuariosSistema" data-source-line="29" id="ent0019"><rect fill="#F1F1F1" height="56.2656" rx="2.5" ry="2.5" style="stroke:#181818;stroke-width:0.5;" width="298.6836" x="330" y="397.2969"/><ellipse cx="345" cy="417.4297" fill="#ADD1B2" rx="11" ry="11" style="stroke:#181818;stroke-width:1;"/><path d="M347.9688,423.0703 Q347.3906,423.3672 346.75,423.5078 Q346.1094,423.6641 345.4063,423.6641 Q342.9063,423.6641 341.5781,422.0234 Q340.2656,420.3672 340.2656,417.2422 Q340.2656,414.1172 341.5781,412.4609 Q342.9063,410.8047 345.4063,410.8047 Q346.1094,410.8047 346.75,410.9609 Q347.4063,411.1172 347.9688,411.4141 L347.9688,414.1328 Q347.3438,413.5547 346.75,413.2891 Q346.1563,413.0078 345.5313,413.0078 Q344.1875,413.0078 343.5,414.0859 Q342.8125,415.1484 342.8125,417.2422 Q342.8125,419.3359 343.5,420.4141 Q344.1875,421.4766 345.5313,421.4766 Q346.1563,421.4766 346.75,421.2109 Q347.3438,420.9297 347.9688,420.3516 L347.9688,423.0703 Z " fill="#000000"/><text fill="#000000" font-family="sans-serif" font-size="12" font-style="italic" lengthAdjust="spacing" textLength="83.918" x="450.3828" y="413.4355">&#171;controlador&#187;</text><text fill="#000000" font-family="sans-serif" font-size="14" lengthAdjust="spacing" textLength="266.6836" x="359" y="429.2607">ControladorConsultarUsuariosSistema</text><line style="stroke:#181818;stroke-width:0.5;" x1="331" x2="627.6836" y1="437.5625" y2="437.5625"/><line style="stroke:#181818;stroke-width:0.5;" x1="331" x2="627.6836" y1="445.5625" y2="445.5625"/></g><!--class ControladorGestionarUsuariosSistema--><g class="entity" data-qualified-name="Clases controladoras.ControladorGestionarUsuariosSistema" data-source-line="30" id="ent0020"><rect fill="#F1F1F1" height="56.2656" rx="2.5" ry="2.5" style="stroke:#181818;stroke-width:0.5;" width="299.4971" x="330" y="306.2969"/><ellipse cx="345" cy="326.4297" fill="#ADD1B2" rx="11" ry="11" style="stroke:#181818;stroke-width:1;"/><path d="M347.9688,332.0703 Q347.3906,332.3672 346.75,332.5078 Q346.1094,332.6641 345.4063,332.6641 Q342.9063,332.6641 341.5781,331.0234 Q340.2656,329.3672 340.2656,326.2422 Q340.2656,323.1172 341.5781,321.4609 Q342.9063,319.8047 345.4063,319.8047 Q346.1094,319.8047 346.75,319.9609 Q347.4063,320.1172 347.9688,320.4141 L347.9688,323.1328 Q347.3438,322.5547 346.75,322.2891 Q346.1563,322.0078 345.5313,322.0078 Q344.1875,322.0078 343.5,323.0859 Q342.8125,324.1484 342.8125,326.2422 Q342.8125,328.3359 343.5,329.4141 Q344.1875,330.4766 345.5313,330.4766 Q346.1563,330.4766 346.75,330.2109 Q347.3438,329.9297 347.9688,329.3516 L347.9688,332.0703 Z " fill="#000000"/><text fill="#000000" font-family="sans-serif" font-size="12" font-style="italic" lengthAdjust="spacing" textLength="83.918" x="450.7896" y="322.4355">&#171;controlador&#187;</text><text fill="#000000" font-family="sans-serif" font-size="14" lengthAdjust="spacing" textLength="267.4971" x="359" y="338.2607">ControladorGestionarUsuariosSistema</text><line style="stroke:#181818;stroke-width:0.5;" x1="331" x2="628.4971" y1="346.5625" y2="346.5625"/><line style="stroke:#181818;stroke-width:0.5;" x1="331" x2="628.4971" y1="354.5625" y2="354.5625"/></g><!--class ControladorConsultarEstadisticasGlobales--><g class="entity" data-qualified-name="Clases controladoras.ControladorConsultarEstadisticasGlobales" data-source-line="31" id="ent0021"><rect fill="#F1F1F1" height="56.2656" rx="2.5" ry="2.5" style="stroke:#181818;stroke-width:0.5;" width="325.5898" x="316.5" y="579.2969"/><ellipse cx="331.5" cy="599.4297" fill="#ADD1B2" rx="11" ry="11" style="stroke:#181818;stroke-width:1;"/><path d="M334.4688,605.0703 Q333.8906,605.3672 333.25,605.5078 Q332.6094,605.6641 331.9063,605.6641 Q329.4063,605.6641 328.0781,604.0234 Q326.7656,602.3672 326.7656,599.2422 Q326.7656,596.1172 328.0781,594.4609 Q329.4063,592.8047 331.9063,592.8047 Q332.6094,592.8047 333.25,592.9609 Q333.9063,593.1172 334.4688,593.4141 L334.4688,596.1328 Q333.8438,595.5547 333.25,595.2891 Q332.6563,595.0078 332.0313,595.0078 Q330.6875,595.0078 330,596.0859 Q329.3125,597.1484 329.3125,599.2422 Q329.3125,601.3359 330,602.4141 Q330.6875,603.4766 332.0313,603.4766 Q332.6563,603.4766 333.25,603.2109 Q333.8438,602.9297 334.4688,602.3516 L334.4688,605.0703 Z " fill="#000000"/><text fill="#000000" font-family="sans-serif" font-size="12" font-style="italic" lengthAdjust="spacing" textLength="83.918" x="450.3359" y="595.4355">&#171;controlador&#187;</text><text fill="#000000" font-family="sans-serif" font-size="14" lengthAdjust="spacing" textLength="293.5898" x="345.5" y="611.2607">ControladorConsultarEstadisticasGlobales</text><line style="stroke:#181818;stroke-width:0.5;" x1="317.5" x2="641.0898" y1="619.5625" y2="619.5625"/><line style="stroke:#181818;stroke-width:0.5;" x1="317.5" x2="641.0898" y1="627.5625" y2="627.5625"/></g><!--class Usuario--><g class="entity" data-qualified-name="Clases modelo.Usuario" data-source-line="35" id="ent0023"><rect fill="#F1F1F1" height="56.2656" rx="2.5" ry="2.5" style="stroke:#181818;stroke-width:0.5;" width="87.5195" x="733" y="443.2969"/><ellipse cx="748" cy="463.4297" fill="#ADD1B2" rx="11" ry="11" style="stroke:#181818;stroke-width:1;"/><path d="M750.9688,469.0703 Q750.3906,469.3672 749.75,469.5078 Q749.1094,469.6641 748.4063,469.6641 Q745.9063,469.6641 744.5781,468.0234 Q743.2656,466.3672 743.2656,463.2422 Q743.2656,460.1172 744.5781,458.4609 Q745.9063,456.8047 748.4063,456.8047 Q749.1094,456.8047 749.75,456.9609 Q750.4063,457.1172 750.9688,457.4141 L750.9688,460.1328 Q750.3438,459.5547 749.75,459.2891 Q749.1563,459.0078 748.5313,459.0078 Q747.1875,459.0078 746.5,460.0859 Q745.8125,461.1484 745.8125,463.2422 Q745.8125,465.3359 746.5,466.4141 Q747.1875,467.4766 748.5313,467.4766 Q749.1563,467.4766 749.75,467.2109 Q750.3438,466.9297 750.9688,466.3516 L750.9688,469.0703 Z " fill="#000000"/><text fill="#000000" font-family="sans-serif" font-size="12" font-style="italic" lengthAdjust="spacing" textLength="59.5195" x="760" y="459.4355">&#171;modelo&#187;</text><text fill="#000000" font-family="sans-serif" font-size="14" lengthAdjust="spacing" textLength="53.2041" x="763.1577" y="475.2607">Usuario</text><line style="stroke:#181818;stroke-width:0.5;" x1="734" x2="819.5195" y1="483.5625" y2="483.5625"/><line style="stroke:#181818;stroke-width:0.5;" x1="734" x2="819.5195" y1="491.5625" y2="491.5625"/></g><!--class Campo--><g class="entity" data-qualified-name="Clases modelo.Campo" data-source-line="36" id="ent0024"><rect fill="#F1F1F1" height="56.2656" rx="2.5" ry="2.5" style="stroke:#181818;stroke-width:0.5;" width="87.5195" x="733" y="261.2969"/><ellipse cx="748" cy="281.4297" fill="#ADD1B2" rx="11" ry="11" style="stroke:#181818;stroke-width:1;"/><path d="M750.9688,287.0703 Q750.3906,287.3672 749.75,287.5078 Q749.1094,287.6641 748.4063,287.6641 Q745.9063,287.6641 744.5781,286.0234 Q743.2656,284.3672 743.2656,281.2422 Q743.2656,278.1172 744.5781,276.4609 Q745.9063,274.8047 748.4063,274.8047 Q749.1094,274.8047 749.75,274.9609 Q750.4063,275.1172 750.9688,275.4141 L750.9688,278.1328 Q750.3438,277.5547 749.75,277.2891 Q749.1563,277.0078 748.5313,277.0078 Q747.1875,277.0078 746.5,278.0859 Q745.8125,279.1484 745.8125,281.2422 Q745.8125,283.3359 746.5,284.4141 Q747.1875,285.4766 748.5313,285.4766 Q749.1563,285.4766 749.75,285.2109 Q750.3438,284.9297 750.9688,284.3516 L750.9688,287.0703 Z " fill="#000000"/><text fill="#000000" font-family="sans-serif" font-size="12" font-style="italic" lengthAdjust="spacing" textLength="59.5195" x="760" y="277.4355">&#171;modelo&#187;</text><text fill="#000000" font-family="sans-serif" font-size="14" lengthAdjust="spacing" textLength="49.4443" x="765.0376" y="293.2607">Campo</text><line style="stroke:#181818;stroke-width:0.5;" x1="734" x2="819.5195" y1="301.5625" y2="301.5625"/><line style="stroke:#181818;stroke-width:0.5;" x1="734" x2="819.5195" y1="309.5625" y2="309.5625"/></g><!--class Hoyo--><g class="entity" data-qualified-name="Clases modelo.Hoyo" data-source-line="37" id="ent0025"><rect fill="#F1F1F1" height="56.2656" rx="2.5" ry="2.5" style="stroke:#181818;stroke-width:0.5;" width="87.5195" x="733" y="352.2969"/><ellipse cx="748" cy="372.4297" fill="#ADD1B2" rx="11" ry="11" style="stroke:#181818;stroke-width:1;"/><path d="M750.9688,378.0703 Q750.3906,378.3672 749.75,378.5078 Q749.1094,378.6641 748.4063,378.6641 Q745.9063,378.6641 744.5781,377.0234 Q743.2656,375.3672 743.2656,372.2422 Q743.2656,369.1172 744.5781,367.4609 Q745.9063,365.8047 748.4063,365.8047 Q749.1094,365.8047 749.75,365.9609 Q750.4063,366.1172 750.9688,366.4141 L750.9688,369.1328 Q750.3438,368.5547 749.75,368.2891 Q749.1563,368.0078 748.5313,368.0078 Q747.1875,368.0078 746.5,369.0859 Q745.8125,370.1484 745.8125,372.2422 Q745.8125,374.3359 746.5,375.4141 Q747.1875,376.4766 748.5313,376.4766 Q749.1563,376.4766 749.75,376.2109 Q750.3438,375.9297 750.9688,375.3516 L750.9688,378.0703 Z " fill="#000000"/><text fill="#000000" font-family="sans-serif" font-size="12" font-style="italic" lengthAdjust="spacing" textLength="59.5195" x="760" y="368.4355">&#171;modelo&#187;</text><text fill="#000000" font-family="sans-serif" font-size="14" lengthAdjust="spacing" textLength="35.9434" x="771.7881" y="384.2607">Hoyo</text><line style="stroke:#181818;stroke-width:0.5;" x1="734" x2="819.5195" y1="392.5625" y2="392.5625"/><line style="stroke:#181818;stroke-width:0.5;" x1="734" x2="819.5195" y1="400.5625" y2="400.5625"/></g><!--class Camara--><g class="entity" data-qualified-name="Clases modelo.Camara" data-source-line="38" id="ent0026"><rect fill="#F1F1F1" height="56.2656" rx="2.5" ry="2.5" style="stroke:#181818;stroke-width:0.5;" width="87.5195" x="733" y="79.2969"/><ellipse cx="748" cy="99.4297" fill="#ADD1B2" rx="11" ry="11" style="stroke:#181818;stroke-width:1;"/><path d="M750.9688,105.0703 Q750.3906,105.3672 749.75,105.5078 Q749.1094,105.6641 748.4063,105.6641 Q745.9063,105.6641 744.5781,104.0234 Q743.2656,102.3672 743.2656,99.2422 Q743.2656,96.1172 744.5781,94.4609 Q745.9063,92.8047 748.4063,92.8047 Q749.1094,92.8047 749.75,92.9609 Q750.4063,93.1172 750.9688,93.4141 L750.9688,96.1328 Q750.3438,95.5547 749.75,95.2891 Q749.1563,95.0078 748.5313,95.0078 Q747.1875,95.0078 746.5,96.0859 Q745.8125,97.1484 745.8125,99.2422 Q745.8125,101.3359 746.5,102.4141 Q747.1875,103.4766 748.5313,103.4766 Q749.1563,103.4766 749.75,103.2109 Q750.3438,102.9297 750.9688,102.3516 L750.9688,105.0703 Z " fill="#000000"/><text fill="#000000" font-family="sans-serif" font-size="12" font-style="italic" lengthAdjust="spacing" textLength="59.5195" x="760" y="95.4355">&#171;modelo&#187;</text><text fill="#000000" font-family="sans-serif" font-size="14" lengthAdjust="spacing" textLength="54.9063" x="762.3066" y="111.2607">Camara</text><line style="stroke:#181818;stroke-width:0.5;" x1="734" x2="819.5195" y1="119.5625" y2="119.5625"/><line style="stroke:#181818;stroke-width:0.5;" x1="734" x2="819.5195" y1="127.5625" y2="127.5625"/></g><!--class SesionCaptura--><g class="entity" data-qualified-name="Clases modelo.SesionCaptura" data-source-line="39" id="ent0027"><rect fill="#F1F1F1" height="56.2656" rx="2.5" ry="2.5" style="stroke:#181818;stroke-width:0.5;" width="134.0605" x="710" y="170.2969"/><ellipse cx="725" cy="190.4297" fill="#ADD1B2" rx="11" ry="11" style="stroke:#181818;stroke-width:1;"/><path d="M727.9688,196.0703 Q727.3906,196.3672 726.75,196.5078 Q726.1094,196.6641 725.4063,196.6641 Q722.9063,196.6641 721.5781,195.0234 Q720.2656,193.3672 720.2656,190.2422 Q720.2656,187.1172 721.5781,185.4609 Q722.9063,183.8047 725.4063,183.8047 Q726.1094,183.8047 726.75,183.9609 Q727.4063,184.1172 727.9688,184.4141 L727.9688,187.1328 Q727.3438,186.5547 726.75,186.2891 Q726.1563,186.0078 725.5313,186.0078 Q724.1875,186.0078 723.5,187.0859 Q722.8125,188.1484 722.8125,190.2422 Q722.8125,192.3359 723.5,193.4141 Q724.1875,194.4766 725.5313,194.4766 Q726.1563,194.4766 726.75,194.2109 Q727.3438,193.9297 727.9688,193.3516 L727.9688,196.0703 Z " fill="#000000"/><text fill="#000000" font-family="sans-serif" font-size="12" font-style="italic" lengthAdjust="spacing" textLength="59.5195" x="760.2705" y="186.4355">&#171;modelo&#187;</text><text fill="#000000" font-family="sans-serif" font-size="14" lengthAdjust="spacing" textLength="102.0605" x="739" y="202.2607">SesionCaptura</text><line style="stroke:#181818;stroke-width:0.5;" x1="711" x2="843.0605" y1="210.5625" y2="210.5625"/><line style="stroke:#181818;stroke-width:0.5;" x1="711" x2="843.0605" y1="218.5625" y2="218.5625"/></g><!--class Clip--><g class="entity" data-qualified-name="Clases modelo.Clip" data-source-line="40" id="ent0028"><rect fill="#F1F1F1" height="56.2656" rx="2.5" ry="2.5" style="stroke:#181818;stroke-width:0.5;" width="87.5195" x="733" y="534.2969"/><ellipse cx="748" cy="554.4297" fill="#ADD1B2" rx="11" ry="11" style="stroke:#181818;stroke-width:1;"/><path d="M750.9688,560.0703 Q750.3906,560.3672 749.75,560.5078 Q749.1094,560.6641 748.4063,560.6641 Q745.9063,560.6641 744.5781,559.0234 Q743.2656,557.3672 743.2656,554.2422 Q743.2656,551.1172 744.5781,549.4609 Q745.9063,547.8047 748.4063,547.8047 Q749.1094,547.8047 749.75,547.9609 Q750.4063,548.1172 750.9688,548.4141 L750.9688,551.1328 Q750.3438,550.5547 749.75,550.2891 Q749.1563,550.0078 748.5313,550.0078 Q747.1875,550.0078 746.5,551.0859 Q745.8125,552.1484 745.8125,554.2422 Q745.8125,556.3359 746.5,557.4141 Q747.1875,558.4766 748.5313,558.4766 Q749.1563,558.4766 749.75,558.2109 Q750.3438,557.9297 750.9688,557.3516 L750.9688,560.0703 Z " fill="#000000"/><text fill="#000000" font-family="sans-serif" font-size="12" font-style="italic" lengthAdjust="spacing" textLength="59.5195" x="760" y="550.4355">&#171;modelo&#187;</text><text fill="#000000" font-family="sans-serif" font-size="14" lengthAdjust="spacing" textLength="26.4414" x="776.5391" y="566.2607">Clip</text><line style="stroke:#181818;stroke-width:0.5;" x1="734" x2="819.5195" y1="574.5625" y2="574.5625"/><line style="stroke:#181818;stroke-width:0.5;" x1="734" x2="819.5195" y1="582.5625" y2="582.5625"/></g><!--link VistaLogin to ControladorLogin--><g class="link" data-entity-1="ent0003" data-entity-2="ent0013" data-link-type="dependency" data-source-line="44" id="lnk29"><path codeLine="44" d="M188.54,516.2969 C245.68,516.2969 331.54,516.2969 396.75,516.2969" fill="none" id="VistaLogin-to-ControladorLogin" style="stroke:#181818;stroke-width:1;"/><polygon fill="#181818" points="402.75,516.2969,393.75,512.2969,397.75,516.2969,393.75,520.2969,402.75,516.2969" style="stroke:#181818;stroke-width:1;"/><text fill="#000000" font-family="sans-serif" font-size="13" lengthAdjust="spacing" textLength="39.8252" x="255.65" y="529.3638">CU-01</text></g><!--link VistaEscaneoQR to ControladorEscanearQR--><g class="link" data-entity-1="ent0004" data-entity-2="ent0014" data-link-type="dependency" data-source-line="45" id="lnk30"><path codeLine="45" d="M209.27,152.2969 C258.82,152.2969 318.9,152.2969 373.31,152.2969" fill="none" id="VistaEscaneoQR-to-ControladorEscanearQR" style="stroke:#181818;stroke-width:1;"/><polygon fill="#181818" points="379.31,152.2969,370.31,148.2969,374.31,152.2969,370.31,156.2969,379.31,152.2969" style="stroke:#181818;stroke-width:1;"/><text fill="#000000" font-family="sans-serif" font-size="13" lengthAdjust="spacing" textLength="39.8252" x="254.29" y="165.3638">CU-02</text></g><!--link VistaListadoClips to ControladorConsultarClipsGenerados--><g class="link" data-entity-1="ent0005" data-entity-2="ent0015" data-link-type="dependency" data-source-line="46" id="lnk31"><path codeLine="46" d="M211.81,243.2969 C247.57,243.2969 285.5,243.2969 327.36,243.2969" fill="none" id="VistaListadoClips-to-ControladorConsultarClipsGenerados" style="stroke:#181818;stroke-width:1;"/><polygon fill="#181818" points="333.36,243.2969,324.36,239.2969,328.36,243.2969,324.36,247.2969,333.36,243.2969" style="stroke:#181818;stroke-width:1;"/><text fill="#000000" font-family="sans-serif" font-size="13" lengthAdjust="spacing" textLength="39.8252" x="232.58" y="256.3638">CU-03</text></g><!--link VistaDetalleClip to ControladorMarcarClipFavorito--><g class="link" data-entity-1="ent0006" data-entity-2="ent0016" data-link-type="dependency" data-source-line="47" id="lnk32"><path codeLine="47" d="M207.59,698.2969 C250.45,698.2969 300.11,698.2969 349.9,698.2969" fill="none" id="VistaDetalleClip-to-ControladorMarcarClipFavorito" style="stroke:#181818;stroke-width:1;"/><polygon fill="#181818" points="355.9,698.2969,346.9,694.2969,350.9,698.2969,346.9,702.2969,355.9,698.2969" style="stroke:#181818;stroke-width:1;"/><text fill="#000000" font-family="sans-serif" font-size="13" lengthAdjust="spacing" textLength="39.8252" x="241.74" y="711.3638">CU-04</text></g><!--link VistaEstadisticasPersonales to ControladorConsultarEstadisticasPersonales--><g class="link" data-entity-1="ent0007" data-entity-2="ent0017" data-link-type="dependency" data-source-line="48" id="lnk33"><path codeLine="48" d="M249.43,789.2969 C268.48,789.2969 282.62,789.2969 302.74,789.2969" fill="none" id="VistaEstadisticasPersonales-to-ControladorConsultarEstadisticasPersonales" style="stroke:#181818;stroke-width:1;"/><polygon fill="#181818" points="308.74,789.2969,299.74,785.2969,303.74,789.2969,299.74,793.2969,308.74,789.2969" style="stroke:#181818;stroke-width:1;"/><text fill="#000000" font-family="sans-serif" font-size="13" lengthAdjust="spacing" textLength="39.8252" x="239.08" y="802.3638">CU-05</text></g><!--link VistaGestionClips to ControladorGestionarClipsRegistrados--><g class="link" data-entity-1="ent0008" data-entity-2="ent0018" data-link-type="dependency" data-source-line="49" id="lnk34"><path codeLine="49" d="M213.09,880.2969 C247.6,880.2969 283.54,880.2969 323.83,880.2969" fill="none" id="VistaGestionClips-to-ControladorGestionarClipsRegistrados" style="stroke:#181818;stroke-width:1;"/><polygon fill="#181818" points="329.83,880.2969,320.83,876.2969,324.83,880.2969,320.83,884.2969,329.83,880.2969" style="stroke:#181818;stroke-width:1;"/><text fill="#000000" font-family="sans-serif" font-size="13" lengthAdjust="spacing" textLength="39.8252" x="231.46" y="893.3638">CU-06</text></g><!--link VistaUsuariosAdministrador to ControladorConsultarUsuariosSistema--><g class="link" data-entity-1="ent0009" data-entity-2="ent0019" data-link-type="dependency" data-source-line="50" id="lnk35"><path codeLine="50" d="M249.43,425.2969 C275.12,425.2969 296.8,425.2969 323.74,425.2969" fill="none" id="VistaUsuariosAdministrador-to-ControladorConsultarUsuariosSistema" style="stroke:#181818;stroke-width:1;"/><polygon fill="#181818" points="329.74,425.2969,320.74,421.2969,324.74,425.2969,320.74,429.2969,329.74,425.2969" style="stroke:#181818;stroke-width:1;"/><text fill="#000000" font-family="sans-serif" font-size="13" lengthAdjust="spacing" textLength="39.8252" x="249.58" y="438.3638">CU-07</text></g><!--link VistaGestionUsuarios to ControladorGestionarUsuariosSistema--><g class="link" data-entity-1="ent0010" data-entity-2="ent0020" data-link-type="dependency" data-source-line="51" id="lnk36"><path codeLine="51" d="M226.7,334.2969 C258.3,334.2969 288.66,334.2969 323.77,334.2969" fill="none" id="VistaGestionUsuarios-to-ControladorGestionarUsuariosSistema" style="stroke:#181818;stroke-width:1;"/><polygon fill="#181818" points="329.77,334.2969,320.77,330.2969,324.77,334.2969,320.77,338.2969,329.77,334.2969" style="stroke:#181818;stroke-width:1;"/><text fill="#000000" font-family="sans-serif" font-size="13" lengthAdjust="spacing" textLength="39.8252" x="238.23" y="347.3638">CU-08</text></g><!--link VistaEstadisticasGlobales to ControladorConsultarEstadisticasGlobales--><g class="link" data-entity-1="ent0011" data-entity-2="ent0021" data-link-type="dependency" data-source-line="52" id="lnk37"><path codeLine="52" d="M241.86,607.2969 C265.42,607.2969 284.93,607.2969 310.19,607.2969" fill="none" id="VistaEstadisticasGlobales-to-ControladorConsultarEstadisticasGlobales" style="stroke:#181818;stroke-width:1;"/><polygon fill="#181818" points="316.19,607.2969,307.19,603.2969,311.19,607.2969,307.19,611.2969,316.19,607.2969" style="stroke:#181818;stroke-width:1;"/><text fill="#000000" font-family="sans-serif" font-size="13" lengthAdjust="spacing" textLength="39.8252" x="239.03" y="620.3638">CU-09</text></g><!--link ControladorLogin to Usuario--><g class="link" data-entity-1="ent0013" data-entity-2="ent0023" data-link-type="dependency" data-source-line="55" id="lnk38"><path codeLine="55" d="M556.11,490.4969 C612.24,490.4969 680.44,490.4969 726.95,490.4969" fill="none" id="ControladorLogin-to-Usuario" style="stroke:#181818;stroke-width:1;"/><polygon fill="#181818" points="732.95,490.4969,723.95,486.4969,727.95,490.4969,723.95,494.4969,732.95,490.4969" style="stroke:#181818;stroke-width:1;"/></g><!--link ControladorEscanearQR to Usuario--><g class="link" data-entity-1="ent0014" data-entity-2="ent0023" data-link-type="dependency" data-source-line="57" id="lnk39"><path codeLine="57" d="M579.74,178.2969 C608.87,178.2969 633,178.2969 633,178.2969 C633,178.2969 633,447.2969 633,447.2969 C633,447.2969 684.31,447.2969 726.62,447.2969" fill="none" id="ControladorEscanearQR-to-Usuario" style="stroke:#181818;stroke-width:1;"/><polygon fill="#181818" points="732.62,447.2969,723.62,443.2969,727.62,447.2969,723.62,451.2969,732.62,447.2969" style="stroke:#181818;stroke-width:1;"/></g><!--link ControladorEscanearQR to Camara--><g class="link" data-entity-1="ent0014" data-entity-2="ent0026" data-link-type="dependency" data-source-line="58" id="lnk40"><path codeLine="58" d="M579.81,129.7969 C631.76,129.7969 686.57,129.7969 726.77,129.7969" fill="none" id="ControladorEscanearQR-to-Camara" style="stroke:#181818;stroke-width:1;"/><polygon fill="#181818" points="732.77,129.7969,723.77,125.7969,727.77,129.7969,723.77,133.7969,732.77,129.7969" style="stroke:#181818;stroke-width:1;"/></g><!--link ControladorEscanearQR to Campo--><g class="link" data-entity-1="ent0014" data-entity-2="ent0024" data-link-type="dependency" data-source-line="59" id="lnk41"><path codeLine="59" d="M579.61,174.2969 C611.65,174.2969 639,174.2969 639,174.2969 C639,174.2969 639,262.9669 639,262.9669 C639,262.9669 686.57,262.9669 726.96,262.9669" fill="none" id="ControladorEscanearQR-to-Campo" style="stroke:#181818;stroke-width:1;"/><polygon fill="#181818" points="732.96,262.9669,723.96,258.9669,727.96,262.9669,723.96,266.9669,732.96,262.9669" style="stroke:#181818;stroke-width:1;"/></g><!--link ControladorEscanearQR to Hoyo--><g class="link" data-entity-1="ent0014" data-entity-2="ent0025" data-link-type="dependency" data-source-line="60" id="lnk42"><path codeLine="60" d="M579.69,176.2969 C610.76,176.2969 637,176.2969 637,176.2969 C637,176.2969 637,354.7969 637,354.7969 C637,354.7969 685.69,354.7969 726.7,354.7969" fill="none" id="ControladorEscanearQR-to-Hoyo" style="stroke:#181818;stroke-width:1;"/><polygon fill="#181818" points="732.7,354.7969,723.7,350.7969,727.7,354.7969,723.7,358.7969,732.7,354.7969" style="stroke:#181818;stroke-width:1;"/></g><!--link ControladorEscanearQR to SesionCaptura--><g class="link" data-entity-1="ent0014" data-entity-2="ent0027" data-link-type="dependency" data-source-line="61" id="lnk43"><path codeLine="61" d="M579.81,172.2969 C622.65,172.2969 665.52,172.2969 703.89,172.2969" fill="none" id="ControladorEscanearQR-to-SesionCaptura" style="stroke:#181818;stroke-width:1;"/><polygon fill="#181818" points="709.89,172.2969,700.89,168.2969,704.89,172.2969,700.89,176.2969,709.89,172.2969" style="stroke:#181818;stroke-width:1;"/></g><!--link ControladorConsultarClipsGenerados to Usuario--><g class="link" data-entity-1="ent0015" data-entity-2="ent0023" data-link-type="dependency" data-source-line="63" id="lnk44"><path codeLine="63" d="M625.58,267.9669 C638.03,267.9669 646,267.9669 646,267.9669 C646,267.9669 646,445.2969 646,445.2969 C646,445.2969 688.65,445.2969 726.65,445.2969" fill="none" id="ControladorConsultarClipsGenerados-to-Usuario" style="stroke:#181818;stroke-width:1;"/><polygon fill="#181818" points="732.65,445.2969,723.65,441.2969,727.65,445.2969,723.65,449.2969,732.65,445.2969" style="stroke:#181818;stroke-width:1;"/></g><!--link ControladorConsultarClipsGenerados to Clip--><g class="link" data-entity-1="ent0015" data-entity-2="ent0028" data-link-type="dependency" data-source-line="64" id="lnk45"><path codeLine="64" d="M625.81,266.2969 C677.02,266.2969 722,266.2969 722,266.2969 C722,266.2969 722,539.2969 722,539.2969 C722,539.2969 720.47,539.2969 726.87,539.2969" fill="none" id="ControladorConsultarClipsGenerados-to-Clip" style="stroke:#181818;stroke-width:1;"/><polygon fill="#181818" points="732.87,539.2969,723.87,535.2969,727.87,539.2969,723.87,543.2969,732.87,539.2969" style="stroke:#181818;stroke-width:1;"/></g><!--link ControladorConsultarClipsGenerados to Campo--><g class="link" data-entity-1="ent0015" data-entity-2="ent0024" data-link-type="dependency" data-source-line="65" id="lnk46"><path codeLine="65" d="M625.64,264.6269 C664.72,264.6269 698.05,264.6269 726.82,264.6269" fill="none" id="ControladorConsultarClipsGenerados-to-Campo" style="stroke:#181818;stroke-width:1;"/><polygon fill="#181818" points="732.82,264.6269,723.82,260.6269,727.82,264.6269,723.82,268.6269,732.82,264.6269" style="stroke:#181818;stroke-width:1;"/></g><!--link ControladorConsultarClipsGenerados to Hoyo--><g class="link" data-entity-1="ent0015" data-entity-2="ent0025" data-link-type="dependency" data-source-line="66" id="lnk47"><path codeLine="66" d="M625.74,269.6269 C631.57,269.6269 635,269.6269 635,269.6269 C635,269.6269 635,357.2969 635,357.2969 C635,357.2969 685.16,357.2969 726.85,357.2969" fill="none" id="ControladorConsultarClipsGenerados-to-Hoyo" style="stroke:#181818;stroke-width:1;"/><polygon fill="#181818" points="732.85,357.2969,723.85,353.2969,727.85,357.2969,723.85,361.2969,732.85,357.2969" style="stroke:#181818;stroke-width:1;"/></g><!--link ControladorMarcarClipFavorito to Usuario--><g class="link" data-entity-1="ent0016" data-entity-2="ent0023" data-link-type="dependency" data-source-line="68" id="lnk48"><path codeLine="68" d="M603.43,688.9669 C628.32,688.9669 647,688.9669 647,688.9669 C647,688.9669 647,494.8969 647,494.8969 C647,494.8969 689.27,494.8969 726.99,494.8969" fill="none" id="ControladorMarcarClipFavorito-to-Usuario" style="stroke:#181818;stroke-width:1;"/><polygon fill="#181818" points="732.99,494.8969,723.99,490.8969,727.99,494.8969,723.99,498.8969,732.99,494.8969" style="stroke:#181818;stroke-width:1;"/></g><!--link ControladorMarcarClipFavorito to Clip--><g class="link" data-entity-1="ent0016" data-entity-2="ent0028" data-link-type="dependency" data-source-line="69" id="lnk49"><path codeLine="69" d="M603.02,707.6269 C679.42,707.6269 763,707.6269 763,707.6269 C763,707.6269 763,638.5469 763,596.3169" fill="none" id="ControladorMarcarClipFavorito-to-Clip" style="stroke:#181818;stroke-width:1;"/><polygon fill="#181818" points="763,590.3169,759,599.3169,763,595.3169,767,599.3169,763,590.3169" style="stroke:#181818;stroke-width:1;"/></g><!--link ControladorConsultarEstadisticasPersonales to Usuario--><g class="link" data-entity-1="ent0017" data-entity-2="ent0023" data-link-type="dependency" data-source-line="71" id="lnk50"><path codeLine="71" d="M644,761.0369 C644,683.0869 644,470.7969 644,470.7969 C644,470.7969 688.02,470.7969 726.71,470.7969" fill="none" id="ControladorConsultarEstadisticasPersonales-to-Usuario" style="stroke:#181818;stroke-width:1;"/><polygon fill="#181818" points="732.71,470.7969,723.71,466.7969,727.71,470.7969,723.71,474.7969,732.71,470.7969" style="stroke:#181818;stroke-width:1;"/></g><!--link ControladorConsultarEstadisticasPersonales to Clip--><g class="link" data-entity-1="ent0017" data-entity-2="ent0028" data-link-type="dependency" data-source-line="72" id="lnk51"><path codeLine="72" d="M649,761.1169 C649,705.4269 649,586.6269 649,586.6269 C649,586.6269 689.92,586.6269 726.95,586.6269" fill="none" id="ControladorConsultarEstadisticasPersonales-to-Clip" style="stroke:#181818;stroke-width:1;"/><polygon fill="#181818" points="732.95,586.6269,723.95,582.6269,727.95,586.6269,723.95,590.6269,732.95,586.6269" style="stroke:#181818;stroke-width:1;"/></g><!--link ControladorGestionarClipsRegistrados to Usuario--><g class="link" data-entity-1="ent0018" data-entity-2="ent0023" data-link-type="dependency" data-source-line="74" id="lnk52"><path codeLine="74" d="M629.15,870.9669 C658.28,870.9669 680,870.9669 680,870.9669 C680,870.9669 680,497.0969 680,497.0969 C680,497.0969 701.18,497.0969 726.76,497.0969" fill="none" id="ControladorGestionarClipsRegistrados-to-Usuario" style="stroke:#181818;stroke-width:1;"/><polygon fill="#181818" points="732.76,497.0969,723.76,493.0969,727.76,497.0969,723.76,501.0969,732.76,497.0969" style="stroke:#181818;stroke-width:1;"/></g><!--link ControladorGestionarClipsRegistrados to Clip--><g class="link" data-entity-1="ent0018" data-entity-2="ent0028" data-link-type="dependency" data-source-line="75" id="lnk53"><path codeLine="75" d="M629.34,889.6269 C709.54,889.6269 792,889.6269 792,889.6269 C792,889.6269 792,675.8869 792,596.4869" fill="none" id="ControladorGestionarClipsRegistrados-to-Clip" style="stroke:#181818;stroke-width:1;"/><polygon fill="#181818" points="792,590.4869,788,599.4869,792,595.4869,796,599.4869,792,590.4869" style="stroke:#181818;stroke-width:1;"/></g><!--link ControladorConsultarUsuariosSistema to Usuario--><g class="link" data-entity-1="ent0019" data-entity-2="ent0023" data-link-type="dependency" data-source-line="77" id="lnk54"><path codeLine="77" d="M629.12,451.2969 C667.03,451.2969 698.87,451.2969 726.77,451.2969" fill="none" id="ControladorConsultarUsuariosSistema-to-Usuario" style="stroke:#181818;stroke-width:1;"/><polygon fill="#181818" points="732.77,451.2969,723.77,447.2969,727.77,451.2969,723.77,455.2969,732.77,451.2969" style="stroke:#181818;stroke-width:1;"/></g><!--link ControladorGestionarUsuariosSistema to Usuario--><g class="link" data-entity-1="ent0020" data-entity-2="ent0023" data-link-type="dependency" data-source-line="79" id="lnk55"><path codeLine="79" d="M629.3,359.7969 C630.41,359.7969 631,359.7969 631,359.7969 C631,359.7969 631,449.2969 631,449.2969 C631,449.2969 683.83,449.2969 726.8,449.2969" fill="none" id="ControladorGestionarUsuariosSistema-to-Usuario" style="stroke:#181818;stroke-width:1;"/><polygon fill="#181818" points="732.8,449.2969,723.8,445.2969,727.8,449.2969,723.8,453.2969,732.8,449.2969" style="stroke:#181818;stroke-width:1;"/></g><!--link ControladorConsultarEstadisticasGlobales to Usuario--><g class="link" data-entity-1="ent0021" data-entity-2="ent0023" data-link-type="dependency" data-source-line="81" id="lnk56"><path codeLine="81" d="M641,579.2669 C641,545.3369 641,492.6969 641,492.6969 C641,492.6969 687.13,492.6969 726.84,492.6969" fill="none" id="ControladorConsultarEstadisticasGlobales-to-Usuario" style="stroke:#181818;stroke-width:1;"/><polygon fill="#181818" points="732.84,492.6969,723.84,488.6969,727.84,492.6969,723.84,496.6969,732.84,492.6969" style="stroke:#181818;stroke-width:1;"/></g><!--link ControladorConsultarEstadisticasGlobales to Clip--><g class="link" data-entity-1="ent0021" data-entity-2="ent0028" data-link-type="dependency" data-source-line="82" id="lnk57"><path codeLine="82" d="M642.61,582.9669 C675.9,582.9669 702.23,582.9669 726.83,582.9669" fill="none" id="ControladorConsultarEstadisticasGlobales-to-Clip" style="stroke:#181818;stroke-width:1;"/><polygon fill="#181818" points="732.83,582.9669,723.83,578.9669,727.83,582.9669,723.83,586.9669,732.83,582.9669" style="stroke:#181818;stroke-width:1;"/></g><?plantuml-src dLHDRzim3BthLmYzx1IW-zwA8a2HRjc05jWIT7VMPXsXYcH8IeTis7-VP3cTh9XAiejXYE-HJnGVdN0I-RM0ni0QU8syac3HyaehPxI4MXkmlDM6Ls1r06oiPim-2jM2vtHuU-MS4VSRXryzRob-8JzF87Rbq_mKgk4F82qc4IaKkcsBN1ktqacWXUeH6bowhPTdi7AW6ecCINnmt6bkHBDol1OX9BHYh2VmirdK_oIiWpF-c_6eaFy81pUw4OfVNdRHwNGO_6GhKAY_BoZ0JVZKUYP5QodCDJgG4WE6hkEp-1_XE_eDZTKA9989vsZ33Oj5x-m6ZD3sgbuBvGzCUBO32NUSOrJEfRxFDFxPR_bWPDBMp_u5TW-GO9F22J0-1fZkDGwY_Q_TI0UcQzCS5OOMs6Eejs2goFiCJze8Frod52GVys2A_XrwpGji-eUp9zNVFUFIiz4x-9J2_y4TlNSo7iC48qEorZLAdKv7hyAJOomj3EjsDF15Roc2NnzZaINQu29etMOSq3ls-TnhVy4NAA7oFEnDmIVJj1iiMIgJOIWUNl3PtUJy9SlsIuPDPZqINh7zVPDng8cF2LwplMMKyKV6FbBViDAIebGGy9ZoBTlVP5aYsWmnnJjMM7IKg7o-OwhtR7GDKeB6atnWz98yfaVFu9ZkOpPi2JsCt6qtb6nll4AbNXzZumELGcX4z4qPq9OI14CMmWFt3QHISqpeBi73qT7O_3ubS7SvLZOFePT0TbBP2KOwr8wINVDQjDU8AcK2VPVSEjIuabwZ26LBdTAheMdzJVu2?></g></svg>