<?plantuml 1.2026.2?><svg xmlns="http://www.w3.org/2000/svg" xmlns:xlink="http://www.w3.org/1999/xlink" contentStyleType="text/css" data-diagram-type="DESCRIPTION" height="756px" preserveAspectRatio="none" style="width:1178px;height:756px;background:#FFFFFF;" version="1.1" viewBox="0 0 1178 756" width="1178px" zoomAndPan="magnify"><title>Diagrama de despliegue simplificado del sistema</title><defs/><g><g class="title" data-source-line="1"><text fill="#000000" font-family="sans-serif" font-size="14" font-weight="bold" lengthAdjust="spacing" textLength="388.2266" x="388.3352" y="22.9951">Diagrama de despliegue simplificado del sistema</text></g><!--cluster Movil--><g class="cluster" data-qualified-name="Movil" data-source-line="13" id="ent0003"><polygon fill="none" points="417.5,436.2969,427.5,426.2969,618.5,426.2969,618.5,523.2969,608.5,533.2969,417.5,533.2969,417.5,436.2969" style="stroke:#181818;stroke-width:1;"/><line style="stroke:#181818;stroke-width:1;" x1="608.5" x2="618.5" y1="436.2969" y2="426.2969"/><line style="stroke:#181818;stroke-width:1;" x1="417.5" x2="608.5" y1="436.2969" y2="436.2969"/><line style="stroke:#181818;stroke-width:1;" x1="608.5" x2="608.5" y1="436.2969" y2="533.2969"/><text fill="#000000" font-family="sans-serif" font-size="13" font-weight="bold" lengthAdjust="spacing" textLength="125.8804" x="451.0598" y="451.3638">Dispositivo m&#243;vil</text></g><!--cluster Campo--><g class="cluster" data-qualified-name="Campo" data-source-line="17" id="ent0005"><polygon fill="none" points="16,148.2969,26,138.2969,361,138.2969,361,475.2969,351,485.2969,16,485.2969,16,148.2969" style="stroke:#181818;stroke-width:1;"/><line style="stroke:#181818;stroke-width:1;" x1="351" x2="361" y1="148.2969" y2="138.2969"/><line style="stroke:#181818;stroke-width:1;" x1="16" x2="351" y1="148.2969" y2="148.2969"/><line style="stroke:#181818;stroke-width:1;" x1="351" x2="351" y1="148.2969" y2="485.2969"/><text fill="#000000" font-family="sans-serif" font-size="13" font-weight="bold" lengthAdjust="spacing" textLength="105.6187" x="131.6907" y="163.3638">Campo de golf</text></g><!--cluster Camaras--><g class="cluster" data-qualified-name="Campo.Camaras" data-source-line="18" id="ent0006"><polygon fill="none" points="48,263.2969,58,253.2969,329,253.2969,329,443.2969,319,453.2969,48,453.2969,48,263.2969" style="stroke:#181818;stroke-width:1;"/><line style="stroke:#181818;stroke-width:1;" x1="319" x2="329" y1="263.2969" y2="253.2969"/><line style="stroke:#181818;stroke-width:1;" x1="48" x2="319" y1="263.2969" y2="263.2969"/><line style="stroke:#181818;stroke-width:1;" x1="319" x2="319" y1="263.2969" y2="453.2969"/><text fill="#000000" font-family="sans-serif" font-size="13" font-weight="bold" lengthAdjust="spacing" textLength="82.4434" x="143.2783" y="278.3638">C&#225;maras IP</text></g><!--cluster IA--><g class="cluster" data-qualified-name="IA" data-source-line="27" id="ent0011"><polygon fill="none" points="389,53.2969,399,43.2969,898,43.2969,898,247.2969,888,257.2969,389,257.2969,389,53.2969" style="stroke:#181818;stroke-width:1;"/><line style="stroke:#181818;stroke-width:1;" x1="888" x2="898" y1="53.2969" y2="43.2969"/><line style="stroke:#181818;stroke-width:1;" x1="389" x2="888" y1="53.2969" y2="53.2969"/><line style="stroke:#181818;stroke-width:1;" x1="888" x2="888" y1="53.2969" y2="257.2969"/><text fill="#000000" font-family="sans-serif" font-size="13" font-weight="bold" lengthAdjust="spacing" textLength="80.1201" x="599.4399" y="68.3638">Nodo de IA</text></g><!--cluster Backend--><g class="cluster" data-qualified-name="Backend" data-source-line="33" id="ent0015"><polygon fill="none" points="699,299.2969,709,289.2969,1146,289.2969,1146,588.2969,1136,598.2969,699,598.2969,699,299.2969" style="stroke:#181818;stroke-width:1;"/><line style="stroke:#181818;stroke-width:1;" x1="1136" x2="1146" y1="299.2969" y2="289.2969"/><line style="stroke:#181818;stroke-width:1;" x1="699" x2="1136" y1="299.2969" y2="299.2969"/><line style="stroke:#181818;stroke-width:1;" x1="1136" x2="1136" y1="299.2969" y2="598.2969"/><text fill="#000000" font-family="sans-serif" font-size="13" font-weight="bold" lengthAdjust="spacing" textLength="128.502" x="854.249" y="314.3638">Servidor backend</text></g><!--entity App--><g class="entity" data-qualified-name="Movil.App" data-source-line="14" id="ent0004"><rect fill="#F1F1F1" height="50.9375" rx="2.5" ry="2.5" style="stroke:#181818;stroke-width:0.5;" width="148.3594" x="443.5" y="465.7969"/><polygon fill="#F1F1F1" points="574.8594,470.7969,574.8594,484.7969,586.8594,484.7969,586.8594,476.7969,580.8594,470.7969,574.8594,470.7969" style="stroke:#181818;stroke-width:0.5;"/><line style="stroke:#181818;stroke-width:0.5;" x1="580.8594" x2="580.8594" y1="470.7969" y2="476.7969"/><line style="stroke:#181818;stroke-width:0.5;" x1="586.8594" x2="580.8594" y1="476.7969" y2="476.7969"/><text fill="#000000" font-family="sans-serif" font-size="12" lengthAdjust="spacing" textLength="60.0586" x="453.5" y="489.9355">App m&#243;vil</text><text fill="#000000" font-family="sans-serif" font-size="12" lengthAdjust="spacing" textLength="118.3594" x="453.5" y="503.9043">Expo / React Native</text></g><!--entity Red--><g class="entity" data-qualified-name="Campo.Red" data-source-line="24" id="ent0010"><rect fill="#F1F1F1" height="50.9375" rx="2.5" ry="2.5" style="stroke:#181818;stroke-width:0.5;" width="147.627" x="195" y="177.7969"/><polygon fill="#F1F1F1" points="325.627,182.7969,325.627,196.7969,337.627,196.7969,337.627,188.7969,331.627,182.7969,325.627,182.7969" style="stroke:#181818;stroke-width:0.5;"/><line style="stroke:#181818;stroke-width:0.5;" x1="331.627" x2="331.627" y1="182.7969" y2="188.7969"/><line style="stroke:#181818;stroke-width:0.5;" x1="337.627" x2="331.627" y1="188.7969" y2="188.7969"/><text fill="#000000" font-family="sans-serif" font-size="12" lengthAdjust="spacing" textLength="55.1133" x="205" y="201.9355">Red local</text><text fill="#000000" font-family="sans-serif" font-size="12" lengthAdjust="spacing" textLength="117.627" x="205" y="215.9043">Router / Switch PoE</text></g><!--entity TEE--><g class="entity" data-qualified-name="Campo.Camaras.TEE" data-source-line="19" id="ent0007"><rect fill="#F1F1F1" height="36.9688" rx="2.5" ry="2.5" style="stroke:#181818;stroke-width:0.5;" width="52.4941" x="77.5" y="391.7969"/><polygon fill="#F1F1F1" points="112.9941,396.7969,112.9941,410.7969,124.9941,410.7969,124.9941,402.7969,118.9941,396.7969,112.9941,396.7969" style="stroke:#181818;stroke-width:0.5;"/><line style="stroke:#181818;stroke-width:0.5;" x1="118.9941" x2="118.9941" y1="396.7969" y2="402.7969"/><line style="stroke:#181818;stroke-width:0.5;" x1="124.9941" x2="118.9941" y1="402.7969" y2="402.7969"/><text fill="#000000" font-family="sans-serif" font-size="12" lengthAdjust="spacing" textLength="22.4941" x="87.5" y="415.9355">TEE</text></g><!--entity BACK--><g class="entity" data-qualified-name="Campo.Camaras.BACK" data-source-line="20" id="ent0008"><rect fill="#F1F1F1" height="36.9688" rx="2.5" ry="2.5" style="stroke:#181818;stroke-width:0.5;" width="62.6895" x="72" y="319.7969"/><polygon fill="#F1F1F1" points="117.6895,324.7969,117.6895,338.7969,129.6895,338.7969,129.6895,330.7969,123.6895,324.7969,117.6895,324.7969" style="stroke:#181818;stroke-width:0.5;"/><line style="stroke:#181818;stroke-width:0.5;" x1="123.6895" x2="123.6895" y1="324.7969" y2="330.7969"/><line style="stroke:#181818;stroke-width:0.5;" x1="129.6895" x2="123.6895" y1="330.7969" y2="330.7969"/><text fill="#000000" font-family="sans-serif" font-size="12" lengthAdjust="spacing" textLength="32.6895" x="82" y="343.9355">BACK</text></g><!--entity GREEN--><g class="entity" data-qualified-name="Campo.Camaras.GREEN" data-source-line="21" id="ent0009"><rect fill="#F1F1F1" height="36.9688" rx="2.5" ry="2.5" style="stroke:#181818;stroke-width:0.5;" width="71.7773" x="233" y="391.7969"/><polygon fill="#F1F1F1" points="287.7773,396.7969,287.7773,410.7969,299.7773,410.7969,299.7773,402.7969,293.7773,396.7969,287.7773,396.7969" style="stroke:#181818;stroke-width:0.5;"/><line style="stroke:#181818;stroke-width:0.5;" x1="293.7773" x2="293.7773" y1="396.7969" y2="402.7969"/><line style="stroke:#181818;stroke-width:0.5;" x1="299.7773" x2="293.7773" y1="402.7969" y2="402.7969"/><text fill="#000000" font-family="sans-serif" font-size="12" lengthAdjust="spacing" textLength="41.7773" x="243" y="415.9355">GREEN</text></g><!--entity Captura--><g class="entity" data-qualified-name="IA.Captura" data-source-line="28" id="ent0012"><rect fill="#F1F1F1" height="36.9688" rx="2.5" ry="2.5" style="stroke:#181818;stroke-width:0.5;" width="112.2832" x="461.5" y="176.7969"/><polygon fill="#F1F1F1" points="556.7832,181.7969,556.7832,195.7969,568.7832,195.7969,568.7832,187.7969,562.7832,181.7969,556.7832,181.7969" style="stroke:#181818;stroke-width:0.5;"/><line style="stroke:#181818;stroke-width:0.5;" x1="562.7832" x2="562.7832" y1="181.7969" y2="187.7969"/><line style="stroke:#181818;stroke-width:0.5;" x1="568.7832" x2="562.7832" y1="187.7969" y2="187.7969"/><text fill="#000000" font-family="sans-serif" font-size="12" lengthAdjust="spacing" textLength="82.2832" x="471.5" y="200.9355">Captura RTSP</text></g><!--entity Deteccion--><g class="entity" data-qualified-name="IA.Deteccion" data-source-line="29" id="ent0013"><rect fill="#F1F1F1" height="50.9375" rx="2.5" ry="2.5" style="stroke:#181818;stroke-width:0.5;" width="208.5234" x="413" y="90.7969"/><polygon fill="#F1F1F1" points="604.5234,95.7969,604.5234,109.7969,616.5234,109.7969,616.5234,101.7969,610.5234,95.7969,604.5234,95.7969" style="stroke:#181818;stroke-width:0.5;"/><line style="stroke:#181818;stroke-width:0.5;" x1="610.5234" x2="610.5234" y1="95.7969" y2="101.7969"/><line style="stroke:#181818;stroke-width:0.5;" x1="616.5234" x2="610.5234" y1="101.7969" y2="101.7969"/><text fill="#000000" font-family="sans-serif" font-size="12" lengthAdjust="spacing" textLength="117.4395" x="423" y="114.9355">Detecci&#243;n de swing</text><text fill="#000000" font-family="sans-serif" font-size="12" lengthAdjust="spacing" textLength="178.5234" x="423" y="128.9043">YOLO + MediaPipe + OpenCV</text></g><!--entity Segmentos--><g class="entity" data-qualified-name="IA.Segmentos" data-source-line="30" id="ent0014"><rect fill="#F1F1F1" height="36.9688" rx="2.5" ry="2.5" style="stroke:#181818;stroke-width:0.5;" width="187.6934" x="686" y="176.7969"/><polygon fill="#F1F1F1" points="856.6934,181.7969,856.6934,195.7969,868.6934,195.7969,868.6934,187.7969,862.6934,181.7969,856.6934,181.7969" style="stroke:#181818;stroke-width:0.5;"/><line style="stroke:#181818;stroke-width:0.5;" x1="862.6934" x2="862.6934" y1="181.7969" y2="187.7969"/><line style="stroke:#181818;stroke-width:0.5;" x1="868.6934" x2="862.6934" y1="187.7969" y2="187.7969"/><text fill="#000000" font-family="sans-serif" font-size="12" lengthAdjust="spacing" textLength="157.6934" x="696" y="200.9355">Generaci&#243;n de segmentos</text></g><!--entity API--><g class="entity" data-qualified-name="Backend.API" data-source-line="34" id="ent0016"><rect fill="#F1F1F1" height="36.9688" rx="2.5" ry="2.5" style="stroke:#181818;stroke-width:0.5;" width="129.9727" x="715" y="472.7969"/><polygon fill="#F1F1F1" points="827.9727,477.7969,827.9727,491.7969,839.9727,491.7969,839.9727,483.7969,833.9727,477.7969,827.9727,477.7969" style="stroke:#181818;stroke-width:0.5;"/><line style="stroke:#181818;stroke-width:0.5;" x1="833.9727" x2="833.9727" y1="477.7969" y2="483.7969"/><line style="stroke:#181818;stroke-width:0.5;" x1="839.9727" x2="833.9727" y1="483.7969" y2="483.7969"/><text fill="#000000" font-family="sans-serif" font-size="12" lengthAdjust="spacing" textLength="99.9727" x="725" y="496.9355">API REST Django</text></g><!--entity Auth--><g class="entity" data-qualified-name="Backend.Auth" data-source-line="35" id="ent0017"><rect fill="#F1F1F1" height="36.9688" rx="2.5" ry="2.5" style="stroke:#181818;stroke-width:0.5;" width="138.9258" x="978.5" y="472.7969"/><polygon fill="#F1F1F1" points="1100.4258,477.7969,1100.4258,491.7969,1112.4258,491.7969,1112.4258,483.7969,1106.4258,477.7969,1100.4258,477.7969" style="stroke:#181818;stroke-width:0.5;"/><line style="stroke:#181818;stroke-width:0.5;" x1="1106.4258" x2="1106.4258" y1="477.7969" y2="483.7969"/><line style="stroke:#181818;stroke-width:0.5;" x1="1112.4258" x2="1106.4258" y1="483.7969" y2="483.7969"/><text fill="#000000" font-family="sans-serif" font-size="12" lengthAdjust="spacing" textLength="108.9258" x="988.5" y="496.9355">Autenticaci&#243;n JWT</text></g><!--entity QR--><g class="entity" data-qualified-name="Backend.QR" data-source-line="36" id="ent0018"><rect fill="#F1F1F1" height="36.9688" rx="2.5" ry="2.5" style="stroke:#181818;stroke-width:0.5;" width="163.7813" x="966" y="328.7969"/><polygon fill="#F1F1F1" points="1112.7813,333.7969,1112.7813,347.7969,1124.7813,347.7969,1124.7813,339.7969,1118.7813,333.7969,1112.7813,333.7969" style="stroke:#181818;stroke-width:0.5;"/><line style="stroke:#181818;stroke-width:0.5;" x1="1118.7813" x2="1118.7813" y1="333.7969" y2="339.7969"/><line style="stroke:#181818;stroke-width:0.5;" x1="1124.7813" x2="1118.7813" y1="339.7969" y2="339.7969"/><text fill="#000000" font-family="sans-serif" font-size="12" lengthAdjust="spacing" textLength="133.7813" x="976" y="352.9355">Gesti&#243;n QR y c&#225;maras</text></g><!--entity Clips--><g class="entity" data-qualified-name="Backend.Clips" data-source-line="37" id="ent0019"><rect fill="#F1F1F1" height="36.9688" rx="2.5" ry="2.5" style="stroke:#181818;stroke-width:0.5;" width="125.6836" x="985" y="544.7969"/><polygon fill="#F1F1F1" points="1093.6836,549.7969,1093.6836,563.7969,1105.6836,563.7969,1105.6836,555.7969,1099.6836,549.7969,1093.6836,549.7969" style="stroke:#181818;stroke-width:0.5;"/><line style="stroke:#181818;stroke-width:0.5;" x1="1099.6836" x2="1099.6836" y1="549.7969" y2="555.7969"/><line style="stroke:#181818;stroke-width:0.5;" x1="1105.6836" x2="1099.6836" y1="555.7969" y2="555.7969"/><text fill="#000000" font-family="sans-serif" font-size="12" lengthAdjust="spacing" textLength="95.6836" x="995" y="568.9355">Gesti&#243;n de clips</text></g><!--entity Stream--><g class="entity" data-qualified-name="Backend.Stream" data-source-line="38" id="ent0020"><rect fill="#F1F1F1" height="36.9688" rx="2.5" ry="2.5" style="stroke:#181818;stroke-width:0.5;" width="147.6445" x="974" y="400.7969"/><polygon fill="#F1F1F1" points="1104.6445,405.7969,1104.6445,419.7969,1116.6445,419.7969,1116.6445,411.7969,1110.6445,405.7969,1104.6445,405.7969" style="stroke:#181818;stroke-width:0.5;"/><line style="stroke:#181818;stroke-width:0.5;" x1="1110.6445" x2="1110.6445" y1="405.7969" y2="411.7969"/><line style="stroke:#181818;stroke-width:0.5;" x1="1116.6445" x2="1110.6445" y1="411.7969" y2="411.7969"/><text fill="#000000" font-family="sans-serif" font-size="12" lengthAdjust="spacing" textLength="117.6445" x="984" y="424.9355">Streaming de v&#237;deo</text></g><!--entity FFmpeg--><g class="entity" data-qualified-name="Backend.FFmpeg" data-source-line="39" id="ent0021"><rect fill="#F1F1F1" height="36.9688" rx="2.5" ry="2.5" style="stroke:#181818;stroke-width:0.5;" width="78.1113" x="741" y="544.7969"/><polygon fill="#F1F1F1" points="802.1113,549.7969,802.1113,563.7969,814.1113,563.7969,814.1113,555.7969,808.1113,549.7969,802.1113,549.7969" style="stroke:#181818;stroke-width:0.5;"/><line style="stroke:#181818;stroke-width:0.5;" x1="808.1113" x2="808.1113" y1="549.7969" y2="555.7969"/><line style="stroke:#181818;stroke-width:0.5;" x1="814.1113" x2="808.1113" y1="555.7969" y2="555.7969"/><text fill="#000000" font-family="sans-serif" font-size="12" lengthAdjust="spacing" textLength="48.1113" x="751" y="568.9355">FFmpeg</text></g><!--entity Usuario--><g class="entity" data-qualified-name="Usuario" data-source-line="11" id="ent0002"><ellipse cx="268.8027" cy="509.7969" fill="#F1F1F1" rx="8" ry="8" style="stroke:#181818;stroke-width:0.5;"/><path d="M268.8027,517.7969 L268.8027,544.7969 M255.8027,525.7969 L281.8027,525.7969 M268.8027,544.7969 L255.8027,559.7969 M268.8027,544.7969 L281.8027,559.7969" fill="none" style="stroke:#181818;stroke-width:0.5;"/><text fill="#000000" font-family="sans-serif" font-size="12" lengthAdjust="spacing" textLength="142.6055" x="197.5" y="572.4355">Jugador / Administrador</text></g><!--entity BD--><g class="entity" data-qualified-name="BD" data-source-line="42" id="ent0022"><path d="M995.5,626.7969 C995.5,616.7969 1048.0596,616.7969 1048.0596,616.7969 C1048.0596,616.7969 1100.6191,616.7969 1100.6191,626.7969 L1100.6191,649.7656 C1100.6191,659.7656 1048.0596,659.7656 1048.0596,659.7656 C1048.0596,659.7656 995.5,659.7656 995.5,649.7656 L995.5,626.7969" fill="#F1F1F1" style="stroke:#181818;stroke-width:0.5;"/><path d="M995.5,626.7969 C995.5,636.7969 1048.0596,636.7969 1048.0596,636.7969 C1048.0596,636.7969 1100.6191,636.7969 1100.6191,626.7969" fill="none" style="stroke:#181818;stroke-width:0.5;"/><text fill="#000000" font-family="sans-serif" font-size="12" lengthAdjust="spacing" textLength="85.1191" x="1005.5" y="651.9355">Base de datos</text></g><!--entity Media--><g class="entity" data-qualified-name="Media" data-source-line="43" id="ent0023"><polygon fill="#F1F1F1" points="934,704.7969,944,694.7969,1161.897,694.7969,1161.897,729.9297,1151.897,739.9297,934,739.9297,934,704.7969" style="stroke:#181818;stroke-width:0.5;"/><line style="stroke:#181818;stroke-width:0.5;" x1="1151.897" x2="1161.897" y1="704.7969" y2="694.7969"/><line style="stroke:#181818;stroke-width:0.5;" x1="934" x2="1151.897" y1="704.7969" y2="704.7969"/><line style="stroke:#181818;stroke-width:0.5;" x1="1151.897" x2="1151.897" y1="704.7969" y2="739.9297"/><text fill="#000000" font-family="sans-serif" font-size="13" lengthAdjust="spacing" textLength="187.897" x="949" y="726.8638">Almacenamiento multimedia</text></g><!--link Usuario to App--><g class="link" data-entity-1="ent0002" data-entity-2="ent0004" data-link-type="dependency" data-source-line="45" id="lnk24"><path d="M340.54,509.0469 C372.8,509.0469 404.88,509.0469 437.44,509.0469" fill="none" id="Usuario-to-App" style="stroke:#181818;stroke-width:1;"/><polygon fill="#181818" points="443.44,509.0469,434.44,505.0469,438.44,509.0469,434.44,513.0469,443.44,509.0469" style="stroke:#181818;stroke-width:1;"/><text fill="#000000" font-family="sans-serif" font-size="12" lengthAdjust="spacing" textLength="22.3887" x="368.99" y="521.1855">Usa</text></g><!--link App to API--><g class="link" data-entity-1="ent0004" data-entity-2="ent0016" data-link-type="dependency" data-source-line="46" id="lnk25"><path d="M591.67,491.2969 C630.48,491.2969 671.56,491.2969 708.94,491.2969" fill="none" id="App-to-API" style="stroke:#181818;stroke-width:1;"/><polygon fill="#181818" points="714.94,491.2969,705.94,487.2969,709.94,491.2969,705.94,495.2969,714.94,491.2969" style="stroke:#181818;stroke-width:1;"/><text fill="#000000" font-family="sans-serif" font-size="12" lengthAdjust="spacing" textLength="81.0762" x="571.31" y="503.4355">HTTPS / REST</text></g><!--link App to Stream--><g class="link" data-entity-1="ent0004" data-entity-2="ent0020" data-link-type="dependency" data-source-line="47" id="lnk26"><path d="M583,465.7169 C583,449.5869 583,431.7969 583,431.7969 C583,431.7969 836.52,431.7969 967.81,431.7969" fill="none" id="App-to-Stream" style="stroke:#181818;stroke-width:1;"/><polygon fill="#181818" points="973.81,431.7969,964.81,427.7969,968.81,431.7969,964.81,435.7969,973.81,431.7969" style="stroke:#181818;stroke-width:1;"/><text fill="#000000" font-family="sans-serif" font-size="12" lengthAdjust="spacing" textLength="95.7656" x="665.44" y="443.9355">Reproduce clips</text></g><!--link Camaras to Red--><g class="link" data-entity-1="ent0006" data-entity-2="ent0010" data-link-type="dependency" data-source-line="49" id="lnk27"><path d="M216,253.1545 C216,253.0581 216,252.9615 216,252.8648 C216,252.6716 216,252.478 216,252.2842 C216,250.7334 216,249.1654 216,247.5895 C216,241.2863 216,240.8594 216,234.9269" fill="none" id="Camaras-to-Red" style="stroke:#181818;stroke-width:1;"/><polygon fill="#181818" points="216,228.9269,212,237.9269,216,233.9269,220,237.9269,216,228.9269" style="stroke:#181818;stroke-width:1;"/><text fill="#000000" font-family="sans-serif" font-size="12" lengthAdjust="spacing" textLength="30.5215" x="156.79" y="296.4355">RTSP</text></g><!--link Red to IA--><g class="link" data-entity-1="ent0010" data-entity-2="ent0011" data-link-type="dependency" data-source-line="50" id="lnk28"><path d="M343.03,221.2969 C352.205,221.2969 361.8202,221.2969 371.6221,221.2969 C376.523,221.2969 381.4707,221.2969 386.4333,221.2969 C387.0537,221.2969 381.6742,221.2969 382.295,221.2969" fill="none" id="Red-to-IA" style="stroke:#181818;stroke-width:1;"/><polygon fill="#181818" points="388.295,221.2969,379.295,217.2969,383.295,221.2969,379.295,225.2969,388.295,221.2969" style="stroke:#181818;stroke-width:1;"/><text fill="#000000" font-family="sans-serif" font-size="12" lengthAdjust="spacing" textLength="30.5215" x="413.48" y="233.4355">RTSP</text></g><!--link IA to API--><g class="link" data-entity-1="ent0011" data-entity-2="ent0016" data-link-type="dependency" data-source-line="52" id="lnk29"><path d="M759,257.4723 C759,257.7802 759,258.096 759,258.4196 C759,259.0669 759,259.7453 759,260.4539 C759,261.8712 759,263.409 759,265.0589 C759,268.3588 759,272.1073 759,276.2369 C759,292.755 759,315.3694 759,339.7544 C759,388.5244 759,438.3769 759,466.7069" fill="none" id="IA-to-API" style="stroke:#181818;stroke-width:1;"/><polygon fill="#181818" points="759,472.7069,763,463.7069,759,467.7069,755,463.7069,759,472.7069" style="stroke:#181818;stroke-width:1;"/><text fill="#000000" font-family="sans-serif" font-size="12" lengthAdjust="spacing" textLength="89.9473" x="639.1773" y="261.4355">Estado c&#225;mara</text><text fill="#000000" font-family="sans-serif" font-size="12" lengthAdjust="spacing" textLength="130.002" x="619.15" y="275.4043">Subida de segmentos</text></g><!--link IA to QR--><g class="link" data-entity-1="ent0011" data-entity-2="ent0018" data-link-type="dependency" data-source-line="53" id="lnk30"><path d="M518,257.3765 C518,257.4831 518,257.5906 518,257.6989 C518,258.1322 518,258.5794 518,259.04 C518,260.882 518,262.9363 518,265.1592 C518,274.0509 518,285.6413 518,297.1431 C518,320.1469 518,342.7969 518,342.7969 C518,342.7969 810.9,342.7969 959.77,342.7969" fill="none" id="IA-to-QR" style="stroke:#181818;stroke-width:1;"/><polygon fill="#181818" points="965.77,342.7969,956.77,338.7969,960.77,342.7969,956.77,346.7969,965.77,342.7969" style="stroke:#181818;stroke-width:1;"/><text fill="#000000" font-family="sans-serif" font-size="12" lengthAdjust="spacing" textLength="127.998" x="567.17" y="354.9355">Notificaci&#243;n de swing</text></g><!--link API to Auth--><g class="link" data-entity-1="ent0016" data-entity-2="ent0017" data-link-type="dependency" data-source-line="55" id="lnk31"><path d="M845.22,491.2969 C885.5,491.2969 931.16,491.2969 972.26,491.2969" fill="none" id="API-to-Auth" style="stroke:#181818;stroke-width:1;"/><polygon fill="#181818" points="978.26,491.2969,969.26,487.2969,973.26,491.2969,969.26,495.2969,978.26,491.2969" style="stroke:#181818;stroke-width:1;"/></g><!--link API to QR--><g class="link" data-entity-1="ent0016" data-entity-2="ent0018" data-link-type="dependency" data-source-line="56" id="lnk32"><path d="M845.12,482.0469 C900.12,482.0469 970,482.0469 970,482.0469 C970,482.0469 970,409.0569 970,372.0369" fill="none" id="API-to-QR" style="stroke:#181818;stroke-width:1;"/><polygon fill="#181818" points="970,366.0369,966,375.0369,970,371.0369,974,375.0369,970,366.0369" style="stroke:#181818;stroke-width:1;"/></g><!--link API to Clips--><g class="link" data-entity-1="ent0016" data-entity-2="ent0019" data-link-type="dependency" data-source-line="57" id="lnk33"><path d="M837,509.9869 C837,529.4469 837,557.1269 837,557.1269 C837,557.1269 916.8,557.1269 978.98,557.1269" fill="none" id="API-to-Clips" style="stroke:#181818;stroke-width:1;"/><polygon fill="#181818" points="984.98,557.1269,975.98,553.1269,979.98,557.1269,975.98,561.1269,984.98,557.1269" style="stroke:#181818;stroke-width:1;"/></g><!--link API to Stream--><g class="link" data-entity-1="ent0016" data-entity-2="ent0020" data-link-type="dependency" data-source-line="58" id="lnk34"><path d="M802,472.7969 C802,456.3169 802,434.7969 802,434.7969 C802,434.7969 895.43,434.7969 967.86,434.7969" fill="none" id="API-to-Stream" style="stroke:#181818;stroke-width:1;"/><polygon fill="#181818" points="973.86,434.7969,964.86,430.7969,968.86,434.7969,964.86,438.7969,973.86,434.7969" style="stroke:#181818;stroke-width:1;"/></g><!--link API to BD--><g class="link" data-entity-1="ent0016" data-entity-2="ent0022" data-link-type="dependency" data-source-line="59" id="lnk35"><path d="M828,509.9169 C828,549.4669 828,638.2969 828,638.2969 C828,638.2969 924.22,638.2969 989.3,638.2969" fill="none" id="API-to-BD" style="stroke:#181818;stroke-width:1;"/><polygon fill="#181818" points="995.3,638.2969,986.3,634.2969,990.3,638.2969,986.3,642.2969,995.3,638.2969" style="stroke:#181818;stroke-width:1;"/><text fill="#000000" font-family="sans-serif" font-size="12" lengthAdjust="spacing" textLength="72.3691" x="774.46" y="650.4355">Persistencia</text></g><!--link API to Media--><g class="link" data-entity-1="ent0016" data-entity-2="ent0023" data-link-type="dependency" data-source-line="60" id="lnk36"><path d="M845.04,500.5469 C895.17,500.5469 956,500.5469 956,500.5469 C956,500.5469 956,632.8569 956,688.5069" fill="none" id="API-to-Media" style="stroke:#181818;stroke-width:1;"/><polygon fill="#181818" points="956,694.5069,960,685.5069,956,689.5069,952,685.5069,956,694.5069" style="stroke:#181818;stroke-width:1;"/><text fill="#000000" font-family="sans-serif" font-size="12" lengthAdjust="spacing" textLength="75.1113" x="880" y="554.1855">Guarda clips</text></g><!--link FFmpeg to Media--><g class="link" data-entity-1="ent0021" data-entity-2="ent0023" data-link-type="dependency" data-source-line="61" id="lnk37"><path d="M819.1,569.4669 C867.9,569.4669 945,569.4669 945,569.4669 C945,569.4669 945,647.0569 945,688.5269" fill="none" id="FFmpeg-to-Media" style="stroke:#181818;stroke-width:1;"/><polygon fill="#181818" points="945,694.5269,949,685.5269,945,689.5269,941,685.5269,945,694.5269" style="stroke:#181818;stroke-width:1;"/><text fill="#000000" font-family="sans-serif" font-size="12" lengthAdjust="spacing" textLength="139.3945" x="804.58" y="581.6055">Recodifica y concatena</text></g><?plantuml-src RLJDRjim3BxhAOXUYsBOTijXGFxQfLlJrCus3EX5bHb7goqPafok6_OmUu2T-WXviP6IlSJ1W2Ab-7sYo8-aWmuLmapBqibQGe7qvvjAOzaYU5sJkT5A5fRy5Jbym5eAuH-rQIHT0Ryby4cR4ZQoydY4LDfWU6uGh0jRUmGKk95j5Iwj2Rd-WV3wpH5eR847vEqHecpTM8C4XMVAsQ4AqfGL2b7X9a2mu7Iv3L1eXhGrGaWLh8EpwxQa91syWd5HQqD5E3wVWVJmoRVIQIi4FmndC-qRwtNGEmlr_cMdgyYwiMJ1Jm4WNT0RYWjduwRfAFTc_hsn53v3HfQIhcEyHnpnguyzbLG0IrpQQXFXvE6m7MF_kwPQFInMFHwFp3X-UZsVHvp-do2JyVH3XDWumQwo-NmPmMWHIgaT4p8ieB9AKa6PRGEoOlcJ3ceBAvjU9CgXeAMDSm6BSSGMunE5fh89hPEGhVE-dkWOa6OOK2czVp4SolCetPkljnzluHnkiD1ofMc6pk6sGJFz7CDqLwZ3W_BGe9E7I5ZMD2pMnojvVpfadwFRQHwB1waUqHH9jcIVjdgrW6oUhs7sZKREfjQk5aCE2MO2xKhAuFhBEj7Qi3r9quV8kClW6LJNySYzo_xFf6nLfPj4ch8ruEN1eQnv1Ocus_yfC6MO_0FgvMNTO1dHPB8SXGpoGNgIPCA__0sGlMwJMQVMkAgbGaFli8nGqmBhcjkJzeCj8RfbWekBTppwCABraeAjw24LH_1-lLxbl2kavpyefKfeXespHQkwYeNeLu1PF9-ZE4s2JNRHp7KUGURXbRaF_D7gvBqtUVkW2pcOY_u2zM44InlYXsuuY49mj1YLszWVg4-zcRhHdph5--DaHf5NwE9dqoXIg4UYNWHUaLwKLgerTMI0PwXi4HFZMR56IGea_m80?></g></svg>