<?plantuml 1.2026.2?><svg xmlns="http://www.w3.org/2000/svg" xmlns:xlink="http://www.w3.org/1999/xlink" contentStyleType="text/css" data-diagram-type="DESCRIPTION" height="769px" preserveAspectRatio="none" style="width:692px;height:769px;background:#FFFFFF;" version="1.1" viewBox="0 0 692 769" width="692px" zoomAndPan="magnify"><defs/><g><!--cluster Sistema automatizado de captura de golpes en golf--><g class="cluster" data-qualified-name="Sistema automatizado de captura de golpes en golf" data-source-line="12" id="ent0007"><rect fill="none" height="756" rx="2.5" ry="2.5" style="stroke:#181818;stroke-width:1;" width="424" x="262" y="7"/><text fill="#000000" font-family="sans-serif" font-size="14" font-weight="bold" lengthAdjust="spacing" textLength="408.1328" x="269.9336" y="21.9951">Sistema automatizado de captura de golpes en golf</text></g><!--entity UC1--><g class="entity" data-qualified-name="Sistema automatizado de captura de golpes en golf.UC1" data-source-line="14" id="ent0008"><ellipse cx="473.3804" cy="308.0236" fill="#F1F1F1" rx="29.8804" ry="14.5236" style="stroke:#181818;stroke-width:0.5;"/><text fill="#000000" font-family="sans-serif" font-size="14" lengthAdjust="spacing" textLength="38.0146" x="454.3731" y="312.6721">Login</text></g><!--entity UC2--><g class="entity" data-qualified-name="Sistema automatizado de captura de golpes en golf.UC2" data-source-line="15" id="ent0009"><ellipse cx="473.7036" cy="65.8282" fill="#F1F1F1" rx="92.7036" ry="23.8282" style="stroke:#181818;stroke-width:0.5;"/><text fill="#000000" font-family="sans-serif" font-size="14" lengthAdjust="spacing" textLength="140.376" x="403.5157" y="65.6549">Escanear c&#243;digo QR</text><text fill="#000000" font-family="sans-serif" font-size="14" lengthAdjust="spacing" textLength="60.1289" x="443.6392" y="81.9518">del hoyo</text></g><!--entity UC3--><g class="entity" data-qualified-name="Sistema automatizado de captura de golpes en golf.UC3" data-source-line="16" id="ent0010"><ellipse cx="473.6941" cy="382.1953" fill="#F1F1F1" rx="71.6941" ry="24.6953" style="stroke:#181818;stroke-width:0.5;"/><text fill="#000000" font-family="sans-serif" font-size="14" lengthAdjust="spacing" textLength="103.2021" x="422.0931" y="380.6709">Consultar clips</text><text fill="#000000" font-family="sans-serif" font-size="14" lengthAdjust="spacing" textLength="74.0674" x="436.6605" y="396.9678">generados</text></g><!--entity UC4--><g class="entity" data-qualified-name="Sistema automatizado de captura de golpes en golf.UC4" data-source-line="17" id="ent0011"><ellipse cx="473.2826" cy="149.819" fill="#F1F1F1" rx="106.7826" ry="24.319" style="stroke:#181818;stroke-width:0.5;"/><text fill="#000000" font-family="sans-serif" font-size="14" lengthAdjust="spacing" textLength="158.6689" x="393.9481" y="148.8714">Marcar/Desmarcar clip</text><text fill="#000000" font-family="sans-serif" font-size="14" lengthAdjust="spacing" textLength="96.9746" x="424.7953" y="165.1682">como favorito</text></g><!--entity UC5--><g class="entity" data-qualified-name="Sistema automatizado de captura de golpes en golf.UC5" data-source-line="18" id="ent0012"><ellipse cx="473.4892" cy="233.9831" fill="#F1F1F1" rx="102.4892" ry="23.9831" style="stroke:#181818;stroke-width:0.5;"/><text fill="#000000" font-family="sans-serif" font-size="14" lengthAdjust="spacing" textLength="154.54" x="396.2192" y="233.5625">Consultar estad&#237;sticas</text><text fill="#000000" font-family="sans-serif" font-size="14" lengthAdjust="spacing" textLength="76.3643" x="435.3071" y="249.8594">personales</text></g><!--entity UC6--><g class="entity" data-qualified-name="Sistema automatizado de captura de golpes en golf.UC6" data-source-line="20" id="ent0013"><ellipse cx="473.2695" cy="552.8626" fill="#F1F1F1" rx="72.7695" ry="24.8626" style="stroke:#181818;stroke-width:0.5;"/><text fill="#000000" font-family="sans-serif" font-size="14" lengthAdjust="spacing" textLength="104.0156" x="421.2617" y="551.086">Gestionar clips</text><text fill="#000000" font-family="sans-serif" font-size="14" lengthAdjust="spacing" textLength="79.0098" x="433.7646" y="567.3829">registrados</text></g><!--entity UC7--><g class="entity" data-qualified-name="Sistema automatizado de captura de golpes en golf.UC7" data-source-line="21" id="ent0014"><ellipse cx="473.5451" cy="637.8382" fill="#F1F1F1" rx="88.5451" ry="24.3382" style="stroke:#181818;stroke-width:0.5;"/><text fill="#000000" font-family="sans-serif" font-size="14" lengthAdjust="spacing" textLength="130.6689" x="408.2106" y="636.8608">Consultar usuarios</text><text fill="#000000" font-family="sans-serif" font-size="14" lengthAdjust="spacing" textLength="80.6367" x="433.2267" y="653.1577">del sistema</text></g><!--entity UC8--><g class="entity" data-qualified-name="Sistema automatizado de captura de golpes en golf.UC8" data-source-line="22" id="ent0015"><ellipse cx="473.5278" cy="721.8258" fill="#F1F1F1" rx="89.0278" ry="24.3258" style="stroke:#181818;stroke-width:0.5;"/><text fill="#000000" font-family="sans-serif" font-size="14" lengthAdjust="spacing" textLength="131.4824" x="407.7866" y="720.8676">Gestionar usuarios</text><text fill="#000000" font-family="sans-serif" font-size="14" lengthAdjust="spacing" textLength="80.6367" x="433.2094" y="737.1645">del sistema</text></g><!--entity UC9--><g class="entity" data-qualified-name="Sistema automatizado de captura de golpes en golf.UC9" data-source-line="23" id="ent0016"><ellipse cx="473.4418" cy="467.1603" fill="#F1F1F1" rx="110.4418" ry="25.6603" style="stroke:#181818;stroke-width:0.5;"/><text fill="#000000" font-family="sans-serif" font-size="14" lengthAdjust="spacing" textLength="154.54" x="396.1718" y="464.2123">Consultar estad&#237;sticas</text><text fill="#000000" font-family="sans-serif" font-size="14" lengthAdjust="spacing" textLength="143.6914" x="401.5961" y="480.5092">globales del sistema</text></g><!--entity Usuario--><g class="entity" data-qualified-name="Usuario" data-source-line="5" id="ent0002"><ellipse cx="32.6021" cy="358.5" fill="#F1F1F1" rx="8" ry="8" style="stroke:#181818;stroke-width:0.5;"/><path d="M32.6021,366.5 L32.6021,393.5 M19.6021,374.5 L45.6021,374.5 M32.6021,393.5 L19.6021,408.5 M32.6021,393.5 L45.6021,408.5" fill="none" style="stroke:#181818;stroke-width:0.5;"/><text fill="#000000" font-family="sans-serif" font-size="14" lengthAdjust="spacing" textLength="53.2041" x="6" y="422.9951">Usuario</text></g><!--entity Jugador--><g class="entity" data-qualified-name="Jugador" data-source-line="6" id="ent0003"><ellipse cx="168.3379" cy="241.5" fill="#F1F1F1" rx="8" ry="8" style="stroke:#181818;stroke-width:0.5;"/><path d="M168.3379,249.5 L168.3379,276.5 M155.3379,257.5 L181.3379,257.5 M168.3379,276.5 L155.3379,291.5 M168.3379,276.5 L181.3379,291.5" fill="none" style="stroke:#181818;stroke-width:0.5;"/><text fill="#000000" font-family="sans-serif" font-size="14" lengthAdjust="spacing" textLength="53.6758" x="141.5" y="305.9951">Jugador</text></g><!--entity Administrador--><g class="entity" data-qualified-name="Administrador" data-source-line="7" id="ent0004"><ellipse cx="168.54" cy="437.5" fill="#F1F1F1" rx="8" ry="8" style="stroke:#181818;stroke-width:0.5;"/><path d="M168.54,445.5 L168.54,472.5 M155.54,453.5 L181.54,453.5 M168.54,472.5 L155.54,487.5 M168.54,472.5 L181.54,487.5" fill="none" style="stroke:#181818;stroke-width:0.5;"/><text fill="#000000" font-family="sans-serif" font-size="14" lengthAdjust="spacing" textLength="99.0801" x="119" y="501.9951">Administrador</text></g><!--reverse link Usuario to Jugador--><g class="link" data-entity-1="ent0002" data-entity-2="ent0003" data-link-type="extension" data-source-line="9" id="lnk5"><path d="M72.5771,353.8792 C96.1171,333.3192 117.36,314.78 141.16,294" fill="none" id="Usuario-backto-Jugador" style="stroke:#181818;stroke-width:1;"/><polygon fill="none" points="59.02,365.72,76.524,358.3982,68.6301,349.3601,59.02,365.72" style="stroke:#181818;stroke-width:1;"/></g><!--reverse link Usuario to Administrador--><g class="link" data-entity-1="ent0002" data-entity-2="ent0004" data-link-type="extension" data-source-line="10" id="lnk6"><path d="M74.5298,412.1848 C91.3898,422.1148 98.51,426.33 118.74,438.25" fill="none" id="Usuario-backto-Administrador" style="stroke:#181818;stroke-width:1;"/><polygon fill="none" points="59.02,403.05,71.4849,417.3548,77.5748,407.0149,59.02,403.05" style="stroke:#181818;stroke-width:1;"/></g><!--link Jugador to UC1--><g class="link" data-entity-1="ent0003" data-entity-2="ent0008" data-link-type="dependency" data-source-line="27" id="lnk17"><path d="M195.6,274.19 C252.15,281.09 379.6843,296.6625 438.2143,303.8125" fill="none" id="Jugador-to-UC1" style="stroke:#181818;stroke-width:1;"/><polygon fill="#181818" points="444.17,304.54,435.7214,299.4782,439.2069,303.9337,434.7514,307.4192,444.17,304.54" style="stroke:#181818;stroke-width:1;"/></g><!--link Jugador to UC3--><g class="link" data-entity-1="ent0003" data-entity-2="ent0010" data-link-type="dependency" data-source-line="28" id="lnk18"><path d="M195.65,298.14 C211.24,312.75 232.21,329.81 254,340 C300.89,361.92 352.598,371.7259 396.908,376.7359" fill="none" id="Jugador-to-UC3" style="stroke:#181818;stroke-width:1;"/><polygon fill="#181818" points="402.87,377.41,394.3764,372.4242,397.9017,376.8482,393.4776,380.3735,402.87,377.41" style="stroke:#181818;stroke-width:1;"/></g><!--link Administrador to UC1--><g class="link" data-entity-1="ent0004" data-entity-2="ent0008" data-link-type="dependency" data-source-line="29" id="lnk19"><path d="M184.52,428.86 C198.13,399.61 221.11,360.83 254,340 C313.27,302.46 393.473,301.8456 437.803,304.7656" fill="none" id="Administrador-to-UC1" style="stroke:#181818;stroke-width:1;"/><polygon fill="#181818" points="443.79,305.16,435.0724,300.5771,438.8008,304.8314,434.5466,308.5598,443.79,305.16" style="stroke:#181818;stroke-width:1;"/></g><!--link Administrador to UC3--><g class="link" data-entity-1="ent0004" data-entity-2="ent0010" data-link-type="dependency" data-source-line="30" id="lnk20"><path d="M218.08,439.36 C229.59,433.64 242.01,428.11 254,424 C303.51,407.02 355.8823,397.1123 399.8123,390.7323" fill="none" id="Administrador-to-UC3" style="stroke:#181818;stroke-width:1;"/><polygon fill="#181818" points="405.75,389.87,396.2685,387.205,400.8019,390.5886,397.4183,395.122,405.75,389.87" style="stroke:#181818;stroke-width:1;"/></g><!--link Jugador to UC2--><g class="link" data-entity-1="ent0003" data-entity-2="ent0009" data-link-type="dependency" data-source-line="32" id="lnk21"><path d="M178.89,232.65 C190.2,194.9 213,138.6 254,108 C290.14,81.02 332.7881,70.5002 374.9881,66.4002" fill="none" id="Jugador-to-UC2" style="stroke:#181818;stroke-width:1;"/><polygon fill="#181818" points="380.96,65.82,371.6154,62.7091,375.9834,66.3035,372.389,70.6716,380.96,65.82" style="stroke:#181818;stroke-width:1;"/></g><!--link Jugador to UC4--><g class="link" data-entity-1="ent0003" data-entity-2="ent0011" data-link-type="dependency" data-source-line="33" id="lnk22"><path d="M195.66,239.06 C210.96,222.49 231.63,203.39 254,192 C289.97,173.69 327.0588,164.2357 365.3688,158.3857" fill="none" id="Jugador-to-UC4" style="stroke:#181818;stroke-width:1;"/><polygon fill="#181818" points="371.3,157.48,361.7993,154.8844,366.3573,158.2348,363.0069,162.7927,371.3,157.48" style="stroke:#181818;stroke-width:1;"/></g><!--link Jugador to UC5--><g class="link" data-entity-1="ent0003" data-entity-2="ent0012" data-link-type="dependency" data-source-line="34" id="lnk23"><path d="M195.6,267.81 C236.65,262.8 312.2843,253.5674 376.3143,245.7474" fill="none" id="Jugador-to-UC5" style="stroke:#181818;stroke-width:1;"/><polygon fill="#181818" points="382.27,245.02,372.8515,242.1406,377.3069,245.6261,373.8213,250.0816,382.27,245.02" style="stroke:#181818;stroke-width:1;"/></g><!--link Administrador to UC6--><g class="link" data-entity-1="ent0004" data-entity-2="ent0013" data-link-type="dependency" data-source-line="36" id="lnk24"><path d="M218.09,494.6 C229.6,500.32 242.02,505.86 254,510 C302.97,526.91 354.6077,537.001 398.3577,543.631" fill="none" id="Administrador-to-UC6" style="stroke:#181818;stroke-width:1;"/><polygon fill="#181818" points="404.29,544.53,395.9909,539.2267,399.3464,543.7808,394.7923,547.1364,404.29,544.53" style="stroke:#181818;stroke-width:1;"/></g><!--link Administrador to UC7--><g class="link" data-entity-1="ent0004" data-entity-2="ent0014" data-link-type="dependency" data-source-line="37" id="lnk25"><path d="M184.87,505.29 C198.61,534.49 221.6,573.27 254,595 C292.37,620.74 336.5632,631.1794 379.1432,635.6794" fill="none" id="Administrador-to-UC7" style="stroke:#181818;stroke-width:1;"/><polygon fill="#181818" points="385.11,636.31,376.5802,631.3863,380.1377,635.7845,375.7395,639.342,385.11,636.31" style="stroke:#181818;stroke-width:1;"/></g><!--link Administrador to UC8--><g class="link" data-entity-1="ent0004" data-entity-2="ent0015" data-link-type="dependency" data-source-line="38" id="lnk26"><path d="M173.61,505.39 C180.92,553.79 200.83,635.98 254,680 C290.08,709.87 335.0171,720.4172 378.6171,723.7172" fill="none" id="Administrador-to-UC8" style="stroke:#181818;stroke-width:1;"/><polygon fill="#181818" points="384.6,724.17,375.9276,719.5022,379.6143,723.7926,375.3238,727.4793,384.6,724.17" style="stroke:#181818;stroke-width:1;"/></g><!--link Administrador to UC9--><g class="link" data-entity-1="ent0004" data-entity-2="ent0016" data-link-type="dependency" data-source-line="39" id="lnk27"><path d="M218.18,467 C257.16,467 307.33,467 356.97,467" fill="none" id="Administrador-to-UC9" style="stroke:#181818;stroke-width:1;"/><polygon fill="#181818" points="362.97,467,353.97,463,357.97,467,353.97,471,362.97,467" style="stroke:#181818;stroke-width:1;"/></g><?plantuml-src ZLBDIiD04BxlKmoz5x6jrO88eYA87bIyzJ9kfjl5pKxOsIZ-FP8d7y4NSzEcDOb1lCryyttpxsWH8J84QvOHCXj8HyjUoOFr1GRCeK3zW8PkuxCZgCBeZQC6GPQOyPFr1XReX9H27Jd0dPGOBDVUHMaIAzJUSPPRRoM65QPgAXo-3OTRPWli2BPjmE0sePGZO1avnsXV4WCo0er5B0DMfc5Na03vobeCu5KfW598ewG4bsoi7m0At9tiDWDdej4J1j1Vdvar3DStSv-HWoK_SoqODGKdxALqiL8uMyZS6_9KTImrUznaNs7G67PEIVALjHBDlUQSqo8VETYugJBfhq8ICVlwa6XJPEuB2i8U7MtAxRNcF4_qTDcVxWAPUgCRmRI_Jhc-XAodb_N2Qyb-Vuc_90V_ciOulgzcWTy9PagzArN_2Go7HwlBjVsnQhtCbjM7Zhl9HXr_ql7JOlloJ7lH_Lxqe1UTVGC0?></g></svg>