<?plantuml 1.2026.2?><svg xmlns="http://www.w3.org/2000/svg" xmlns:xlink="http://www.w3.org/1999/xlink" contentStyleType="text/css" data-diagram-type="CLASS" height="1173px" preserveAspectRatio="none" style="width:626px;height:1173px;background:#FFFFFF;" version="1.1" viewBox="0 0 626 1173" width="626px" zoomAndPan="magnify"><title>Diagrama entidad-relaci&#243;n del sistema</title><defs/><g><g class="title" data-source-line="1"><text fill="#000000" font-family="sans-serif" font-size="14" font-weight="bold" lengthAdjust="spacing" textLength="306.4824" x="153.1289" y="22.9951">Diagrama entidad-relaci&#243;n del sistema</text></g><!--class Campo--><g class="entity" data-qualified-name="Campo" data-source-line="9" id="ent0002"><rect fill="#F1F1F1" height="91.1875" rx="2.5" ry="2.5" style="stroke:#181818;stroke-width:0.5;" width="191.874" x="37.5" y="44.2969"/><text fill="#000000" font-family="sans-serif" font-size="14" lengthAdjust="spacing" textLength="49.4443" x="108.7148" y="62.292">Campo</text><line style="stroke:#181818;stroke-width:0.5;" x1="38.5" x2="228.374" y1="70.5938" y2="70.5938"/><g data-visibility-modifier="IE_MANDATORY"><ellipse cx="48.5" cy="84.2422" fill="#000000" rx="3" ry="3" style="stroke:#000000;stroke-width:1;"/></g><text fill="#000000" font-family="sans-serif" font-size="14" lengthAdjust="spacing" textLength="165.874" x="57.5" y="87.5889">id_campo : entero &#171;PK&#187;</text><line style="stroke:#181818;stroke-width:1;" x1="38.5" x2="228.374" y1="94.8906" y2="94.8906"/><text fill="#000000" font-family="sans-serif" font-size="14" lengthAdjust="spacing" textLength="104.3916" x="43.5" y="111.8857">nombre : texto</text><text fill="#000000" font-family="sans-serif" font-size="14" lengthAdjust="spacing" textLength="117.0107" x="43.5" y="128.1826">ubicacion : texto</text></g><!--class Hoyo--><g class="entity" data-qualified-name="Hoyo" data-source-line="16" id="ent0003"><rect fill="#F1F1F1" height="107.4844" rx="2.5" ry="2.5" style="stroke:#181818;stroke-width:0.5;" width="178.7969" x="44" y="195.2969"/><text fill="#000000" font-family="sans-serif" font-size="14" lengthAdjust="spacing" textLength="35.9434" x="115.4268" y="213.292">Hoyo</text><line style="stroke:#181818;stroke-width:0.5;" x1="45" x2="221.7969" y1="221.5938" y2="221.5938"/><g data-visibility-modifier="IE_MANDATORY"><ellipse cx="55" cy="235.2422" fill="#000000" rx="3" ry="3" style="stroke:#000000;stroke-width:1;"/></g><text fill="#000000" font-family="sans-serif" font-size="14" lengthAdjust="spacing" textLength="152.7969" x="64" y="238.5889">id_hoyo : entero &#171;PK&#187;</text><line style="stroke:#181818;stroke-width:1;" x1="45" x2="221.7969" y1="245.8906" y2="245.8906"/><text fill="#000000" font-family="sans-serif" font-size="14" lengthAdjust="spacing" textLength="165.4844" x="50" y="262.8857">id_campo : entero &#171;FK&#187;</text><text fill="#000000" font-family="sans-serif" font-size="14" lengthAdjust="spacing" textLength="113.8457" x="50" y="279.1826">numero : entero</text><text fill="#000000" font-family="sans-serif" font-size="14" lengthAdjust="spacing" textLength="82.749" x="50" y="295.4795">par : entero</text></g><!--class Camara--><g class="entity" data-qualified-name="Camara" data-source-line="24" id="ent0004"><rect fill="#F1F1F1" height="123.7813" rx="2.5" ry="2.5" style="stroke:#181818;stroke-width:0.5;" width="197.3359" x="187" y="378.2969"/><text fill="#000000" font-family="sans-serif" font-size="14" lengthAdjust="spacing" textLength="54.9063" x="258.2148" y="396.292">Camara</text><line style="stroke:#181818;stroke-width:0.5;" x1="188" x2="383.3359" y1="404.5938" y2="404.5938"/><g data-visibility-modifier="IE_MANDATORY"><ellipse cx="198" cy="418.2422" fill="#000000" rx="3" ry="3" style="stroke:#000000;stroke-width:1;"/></g><text fill="#000000" font-family="sans-serif" font-size="14" lengthAdjust="spacing" textLength="171.3359" x="207" y="421.5889">id_camara : entero &#171;PK&#187;</text><line style="stroke:#181818;stroke-width:1;" x1="188" x2="383.3359" y1="428.8906" y2="428.8906"/><text fill="#000000" font-family="sans-serif" font-size="14" lengthAdjust="spacing" textLength="152.4072" x="193" y="445.8857">id_hoyo : entero &#171;FK&#187;</text><text fill="#000000" font-family="sans-serif" font-size="14" lengthAdjust="spacing" textLength="104.3916" x="193" y="462.1826">nombre : texto</text><text fill="#000000" font-family="sans-serif" font-size="14" lengthAdjust="spacing" textLength="68.2705" x="193" y="478.4795">rol : texto</text><text fill="#000000" font-family="sans-serif" font-size="14" lengthAdjust="spacing" textLength="120.6611" x="193" y="494.7764">activo : booleano</text></g><!--class Usuario--><g class="entity" data-qualified-name="Usuario" data-source-line="33" id="ent0005"><rect fill="#F1F1F1" height="156.375" rx="2.5" ry="2.5" style="stroke:#181818;stroke-width:0.5;" width="200.7402" x="419" y="362.2969"/><text fill="#000000" font-family="sans-serif" font-size="14" lengthAdjust="spacing" textLength="53.2041" x="492.7681" y="380.292">Usuario</text><line style="stroke:#181818;stroke-width:0.5;" x1="420" x2="618.7402" y1="388.5938" y2="388.5938"/><g data-visibility-modifier="IE_MANDATORY"><ellipse cx="430" cy="402.2422" fill="#000000" rx="3" ry="3" style="stroke:#000000;stroke-width:1;"/></g><text fill="#000000" font-family="sans-serif" font-size="14" lengthAdjust="spacing" textLength="170.3379" x="439" y="405.5889">id_usuario : entero &#171;PK&#187;</text><line style="stroke:#181818;stroke-width:1;" x1="420" x2="618.7402" y1="412.8906" y2="412.8906"/><text fill="#000000" font-family="sans-serif" font-size="14" lengthAdjust="spacing" textLength="163.2217" x="425" y="429.8857">nombre_usuario : texto</text><text fill="#000000" font-family="sans-serif" font-size="14" lengthAdjust="spacing" textLength="88.6689" x="425" y="446.1826">email : texto</text><text fill="#000000" font-family="sans-serif" font-size="14" lengthAdjust="spacing" textLength="168.998" x="425" y="462.4795">contrasena_hash : texto</text><text fill="#000000" font-family="sans-serif" font-size="14" lengthAdjust="spacing" textLength="188.7402" x="425" y="478.7764">fecha_registro : fecha/hora</text><text fill="#000000" font-family="sans-serif" font-size="14" lengthAdjust="spacing" textLength="120.6611" x="425" y="495.0732">activo : booleano</text><text fill="#000000" font-family="sans-serif" font-size="14" lengthAdjust="spacing" textLength="135.7207" x="425" y="511.3701">tipo_usuario : texto</text></g><!--class SesionCaptura--><g class="entity" data-qualified-name="SesionCaptura" data-source-line="44" id="ent0006"><rect fill="#F1F1F1" height="156.375" rx="2.5" ry="2.5" style="stroke:#181818;stroke-width:0.5;" width="189.0371" x="191" y="578.2969"/><text fill="#000000" font-family="sans-serif" font-size="14" lengthAdjust="spacing" textLength="102.0605" x="234.4883" y="596.292">SesionCaptura</text><line style="stroke:#181818;stroke-width:0.5;" x1="192" x2="379.0371" y1="604.5938" y2="604.5938"/><g data-visibility-modifier="IE_MANDATORY"><ellipse cx="202" cy="618.2422" fill="#000000" rx="3" ry="3" style="stroke:#000000;stroke-width:1;"/></g><text fill="#000000" font-family="sans-serif" font-size="14" lengthAdjust="spacing" textLength="163.0371" x="211" y="621.5889">id_sesion : entero &#171;PK&#187;</text><line style="stroke:#181818;stroke-width:1;" x1="192" x2="379.0371" y1="628.8906" y2="628.8906"/><text fill="#000000" font-family="sans-serif" font-size="14" lengthAdjust="spacing" textLength="169.9482" x="197" y="645.8857">id_usuario : entero &#171;FK&#187;</text><text fill="#000000" font-family="sans-serif" font-size="14" lengthAdjust="spacing" textLength="152.4072" x="197" y="662.1826">id_hoyo : entero &#171;FK&#187;</text><text fill="#000000" font-family="sans-serif" font-size="14" lengthAdjust="spacing" textLength="170.9463" x="197" y="678.4795">id_camara : entero &#171;FK&#187;</text><text fill="#000000" font-family="sans-serif" font-size="14" lengthAdjust="spacing" textLength="171.2949" x="197" y="694.7764">fecha_inicio : fecha/hora</text><text fill="#000000" font-family="sans-serif" font-size="14" lengthAdjust="spacing" textLength="152.1816" x="197" y="711.0732">fecha_fin : fecha/hora</text><text fill="#000000" font-family="sans-serif" font-size="14" lengthAdjust="spacing" textLength="120.6611" x="197" y="727.3701">activo : booleano</text></g><!--class EventoDetectado--><g class="entity" data-qualified-name="EventoDetectado" data-source-line="55" id="ent0007"><rect fill="#F1F1F1" height="140.0781" rx="2.5" ry="2.5" style="stroke:#181818;stroke-width:0.5;" width="233.2246" x="169" y="794.2969"/><text fill="#000000" font-family="sans-serif" font-size="14" lengthAdjust="spacing" textLength="121.3857" x="224.9194" y="812.292">EventoDetectado</text><line style="stroke:#181818;stroke-width:0.5;" x1="170" x2="401.2246" y1="820.5938" y2="820.5938"/><g data-visibility-modifier="IE_MANDATORY"><ellipse cx="180" cy="834.2422" fill="#000000" rx="3" ry="3" style="stroke:#000000;stroke-width:1;"/></g><text fill="#000000" font-family="sans-serif" font-size="14" lengthAdjust="spacing" textLength="166.9473" x="189" y="837.5889">id_evento : entero &#171;PK&#187;</text><line style="stroke:#181818;stroke-width:1;" x1="170" x2="401.2246" y1="844.8906" y2="844.8906"/><text fill="#000000" font-family="sans-serif" font-size="14" lengthAdjust="spacing" textLength="162.6475" x="175" y="861.8857">id_sesion : entero &#171;FK&#187;</text><text fill="#000000" font-family="sans-serif" font-size="14" lengthAdjust="spacing" textLength="221.2246" x="175" y="878.1826">instante_deteccion : fecha/hora</text><text fill="#000000" font-family="sans-serif" font-size="14" lengthAdjust="spacing" textLength="132.3301" x="175" y="894.4795">tipo_evento : texto</text><text fill="#000000" font-family="sans-serif" font-size="14" lengthAdjust="spacing" textLength="120.251" x="175" y="910.7764">valido : booleano</text><text fill="#000000" font-family="sans-serif" font-size="14" lengthAdjust="spacing" textLength="136.1445" x="175" y="927.0732">confianza : decimal</text></g><!--class Clip--><g class="entity" data-qualified-name="Clip" data-source-line="65" id="ent0008"><rect fill="#F1F1F1" height="172.6719" rx="2.5" ry="2.5" style="stroke:#181818;stroke-width:0.5;" width="238.502" x="166" y="994.2969"/><text fill="#000000" font-family="sans-serif" font-size="14" lengthAdjust="spacing" textLength="26.4414" x="272.0303" y="1012.292">Clip</text><line style="stroke:#181818;stroke-width:0.5;" x1="167" x2="403.502" y1="1020.5938" y2="1020.5938"/><g data-visibility-modifier="IE_MANDATORY"><ellipse cx="177" cy="1034.2422" fill="#000000" rx="3" ry="3" style="stroke:#000000;stroke-width:1;"/></g><text fill="#000000" font-family="sans-serif" font-size="14" lengthAdjust="spacing" textLength="142.8711" x="186" y="1037.5889">id_clip : entero &#171;PK&#187;</text><line style="stroke:#181818;stroke-width:1;" x1="167" x2="403.502" y1="1044.8906" y2="1044.8906"/><text fill="#000000" font-family="sans-serif" font-size="14" lengthAdjust="spacing" textLength="169.9482" x="172" y="1061.8857">id_usuario : entero &#171;FK&#187;</text><text fill="#000000" font-family="sans-serif" font-size="14" lengthAdjust="spacing" textLength="152.4072" x="172" y="1078.1826">id_hoyo : entero &#171;FK&#187;</text><text fill="#000000" font-family="sans-serif" font-size="14" lengthAdjust="spacing" textLength="226.502" x="172" y="1094.4795">id_evento : entero &#171;FK nullable&#187;</text><text fill="#000000" font-family="sans-serif" font-size="14" lengthAdjust="spacing" textLength="101.7051" x="172" y="1110.7764">archivo : texto</text><text fill="#000000" font-family="sans-serif" font-size="14" lengthAdjust="spacing" textLength="194.1611" x="172" y="1127.0732">fecha_creacion : fecha/hora</text><text fill="#000000" font-family="sans-serif" font-size="14" lengthAdjust="spacing" textLength="132.2139" x="172" y="1143.3701">favorito : booleano</text><text fill="#000000" font-family="sans-serif" font-size="14" lengthAdjust="spacing" textLength="207.5254" x="172" y="1159.667">fecha_expiracion : fecha/hora</text></g><!--link Campo to Hoyo--><g class="link" data-entity-1="ent0002" data-entity-2="ent0003" data-link-type="crowfoot" data-source-line="77" id="lnk9"><path codeLine="77" d="M133.5,143.3569 C133.5,161.9869 133.5,157.6769 133.5,177.0669" fill="none" id="Campo-Hoyo" style="stroke:#181818;stroke-width:1;"/><line style="stroke:#181818;stroke-width:1;" x1="129.5" x2="137.5" y1="139.3569" y2="139.3569"/><line style="stroke:#181818;stroke-width:1;" x1="129.5" x2="137.5" y1="142.3569" y2="142.3569"/><line style="stroke:#181818;stroke-width:1;" x1="133.5" x2="133.5" y1="143.3569" y2="135.3569"/><line style="stroke:#181818;stroke-width:1;" x1="133.5" x2="139.5" y1="187.0669" y2="195.0669"/><line style="stroke:#181818;stroke-width:1;" x1="133.5" x2="127.5" y1="187.0669" y2="195.0669"/><line style="stroke:#181818;stroke-width:1;" x1="133.5" x2="133.5" y1="187.0669" y2="195.0669"/><ellipse cx="133.5" cy="181.0669" fill="none" rx="4" ry="4" style="stroke:#181818;stroke-width:1;"/><text fill="#000000" font-family="sans-serif" font-size="13" lengthAdjust="spacing" textLength="56.2847" x="76.5" y="161.2838">contiene</text></g><!--link Hoyo to Camara--><g class="link" data-entity-1="ent0003" data-entity-2="ent0004" data-link-type="crowfoot" data-source-line="79" id="lnk10"><path codeLine="79" d="M205,310.3969 C205,333.9669 205,335.7869 205,360.2469" fill="none" id="Hoyo-Camara" style="stroke:#181818;stroke-width:1;"/><line style="stroke:#181818;stroke-width:1;" x1="201" x2="209" y1="306.3969" y2="306.3969"/><line style="stroke:#181818;stroke-width:1;" x1="201" x2="209" y1="309.3969" y2="309.3969"/><line style="stroke:#181818;stroke-width:1;" x1="205" x2="205" y1="310.3969" y2="302.3969"/><line style="stroke:#181818;stroke-width:1;" x1="205" x2="211" y1="370.2469" y2="378.2469"/><line style="stroke:#181818;stroke-width:1;" x1="205" x2="199" y1="370.2469" y2="378.2469"/><line style="stroke:#181818;stroke-width:1;" x1="205" x2="205" y1="370.2469" y2="378.2469"/><ellipse cx="205" cy="364.2469" fill="none" rx="4" ry="4" style="stroke:#181818;stroke-width:1;"/><text fill="#000000" font-family="sans-serif" font-size="13" lengthAdjust="spacing" textLength="32.9443" x="172" y="336.3938">tiene</text></g><!--link Hoyo to SesionCaptura--><g class="link" data-entity-1="ent0003" data-entity-2="ent0006" data-link-type="crowfoot" data-source-line="80" id="lnk11"><path codeLine="80" d="M178,310.4869 C178,421.1469 178,656.2969 178,656.2969 C178,656.2969 164.96,656.2969 172.75,656.2969" fill="none" id="Hoyo-SesionCaptura" style="stroke:#181818;stroke-width:1;"/><line style="stroke:#181818;stroke-width:1;" x1="174" x2="182" y1="306.4869" y2="306.4869"/><line style="stroke:#181818;stroke-width:1;" x1="174" x2="182" y1="309.4869" y2="309.4869"/><line style="stroke:#181818;stroke-width:1;" x1="178" x2="178" y1="310.4869" y2="302.4869"/><line style="stroke:#181818;stroke-width:1;" x1="182.75" x2="190.75" y1="656.2969" y2="650.2969"/><line style="stroke:#181818;stroke-width:1;" x1="182.75" x2="190.75" y1="656.2969" y2="662.2969"/><line style="stroke:#181818;stroke-width:1;" x1="182.75" x2="190.75" y1="656.2969" y2="656.2969"/><ellipse cx="176.75" cy="656.2969" fill="none" rx="4" ry="4" style="stroke:#181818;stroke-width:1;"/><text fill="#000000" font-family="sans-serif" font-size="13" lengthAdjust="spacing" textLength="87.4453" x="90" y="481.8338">contextualiza</text></g><!--link Hoyo to Clip--><g class="link" data-entity-1="ent0003" data-entity-2="ent0008" data-link-type="crowfoot" data-source-line="81" id="lnk12"><path codeLine="81" d="M105,310.4569 C105,494.5669 105,1081.2969 105,1081.2969 C105,1081.2969 114.4,1081.2969 147.86,1081.2969" fill="none" id="Hoyo-Clip" style="stroke:#181818;stroke-width:1;"/><line style="stroke:#181818;stroke-width:1;" x1="101" x2="109" y1="306.4569" y2="306.4569"/><line style="stroke:#181818;stroke-width:1;" x1="101" x2="109" y1="309.4569" y2="309.4569"/><line style="stroke:#181818;stroke-width:1;" x1="105" x2="105" y1="310.4569" y2="302.4569"/><line style="stroke:#181818;stroke-width:1;" x1="157.86" x2="165.86" y1="1081.2969" y2="1075.2969"/><line style="stroke:#181818;stroke-width:1;" x1="157.86" x2="165.86" y1="1081.2969" y2="1087.2969"/><line style="stroke:#181818;stroke-width:1;" x1="157.86" x2="165.86" y1="1081.2969" y2="1081.2969"/><ellipse cx="151.86" cy="1081.2969" fill="none" rx="4" ry="4" style="stroke:#181818;stroke-width:1;"/><text fill="#000000" font-family="sans-serif" font-size="13" lengthAdjust="spacing" textLength="97.1953" x="7" y="718.3738">se_produce_en</text></g><!--link Camara to SesionCaptura--><g class="link" data-entity-1="ent0004" data-entity-2="ent0006" data-link-type="crowfoot" data-source-line="83" id="lnk13"><path codeLine="83" d="M254,510.4869 C254,534.0369 254,535.1669 254,560.0069" fill="none" id="Camara-SesionCaptura" style="stroke:#181818;stroke-width:1;"/><line style="stroke:#181818;stroke-width:1;" x1="250" x2="258" y1="506.4869" y2="506.4869"/><line style="stroke:#181818;stroke-width:1;" x1="250" x2="258" y1="509.4869" y2="509.4869"/><line style="stroke:#181818;stroke-width:1;" x1="254" x2="254" y1="510.4869" y2="502.4869"/><line style="stroke:#181818;stroke-width:1;" x1="254" x2="260" y1="570.0069" y2="578.0069"/><line style="stroke:#181818;stroke-width:1;" x1="254" x2="248" y1="570.0069" y2="578.0069"/><line style="stroke:#181818;stroke-width:1;" x1="254" x2="254" y1="570.0069" y2="578.0069"/><ellipse cx="254" cy="564.0069" fill="none" rx="4" ry="4" style="stroke:#181818;stroke-width:1;"/><text fill="#000000" font-family="sans-serif" font-size="13" lengthAdjust="spacing" textLength="97.8682" x="156" y="536.3138">inicia_contexto</text></g><!--link Usuario to SesionCaptura--><g class="link" data-entity-1="ent0005" data-entity-2="ent0006" data-link-type="crowfoot" data-source-line="85" id="lnk14"><path codeLine="85" d="M410.84,510.2969 C360.02,510.2969 317,510.2969 317,510.2969 C317,510.2969 317,525.4569 317,560.1669" fill="none" id="Usuario-SesionCaptura" style="stroke:#181818;stroke-width:1;"/><line style="stroke:#181818;stroke-width:1;" x1="414.84" x2="414.84" y1="506.2969" y2="514.2969"/><line style="stroke:#181818;stroke-width:1;" x1="411.84" x2="411.84" y1="506.2969" y2="514.2969"/><line style="stroke:#181818;stroke-width:1;" x1="410.84" x2="418.84" y1="510.2969" y2="510.2969"/><line style="stroke:#181818;stroke-width:1;" x1="317" x2="323" y1="570.1669" y2="578.1669"/><line style="stroke:#181818;stroke-width:1;" x1="317" x2="311" y1="570.1669" y2="578.1669"/><line style="stroke:#181818;stroke-width:1;" x1="317" x2="317" y1="570.1669" y2="578.1669"/><ellipse cx="317" cy="564.1669" fill="none" rx="4" ry="4" style="stroke:#181818;stroke-width:1;"/><text fill="#000000" font-family="sans-serif" font-size="13" lengthAdjust="spacing" textLength="39.4824" x="293.99" y="523.3638">activa</text></g><!--link Usuario to Clip--><g class="link" data-entity-1="ent0005" data-entity-2="ent0008" data-link-type="crowfoot" data-source-line="86" id="lnk15"><path codeLine="86" d="M519.5,526.5769 C519.5,697.5769 519.5,1081.2969 519.5,1081.2969 C519.5,1081.2969 480.81,1081.2969 423.24,1081.2969" fill="none" id="Usuario-Clip" style="stroke:#181818;stroke-width:1;"/><line style="stroke:#181818;stroke-width:1;" x1="515.5" x2="523.5" y1="522.5769" y2="522.5769"/><line style="stroke:#181818;stroke-width:1;" x1="515.5" x2="523.5" y1="525.5769" y2="525.5769"/><line style="stroke:#181818;stroke-width:1;" x1="519.5" x2="519.5" y1="526.5769" y2="518.5769"/><line style="stroke:#181818;stroke-width:1;" x1="413.24" x2="405.24" y1="1081.2969" y2="1087.2969"/><line style="stroke:#181818;stroke-width:1;" x1="413.24" x2="405.24" y1="1081.2969" y2="1075.2969"/><line style="stroke:#181818;stroke-width:1;" x1="413.24" x2="405.24" y1="1081.2969" y2="1081.2969"/><ellipse cx="419.24" cy="1081.2969" fill="none" rx="4" ry="4" style="stroke:#181818;stroke-width:1;"/><text fill="#000000" font-family="sans-serif" font-size="13" lengthAdjust="spacing" textLength="38.9746" x="480.5" y="853.1338">posee</text></g><!--link SesionCaptura to EventoDetectado--><g class="link" data-entity-1="ent0006" data-entity-2="ent0007" data-link-type="crowfoot" data-source-line="88" id="lnk16"><path codeLine="88" d="M285.5,742.3369 C285.5,761.9369 285.5,756.8469 285.5,776.0369" fill="none" id="SesionCaptura-EventoDetectado" style="stroke:#181818;stroke-width:1;"/><line style="stroke:#181818;stroke-width:1;" x1="281.5" x2="289.5" y1="738.3369" y2="738.3369"/><line style="stroke:#181818;stroke-width:1;" x1="281.5" x2="289.5" y1="741.3369" y2="741.3369"/><line style="stroke:#181818;stroke-width:1;" x1="285.5" x2="285.5" y1="742.3369" y2="734.3369"/><line style="stroke:#181818;stroke-width:1;" x1="285.5" x2="291.5" y1="786.0369" y2="794.0369"/><line style="stroke:#181818;stroke-width:1;" x1="285.5" x2="279.5" y1="786.0369" y2="794.0369"/><line style="stroke:#181818;stroke-width:1;" x1="285.5" x2="285.5" y1="786.0369" y2="794.0369"/><ellipse cx="285.5" cy="780.0369" fill="none" rx="4" ry="4" style="stroke:#181818;stroke-width:1;"/><text fill="#000000" font-family="sans-serif" font-size="13" lengthAdjust="spacing" textLength="50.3877" x="234.5" y="760.2538">registra</text></g><!--link EventoDetectado to Clip--><g class="link" data-entity-1="ent0007" data-entity-2="ent0008" data-link-type="association" data-source-line="90" id="lnk17"><path codeLine="90" d="M285.5,942.5869 C285.5,961.6069 285.5,959.4069 285.5,979.2069" fill="none" id="EventoDetectado-Clip" style="stroke:#181818;stroke-width:1;"/><line style="stroke:#181818;stroke-width:1;" x1="281.5" x2="289.5" y1="938.5869" y2="938.5869"/><line style="stroke:#181818;stroke-width:1;" x1="281.5" x2="289.5" y1="941.5869" y2="941.5869"/><line style="stroke:#181818;stroke-width:1;" x1="285.5" x2="285.5" y1="942.5869" y2="934.5869"/><line style="stroke:#181818;stroke-width:1;" x1="285.5" x2="285.5" y1="983.2069" y2="994.2069"/><ellipse cx="285.5" cy="983.2069" fill="none" rx="4" ry="4" style="stroke:#181818;stroke-width:1;"/><line style="stroke:#181818;stroke-width:1;" x1="289.5" x2="281.5" y1="990.2069" y2="990.2069"/><text fill="#000000" font-family="sans-serif" font-size="13" lengthAdjust="spacing" textLength="45.7983" x="239.5" y="960.4638">genera</text></g><?plantuml-src hLNDRjim3BxxAOGU1mIx1qKlwOe1lGmOTZPecOc9oQ8XoLdJfa-rHzYBZPRi-YTETjd5u8z4ylj8oe62GVL8S71GWq8Rg8Houz20fZ-_hIhHA4y-O0rPvd-IRK1EAbz1oR_87jGUZCU9nv35S6fGiGiLPnMLg3GvRJ3B0ZSgi2eu1AvLIGvr8BPPrkKD9tMtWxhXEmLUHKczPKfzKbJcEghRha1qhExllpq_F8Xpiv6FvRfmADw0Bu75q1QafNws7xRtCSTNFgKKdJ1cg3hjIeAr0fwItxPrfmyEiGWDe_e-moO43U14dA7hzElPbyKDoPV07Pk91iBkiRjNC1i4EoldXs_1KMAYbyU2sjvma_39gI6ZJ0bDAz1iWmEF5l8AV3Nnx55Na3iyo6n5_gBXSyKELYjNAb335oadWBwZbuxle0bjJ_FCCeBpqNo3xHNqFU7NMx7QnTwNi98bJHT8aszFzjyKJB1-EOh4ZnXaWMGH8zg5RSIBqN43xoKX0oZh0uWjBxke_KBDgenD-KWmDFS8Xif5-sGKzWJsjIEeH4qrcDbs66hIReWmsOnE---TkcJawLassHWe3CP3u7ILw9yFh7O8QppiuSYEmW9pkeCl3RcLMu8-lNBdysR3R-azsiQT8RJoN4P3xzmDmvLyKzTyp5C0ARgL9hp2F4XYqsFUE2vRZJdQM4GN-agqEBO2F0NbB1iUYolduzp2ybIVkM6F0cn-fp-odD-jwby7-V4iVV7AUOXw44OS_0K0?></g></svg>