<?plantuml 1.2026.2?><svg xmlns="http://www.w3.org/2000/svg" xmlns:xlink="http://www.w3.org/1999/xlink" contentStyleType="text/css" data-diagram-type="CLASS" height="1541px" preserveAspectRatio="none" style="width:635px;height:1541px;background:#FFFFFF;" version="1.1" viewBox="0 0 635 1541" width="635px" zoomAndPan="magnify"><title>Diagrama entidad-relaci&#243;n del sistema</title><defs/><g><g class="title" data-source-line="1"><text fill="#000000" font-family="sans-serif" font-size="14" font-weight="bold" lengthAdjust="spacing" textLength="306.4824" x="157.7539" y="22.9951">Diagrama entidad-relaci&#243;n del sistema</text></g><!--class Usuario--><g class="entity" data-qualified-name="Usuario" data-source-line="7" id="ent0002"><rect fill="#F1F1F1" height="156.375" rx="2.5" ry="2.5" style="stroke:#181818;stroke-width:0.5;" width="200.7402" x="428.25" y="529.2969"/><text fill="#000000" font-family="sans-serif" font-size="14" lengthAdjust="spacing" textLength="53.2041" x="502.0181" y="547.292">Usuario</text><line style="stroke:#181818;stroke-width:0.5;" x1="429.25" x2="627.9902" y1="555.5938" y2="555.5938"/><g data-visibility-modifier="IE_MANDATORY"><ellipse cx="439.25" cy="569.2422" fill="#000000" rx="3" ry="3" style="stroke:#000000;stroke-width:1;"/></g><text fill="#000000" font-family="sans-serif" font-size="14" lengthAdjust="spacing" textLength="170.3379" x="448.25" y="572.5889">id_usuario : entero &#171;PK&#187;</text><line style="stroke:#181818;stroke-width:1;" x1="429.25" x2="627.9902" y1="579.8906" y2="579.8906"/><text fill="#000000" font-family="sans-serif" font-size="14" lengthAdjust="spacing" textLength="163.2217" x="434.25" y="596.8857">nombre_usuario : texto</text><text fill="#000000" font-family="sans-serif" font-size="14" lengthAdjust="spacing" textLength="88.6689" x="434.25" y="613.1826">email : texto</text><text fill="#000000" font-family="sans-serif" font-size="14" lengthAdjust="spacing" textLength="168.998" x="434.25" y="629.4795">contrasena_hash : texto</text><text fill="#000000" font-family="sans-serif" font-size="14" lengthAdjust="spacing" textLength="188.7402" x="434.25" y="645.7764">fecha_registro : fecha/hora</text><text fill="#000000" font-family="sans-serif" font-size="14" lengthAdjust="spacing" textLength="120.6611" x="434.25" y="662.0732">activo : booleano</text><text fill="#000000" font-family="sans-serif" font-size="14" lengthAdjust="spacing" textLength="135.7207" x="434.25" y="678.3701">tipo_usuario : texto</text></g><!--class Campo--><g class="entity" data-qualified-name="Campo" data-source-line="18" id="ent0003"><rect fill="#F1F1F1" height="91.1875" rx="2.5" ry="2.5" style="stroke:#181818;stroke-width:0.5;" width="191.874" x="85.75" y="44.2969"/><text fill="#000000" font-family="sans-serif" font-size="14" lengthAdjust="spacing" textLength="49.4443" x="156.9648" y="62.292">Campo</text><line style="stroke:#181818;stroke-width:0.5;" x1="86.75" x2="276.624" y1="70.5938" y2="70.5938"/><g data-visibility-modifier="IE_MANDATORY"><ellipse cx="96.75" cy="84.2422" fill="#000000" rx="3" ry="3" style="stroke:#000000;stroke-width:1;"/></g><text fill="#000000" font-family="sans-serif" font-size="14" lengthAdjust="spacing" textLength="165.874" x="105.75" y="87.5889">id_campo : entero &#171;PK&#187;</text><line style="stroke:#181818;stroke-width:1;" x1="86.75" x2="276.624" y1="94.8906" y2="94.8906"/><text fill="#000000" font-family="sans-serif" font-size="14" lengthAdjust="spacing" textLength="104.3916" x="91.75" y="111.8857">nombre : texto</text><text fill="#000000" font-family="sans-serif" font-size="14" lengthAdjust="spacing" textLength="117.0107" x="91.75" y="128.1826">ubicacion : texto</text></g><!--class Hoyo--><g class="entity" data-qualified-name="Hoyo" data-source-line="25" id="ent0004"><rect fill="#F1F1F1" height="107.4844" rx="2.5" ry="2.5" style="stroke:#181818;stroke-width:0.5;" width="178.7969" x="92.25" y="195.2969"/><text fill="#000000" font-family="sans-serif" font-size="14" lengthAdjust="spacing" textLength="35.9434" x="163.6768" y="213.292">Hoyo</text><line style="stroke:#181818;stroke-width:0.5;" x1="93.25" x2="270.0469" y1="221.5938" y2="221.5938"/><g data-visibility-modifier="IE_MANDATORY"><ellipse cx="103.25" cy="235.2422" fill="#000000" rx="3" ry="3" style="stroke:#000000;stroke-width:1;"/></g><text fill="#000000" font-family="sans-serif" font-size="14" lengthAdjust="spacing" textLength="152.7969" x="112.25" y="238.5889">id_hoyo : entero &#171;PK&#187;</text><line style="stroke:#181818;stroke-width:1;" x1="93.25" x2="270.0469" y1="245.8906" y2="245.8906"/><text fill="#000000" font-family="sans-serif" font-size="14" lengthAdjust="spacing" textLength="165.4844" x="98.25" y="262.8857">id_campo : entero &#171;FK&#187;</text><text fill="#000000" font-family="sans-serif" font-size="14" lengthAdjust="spacing" textLength="113.8457" x="98.25" y="279.1826">numero : entero</text><text fill="#000000" font-family="sans-serif" font-size="14" lengthAdjust="spacing" textLength="82.749" x="98.25" y="295.4795">par : entero</text></g><!--class Camara--><g class="entity" data-qualified-name="Camara" data-source-line="33" id="ent0005"><rect fill="#F1F1F1" height="107.4844" rx="2.5" ry="2.5" style="stroke:#181818;stroke-width:0.5;" width="197.3359" x="7.25" y="362.2969"/><text fill="#000000" font-family="sans-serif" font-size="14" lengthAdjust="spacing" textLength="54.9063" x="78.4648" y="380.292">Camara</text><line style="stroke:#181818;stroke-width:0.5;" x1="8.25" x2="203.5859" y1="388.5938" y2="388.5938"/><g data-visibility-modifier="IE_MANDATORY"><ellipse cx="18.25" cy="402.2422" fill="#000000" rx="3" ry="3" style="stroke:#000000;stroke-width:1;"/></g><text fill="#000000" font-family="sans-serif" font-size="14" lengthAdjust="spacing" textLength="171.3359" x="27.25" y="405.5889">id_camara : entero &#171;PK&#187;</text><line style="stroke:#181818;stroke-width:1;" x1="8.25" x2="203.5859" y1="412.8906" y2="412.8906"/><text fill="#000000" font-family="sans-serif" font-size="14" lengthAdjust="spacing" textLength="152.4072" x="13.25" y="429.8857">id_hoyo : entero &#171;FK&#187;</text><text fill="#000000" font-family="sans-serif" font-size="14" lengthAdjust="spacing" textLength="107.7207" x="13.25" y="446.1826">posici&#243;n : texto</text><text fill="#000000" font-family="sans-serif" font-size="14" lengthAdjust="spacing" textLength="120.6611" x="13.25" y="462.4795">activo : booleano</text></g><!--class CodigoQR--><g class="entity" data-qualified-name="CodigoQR" data-source-line="41" id="ent0006"><rect fill="#F1F1F1" height="140.0781" rx="2.5" ry="2.5" style="stroke:#181818;stroke-width:0.5;" width="242.8906" x="78.25" y="537.2969"/><text fill="#000000" font-family="sans-serif" font-size="14" lengthAdjust="spacing" textLength="69.3164" x="165.0371" y="555.292">CodigoQR</text><line style="stroke:#181818;stroke-width:0.5;" x1="79.25" x2="320.1406" y1="563.5938" y2="563.5938"/><g data-visibility-modifier="IE_MANDATORY"><ellipse cx="89.25" cy="577.2422" fill="#000000" rx="3" ry="3" style="stroke:#000000;stroke-width:1;"/></g><text fill="#000000" font-family="sans-serif" font-size="14" lengthAdjust="spacing" textLength="133.1504" x="98.25" y="580.5889">id_qr : entero &#171;PK&#187;</text><line style="stroke:#181818;stroke-width:1;" x1="79.25" x2="320.1406" y1="587.8906" y2="587.8906"/><text fill="#000000" font-family="sans-serif" font-size="14" lengthAdjust="spacing" textLength="152.4072" x="84.25" y="604.8857">id_hoyo : entero &#171;FK&#187;</text><text fill="#000000" font-family="sans-serif" font-size="14" lengthAdjust="spacing" textLength="230.8906" x="84.25" y="621.1826">id_camara : entero &#171;FK nullable&#187;</text><text fill="#000000" font-family="sans-serif" font-size="14" lengthAdjust="spacing" textLength="68.5781" x="84.25" y="637.4795">url : texto</text><text fill="#000000" font-family="sans-serif" font-size="14" lengthAdjust="spacing" textLength="194.1611" x="84.25" y="653.7764">fecha_creacion : fecha/hora</text><text fill="#000000" font-family="sans-serif" font-size="14" lengthAdjust="spacing" textLength="120.6611" x="84.25" y="670.0732">activo : booleano</text></g><!--class SesionCaptura--><g class="entity" data-qualified-name="SesionCaptura" data-source-line="51" id="ent0007"><rect fill="#F1F1F1" height="156.375" rx="2.5" ry="2.5" style="stroke:#181818;stroke-width:0.5;" width="189.0371" x="204.25" y="745.2969"/><text fill="#000000" font-family="sans-serif" font-size="14" lengthAdjust="spacing" textLength="102.0605" x="247.7383" y="763.292">SesionCaptura</text><line style="stroke:#181818;stroke-width:0.5;" x1="205.25" x2="392.2871" y1="771.5938" y2="771.5938"/><g data-visibility-modifier="IE_MANDATORY"><ellipse cx="215.25" cy="785.2422" fill="#000000" rx="3" ry="3" style="stroke:#000000;stroke-width:1;"/></g><text fill="#000000" font-family="sans-serif" font-size="14" lengthAdjust="spacing" textLength="163.0371" x="224.25" y="788.5889">id_sesion : entero &#171;PK&#187;</text><line style="stroke:#181818;stroke-width:1;" x1="205.25" x2="392.2871" y1="795.8906" y2="795.8906"/><text fill="#000000" font-family="sans-serif" font-size="14" lengthAdjust="spacing" textLength="169.9482" x="210.25" y="812.8857">id_usuario : entero &#171;FK&#187;</text><text fill="#000000" font-family="sans-serif" font-size="14" lengthAdjust="spacing" textLength="152.4072" x="210.25" y="829.1826">id_hoyo : entero &#171;FK&#187;</text><text fill="#000000" font-family="sans-serif" font-size="14" lengthAdjust="spacing" textLength="132.7607" x="210.25" y="845.4795">id_qr : entero &#171;FK&#187;</text><text fill="#000000" font-family="sans-serif" font-size="14" lengthAdjust="spacing" textLength="171.2949" x="210.25" y="861.7764">fecha_inicio : fecha/hora</text><text fill="#000000" font-family="sans-serif" font-size="14" lengthAdjust="spacing" textLength="152.1816" x="210.25" y="878.0732">fecha_fin : fecha/hora</text><text fill="#000000" font-family="sans-serif" font-size="14" lengthAdjust="spacing" textLength="120.6611" x="210.25" y="894.3701">activo : booleano</text></g><!--class EventoDetectado--><g class="entity" data-qualified-name="EventoDetectado" data-source-line="62" id="ent0008"><rect fill="#F1F1F1" height="140.0781" rx="2.5" ry="2.5" style="stroke:#181818;stroke-width:0.5;" width="233.2246" x="171.25" y="961.2969"/><text fill="#000000" font-family="sans-serif" font-size="14" lengthAdjust="spacing" textLength="121.3857" x="227.1694" y="979.292">EventoDetectado</text><line style="stroke:#181818;stroke-width:0.5;" x1="172.25" x2="403.4746" y1="987.5938" y2="987.5938"/><g data-visibility-modifier="IE_MANDATORY"><ellipse cx="182.25" cy="1001.2422" fill="#000000" rx="3" ry="3" style="stroke:#000000;stroke-width:1;"/></g><text fill="#000000" font-family="sans-serif" font-size="14" lengthAdjust="spacing" textLength="166.9473" x="191.25" y="1004.5889">id_evento : entero &#171;PK&#187;</text><line style="stroke:#181818;stroke-width:1;" x1="172.25" x2="403.4746" y1="1011.8906" y2="1011.8906"/><text fill="#000000" font-family="sans-serif" font-size="14" lengthAdjust="spacing" textLength="162.6475" x="177.25" y="1028.8857">id_sesion : entero &#171;FK&#187;</text><text fill="#000000" font-family="sans-serif" font-size="14" lengthAdjust="spacing" textLength="221.2246" x="177.25" y="1045.1826">instante_deteccion : fecha/hora</text><text fill="#000000" font-family="sans-serif" font-size="14" lengthAdjust="spacing" textLength="132.3301" x="177.25" y="1061.4795">tipo_evento : texto</text><text fill="#000000" font-family="sans-serif" font-size="14" lengthAdjust="spacing" textLength="120.251" x="177.25" y="1077.7764">valido : booleano</text><text fill="#000000" font-family="sans-serif" font-size="14" lengthAdjust="spacing" textLength="136.1445" x="177.25" y="1094.0732">confianza : decimal</text></g><!--class Clip--><g class="entity" data-qualified-name="Clip" data-source-line="72" id="ent0009"><rect fill="#F1F1F1" height="172.6719" rx="2.5" ry="2.5" style="stroke:#181818;stroke-width:0.5;" width="219.5254" x="177.75" y="1161.2969"/><text fill="#000000" font-family="sans-serif" font-size="14" lengthAdjust="spacing" textLength="26.4414" x="274.292" y="1179.292">Clip</text><line style="stroke:#181818;stroke-width:0.5;" x1="178.75" x2="396.2754" y1="1187.5938" y2="1187.5938"/><g data-visibility-modifier="IE_MANDATORY"><ellipse cx="188.75" cy="1201.2422" fill="#000000" rx="3" ry="3" style="stroke:#000000;stroke-width:1;"/></g><text fill="#000000" font-family="sans-serif" font-size="14" lengthAdjust="spacing" textLength="142.8711" x="197.75" y="1204.5889">id_clip : entero &#171;PK&#187;</text><line style="stroke:#181818;stroke-width:1;" x1="178.75" x2="396.2754" y1="1211.8906" y2="1211.8906"/><text fill="#000000" font-family="sans-serif" font-size="14" lengthAdjust="spacing" textLength="169.9482" x="183.75" y="1228.8857">id_usuario : entero &#171;FK&#187;</text><text fill="#000000" font-family="sans-serif" font-size="14" lengthAdjust="spacing" textLength="152.4072" x="183.75" y="1245.1826">id_hoyo : entero &#171;FK&#187;</text><text fill="#000000" font-family="sans-serif" font-size="14" lengthAdjust="spacing" textLength="166.5576" x="183.75" y="1261.4795">id_evento : entero &#171;FK&#187;</text><text fill="#000000" font-family="sans-serif" font-size="14" lengthAdjust="spacing" textLength="101.7051" x="183.75" y="1277.7764">archivo : texto</text><text fill="#000000" font-family="sans-serif" font-size="14" lengthAdjust="spacing" textLength="194.1611" x="183.75" y="1294.0732">fecha_creacion : fecha/hora</text><text fill="#000000" font-family="sans-serif" font-size="14" lengthAdjust="spacing" textLength="132.2139" x="183.75" y="1310.3701">favorito : booleano</text><text fill="#000000" font-family="sans-serif" font-size="14" lengthAdjust="spacing" textLength="207.5254" x="183.75" y="1326.667">fecha_expiracion : fecha/hora</text></g><!--class SegmentoClip--><g class="entity" data-qualified-name="SegmentoClip" data-source-line="84" id="ent0010"><rect fill="#F1F1F1" height="140.0781" rx="2.5" ry="2.5" style="stroke:#181818;stroke-width:0.5;" width="214.4805" x="37.75" y="1394.2969"/><text fill="#000000" font-family="sans-serif" font-size="14" lengthAdjust="spacing" textLength="98.0068" x="95.9868" y="1412.292">SegmentoClip</text><line style="stroke:#181818;stroke-width:0.5;" x1="38.75" x2="251.2305" y1="1420.5938" y2="1420.5938"/><g data-visibility-modifier="IE_MANDATORY"><ellipse cx="48.75" cy="1434.2422" fill="#000000" rx="3" ry="3" style="stroke:#000000;stroke-width:1;"/></g><text fill="#000000" font-family="sans-serif" font-size="14" lengthAdjust="spacing" textLength="188.4805" x="57.75" y="1437.5889">id_segmento : entero &#171;PK&#187;</text><line style="stroke:#181818;stroke-width:1;" x1="38.75" x2="251.2305" y1="1444.8906" y2="1444.8906"/><text fill="#000000" font-family="sans-serif" font-size="14" lengthAdjust="spacing" textLength="142.4814" x="43.75" y="1461.8857">id_clip : entero &#171;FK&#187;</text><text fill="#000000" font-family="sans-serif" font-size="14" lengthAdjust="spacing" textLength="170.9463" x="43.75" y="1478.1826">id_camara : entero &#171;FK&#187;</text><text fill="#000000" font-family="sans-serif" font-size="14" lengthAdjust="spacing" textLength="117.4277" x="43.75" y="1494.4795">tipo_vista : texto</text><text fill="#000000" font-family="sans-serif" font-size="14" lengthAdjust="spacing" textLength="100.2217" x="43.75" y="1510.7764">orden : entero</text><text fill="#000000" font-family="sans-serif" font-size="14" lengthAdjust="spacing" textLength="178.6777" x="43.75" y="1527.0732">archivo_segmento : texto</text></g><!--class Estadistica--><g class="entity" data-qualified-name="Estadistica" data-source-line="94" id="ent0011"><rect fill="#F1F1F1" height="140.0781" rx="2.5" ry="2.5" style="stroke:#181818;stroke-width:0.5;" width="241.8926" x="286.75" y="1394.2969"/><text fill="#000000" font-family="sans-serif" font-size="14" lengthAdjust="spacing" textLength="158.9902" x="328.2012" y="1412.292">Estadistica &#171;derivada&#187;</text><line style="stroke:#181818;stroke-width:0.5;" x1="287.75" x2="527.6426" y1="1420.5938" y2="1420.5938"/><line style="stroke:#181818;stroke-width:1;" x1="287.75" x2="527.6426" y1="1428.5938" y2="1428.5938"/><text fill="#000000" font-family="sans-serif" font-size="14" lengthAdjust="spacing" textLength="229.8926" x="292.75" y="1445.5889">id_usuario : entero &#171;FK nullable&#187;</text><text fill="#000000" font-family="sans-serif" font-size="14" lengthAdjust="spacing" textLength="130.1973" x="292.75" y="1461.8857">total_clips : entero</text><text fill="#000000" font-family="sans-serif" font-size="14" lengthAdjust="spacing" textLength="159.8926" x="292.75" y="1478.1826">total_favoritos : entero</text><text fill="#000000" font-family="sans-serif" font-size="14" lengthAdjust="spacing" textLength="163.085" x="292.75" y="1494.4795">hoyos_jugados : entero</text><text fill="#000000" font-family="sans-serif" font-size="14" lengthAdjust="spacing" textLength="212.8369" x="292.75" y="1510.7764">fecha_generacion : fecha/hora</text><text fill="#000000" font-family="sans-serif" font-size="14" lengthAdjust="spacing" textLength="76.8906" x="292.75" y="1527.0732">tipo : texto</text></g><!--link Campo to Hoyo--><g class="link" data-entity-1="ent0003" data-entity-2="ent0004" data-link-type="crowfoot" data-source-line="104" id="lnk12"><path codeLine="104" d="M181.75,143.3569 C181.75,161.9869 181.75,157.6769 181.75,177.0669" fill="none" id="Campo-Hoyo" style="stroke:#181818;stroke-width:1;"/><line style="stroke:#181818;stroke-width:1;" x1="177.75" x2="185.75" y1="139.3569" y2="139.3569"/><line style="stroke:#181818;stroke-width:1;" x1="177.75" x2="185.75" y1="142.3569" y2="142.3569"/><line style="stroke:#181818;stroke-width:1;" x1="181.75" x2="181.75" y1="143.3569" y2="135.3569"/><line style="stroke:#181818;stroke-width:1;" x1="181.75" x2="187.75" y1="187.0669" y2="195.0669"/><line style="stroke:#181818;stroke-width:1;" x1="181.75" x2="175.75" y1="187.0669" y2="195.0669"/><line style="stroke:#181818;stroke-width:1;" x1="181.75" x2="181.75" y1="187.0669" y2="195.0669"/><ellipse cx="181.75" cy="181.0669" fill="none" rx="4" ry="4" style="stroke:#181818;stroke-width:1;"/><text fill="#000000" font-family="sans-serif" font-size="13" lengthAdjust="spacing" textLength="56.2847" x="124.75" y="161.2838">contiene</text></g><!--link Hoyo to Camara--><g class="link" data-entity-1="ent0004" data-entity-2="ent0005" data-link-type="crowfoot" data-source-line="106" id="lnk13"><path codeLine="106" d="M148.25,310.5569 C148.25,329.6269 148.25,325.0769 148.25,344.1369" fill="none" id="Hoyo-Camara" style="stroke:#181818;stroke-width:1;"/><line style="stroke:#181818;stroke-width:1;" x1="144.25" x2="152.25" y1="306.5569" y2="306.5569"/><line style="stroke:#181818;stroke-width:1;" x1="144.25" x2="152.25" y1="309.5569" y2="309.5569"/><line style="stroke:#181818;stroke-width:1;" x1="148.25" x2="148.25" y1="310.5569" y2="302.5569"/><line style="stroke:#181818;stroke-width:1;" x1="148.25" x2="154.25" y1="354.1369" y2="362.1369"/><line style="stroke:#181818;stroke-width:1;" x1="148.25" x2="142.25" y1="354.1369" y2="362.1369"/><line style="stroke:#181818;stroke-width:1;" x1="148.25" x2="148.25" y1="354.1369" y2="362.1369"/><ellipse cx="148.25" cy="348.1369" fill="none" rx="4" ry="4" style="stroke:#181818;stroke-width:1;"/><text fill="#000000" font-family="sans-serif" font-size="13" lengthAdjust="spacing" textLength="32.9443" x="115.25" y="328.4138">tiene</text></g><!--link Hoyo to CodigoQR--><g class="link" data-entity-1="ent0004" data-entity-2="ent0006" data-link-type="crowfoot" data-source-line="107" id="lnk14"><path codeLine="107" d="M237.75,310.4669 C237.75,372.9769 237.75,450.4169 237.75,519.2169" fill="none" id="Hoyo-CodigoQR" style="stroke:#181818;stroke-width:1;"/><line style="stroke:#181818;stroke-width:1;" x1="233.75" x2="241.75" y1="306.4669" y2="306.4669"/><line style="stroke:#181818;stroke-width:1;" x1="233.75" x2="241.75" y1="309.4669" y2="309.4669"/><line style="stroke:#181818;stroke-width:1;" x1="237.75" x2="237.75" y1="310.4669" y2="302.4669"/><line style="stroke:#181818;stroke-width:1;" x1="237.75" x2="243.75" y1="529.2169" y2="537.2169"/><line style="stroke:#181818;stroke-width:1;" x1="237.75" x2="231.75" y1="529.2169" y2="537.2169"/><line style="stroke:#181818;stroke-width:1;" x1="237.75" x2="237.75" y1="529.2169" y2="537.2169"/><ellipse cx="237.75" cy="523.2169" fill="none" rx="4" ry="4" style="stroke:#181818;stroke-width:1;"/><text fill="#000000" font-family="sans-serif" font-size="13" lengthAdjust="spacing" textLength="60.1123" x="238.75" y="415.9138">identifica</text></g><!--link Camara to CodigoQR--><g class="link" data-entity-1="ent0005" data-entity-2="ent0006" data-link-type="crowfoot" data-source-line="109" id="lnk15"><path codeLine="109" d="M141.25,484.3969 C141.25,505.4169 141.25,496.8269 141.25,519.2169" fill="none" id="Camara-CodigoQR" style="stroke:#181818;stroke-width:1;"/><line style="stroke:#181818;stroke-width:1;" x1="141.25" x2="141.25" y1="480.3969" y2="469.3969"/><ellipse cx="141.25" cy="480.3969" fill="none" rx="4" ry="4" style="stroke:#181818;stroke-width:1;"/><line style="stroke:#181818;stroke-width:1;" x1="137.25" x2="145.25" y1="473.3969" y2="473.3969"/><line style="stroke:#181818;stroke-width:1;" x1="141.25" x2="147.25" y1="529.2169" y2="537.2169"/><line style="stroke:#181818;stroke-width:1;" x1="141.25" x2="135.25" y1="529.2169" y2="537.2169"/><line style="stroke:#181818;stroke-width:1;" x1="141.25" x2="141.25" y1="529.2169" y2="537.2169"/><ellipse cx="141.25" cy="523.2169" fill="none" rx="4" ry="4" style="stroke:#181818;stroke-width:1;"/><text fill="#000000" font-family="sans-serif" font-size="13" lengthAdjust="spacing" textLength="98.3823" x="42.25" y="499.3738">puede_generar</text></g><!--link Usuario to SesionCaptura--><g class="link" data-entity-1="ent0002" data-entity-2="ent0007" data-link-type="crowfoot" data-source-line="111" id="lnk16"><path codeLine="111" d="M420.19,681.2969 C388.34,681.2969 369.25,681.2969 369.25,681.2969 C369.25,681.2969 369.25,694.2369 369.25,727.2369" fill="none" id="Usuario-SesionCaptura" style="stroke:#181818;stroke-width:1;"/><line style="stroke:#181818;stroke-width:1;" x1="424.19" x2="424.19" y1="677.2969" y2="685.2969"/><line style="stroke:#181818;stroke-width:1;" x1="421.19" x2="421.19" y1="677.2969" y2="685.2969"/><line style="stroke:#181818;stroke-width:1;" x1="420.19" x2="428.19" y1="681.2969" y2="681.2969"/><line style="stroke:#181818;stroke-width:1;" x1="369.25" x2="375.25" y1="737.2369" y2="745.2369"/><line style="stroke:#181818;stroke-width:1;" x1="369.25" x2="363.25" y1="737.2369" y2="745.2369"/><line style="stroke:#181818;stroke-width:1;" x1="369.25" x2="369.25" y1="737.2369" y2="745.2369"/><ellipse cx="369.25" cy="731.2369" fill="none" rx="4" ry="4" style="stroke:#181818;stroke-width:1;"/><text fill="#000000" font-family="sans-serif" font-size="13" lengthAdjust="spacing" textLength="39.4824" x="329.25" y="679.8638">activa</text></g><!--link Hoyo to SesionCaptura--><g class="link" data-entity-1="ent0004" data-entity-2="ent0007" data-link-type="crowfoot" data-source-line="112" id="lnk17"><path codeLine="112" d="M279.63,267.2969 C317.62,267.2969 345.25,267.2969 345.25,267.2969 C345.25,267.2969 345.25,573.9669 345.25,727.1069" fill="none" id="Hoyo-SesionCaptura" style="stroke:#181818;stroke-width:1;"/><line style="stroke:#181818;stroke-width:1;" x1="275.63" x2="275.63" y1="271.2969" y2="263.2969"/><line style="stroke:#181818;stroke-width:1;" x1="278.63" x2="278.63" y1="271.2969" y2="263.2969"/><line style="stroke:#181818;stroke-width:1;" x1="279.63" x2="271.63" y1="267.2969" y2="267.2969"/><line style="stroke:#181818;stroke-width:1;" x1="345.25" x2="351.25" y1="737.1069" y2="745.1069"/><line style="stroke:#181818;stroke-width:1;" x1="345.25" x2="339.25" y1="737.1069" y2="745.1069"/><line style="stroke:#181818;stroke-width:1;" x1="345.25" x2="345.25" y1="737.1069" y2="745.1069"/><ellipse cx="345.25" cy="731.1069" fill="none" rx="4" ry="4" style="stroke:#181818;stroke-width:1;"/><text fill="#000000" font-family="sans-serif" font-size="13" lengthAdjust="spacing" textLength="87.4453" x="257.25" y="465.4638">contextualiza</text></g><!--link CodigoQR to SesionCaptura--><g class="link" data-entity-1="ent0006" data-entity-2="ent0007" data-link-type="crowfoot" data-source-line="113" id="lnk18"><path codeLine="113" d="M262.75,685.4269 C262.75,707.1069 262.75,705.1169 262.75,727.2969" fill="none" id="CodigoQR-SesionCaptura" style="stroke:#181818;stroke-width:1;"/><line style="stroke:#181818;stroke-width:1;" x1="258.75" x2="266.75" y1="681.4269" y2="681.4269"/><line style="stroke:#181818;stroke-width:1;" x1="258.75" x2="266.75" y1="684.4269" y2="684.4269"/><line style="stroke:#181818;stroke-width:1;" x1="262.75" x2="262.75" y1="685.4269" y2="677.4269"/><line style="stroke:#181818;stroke-width:1;" x1="262.75" x2="268.75" y1="737.2969" y2="745.2969"/><line style="stroke:#181818;stroke-width:1;" x1="262.75" x2="256.75" y1="737.2969" y2="745.2969"/><line style="stroke:#181818;stroke-width:1;" x1="262.75" x2="262.75" y1="737.2969" y2="745.2969"/><ellipse cx="262.75" cy="731.2969" fill="none" rx="4" ry="4" style="stroke:#181818;stroke-width:1;"/><text fill="#000000" font-family="sans-serif" font-size="13" lengthAdjust="spacing" textLength="34.1885" x="227.75" y="707.4238">inicia</text></g><!--link SesionCaptura to EventoDetectado--><g class="link" data-entity-1="ent0007" data-entity-2="ent0008" data-link-type="crowfoot" data-source-line="115" id="lnk19"><path codeLine="115" d="M298.75,909.3369 C298.75,928.9369 298.75,923.8469 298.75,943.0369" fill="none" id="SesionCaptura-EventoDetectado" style="stroke:#181818;stroke-width:1;"/><line style="stroke:#181818;stroke-width:1;" x1="294.75" x2="302.75" y1="905.3369" y2="905.3369"/><line style="stroke:#181818;stroke-width:1;" x1="294.75" x2="302.75" y1="908.3369" y2="908.3369"/><line style="stroke:#181818;stroke-width:1;" x1="298.75" x2="298.75" y1="909.3369" y2="901.3369"/><line style="stroke:#181818;stroke-width:1;" x1="298.75" x2="304.75" y1="953.0369" y2="961.0369"/><line style="stroke:#181818;stroke-width:1;" x1="298.75" x2="292.75" y1="953.0369" y2="961.0369"/><line style="stroke:#181818;stroke-width:1;" x1="298.75" x2="298.75" y1="953.0369" y2="961.0369"/><ellipse cx="298.75" cy="947.0369" fill="none" rx="4" ry="4" style="stroke:#181818;stroke-width:1;"/><text fill="#000000" font-family="sans-serif" font-size="13" lengthAdjust="spacing" textLength="50.3877" x="247.75" y="927.2538">registra</text></g><!--link EventoDetectado to Clip--><g class="link" data-entity-1="ent0008" data-entity-2="ent0009" data-link-type="association" data-source-line="116" id="lnk20"><path codeLine="116" d="M287.75,1109.5869 C287.75,1128.6069 287.75,1126.4069 287.75,1146.2069" fill="none" id="EventoDetectado-Clip" style="stroke:#181818;stroke-width:1;"/><line style="stroke:#181818;stroke-width:1;" x1="283.75" x2="291.75" y1="1105.5869" y2="1105.5869"/><line style="stroke:#181818;stroke-width:1;" x1="283.75" x2="291.75" y1="1108.5869" y2="1108.5869"/><line style="stroke:#181818;stroke-width:1;" x1="287.75" x2="287.75" y1="1109.5869" y2="1101.5869"/><line style="stroke:#181818;stroke-width:1;" x1="287.75" x2="287.75" y1="1150.2069" y2="1161.2069"/><ellipse cx="287.75" cy="1150.2069" fill="none" rx="4" ry="4" style="stroke:#181818;stroke-width:1;"/><line style="stroke:#181818;stroke-width:1;" x1="291.75" x2="283.75" y1="1157.2069" y2="1157.2069"/><text fill="#000000" font-family="sans-serif" font-size="13" lengthAdjust="spacing" textLength="45.7983" x="241.75" y="1127.4638">genera</text></g><!--link Usuario to Clip--><g class="link" data-entity-1="ent0002" data-entity-2="ent0009" data-link-type="crowfoot" data-source-line="118" id="lnk21"><path codeLine="118" d="M461.75,693.4669 C461.75,870.2069 461.75,1277.2969 461.75,1277.2969 C461.75,1277.2969 450.48,1277.2969 415.95,1277.2969" fill="none" id="Usuario-Clip" style="stroke:#181818;stroke-width:1;"/><line style="stroke:#181818;stroke-width:1;" x1="457.75" x2="465.75" y1="689.4669" y2="689.4669"/><line style="stroke:#181818;stroke-width:1;" x1="457.75" x2="465.75" y1="692.4669" y2="692.4669"/><line style="stroke:#181818;stroke-width:1;" x1="461.75" x2="461.75" y1="693.4669" y2="685.4669"/><line style="stroke:#181818;stroke-width:1;" x1="405.95" x2="397.95" y1="1277.2969" y2="1283.2969"/><line style="stroke:#181818;stroke-width:1;" x1="405.95" x2="397.95" y1="1277.2969" y2="1271.2969"/><line style="stroke:#181818;stroke-width:1;" x1="405.95" x2="397.95" y1="1277.2969" y2="1277.2969"/><ellipse cx="411.95" cy="1277.2969" fill="none" rx="4" ry="4" style="stroke:#181818;stroke-width:1;"/><text fill="#000000" font-family="sans-serif" font-size="13" lengthAdjust="spacing" textLength="38.9746" x="422.75" y="1009.3538">posee</text></g><!--link Hoyo to Clip--><g class="link" data-entity-1="ent0004" data-entity-2="ent0009" data-link-type="crowfoot" data-source-line="119" id="lnk22"><path codeLine="119" d="M279.41,231.2969 C345.61,231.2969 416.25,231.2969 416.25,231.2969 C416.25,231.2969 416.25,1219.2969 416.25,1219.2969 C416.25,1219.2969 426.95,1219.2969 415.84,1219.2969" fill="none" id="Hoyo-Clip" style="stroke:#181818;stroke-width:1;"/><line style="stroke:#181818;stroke-width:1;" x1="275.41" x2="275.41" y1="235.2969" y2="227.2969"/><line style="stroke:#181818;stroke-width:1;" x1="278.41" x2="278.41" y1="235.2969" y2="227.2969"/><line style="stroke:#181818;stroke-width:1;" x1="279.41" x2="271.41" y1="231.2969" y2="231.2969"/><line style="stroke:#181818;stroke-width:1;" x1="405.84" x2="397.84" y1="1219.2969" y2="1225.2969"/><line style="stroke:#181818;stroke-width:1;" x1="405.84" x2="397.84" y1="1219.2969" y2="1213.2969"/><line style="stroke:#181818;stroke-width:1;" x1="405.84" x2="397.84" y1="1219.2969" y2="1219.2969"/><ellipse cx="411.84" cy="1219.2969" fill="none" rx="4" ry="4" style="stroke:#181818;stroke-width:1;"/><text fill="#000000" font-family="sans-serif" font-size="13" lengthAdjust="spacing" textLength="97.1953" x="318.25" y="658.1438">se_produce_en</text></g><!--link Clip to SegmentoClip--><g class="link" data-entity-1="ent0009" data-entity-2="ent0010" data-link-type="crowfoot" data-source-line="121" id="lnk23"><path codeLine="121" d="M214.75,1342.6069 C214.75,1362.3669 214.75,1357.1269 214.75,1376.0969" fill="none" id="Clip-SegmentoClip" style="stroke:#181818;stroke-width:1;"/><line style="stroke:#181818;stroke-width:1;" x1="210.75" x2="218.75" y1="1338.6069" y2="1338.6069"/><line style="stroke:#181818;stroke-width:1;" x1="210.75" x2="218.75" y1="1341.6069" y2="1341.6069"/><line style="stroke:#181818;stroke-width:1;" x1="214.75" x2="214.75" y1="1342.6069" y2="1334.6069"/><line style="stroke:#181818;stroke-width:1;" x1="214.75" x2="220.75" y1="1386.0969" y2="1394.0969"/><line style="stroke:#181818;stroke-width:1;" x1="214.75" x2="208.75" y1="1386.0969" y2="1394.0969"/><line style="stroke:#181818;stroke-width:1;" x1="214.75" x2="214.75" y1="1386.0969" y2="1394.0969"/><ellipse cx="214.75" cy="1380.0969" fill="none" rx="4" ry="4" style="stroke:#181818;stroke-width:1;"/><text fill="#000000" font-family="sans-serif" font-size="13" lengthAdjust="spacing" textLength="104.2285" x="109.75" y="1360.4238">se_compone_de</text></g><!--link Camara to SegmentoClip--><g class="link" data-entity-1="ent0005" data-entity-2="ent0010" data-link-type="crowfoot" data-source-line="122" id="lnk24"><path codeLine="122" d="M58,477.5969 C58,652.5669 58,1179.4469 58,1376.0569" fill="none" id="Camara-SegmentoClip" style="stroke:#181818;stroke-width:1;"/><line style="stroke:#181818;stroke-width:1;" x1="54" x2="62" y1="473.5969" y2="473.5969"/><line style="stroke:#181818;stroke-width:1;" x1="54" x2="62" y1="476.5969" y2="476.5969"/><line style="stroke:#181818;stroke-width:1;" x1="58" x2="58" y1="477.5969" y2="469.5969"/><line style="stroke:#181818;stroke-width:1;" x1="58" x2="64" y1="1386.0569" y2="1394.0569"/><line style="stroke:#181818;stroke-width:1;" x1="58" x2="52" y1="1386.0569" y2="1394.0569"/><line style="stroke:#181818;stroke-width:1;" x1="58" x2="58" y1="1386.0569" y2="1394.0569"/><ellipse cx="58" cy="1380.0569" fill="none" rx="4" ry="4" style="stroke:#181818;stroke-width:1;"/><text fill="#000000" font-family="sans-serif" font-size="13" lengthAdjust="spacing" textLength="50.0132" x="7" y="927.8938">captura</text></g><!--link Usuario to Estadistica--><g class="link" data-entity-1="ent0002" data-entity-2="ent0011" data-link-type="dependency" data-source-line="124" id="lnk25"><path codeLine="124" d="M495.25,685.6169 C495.25,851.4169 495.25,1229.5869 495.25,1388.0269" fill="none" id="Usuario-to-Estadistica" style="stroke:#181818;stroke-width:1;stroke-dasharray:7,7;"/><polygon fill="#181818" points="495.25,1394.0269,499.25,1385.0269,495.25,1389.0269,491.25,1385.0269,495.25,1394.0269" style="stroke:#181818;stroke-width:1;"/><text fill="#000000" font-family="sans-serif" font-size="13" lengthAdjust="spacing" textLength="55.0278" x="439.25" y="1035.8938">consulta</text></g><!--link Clip to Estadistica--><g class="link" data-entity-1="ent0009" data-entity-2="ent0011" data-link-type="dependency" data-source-line="125" id="lnk26"><path codeLine="125" d="M342.25,1334.6069 C342.25,1354.3669 342.25,1369.1269 342.25,1388.0969" fill="none" id="Clip-to-Estadistica" style="stroke:#181818;stroke-width:1;stroke-dasharray:7,7;"/><polygon fill="#181818" points="342.25,1394.0969,346.25,1385.0969,342.25,1389.0969,338.25,1385.0969,342.25,1394.0969" style="stroke:#181818;stroke-width:1;"/><text fill="#000000" font-family="sans-serif" font-size="13" lengthAdjust="spacing" textLength="45.6904" x="296.25" y="1360.4238">calcula</text></g><?plantuml-src hLN9Rjim4BthAuWS2pYz6u4lJe82kNH1pyAO75jiQL8bAJUB-rNzXFvOXwHaKOkT1kX58EUDPkRDHY-zGdOhOMTX3morbmB4mg82Bl_yraoWOauwZtie2lTTwXf8axaAXFafzOvjGJdC42Kr-gSQcR6-CaKb1J8kBLTO5C6yVs9NNrq3Lfeh1ewrP_PICFQEIL4shM0Pea5hsCtDnuVLYk35WZxQx3SMCosFZzuGG15AbTsvqTw2Gmrb1QxAa2to2agBE-9bWuaeU5yP2uG2z_8Gf1jZ588EVtXPcudBNpsXDUphH2UUUZ8yNYzIoG9hDf9JtesUy_71F2KNuT1xgCBjZ8Ev0EuJhfizsXuW2PMllmwvKM4xSdGSi0ltyzx7mRNEQ-DaQg-U-pJjUGn6o9tvz3b5qLxwE7xOjySm6_xz0oL6ATWeZ4gDLPE-uHQx6htIDnc1B-ZebpNKlcbpEP3qL5mKNw0pCnuze_DSXobgvOcGr5ICoHWaR2lVnlFkG2TpYnwvfmqHcOvaFLUCm0MkqsHqXBJpGB9I1AjprOWJUtBGLV00IehHRDEUs4hGpw4H17Av1pLeFINhr7Pqo5e_tFvxbQOPQJ6ml4fP_xTctCB1MEb7LDC_-5XBE_FNe5rt-n39YNmko9irII_jdr6UBazVn6Bf3hIR8QDhh42Thwis8taCavLvHpO46QAjIkO5Mda00QjLQiiCV7cjTCEru8q75QcvFAGaxb8_W4B9NVcjsT40381KaXrgj72kZtDgwNqv7XSByv9UWcLywIHPA8eeQC5rbz-43Q1kWow9S4ZMbf8GROS_ZcQiL3Sei0tI5aNtPBVMXfjicHO431oELKB4nAYXSNo6ukJfZ7PSK1JVKDugZxVBahKFEnHZAFvnJ8EyP8dEX4sBqXE5ewGbm65PMoCQZYLgobcGdkBEXYHgSaFLqc5DdP8xgyeJfpwOw-lLe45ZoboZF2IFCpWetYZu2m00?></g></svg>