<?plantuml 1.2026.2?><svg xmlns="http://www.w3.org/2000/svg" xmlns:xlink="http://www.w3.org/1999/xlink" contentStyleType="text/css" data-diagram-type="STATE" height="524px" preserveAspectRatio="none" style="width:556px;height:524px;background:#FFFFFF;" version="1.1" viewBox="0 0 556 524" width="556px" zoomAndPan="magnify"><defs/><g><g class="start_entity" data-qualified-name=".start." data-source-line="1" id="ent0002"><ellipse cx="320.51" cy="16" fill="#222222" rx="10" ry="10" style="stroke:#222222;stroke-width:1;"/></g><g class="entity" data-qualified-name="EnProcesamiento" id="ent0003"><rect fill="#F1F1F1" height="50" rx="12.5" ry="12.5" style="stroke:#181818;stroke-width:0.5;" width="141.7344" x="249.51" y="87"/><line style="stroke:#181818;stroke-width:0.5;" x1="249.51" x2="391.2444" y1="113.2969" y2="113.2969"/><text fill="#000000" font-family="sans-serif" font-size="14" lengthAdjust="spacing" textLength="121.7344" x="259.51" y="104.9951">EnProcesamiento</text></g><g class="entity" data-qualified-name="Disponible" id="ent0005"><rect fill="#F1F1F1" height="50" rx="12.5" ry="12.5" style="stroke:#181818;stroke-width:0.5;" width="93.5684" x="163.51" y="214"/><line style="stroke:#181818;stroke-width:0.5;" x1="163.51" x2="257.0784" y1="240.2969" y2="240.2969"/><text fill="#000000" font-family="sans-serif" font-size="14" lengthAdjust="spacing" textLength="73.5684" x="173.51" y="231.9951">Disponible</text></g><g class="entity" data-qualified-name="Fallido" id="ent0007"><rect fill="#F1F1F1" height="50" rx="12.5" ry="12.5" style="stroke:#181818;stroke-width:0.5;" width="65.7529" x="397.51" y="214"/><line style="stroke:#181818;stroke-width:0.5;" x1="397.51" x2="463.2629" y1="240.2969" y2="240.2969"/><text fill="#000000" font-family="sans-serif" font-size="14" lengthAdjust="spacing" textLength="45.7529" x="407.51" y="231.9951">Fallido</text></g><g class="entity" data-qualified-name="Favorito" id="ent0009"><rect fill="#F1F1F1" height="50" rx="12.5" ry="12.5" style="stroke:#181818;stroke-width:0.5;" width="77.1826" x="81.01" y="341"/><line style="stroke:#181818;stroke-width:0.5;" x1="81.01" x2="158.1926" y1="367.2969" y2="367.2969"/><text fill="#000000" font-family="sans-serif" font-size="14" lengthAdjust="spacing" textLength="57.1826" x="91.01" y="358.9951">Favorito</text></g><g class="entity" data-qualified-name="Expirado" id="ent0012"><rect fill="#F1F1F1" height="50" rx="12.5" ry="12.5" style="stroke:#181818;stroke-width:0.5;" width="81.6943" x="334.51" y="341"/><line style="stroke:#181818;stroke-width:0.5;" x1="334.51" x2="416.2043" y1="367.2969" y2="367.2969"/><text fill="#000000" font-family="sans-serif" font-size="14" lengthAdjust="spacing" textLength="61.6943" x="344.51" y="358.9951">Expirado</text></g><g class="entity" data-qualified-name="Eliminado" id="ent0014"><rect fill="#F1F1F1" height="50" rx="12.5" ry="12.5" style="stroke:#181818;stroke-width:0.5;" width="89.0566" x="331.01" y="468"/><line style="stroke:#181818;stroke-width:0.5;" x1="331.01" x2="420.0666" y1="494.2969" y2="494.2969"/><text fill="#000000" font-family="sans-serif" font-size="14" lengthAdjust="spacing" textLength="69.0566" x="341.01" y="485.9951">Eliminado</text></g><!--link *start* to EnProcesamiento--><g class="link" data-entity-1="ent0002" data-entity-2="ent0003" data-link-type="dependency" data-source-line="1" id="lnk4"><path d="M320.51,26.01 C320.51,39.89 320.51,60.97 320.51,80.84" fill="none" id="*start*-to-EnProcesamiento" style="stroke:#181818;stroke-width:1;"/><polygon fill="#181818" points="320.51,86.84,324.51,77.84,320.51,81.84,316.51,77.84,320.51,86.84" style="stroke:#181818;stroke-width:1;"/></g><!--link EnProcesamiento to Disponible--><g class="link" data-entity-1="ent0003" data-entity-2="ent0005" data-link-type="dependency" data-source-line="3" id="lnk6"><path d="M249.51,132.31 C232.95,140.29 217.31,151.46 207.51,167 C198.83,180.78 198.6686,193.3477 201.7386,207.9877" fill="none" id="EnProcesamiento-to-Disponible" style="stroke:#181818;stroke-width:1;"/><polygon fill="#181818" points="202.97,213.86,205.0377,204.2306,201.9438,208.9664,197.208,205.8725,202.97,213.86" style="stroke:#181818;stroke-width:1;"/><text fill="#000000" font-family="sans-serif" font-size="13" lengthAdjust="spacing" textLength="178.0264" x="208.51" y="180.0669">procesamiento completado</text></g><!--link EnProcesamiento to Fallido--><g class="link" data-entity-1="ent0003" data-entity-2="ent0007" data-link-type="dependency" data-source-line="4" id="lnk8"><path d="M358.41,137.26 C369.91,145.76 382.01,155.97 391.51,167 C403.54,180.95 410.9147,193.7913 417.7447,208.3013" fill="none" id="EnProcesamiento-to-Fallido" style="stroke:#181818;stroke-width:1;"/><polygon fill="#181818" points="420.3,213.73,420.0861,203.8835,418.1706,209.2061,412.8479,207.2906,420.3,213.73" style="stroke:#181818;stroke-width:1;"/><text fill="#000000" font-family="sans-serif" font-size="13" lengthAdjust="spacing" textLength="129.251" x="404.51" y="180.0669">error de generaci&#243;n</text></g><!--link Disponible to Favorito--><g class="link" data-entity-1="ent0005" data-entity-2="ent0009" data-link-type="dependency" data-source-line="6" id="lnk10"><path d="M163.28,247.25 C114.14,255.87 42.07,271.92 25.51,294 C6,320.02 41.3479,339.0588 75.2079,351.3088" fill="none" id="Disponible-to-Favorito" style="stroke:#181818;stroke-width:1;"/><polygon fill="#181818" points="80.85,353.35,73.7477,346.5268,76.1482,351.649,71.026,354.0496,80.85,353.35" style="stroke:#181818;stroke-width:1;"/><text fill="#000000" font-family="sans-serif" font-size="13" lengthAdjust="spacing" textLength="140.6133" x="26.51" y="307.0669">marcar como favorito</text></g><!--link Favorito to Disponible--><g class="link" data-entity-1="ent0009" data-entity-2="ent0005" data-link-type="dependency" data-source-line="7" id="lnk11"><path d="M145.31,340.96 C154.18,332.02 163.8,321.48 171.51,311 C182.26,296.39 189.3922,283.8343 196.4922,269.6643" fill="none" id="Favorito-to-Disponible" style="stroke:#181818;stroke-width:1;"/><polygon fill="#181818" points="199.18,264.3,191.5721,270.5546,196.9401,268.7702,198.7245,274.1383,199.18,264.3" style="stroke:#181818;stroke-width:1;"/><text fill="#000000" font-family="sans-serif" font-size="13" lengthAdjust="spacing" textLength="123.7856" x="184.51" y="307.0669">desmarcar favorito</text></g><!--link Disponible to Expirado--><g class="link" data-entity-1="ent0005" data-entity-2="ent0012" data-link-type="dependency" data-source-line="9" id="lnk13"><path d="M257.57,258.94 C276.9,267.96 298.85,279.88 316.51,294 C333.16,307.31 344.9046,321.1022 355.7346,335.9522" fill="none" id="Disponible-to-Expirado" style="stroke:#181818;stroke-width:1;"/><polygon fill="#181818" points="359.27,340.8,357.1987,331.1714,356.3238,336.7602,350.735,335.8853,359.27,340.8" style="stroke:#181818;stroke-width:1;"/><text fill="#000000" font-family="sans-serif" font-size="13" lengthAdjust="spacing" textLength="213.7319" x="334.51" y="307.0669">tiempo de conservaci&#243;n agotado</text></g><!--link Expirado to Eliminado--><g class="link" data-entity-1="ent0012" data-entity-2="ent0014" data-link-type="dependency" data-source-line="10" id="lnk15"><path d="M375.51,391.1 C375.51,413.24 375.51,439.86 375.51,461.97" fill="none" id="Expirado-to-Eliminado" style="stroke:#181818;stroke-width:1;"/><polygon fill="#181818" points="375.51,467.97,379.51,458.97,375.51,462.97,371.51,458.97,375.51,467.97" style="stroke:#181818;stroke-width:1;"/><text fill="#000000" font-family="sans-serif" font-size="13" lengthAdjust="spacing" textLength="132.3804" x="376.51" y="434.0669">limpieza autom&#225;tica</text></g><?plantuml-src ROyn3i8m34NtdC8pKY_0m4IPsH63IKnbAOaZDo34RJW3H-Z5Q9jIGM6pxFU-lW-h8rJL1kguLx7KOc2AMOnPB4PeossIo2TFi8RqTROIagUCJlwQE_IUdVGQgOg28sWeagBbxXcD-KWk-5MKyy07L8iwv0kSfxMPxp-j7BMJCSFByFgMM74iavb2ag6DbTYINaiVm4RAAszqz3m7ZaNinyHqHy1Bbj0zCbjy0G00?></g></svg>