<?plantuml 1.2026.2?><svg xmlns="http://www.w3.org/2000/svg" xmlns:xlink="http://www.w3.org/1999/xlink" contentStyleType="text/css" data-diagram-type="DESCRIPTION" height="222px" preserveAspectRatio="none" style="width:201px;height:222px;background:#FFFFFF;" version="1.1" viewBox="0 0 201 222" width="201px" zoomAndPan="magnify"><defs/><g><!--entity Usuario--><g class="entity" data-qualified-name="Usuario" data-source-line="1" id="ent0002"><ellipse cx="89.1021" cy="14" fill="#F1F1F1" rx="8" ry="8" style="stroke:#181818;stroke-width:0.5;"/><path d="M89.1021,22 L89.1021,49 M76.1021,30 L102.1021,30 M89.1021,49 L76.1021,64 M89.1021,49 L102.1021,64" fill="none" style="stroke:#181818;stroke-width:0.5;"/><text fill="#000000" font-family="sans-serif" font-size="14" lengthAdjust="spacing" textLength="53.2041" x="62.5" y="78.4951">Usuario</text></g><!--entity Jugador--><g class="entity" data-qualified-name="Jugador" data-source-line="2" id="ent0003"><ellipse cx="32.8379" cy="150" fill="#F1F1F1" rx="8" ry="8" style="stroke:#181818;stroke-width:0.5;"/><path d="M32.8379,158 L32.8379,185 M19.8379,166 L45.8379,166 M32.8379,185 L19.8379,200 M32.8379,185 L45.8379,200" fill="none" style="stroke:#181818;stroke-width:0.5;"/><text fill="#000000" font-family="sans-serif" font-size="14" lengthAdjust="spacing" textLength="53.6758" x="6" y="214.4951">Jugador</text></g><!--entity Administrador--><g class="entity" data-qualified-name="Administrador" data-source-line="3" id="ent0004"><ellipse cx="145.04" cy="150" fill="#F1F1F1" rx="8" ry="8" style="stroke:#181818;stroke-width:0.5;"/><path d="M145.04,158 L145.04,185 M132.04,166 L158.04,166 M145.04,185 L132.04,200 M145.04,185 L158.04,200" fill="none" style="stroke:#181818;stroke-width:0.5;"/><text fill="#000000" font-family="sans-serif" font-size="14" lengthAdjust="spacing" textLength="99.0801" x="95.5" y="214.4951">Administrador</text></g><!--reverse link Usuario to Jugador--><g class="link" data-entity-1="ent0002" data-entity-2="ent0003" data-link-type="extension" data-source-line="5" id="lnk5"><path d="M66.4554,98.4364 C58.6854,117.0164 56.27,122.82 48.52,141.37" fill="none" id="Usuario-backto-Jugador" style="stroke:#181818;stroke-width:1;"/><polygon fill="none" points="73.4,81.83,60.9199,96.1215,71.9908,100.7513,73.4,81.83" style="stroke:#181818;stroke-width:1;"/></g><!--reverse link Usuario to Administrador--><g class="link" data-entity-1="ent0002" data-entity-2="ent0004" data-link-type="extension" data-source-line="6" id="lnk6"><path d="M111.5446,98.4364 C119.3146,117.0164 121.73,122.82 129.48,141.37" fill="none" id="Usuario-backto-Administrador" style="stroke:#181818;stroke-width:1;"/><polygon fill="none" points="104.6,81.83,106.0092,100.7513,117.0801,96.1215,104.6,81.83" style="stroke:#181818;stroke-width:1;"/></g><?plantuml-src IqmkoIzI22qkJIpApETA1FEyIjCJK_ABe3p7bDpClCpYaYAm61TKgO9DZQukN2MA88e60000?></g></svg>