<?plantuml 1.2026.2?><svg xmlns="http://www.w3.org/2000/svg" xmlns:xlink="http://www.w3.org/1999/xlink" contentStyleType="text/css" data-diagram-type="DESCRIPTION" height="1458px" preserveAspectRatio="none" style="width:647px;height:1458px;background:#FFFFFF;" version="1.1" viewBox="0 0 647 1458" width="647px" zoomAndPan="magnify"><title>Diagrama de paquetes del sistema</title><defs/><g><g class="title" data-source-line="1"><text fill="#000000" font-family="sans-serif" font-size="14" font-weight="bold" lengthAdjust="spacing" textLength="274.7637" x="179.5332" y="22.9951">Diagrama de paquetes del sistema</text></g><!--entity Presentacion--><g class="entity" data-qualified-name="Presentacion" data-source-line="11" id="ent0002"><path d="M416,43.2969 L524.9004,43.2969 A3.75,3.75 0 0 1 527.4004,45.7969 L534.4004,64.4297 L630.3442,64.4297 A2.5,2.5 0 0 1 632.8442,66.9297 L632.8442,260.5234 A2.5,2.5 0 0 1 630.3442,263.0234 L416,263.0234 A2.5,2.5 0 0 1 413.5,260.5234 L413.5,45.7969 A2.5,2.5 0 0 1 416,43.2969" fill="#F1F1F1" style="stroke:#181818;stroke-width:0.5;"/><line style="stroke:#181818;stroke-width:0.5;" x1="413.5" x2="534.4004" y1="64.4297" y2="64.4297"/><text fill="#000000" font-family="sans-serif" font-size="13" font-weight="bold" lengthAdjust="spacing" textLength="95.9004" x="423.5" y="58.3638">Presentacion</text><text fill="#000000" font-family="sans-serif" font-size="13" lengthAdjust="spacing" textLength="84.208" x="476.0681" y="83.4966">Presentacion</text><text fill="#000000" font-family="sans-serif" font-size="13" lengthAdjust="spacing" textLength="76.4639" x="479.9402" y="98.6294">- VistaLogin</text><text fill="#000000" font-family="sans-serif" font-size="13" lengthAdjust="spacing" textLength="91.0063" x="472.6689" y="113.7622">- VistaJugador</text><text fill="#000000" font-family="sans-serif" font-size="13" lengthAdjust="spacing" textLength="133.1675" x="451.5884" y="128.895">- VistaAdministrador</text><text fill="#000000" font-family="sans-serif" font-size="13" lengthAdjust="spacing" textLength="114.7212" x="460.8115" y="144.0278">- VistaEscaneoQR</text><text fill="#000000" font-family="sans-serif" font-size="13" lengthAdjust="spacing" textLength="119.3867" x="458.4788" y="159.1606">- VistaListadoClips</text><text fill="#000000" font-family="sans-serif" font-size="13" lengthAdjust="spacing" textLength="112.0107" x="462.1667" y="174.2935">- VistaDetalleClip</text><text fill="#000000" font-family="sans-serif" font-size="13" lengthAdjust="spacing" textLength="188.9443" x="423.7" y="189.4263">- VistaEstadisticasPersonales</text><text fill="#000000" font-family="sans-serif" font-size="13" lengthAdjust="spacing" textLength="122.2368" x="457.0537" y="204.5591">- VistaGestionClips</text><text fill="#000000" font-family="sans-serif" font-size="13" lengthAdjust="spacing" textLength="189.3442" x="423.5" y="219.6919">- VistaUsuariosAdministrador</text><text fill="#000000" font-family="sans-serif" font-size="13" lengthAdjust="spacing" textLength="147.0879" x="444.6282" y="234.8247">- VistaGestionUsuarios</text><text fill="#000000" font-family="sans-serif" font-size="13" lengthAdjust="spacing" textLength="174.6875" x="430.8284" y="249.9575">- VistaEstadisticasGlobales</text></g><!--entity Autenticacion--><g class="entity" data-qualified-name="Autenticacion" data-source-line="13" id="ent0003"><path d="M379,323.2969 L493.0991,323.2969 A3.75,3.75 0 0 1 495.5991,325.7969 L502.5991,344.4297 L524.9165,344.4297 A2.5,2.5 0 0 1 527.4165,346.9297 L527.4165,404.3281 A2.5,2.5 0 0 1 524.9165,406.8281 L379,406.8281 A2.5,2.5 0 0 1 376.5,404.3281 L376.5,325.7969 A2.5,2.5 0 0 1 379,323.2969" fill="#F1F1F1" style="stroke:#181818;stroke-width:0.5;"/><line style="stroke:#181818;stroke-width:0.5;" x1="376.5" x2="502.5991" y1="344.4297" y2="344.4297"/><text fill="#000000" font-family="sans-serif" font-size="13" font-weight="bold" lengthAdjust="spacing" textLength="101.0991" x="386.5" y="338.3638">Autenticacion</text><text fill="#000000" font-family="sans-serif" font-size="13" lengthAdjust="spacing" textLength="89.2417" x="402.3374" y="363.4966">Autenticacion</text><text fill="#000000" font-family="sans-serif" font-size="13" lengthAdjust="spacing" textLength="58.2271" x="417.8447" y="378.6294">- Usuario</text><text fill="#000000" font-family="sans-serif" font-size="13" lengthAdjust="spacing" textLength="120.9165" x="386.5" y="393.7622">- ControladorLogin</text></g><!--entity Captura--><g class="entity" data-qualified-name="Captura" data-source-line="15" id="ent0004"><path d="M41,467.2969 L112.2715,467.2969 A3.75,3.75 0 0 1 114.7715,469.7969 L121.7715,488.4297 L230.5313,488.4297 A2.5,2.5 0 0 1 233.0313,490.9297 L233.0313,593.7266 A2.5,2.5 0 0 1 230.5313,596.2266 L41,596.2266 A2.5,2.5 0 0 1 38.5,593.7266 L38.5,469.7969 A2.5,2.5 0 0 1 41,467.2969" fill="#F1F1F1" style="stroke:#181818;stroke-width:0.5;"/><line style="stroke:#181818;stroke-width:0.5;" x1="38.5" x2="121.7715" y1="488.4297" y2="488.4297"/><text fill="#000000" font-family="sans-serif" font-size="13" font-weight="bold" lengthAdjust="spacing" textLength="58.2715" x="48.5" y="482.3638">Captura</text><text fill="#000000" font-family="sans-serif" font-size="13" lengthAdjust="spacing" textLength="51.9429" x="104.7942" y="507.4966">Captura</text><text fill="#000000" font-family="sans-serif" font-size="13" lengthAdjust="spacing" textLength="54.7358" x="103.3977" y="522.6294">- Campo</text><text fill="#000000" font-family="sans-serif" font-size="13" lengthAdjust="spacing" textLength="42.1992" x="109.666" y="537.7622">- Hoyo</text><text fill="#000000" font-family="sans-serif" font-size="13" lengthAdjust="spacing" textLength="59.8076" x="100.8618" y="552.895">- Camara</text><text fill="#000000" font-family="sans-serif" font-size="13" lengthAdjust="spacing" textLength="103.5938" x="78.9688" y="568.0278">- SesionCaptura</text><text fill="#000000" font-family="sans-serif" font-size="13" lengthAdjust="spacing" textLength="164.5313" x="48.5" y="583.1606">- ControladorEscanearQR</text></g><!--entity Procesamiento--><g class="entity" data-qualified-name="Procesamiento" data-source-line="17" id="ent0005"><path d="M26.5,656.2969 L148.6226,656.2969 A3.75,3.75 0 0 1 151.1226,658.7969 L158.1226,677.4297 L245.2305,677.4297 A2.5,2.5 0 0 1 247.7305,679.9297 L247.7305,767.5938 A2.5,2.5 0 0 1 245.2305,770.0938 L26.5,770.0938 A2.5,2.5 0 0 1 24,767.5938 L24,658.7969 A2.5,2.5 0 0 1 26.5,656.2969" fill="#F1F1F1" style="stroke:#181818;stroke-width:0.5;"/><line style="stroke:#181818;stroke-width:0.5;" x1="24" x2="158.1226" y1="677.4297" y2="677.4297"/><text fill="#000000" font-family="sans-serif" font-size="13" font-weight="bold" lengthAdjust="spacing" textLength="109.1226" x="34" y="671.3638">Procesamiento</text><text fill="#000000" font-family="sans-serif" font-size="13" lengthAdjust="spacing" textLength="96.5859" x="82.5723" y="696.4966">Procesamiento</text><text fill="#000000" font-family="sans-serif" font-size="13" lengthAdjust="spacing" textLength="121.5386" x="70.0959" y="711.6294">- EventoDetectado</text><text fill="#000000" font-family="sans-serif" font-size="13" lengthAdjust="spacing" textLength="164.6265" x="48.552" y="726.7622">- ServicioDeteccionSwing</text><text fill="#000000" font-family="sans-serif" font-size="13" lengthAdjust="spacing" textLength="193.7305" x="34" y="741.895">- ServicioProcesamientoVideo</text><text fill="#000000" font-family="sans-serif" font-size="13" lengthAdjust="spacing" textLength="168.2256" x="46.7524" y="757.0278">- ServicioComposicionClip</text></g><!--entity Clips--><g class="entity" data-qualified-name="Clips" data-source-line="19" id="ent0006"><path d="M168,830.2969 L216.4961,830.2969 A3.75,3.75 0 0 1 218.9961,832.7969 L225.9961,851.4297 L472.4683,851.4297 A2.5,2.5 0 0 1 474.9683,853.9297 L474.9683,941.5938 A2.5,2.5 0 0 1 472.4683,944.0938 L168,944.0938 A2.5,2.5 0 0 1 165.5,941.5938 L165.5,832.7969 A2.5,2.5 0 0 1 168,830.2969" fill="#F1F1F1" style="stroke:#181818;stroke-width:0.5;"/><line style="stroke:#181818;stroke-width:0.5;" x1="165.5" x2="225.9961" y1="851.4297" y2="851.4297"/><text fill="#000000" font-family="sans-serif" font-size="13" font-weight="bold" lengthAdjust="spacing" textLength="35.4961" x="175.5" y="845.3638">Clips</text><text fill="#000000" font-family="sans-serif" font-size="13" lengthAdjust="spacing" textLength="31.3257" x="299.5713" y="870.4966">Clips</text><text fill="#000000" font-family="sans-serif" font-size="13" lengthAdjust="spacing" textLength="33.376" x="298.5461" y="885.6294">- Clip</text><text fill="#000000" font-family="sans-serif" font-size="13" lengthAdjust="spacing" textLength="249.8438" x="190.3123" y="900.7622">- ControladorConsultarClipsGenerados</text><text fill="#000000" font-family="sans-serif" font-size="13" lengthAdjust="spacing" textLength="279.4683" x="175.5" y="915.895">- ControladorMarcarDesmarcarClipFavorito</text><text fill="#000000" font-family="sans-serif" font-size="13" lengthAdjust="spacing" textLength="209.9424" x="210.2629" y="931.0278">- ServicioEliminacionAutomatica</text></g><!--entity Administracion--><g class="entity" data-qualified-name="Administracion" data-source-line="21" id="ent0007"><path d="M331,1004.2969 L454.5635,1004.2969 A3.75,3.75 0 0 1 457.0635,1006.7969 L464.0635,1025.4297 L613.2134,1025.4297 A2.5,2.5 0 0 1 615.7134,1027.9297 L615.7134,1100.4609 A2.5,2.5 0 0 1 613.2134,1102.9609 L331,1102.9609 A2.5,2.5 0 0 1 328.5,1100.4609 L328.5,1006.7969 A2.5,2.5 0 0 1 331,1004.2969" fill="#F1F1F1" style="stroke:#181818;stroke-width:0.5;"/><line style="stroke:#181818;stroke-width:0.5;" x1="328.5" x2="464.0635" y1="1025.4297" y2="1025.4297"/><text fill="#000000" font-family="sans-serif" font-size="13" font-weight="bold" lengthAdjust="spacing" textLength="110.5635" x="338.5" y="1019.3638">Administracion</text><text fill="#000000" font-family="sans-serif" font-size="13" lengthAdjust="spacing" textLength="97.4048" x="418.4043" y="1044.4966">Administracion</text><text fill="#000000" font-family="sans-serif" font-size="13" lengthAdjust="spacing" textLength="257.0547" x="338.5793" y="1059.6294">- ControladorGestionarClipsRegistrados</text><text fill="#000000" font-family="sans-serif" font-size="13" lengthAdjust="spacing" textLength="256.458" x="338.8777" y="1074.7622">- ControladorConsultarUsuariosSistema</text><text fill="#000000" font-family="sans-serif" font-size="13" lengthAdjust="spacing" textLength="257.2134" x="338.5" y="1089.895">- ControladorGestionarUsuariosSistema</text></g><!--entity Estadisticas--><g class="entity" data-qualified-name="Estadisticas" data-source-line="23" id="ent0008"><path d="M311.5,1163.2969 L412.4912,1163.2969 A3.75,3.75 0 0 1 414.9912,1165.7969 L421.9912,1184.4297 L632.1992,1184.4297 A2.5,2.5 0 0 1 634.6992,1186.9297 L634.6992,1259.4609 A2.5,2.5 0 0 1 632.1992,1261.9609 L311.5,1261.9609 A2.5,2.5 0 0 1 309,1259.4609 L309,1165.7969 A2.5,2.5 0 0 1 311.5,1163.2969" fill="#F1F1F1" style="stroke:#181818;stroke-width:0.5;"/><line style="stroke:#181818;stroke-width:0.5;" x1="309" x2="421.9912" y1="1184.4297" y2="1184.4297"/><text fill="#000000" font-family="sans-serif" font-size="13" font-weight="bold" lengthAdjust="spacing" textLength="87.9912" x="319" y="1178.3638">Estadisticas</text><text fill="#000000" font-family="sans-serif" font-size="13" lengthAdjust="spacing" textLength="77.2827" x="428.2083" y="1203.4966">Estadisticas</text><text fill="#000000" font-family="sans-serif" font-size="13" lengthAdjust="spacing" textLength="185.3262" x="374.1865" y="1218.6294">- ServicioCalculoEstadisticas</text><text fill="#000000" font-family="sans-serif" font-size="13" lengthAdjust="spacing" textLength="295.6992" x="319" y="1233.7622">- ControladorConsultarEstadisticasPersonales</text><text fill="#000000" font-family="sans-serif" font-size="13" lengthAdjust="spacing" textLength="281.4424" x="326.1284" y="1248.895">- ControladorConsultarEstadisticasGlobales</text></g><!--entity Persistencia--><g class="entity" data-qualified-name="Persistencia" data-source-line="25" id="ent0009"><path d="M94.5,1322.2969 L197.4082,1322.2969 A3.75,3.75 0 0 1 199.9082,1324.7969 L206.9082,1343.4297 L275.0811,1343.4297 A2.5,2.5 0 0 1 277.5811,1345.9297 L277.5811,1448.7266 A2.5,2.5 0 0 1 275.0811,1451.2266 L94.5,1451.2266 A2.5,2.5 0 0 1 92,1448.7266 L92,1324.7969 A2.5,2.5 0 0 1 94.5,1322.2969" fill="#F1F1F1" style="stroke:#181818;stroke-width:0.5;"/><line style="stroke:#181818;stroke-width:0.5;" x1="92" x2="206.9082" y1="1343.4297" y2="1343.4297"/><text fill="#000000" font-family="sans-serif" font-size="13" font-weight="bold" lengthAdjust="spacing" textLength="89.9082" x="102" y="1337.3638">Persistencia</text><text fill="#000000" font-family="sans-serif" font-size="13" lengthAdjust="spacing" textLength="78.3999" x="140.5906" y="1362.4966">Persistencia</text><text fill="#000000" font-family="sans-serif" font-size="13" lengthAdjust="spacing" textLength="138.582" x="110.4995" y="1377.6294">- RepositorioUsuarios</text><text fill="#000000" font-family="sans-serif" font-size="13" lengthAdjust="spacing" textLength="113.731" x="122.925" y="1392.7622">- RepositorioClips</text><text fill="#000000" font-family="sans-serif" font-size="13" lengthAdjust="spacing" textLength="140.0039" x="109.7886" y="1407.895">- RepositorioSesiones</text><text fill="#000000" font-family="sans-serif" font-size="13" lengthAdjust="spacing" textLength="140.1626" x="109.7092" y="1423.0278">- RepositorioCamaras</text><text fill="#000000" font-family="sans-serif" font-size="13" lengthAdjust="spacing" textLength="155.5811" x="102" y="1438.1606">- AlmacenamientoVideo</text></g><!--link Presentacion to Autenticacion--><!--link Presentacion to Autenticacion--><g class="link" data-entity-1="ent0002" data-entity-2="ent0003" data-link-type="dependency" data-source-line="37" id="lnk17"><path d="M489.5,263.3369 C489.5,284.5069 489.5,300.8267 489.5,318.1767" fill="none" id="Presentacion-to-Autenticacion-1" style="stroke:#181818;stroke-width:1;"/><polygon fill="#181818" points="489.5,324.1767,493.5,315.1767,489.5,319.1767,485.5,315.1767,489.5,324.1767" style="stroke:#181818;stroke-width:1;"/></g><!--link Autenticacion to Captura--><!--link Captura to Procesamiento--><!--link Captura to Procesamiento--><g class="link" data-entity-1="ent0004" data-entity-2="ent0005" data-link-type="dependency" data-source-line="44" id="lnk22"><path d="M168.5,596.2969 C168.5,615.8569 168.5,652.3397 168.5,671.3797" fill="none" id="Captura-to-Procesamiento-1" style="stroke:#181818;stroke-width:1;"/><polygon fill="#181818" points="168.5,677.3797,172.5,668.3797,168.5,672.3797,164.5,668.3797,168.5,677.3797" style="stroke:#181818;stroke-width:1;"/></g><!--link Procesamiento to Clips--><!--link Procesamiento to Clips--><g class="link" data-entity-1="ent0005" data-entity-2="ent0006" data-link-type="dependency" data-source-line="45" id="lnk23"><path d="M220.5,770.7569 C220.5,789.8569 220.5,817.9534 220.5,837.0334" fill="none" id="Procesamiento-to-Clips-1" style="stroke:#181818;stroke-width:1;"/><polygon fill="#181818" points="220.5,843.0334,224.5,834.0334,220.5,838.0334,216.5,834.0334,220.5,843.0334" style="stroke:#181818;stroke-width:1;"/></g><!--link Clips to Administracion--><!--link Administracion to Clips--><g class="link" data-entity-1="ent0007" data-entity-2="ent0006" data-link-type="dependency" data-source-line="50" id="lnk26"><path d="M425.83,1004.2969 C425.83,985.5069 425.83,969.9569 425.83,950.5169" fill="none" id="Administracion-to-Clips" style="stroke:#181818;stroke-width:1;"/><polygon fill="#181818" points="425.83,944.5169,421.83,953.5169,425.83,949.5169,429.83,953.5169,425.83,944.5169" style="stroke:#181818;stroke-width:1;"/></g><!--link Administracion to Estadisticas--><!--link Administracion to Estadisticas--><g class="link" data-entity-1="ent0007" data-entity-2="ent0008" data-link-type="dependency" data-source-line="51" id="lnk27"><path d="M519.83,1103.6669 C519.83,1122.6169 519.83,1159.3097 519.83,1178.2297" fill="none" id="Administracion-to-Estadisticas-1" style="stroke:#181818;stroke-width:1;"/><polygon fill="#181818" points="519.83,1184.2297,523.83,1175.2297,519.83,1179.2297,515.83,1175.2297,519.83,1184.2297" style="stroke:#181818;stroke-width:1;"/></g><!--link Estadisticas to Persistencia--><!--link Estadisticas to Persistencia--><g class="link" data-entity-1="ent0008" data-entity-2="ent0009" data-link-type="dependency" data-source-line="61" id="lnk35"><path d="M308.86,1229.2969 C280.16,1229.2969 259.25,1229.2969 259.25,1229.2969 C259.25,1229.2969 259.25,1293.9197 259.25,1337.4097" fill="none" id="Estadisticas-to-Persistencia-1" style="stroke:#181818;stroke-width:1;"/><polygon fill="#181818" points="259.25,1343.4097,263.25,1334.4097,259.25,1338.4097,255.25,1334.4097,259.25,1343.4097" style="stroke:#181818;stroke-width:1;"/></g><!--link Presentacion to Captura--><g class="link" data-entity-1="ent0002" data-entity-2="ent0004" data-link-type="dependency" data-source-line="38" id="lnk18"><path d="M413.39,153.2969 C298.97,153.2969 136,153.2969 136,153.2969 C136,153.2969 136,374.1897 136,482.2897" fill="none" id="Presentacion-to-Captura" style="stroke:#181818;stroke-width:1;"/><polygon fill="#181818" points="136,488.2897,140,479.2897,136,483.2897,132,479.2897,136,488.2897" style="stroke:#181818;stroke-width:1;"/></g><!--link Presentacion to Clips--><g class="link" data-entity-1="ent0002" data-entity-2="ent0006" data-link-type="dependency" data-source-line="39" id="lnk19"><path d="M556.83,263.5769 C556.83,468.4869 556.83,887.2969 556.83,887.2969 C556.83,887.2969 525.6,887.2969 480.67,887.2969" fill="none" id="Presentacion-to-Clips" style="stroke:#181818;stroke-width:1;"/><polygon fill="#181818" points="474.67,887.2969,483.67,891.2969,479.67,887.2969,483.67,883.2969,474.67,887.2969" style="stroke:#181818;stroke-width:1;"/></g><!--link Presentacion to Administracion--><g class="link" data-entity-1="ent0002" data-entity-2="ent0007" data-link-type="dependency" data-source-line="40" id="lnk20"><path d="M586.17,263.7169 C586.17,460.3769 586.17,878.9797 586.17,1019.4197" fill="none" id="Presentacion-to-Administracion" style="stroke:#181818;stroke-width:1;"/><polygon fill="#181818" points="586.17,1025.4197,590.17,1016.4197,586.17,1020.4197,582.17,1016.4197,586.17,1025.4197" style="stroke:#181818;stroke-width:1;"/></g><!--link Presentacion to Estadisticas--><g class="link" data-entity-1="ent0002" data-entity-2="ent0008" data-link-type="dependency" data-source-line="41" id="lnk21"><path d="M626.83,263.6869 C626.83,490.6569 626.83,1017.0797 626.83,1178.2697" fill="none" id="Presentacion-to-Estadisticas" style="stroke:#181818;stroke-width:1;"/><polygon fill="#181818" points="626.83,1184.2697,630.83,1175.2697,626.83,1179.2697,622.83,1175.2697,626.83,1184.2697" style="stroke:#181818;stroke-width:1;"/></g><!--link Clips to Autenticacion--><g class="link" data-entity-1="ent0006" data-entity-2="ent0003" data-link-type="dependency" data-source-line="48" id="lnk24"><path d="M441.83,851.0697 C441.83,745.2697 441.83,506.5569 441.83,413.4169" fill="none" id="Clips-to-Autenticacion" style="stroke:#181818;stroke-width:1;"/><polygon fill="#181818" points="441.83,407.4169,437.83,416.4169,441.83,412.4169,445.83,416.4169,441.83,407.4169" style="stroke:#181818;stroke-width:1;"/></g><!--link Administracion to Autenticacion--><g class="link" data-entity-1="ent0007" data-entity-2="ent0003" data-link-type="dependency" data-source-line="49" id="lnk25"><path d="M509.83,1025.4097 C509.83,896.0697 509.83,534.5869 509.83,413.6669" fill="none" id="Administracion-to-Autenticacion" style="stroke:#181818;stroke-width:1;"/><polygon fill="#181818" points="509.83,407.6669,505.83,416.6669,509.83,412.6669,513.83,416.6669,509.83,407.6669" style="stroke:#181818;stroke-width:1;"/></g><!--link Estadisticas to Clips--><g class="link" data-entity-1="ent0008" data-entity-2="ent0006" data-link-type="dependency" data-source-line="52" id="lnk28"><path d="M318.75,1163.0069 C318.75,1104.1469 318.75,1012.3969 318.75,950.4869" fill="none" id="Estadisticas-to-Clips" style="stroke:#181818;stroke-width:1;"/><polygon fill="#181818" points="318.75,944.4869,314.75,953.4869,318.75,949.4869,322.75,953.4869,318.75,944.4869" style="stroke:#181818;stroke-width:1;"/></g><!--link Estadisticas to Autenticacion--><g class="link" data-entity-1="ent0008" data-entity-2="ent0003" data-link-type="dependency" data-source-line="53" id="lnk29"><path d="M621.17,1184.3897 C621.17,1003.1197 621.17,365.2969 621.17,365.2969 C621.17,365.2969 578.72,365.2969 533.68,365.2969" fill="none" id="Estadisticas-to-Autenticacion" style="stroke:#181818;stroke-width:1;"/><polygon fill="#181818" points="527.68,365.2969,536.68,369.2969,532.68,365.2969,536.68,361.2969,527.68,365.2969" style="stroke:#181818;stroke-width:1;"/></g><!--link Autenticacion to Persistencia--><g class="link" data-entity-1="ent0003" data-entity-2="ent0009" data-link-type="dependency" data-source-line="56" id="lnk30"><path d="M492.17,407.6369 C492.17,545.7469 492.17,974.2969 492.17,974.2969 C492.17,974.2969 203,974.2969 203,974.2969 C203,974.2969 203,1214.9603 203,1331.1203" fill="none" id="Autenticacion-to-Persistencia" style="stroke:#181818;stroke-width:1;"/><polygon fill="#181818" points="203,1337.1203,207,1328.1203,203,1332.1203,199,1328.1203,203,1337.1203" style="stroke:#181818;stroke-width:1;"/></g><!--link Captura to Persistencia--><g class="link" data-entity-1="ent0004" data-entity-2="ent0009" data-link-type="dependency" data-source-line="57" id="lnk31"><path d="M38.47,532.2969 C19.83,532.2969 6,532.2969 6,532.2969 C6,532.2969 6,1387.2969 6,1387.2969 C6,1387.2969 42.34,1387.2969 85.83,1387.2969" fill="none" id="Captura-to-Persistencia" style="stroke:#181818;stroke-width:1;"/><polygon fill="#181818" points="91.83,1387.2969,82.83,1383.2969,86.83,1387.2969,82.83,1391.2969,91.83,1387.2969" style="stroke:#181818;stroke-width:1;"/></g><!--link Procesamiento to Persistencia--><g class="link" data-entity-1="ent0005" data-entity-2="ent0009" data-link-type="dependency" data-source-line="58" id="lnk32"><path d="M128.75,770.4269 C128.75,895.0969 128.75,1184.8469 128.75,1316.1169" fill="none" id="Procesamiento-to-Persistencia" style="stroke:#181818;stroke-width:1;"/><polygon fill="#181818" points="128.75,1322.1169,132.75,1313.1169,128.75,1317.1169,124.75,1313.1169,128.75,1322.1169" style="stroke:#181818;stroke-width:1;"/></g><!--link Clips to Persistencia--><g class="link" data-entity-1="ent0006" data-entity-2="ent0009" data-link-type="dependency" data-source-line="59" id="lnk33"><path d="M184.25,944.5969 C184.25,1038.2569 184.25,1217.5469 184.25,1315.9069" fill="none" id="Clips-to-Persistencia" style="stroke:#181818;stroke-width:1;"/><polygon fill="#181818" points="184.25,1321.9069,188.25,1312.9069,184.25,1316.9069,180.25,1312.9069,184.25,1321.9069" style="stroke:#181818;stroke-width:1;"/></g><!--link Administracion to Persistencia--><g class="link" data-entity-1="ent0007" data-entity-2="ent0009" data-link-type="dependency" data-source-line="60" id="lnk34"><path d="M328.24,1054.2969 C272.47,1054.2969 221.75,1054.2969 221.75,1054.2969 C221.75,1054.2969 221.75,1240.7297 221.75,1337.4297" fill="none" id="Administracion-to-Persistencia" style="stroke:#181818;stroke-width:1;"/><polygon fill="#181818" points="221.75,1343.4297,225.75,1334.4297,221.75,1338.4297,217.75,1334.4297,221.75,1343.4297" style="stroke:#181818;stroke-width:1;"/></g><?plantuml-src ZLLBRXGn4DttAQniiie2s2ED9X-4G2Gp8XjWKUckT4myhiPs3qgknH6u66NtPyhj2R2PsFLzzUev7NGmgCurj0vse1fK7VpeCQ3dir5U-u0xg2h_g6q77CF--X5Qt8OdJdHO1x2jGH7W7w2XdzgswXwCbvu6xw4tuP9isEfdLAzUbtKFpZV2QRJ5yDIX8XSUgAe2TIgGkgCGYElgY4EJhQgnYZgvTkZH1gZP_DMUgLkU13vGgm-tzttBIDryNpKxRVdWCkk5hy4YtMmELU9FGskZEpyRpp60CHYD8fNZ-A1hyDVeF5amU4YvGXz1vtK--nwS9dySp9Wo1HtjT6NeBlOvKU2Lf46mi-e3MpbwecUi68zhte0Z4_iclbATB44KMaCNUWSf3tPTAl2EdcWqmE3Qee-3YjX3Zu5VS3URr6WCoZP9DNhOQGQGwbxiuua9Z-9hQ6ZWzfgX9ME4k8q2b9wiogrkCCjR4sFtyPJMCL8dCkJ8qxwcNOjX-EXPuU1Iq1LQZFlpYwYFu6fmv-XtwH1ZBs5FJeSCr8NHh874EDDFEuZy3oJ5wdATirYcVOfkesP6J1jiHrNvbx1FwjeEZ_-bSekmGIOP485G2ZGZ7apT6rgwZy5w-JNzApfx4T8XLSOLuo2srcdY3KP115uAoTScpBCEX6qGEXQXwIKawyhie4OhXJYeJVIlgbFroRLWzJFp-FkNLNlD68n2Fg6Bq4qbNxOw-_AWcmRjD_xFQy_UBfvhTYjYfnSt_Yty-Jl8RcMj9CpqMsBAjP5VY-XiJV9IubimTuuTsYPTlUgSvaCNjy-V7n-_RpDlJEo2nOAvmZsHLJhIv6MvVEZ2dwlnL5sQ_Zkf-zx62DxuZF-mdd-jP0Qpv8BTBlk-AuijSQDfOQLm5Zlwdu2Xzn77NpOwfnNcnNVdLArgdfKKg4wkVQ7mfIeoxgIZf2xFctd9p4U6o_p55DBx1m00?></g></svg>