<?plantuml 1.2026.2?><svg xmlns="http://www.w3.org/2000/svg" xmlns:xlink="http://www.w3.org/1999/xlink" contentStyleType="text/css" data-diagram-type="SEQUENCE" height="679px" preserveAspectRatio="none" style="width:1044px;height:679px;background:#FFFFFF;" version="1.1" viewBox="0 0 1044 679" width="1044px" zoomAndPan="magnify"><title>Diagrama de secuencia de dise&#241;o - Generaci&#243;n autom&#225;tica de clip</title><defs/><g><text fill="#000000" font-family="sans-serif" font-size="14" font-weight="bold" lengthAdjust="spacing" textLength="521.2334" x="262.4824" y="27.9951">Diagrama de secuencia de dise&#241;o - Generaci&#243;n autom&#225;tica de clip</text><rect fill="none" height="320.1328" style="stroke:#000000;stroke-width:1.5;" width="1027.1982" x="10" y="264.125"/><g class="participant-lifeline" data-entity-uid="part1" data-qualified-name="Camara" id="part1-lifeline"><g><title>Camara</title><rect fill="#000000" fill-opacity="0.00000" height="496.6641" width="8" x="50.4531" y="104.5938"/><line style="stroke:#181818;stroke-width:0.5;stroke-dasharray:5,5;" x1="54" x2="54" y1="104.5938" y2="601.2578"/></g></g><g class="participant-lifeline" data-entity-uid="part2" data-qualified-name="ServicioDeteccionSwing" id="part2-lifeline"><g><title>ServicioDeteccionSwing</title><rect fill="#000000" fill-opacity="0.00000" height="496.6641" width="8" x="209.1821" y="104.5938"/><line style="stroke:#181818;stroke-width:0.5;stroke-dasharray:5,5;" x1="212.2881" x2="212.2881" y1="104.5938" y2="601.2578"/></g></g><g class="participant-lifeline" data-entity-uid="part3" data-qualified-name="ServicioProcesamientoVideo" id="part3-lifeline"><g><title>ServicioProcesamientoVideo</title><rect fill="#000000" fill-opacity="0.00000" height="496.6641" width="8" x="410.7363" y="104.5938"/><line style="stroke:#181818;stroke-width:0.5;stroke-dasharray:5,5;" x1="414.1709" x2="414.1709" y1="104.5938" y2="601.2578"/></g></g><g class="participant-lifeline" data-entity-uid="part4" data-qualified-name="EventoDetectado" id="part4-lifeline"><g><title>EventoDetectado</title><rect fill="#000000" fill-opacity="0.00000" height="496.6641" width="8" x="586.9946" y="104.5938"/><line style="stroke:#181818;stroke-width:0.5;stroke-dasharray:5,5;" x1="590.3018" x2="590.3018" y1="104.5938" y2="601.2578"/></g></g><g class="participant-lifeline" data-entity-uid="part5" data-qualified-name="Clip" id="part5-lifeline"><g><title>Clip</title><rect fill="#000000" fill-opacity="0.00000" height="496.6641" width="8" x="703.9531" y="104.5938"/><line style="stroke:#181818;stroke-width:0.5;stroke-dasharray:5,5;" x1="707.7324" x2="707.7324" y1="104.5938" y2="601.2578"/></g></g><g class="participant-lifeline" data-entity-uid="part6" data-qualified-name="RepositorioClips" id="part6-lifeline"><g><title>RepositorioClips</title><rect fill="#000000" fill-opacity="0.00000" height="496.6641" width="8" x="789.6626" y="104.5938"/><line style="stroke:#181818;stroke-width:0.5;stroke-dasharray:5,5;" x1="793.1738" x2="793.1738" y1="104.5938" y2="601.2578"/></g></g><g class="participant-lifeline" data-entity-uid="part7" data-qualified-name="AlmacenamientoVideo" id="part7-lifeline"><g><title>AlmacenamientoVideo</title><rect fill="#000000" fill-opacity="0.00000" height="496.6641" width="8" x="941.1748" y="104.5938"/><line style="stroke:#181818;stroke-width:0.5;stroke-dasharray:5,5;" x1="945.1514" x2="945.1514" y1="104.5938" y2="601.2578"/></g></g><g class="participant participant-head" data-entity-uid="part1" data-qualified-name="Camara" id="part1-head"><rect fill="#E2E2F0" height="30.2969" rx="2.5" ry="2.5" style="stroke:#181818;stroke-width:0.5;" width="68.9063" x="20" y="73.2969"/><text fill="#000000" font-family="sans-serif" font-size="14" lengthAdjust="spacing" textLength="54.9063" x="27" y="93.292">Camara</text></g><g class="participant participant-tail" data-entity-uid="part1" data-qualified-name="Camara" id="part1-tail"><rect fill="#E2E2F0" height="30.2969" rx="2.5" ry="2.5" style="stroke:#181818;stroke-width:0.5;" width="68.9063" x="20" y="600.2578"/><text fill="#000000" font-family="sans-serif" font-size="14" lengthAdjust="spacing" textLength="54.9063" x="27" y="620.2529">Camara</text></g><g class="participant participant-head" data-entity-uid="part2" data-qualified-name="ServicioDeteccionSwing" id="part2-head"><text fill="#000000" font-family="sans-serif" font-size="14" lengthAdjust="spacing" textLength="167.7881" x="126.2881" y="101.292">ServicioDeteccionSwing</text><ellipse cx="213.1821" cy="72.2969" fill="#E2E2F0" rx="12" ry="12" style="stroke:#181818;stroke-width:0.5;"/><polygon fill="#181818" points="209.1821,60.2969,215.1821,55.2969,213.1821,60.2969,215.1821,65.2969,209.1821,60.2969" style="stroke:#181818;stroke-width:1;"/></g><g class="participant participant-tail" data-entity-uid="part2" data-qualified-name="ServicioDeteccionSwing" id="part2-tail"><text fill="#000000" font-family="sans-serif" font-size="14" lengthAdjust="spacing" textLength="167.7881" x="126.2881" y="613.2529">ServicioDeteccionSwing</text><ellipse cx="213.1821" cy="632.5547" fill="#E2E2F0" rx="12" ry="12" style="stroke:#181818;stroke-width:0.5;"/><polygon fill="#181818" points="209.1821,620.5547,215.1821,615.5547,213.1821,620.5547,215.1821,625.5547,209.1821,620.5547" style="stroke:#181818;stroke-width:1;"/></g><g class="participant participant-head" data-entity-uid="part3" data-qualified-name="ServicioProcesamientoVideo" id="part3-head"><text fill="#000000" font-family="sans-serif" font-size="14" lengthAdjust="spacing" textLength="199.1309" x="312.1709" y="101.292">ServicioProcesamientoVideo</text><ellipse cx="414.7363" cy="72.2969" fill="#E2E2F0" rx="12" ry="12" style="stroke:#181818;stroke-width:0.5;"/><polygon fill="#181818" points="410.7363,60.2969,416.7363,55.2969,414.7363,60.2969,416.7363,65.2969,410.7363,60.2969" style="stroke:#181818;stroke-width:1;"/></g><g class="participant participant-tail" data-entity-uid="part3" data-qualified-name="ServicioProcesamientoVideo" id="part3-tail"><text fill="#000000" font-family="sans-serif" font-size="14" lengthAdjust="spacing" textLength="199.1309" x="312.1709" y="613.2529">ServicioProcesamientoVideo</text><ellipse cx="414.7363" cy="632.5547" fill="#E2E2F0" rx="12" ry="12" style="stroke:#181818;stroke-width:0.5;"/><polygon fill="#181818" points="410.7363,620.5547,416.7363,615.5547,414.7363,620.5547,416.7363,625.5547,410.7363,620.5547" style="stroke:#181818;stroke-width:1;"/></g><g class="participant participant-head" data-entity-uid="part4" data-qualified-name="EventoDetectado" id="part4-head"><text fill="#000000" font-family="sans-serif" font-size="14" lengthAdjust="spacing" textLength="121.3857" x="527.3018" y="101.292">EventoDetectado</text><ellipse cx="590.9946" cy="72.2969" fill="#E2E2F0" rx="12" ry="12" style="stroke:#181818;stroke-width:0.5;"/><line style="stroke:#181818;stroke-width:0.5;" x1="578.9946" x2="602.9946" y1="86.2969" y2="86.2969"/></g><g class="participant participant-tail" data-entity-uid="part4" data-qualified-name="EventoDetectado" id="part4-tail"><text fill="#000000" font-family="sans-serif" font-size="14" lengthAdjust="spacing" textLength="121.3857" x="527.3018" y="613.2529">EventoDetectado</text><ellipse cx="590.9946" cy="632.5547" fill="#E2E2F0" rx="12" ry="12" style="stroke:#181818;stroke-width:0.5;"/><line style="stroke:#181818;stroke-width:0.5;" x1="578.9946" x2="602.9946" y1="646.5547" y2="646.5547"/></g><g class="participant participant-head" data-entity-uid="part5" data-qualified-name="Clip" id="part5-head"><text fill="#000000" font-family="sans-serif" font-size="14" lengthAdjust="spacing" textLength="26.4414" x="691.7324" y="101.292">Clip</text><ellipse cx="707.9531" cy="72.2969" fill="#E2E2F0" rx="12" ry="12" style="stroke:#181818;stroke-width:0.5;"/><line style="stroke:#181818;stroke-width:0.5;" x1="695.9531" x2="719.9531" y1="86.2969" y2="86.2969"/></g><g class="participant participant-tail" data-entity-uid="part5" data-qualified-name="Clip" id="part5-tail"><text fill="#000000" font-family="sans-serif" font-size="14" lengthAdjust="spacing" textLength="26.4414" x="691.7324" y="613.2529">Clip</text><ellipse cx="707.9531" cy="632.5547" fill="#E2E2F0" rx="12" ry="12" style="stroke:#181818;stroke-width:0.5;"/><line style="stroke:#181818;stroke-width:0.5;" x1="695.9531" x2="719.9531" y1="646.5547" y2="646.5547"/></g><g class="participant participant-head" data-entity-uid="part6" data-qualified-name="RepositorioClips" id="part6-head"><text fill="#000000" font-family="sans-serif" font-size="14" lengthAdjust="spacing" textLength="112.9775" x="734.1738" y="101.292">RepositorioClips</text><path d="M775.6626,52.2969 C775.6626,42.2969 793.6626,42.2969 793.6626,42.2969 C793.6626,42.2969 811.6626,42.2969 811.6626,52.2969 L811.6626,78.2969 C811.6626,88.2969 793.6626,88.2969 793.6626,88.2969 C793.6626,88.2969 775.6626,88.2969 775.6626,78.2969 L775.6626,52.2969" fill="#E2E2F0" style="stroke:#181818;stroke-width:0.5;"/><path d="M775.6626,52.2969 C775.6626,62.2969 793.6626,62.2969 793.6626,62.2969 C793.6626,62.2969 811.6626,62.2969 811.6626,52.2969" fill="none" style="stroke:#181818;stroke-width:0.5;"/></g><g class="participant participant-tail" data-entity-uid="part6" data-qualified-name="RepositorioClips" id="part6-tail"><text fill="#000000" font-family="sans-serif" font-size="14" lengthAdjust="spacing" textLength="112.9775" x="734.1738" y="613.2529">RepositorioClips</text><path d="M775.6626,626.5547 C775.6626,616.5547 793.6626,616.5547 793.6626,616.5547 C793.6626,616.5547 811.6626,616.5547 811.6626,626.5547 L811.6626,652.5547 C811.6626,662.5547 793.6626,662.5547 793.6626,662.5547 C793.6626,662.5547 775.6626,662.5547 775.6626,652.5547 L775.6626,626.5547" fill="#E2E2F0" style="stroke:#181818;stroke-width:0.5;"/><path d="M775.6626,626.5547 C775.6626,636.5547 793.6626,636.5547 793.6626,636.5547 C793.6626,636.5547 811.6626,636.5547 811.6626,626.5547" fill="none" style="stroke:#181818;stroke-width:0.5;"/></g><g class="participant participant-head" data-entity-uid="part7" data-qualified-name="AlmacenamientoVideo" id="part7-head"><text fill="#000000" font-family="sans-serif" font-size="14" lengthAdjust="spacing" textLength="158.0469" x="863.1514" y="101.292">AlmacenamientoVideo</text><path d="M927.1748,52.2969 C927.1748,42.2969 945.1748,42.2969 945.1748,42.2969 C945.1748,42.2969 963.1748,42.2969 963.1748,52.2969 L963.1748,78.2969 C963.1748,88.2969 945.1748,88.2969 945.1748,88.2969 C945.1748,88.2969 927.1748,88.2969 927.1748,78.2969 L927.1748,52.2969" fill="#E2E2F0" style="stroke:#181818;stroke-width:0.5;"/><path d="M927.1748,52.2969 C927.1748,62.2969 945.1748,62.2969 945.1748,62.2969 C945.1748,62.2969 963.1748,62.2969 963.1748,52.2969" fill="none" style="stroke:#181818;stroke-width:0.5;"/></g><g class="participant participant-tail" data-entity-uid="part7" data-qualified-name="AlmacenamientoVideo" id="part7-tail"><text fill="#000000" font-family="sans-serif" font-size="14" lengthAdjust="spacing" textLength="158.0469" x="863.1514" y="613.2529">AlmacenamientoVideo</text><path d="M927.1748,626.5547 C927.1748,616.5547 945.1748,616.5547 945.1748,616.5547 C945.1748,616.5547 963.1748,616.5547 963.1748,626.5547 L963.1748,652.5547 C963.1748,662.5547 945.1748,662.5547 945.1748,662.5547 C945.1748,662.5547 927.1748,662.5547 927.1748,652.5547 L927.1748,626.5547" fill="#E2E2F0" style="stroke:#181818;stroke-width:0.5;"/><path d="M927.1748,626.5547 C927.1748,636.5547 945.1748,636.5547 945.1748,636.5547 C945.1748,636.5547 963.1748,636.5547 963.1748,626.5547" fill="none" style="stroke:#181818;stroke-width:0.5;"/></g><g class="message" data-entity-1="part1" data-entity-2="part2" id="msg1"><polygon fill="#181818" points="201.1821,131.7266,211.1821,135.7266,201.1821,139.7266,205.1821,135.7266" style="stroke:#181818;stroke-width:1;"/><line style="stroke:#181818;stroke-width:1;" x1="54.4531" x2="207.1821" y1="135.7266" y2="135.7266"/><text fill="#000000" font-family="sans-serif" font-size="13" lengthAdjust="spacing" textLength="134.729" x="61.4531" y="130.6606">enviarFrames(video)</text></g><g class="message" data-entity-1="part2" data-entity-2="part2" id="msg2"><line style="stroke:#181818;stroke-width:1;" x1="213.1821" x2="255.1821" y1="164.8594" y2="164.8594"/><line style="stroke:#181818;stroke-width:1;" x1="255.1821" x2="255.1821" y1="164.8594" y2="177.8594"/><line style="stroke:#181818;stroke-width:1;" x1="214.1821" x2="255.1821" y1="177.8594" y2="177.8594"/><polygon fill="#181818" points="224.1821,173.8594,214.1821,177.8594,224.1821,181.8594,220.1821,177.8594" style="stroke:#181818;stroke-width:1;"/><text fill="#000000" font-family="sans-serif" font-size="13" lengthAdjust="spacing" textLength="187.5542" x="220.1821" y="159.7935">analizarMovimientoJugador()</text></g><g class="message" data-entity-1="part2" data-entity-2="part2" id="msg3"><line style="stroke:#181818;stroke-width:1;" x1="213.1821" x2="255.1821" y1="206.9922" y2="206.9922"/><line style="stroke:#181818;stroke-width:1;" x1="255.1821" x2="255.1821" y1="206.9922" y2="219.9922"/><line style="stroke:#181818;stroke-width:1;" x1="214.1821" x2="255.1821" y1="219.9922" y2="219.9922"/><polygon fill="#181818" points="224.1821,215.9922,214.1821,219.9922,224.1821,223.9922,220.1821,219.9922" style="stroke:#181818;stroke-width:1;"/><text fill="#000000" font-family="sans-serif" font-size="13" lengthAdjust="spacing" textLength="93.4946" x="220.1821" y="201.9263">detectarBola()</text></g><g class="message" data-entity-1="part2" data-entity-2="part4" id="msg4"><polygon fill="#181818" points="578.9946,245.125,588.9946,249.125,578.9946,253.125,582.9946,249.125" style="stroke:#181818;stroke-width:1;"/><line style="stroke:#181818;stroke-width:1;" x1="213.1821" x2="584.9946" y1="249.125" y2="249.125"/><text fill="#000000" font-family="sans-serif" font-size="13" lengthAdjust="spacing" textLength="260.3047" x="220.1821" y="244.0591">crearEvento(instante, confianza, valido)</text></g><path d="M10,264.125 L74.4429,264.125 L74.4429,271.2578 L64.4429,281.2578 L10,281.2578 L10,264.125" fill="#EEEEEE" style="stroke:#000000;stroke-width:1.5;"/><rect fill="none" height="320.1328" style="stroke:#000000;stroke-width:1.5;" width="1027.1982" x="10" y="264.125"/><text fill="#000000" font-family="sans-serif" font-size="13" font-weight="bold" lengthAdjust="spacing" textLength="19.4429" x="25" y="277.1919">alt</text><text fill="#000000" font-family="sans-serif" font-size="11" font-weight="bold" lengthAdjust="spacing" textLength="94.1875" x="89.4429" y="276.3354">[evento v&#225;lido]</text><g class="message" data-entity-1="part4" data-entity-2="part3" id="msg5"><polygon fill="#181818" points="425.7363,298.3906,415.7363,302.3906,425.7363,306.3906,421.7363,302.3906" style="stroke:#181818;stroke-width:1;"/><line style="stroke:#181818;stroke-width:1;stroke-dasharray:2,2;" x1="419.7363" x2="589.9946" y1="302.3906" y2="302.3906"/><text fill="#000000" font-family="sans-serif" font-size="13" lengthAdjust="spacing" textLength="101.4863" x="431.7363" y="297.3247">eventoValidado</text></g><g class="message" data-entity-1="part3" data-entity-2="part3" id="msg6"><line style="stroke:#181818;stroke-width:1;" x1="414.7363" x2="456.7363" y1="331.5234" y2="331.5234"/><line style="stroke:#181818;stroke-width:1;" x1="456.7363" x2="456.7363" y1="331.5234" y2="344.5234"/><line style="stroke:#181818;stroke-width:1;" x1="415.7363" x2="456.7363" y1="344.5234" y2="344.5234"/><polygon fill="#181818" points="425.7363,340.5234,415.7363,344.5234,425.7363,348.5234,421.7363,344.5234" style="stroke:#181818;stroke-width:1;"/><text fill="#000000" font-family="sans-serif" font-size="13" lengthAdjust="spacing" textLength="135.3955" x="421.7363" y="326.4575">recortarPrePostRoll()</text></g><g class="message" data-entity-1="part3" data-entity-2="part3" id="msg7"><line style="stroke:#181818;stroke-width:1;" x1="414.7363" x2="456.7363" y1="373.6563" y2="373.6563"/><line style="stroke:#181818;stroke-width:1;" x1="456.7363" x2="456.7363" y1="373.6563" y2="386.6563"/><line style="stroke:#181818;stroke-width:1;" x1="415.7363" x2="456.7363" y1="386.6563" y2="386.6563"/><polygon fill="#181818" points="425.7363,382.6563,415.7363,386.6563,425.7363,390.6563,421.7363,386.6563" style="stroke:#181818;stroke-width:1;"/><text fill="#000000" font-family="sans-serif" font-size="13" lengthAdjust="spacing" textLength="150.3569" x="421.7363" y="368.5903">convertirFormatoMP4()</text></g><g class="message" data-entity-1="part3" data-entity-2="part7" id="msg8"><polygon fill="#181818" points="933.1748,411.7891,943.1748,415.7891,933.1748,419.7891,937.1748,415.7891" style="stroke:#181818;stroke-width:1;"/><line style="stroke:#181818;stroke-width:1;" x1="414.7363" x2="939.1748" y1="415.7891" y2="415.7891"/><text fill="#000000" font-family="sans-serif" font-size="13" lengthAdjust="spacing" textLength="213.1289" x="421.7363" y="410.7231">guardarArchivo(videoProcesado)</text></g><g class="message" data-entity-1="part7" data-entity-2="part3" id="msg9"><polygon fill="#181818" points="425.7363,440.9219,415.7363,444.9219,425.7363,448.9219,421.7363,444.9219" style="stroke:#181818;stroke-width:1;"/><line style="stroke:#181818;stroke-width:1;stroke-dasharray:2,2;" x1="419.7363" x2="944.1748" y1="444.9219" y2="444.9219"/><text fill="#000000" font-family="sans-serif" font-size="13" lengthAdjust="spacing" textLength="75.5308" x="431.7363" y="439.856">rutaArchivo</text></g><g class="message" data-entity-1="part3" data-entity-2="part5" id="msg10"><polygon fill="#181818" points="695.9531,470.0547,705.9531,474.0547,695.9531,478.0547,699.9531,474.0547" style="stroke:#181818;stroke-width:1;"/><line style="stroke:#181818;stroke-width:1;" x1="414.7363" x2="701.9531" y1="474.0547" y2="474.0547"/><text fill="#000000" font-family="sans-serif" font-size="13" lengthAdjust="spacing" textLength="269.2168" x="421.7363" y="468.9888">crear(usuario, hoyo, evento, rutaArchivo)</text></g><g class="message" data-entity-1="part3" data-entity-2="part6" id="msg11"><polygon fill="#181818" points="781.6626,499.1875,791.6626,503.1875,781.6626,507.1875,785.6626,503.1875" style="stroke:#181818;stroke-width:1;"/><line style="stroke:#181818;stroke-width:1;" x1="414.7363" x2="787.6626" y1="503.1875" y2="503.1875"/><text fill="#000000" font-family="sans-serif" font-size="13" lengthAdjust="spacing" textLength="84.1318" x="421.7363" y="498.1216">guardar(clip)</text></g><g class="message" data-entity-1="part6" data-entity-2="part3" id="msg12"><polygon fill="#181818" points="425.7363,528.3203,415.7363,532.3203,425.7363,536.3203,421.7363,532.3203" style="stroke:#181818;stroke-width:1;"/><line style="stroke:#181818;stroke-width:1;stroke-dasharray:2,2;" x1="419.7363" x2="792.6626" y1="532.3203" y2="532.3203"/><text fill="#000000" font-family="sans-serif" font-size="13" lengthAdjust="spacing" textLength="90.9365" x="431.7363" y="527.2544">clipDisponible</text></g><line style="stroke:#000000;stroke-width:1;stroke-dasharray:2,2;" x1="10" x2="1037.1982" y1="541.3203" y2="541.3203"/><text fill="#000000" font-family="sans-serif" font-size="11" font-weight="bold" lengthAdjust="spacing" textLength="113.4053" x="15" y="551.5308">[evento no v&#225;lido]</text><g class="message" data-entity-1="part2" data-entity-2="part1" id="msg13"><polygon fill="#181818" points="65.4531,572.2578,55.4531,576.2578,65.4531,580.2578,61.4531,576.2578" style="stroke:#181818;stroke-width:1;"/><line style="stroke:#181818;stroke-width:1;stroke-dasharray:2,2;" x1="59.4531" x2="212.1821" y1="576.2578" y2="576.2578"/><text fill="#000000" font-family="sans-serif" font-size="13" lengthAdjust="spacing" textLength="117.2285" x="71.4531" y="571.1919">descartarEvento()</text></g><?plantuml-src fLHBJkH03DtNARmCKlTkLYoGW1v66Wcf1H9xK_4qbYhbo5N926x34KOSeI-6Ama3TDCVpMIHZpylVlPpPSw1OC6uKcmGQe94lgFeUVYeET7wZy0SVb0aHS_hbmZOPMdMpvdz4EG3jywrg6RW5cE6IyDIT5vYLWbmIzgRInQKoTiptlxckDfoBrKy9MoOOfOxhacSlN5-XEzzCGtf6Uk_vilouneptcCYkA5M4cTHbk98xvxpqA2d-0dPZJN2_6n7UN0A57j6lRBEKAhwadRYTWJlWy68WPzGhwNdiOIVtSfeQFLFSFNO1hsGW7iHDhfcgLu9TJHN75EsMT4CR0w_6ECJpg2tIcjZwJ1ae24G-lLpCJgmQnDo_g7GxV6L5Wu9TmKM9umzyOVGbBoeKLygBINb6md1El2Ve4Q_9zEkNeascELw-Uqeq2zKPMYh3hL6FLV_mBsCgfdoIsCBx5U91nkfNSO9r1rHNDc0ju5NNRAYM6Rm88zs7sSo-mXv3D_D_NedMvKJO8JO2Zf8hEGkEBKI-JwGes0BEoalVXRVBgKNkkCob-L87ej49fMVs5bHlm80?></g></svg>