<?plantuml 1.2026.2?><svg xmlns="http://www.w3.org/2000/svg" xmlns:xlink="http://www.w3.org/1999/xlink" contentStyleType="text/css" data-diagram-type="SEQUENCE" height="685px" preserveAspectRatio="none" style="width:1075px;height:685px;background:#FFFFFF;" version="1.1" viewBox="0 0 1075 685" width="1075px" zoomAndPan="magnify"><title>Diagrama de secuencia de dise&#241;o - CU-02 Escanear c&#243;digo QR del hoyo</title><defs/><g><text fill="#000000" font-family="sans-serif" font-size="14" font-weight="bold" lengthAdjust="spacing" textLength="561.1621" x="258.5791" y="27.9951">Diagrama de secuencia de dise&#241;o - CU-02 Escanear c&#243;digo QR del hoyo</text><g class="participant-lifeline" data-entity-uid="part1" data-qualified-name="Jugador" id="part1-lifeline"><g><title>Jugador</title><rect fill="#000000" fill-opacity="0.00000" height="486.125" width="8" x="30.8379" y="118.5938"/><line style="stroke:#181818;stroke-width:0.5;stroke-dasharray:5,5;" x1="34" x2="34" y1="118.5938" y2="604.7188"/></g></g><g class="participant-lifeline" data-entity-uid="part2" data-qualified-name="VistaEscaneoQR" id="part2-lifeline"><g><title>VistaEscaneoQR</title><rect fill="#000000" fill-opacity="0.00000" height="486.125" width="8" x="202.5098" y="118.5938"/><line style="stroke:#181818;stroke-width:0.5;stroke-dasharray:5,5;" x1="206.4878" x2="206.4878" y1="118.5938" y2="604.7188"/></g></g><g class="participant-lifeline" data-entity-uid="part3" data-qualified-name="ControladorEscanearQR" id="part3-lifeline"><g><title>ControladorEscanearQR</title><rect fill="#000000" fill-opacity="0.00000" height="486.125" width="8" x="434.5352" y="118.5938"/><line style="stroke:#181818;stroke-width:0.5;stroke-dasharray:5,5;" x1="437.6924" x2="437.6924" y1="118.5938" y2="604.7188"/></g></g><g class="participant-lifeline" data-entity-uid="part4" data-qualified-name="CodigoQR" id="part4-lifeline"><g><title>CodigoQR</title><rect fill="#000000" fill-opacity="0.00000" height="486.125" width="8" x="569.0361" y="118.5938"/><line style="stroke:#181818;stroke-width:0.5;stroke-dasharray:5,5;" x1="572.3779" x2="572.3779" y1="118.5938" y2="604.7188"/></g></g><g class="participant-lifeline" data-entity-uid="part5" data-qualified-name="Campo" id="part5-lifeline"><g><title>Campo</title><rect fill="#000000" fill-opacity="0.00000" height="486.125" width="8" x="644.4165" y="118.5938"/><line style="stroke:#181818;stroke-width:0.5;stroke-dasharray:5,5;" x1="647.6943" x2="647.6943" y1="118.5938" y2="604.7188"/></g></g><g class="participant-lifeline" data-entity-uid="part6" data-qualified-name="Hoyo" id="part6-lifeline"><g><title>Hoyo</title><rect fill="#000000" fill-opacity="0.00000" height="486.125" width="8" x="703.1104" y="118.5938"/><line style="stroke:#181818;stroke-width:0.5;stroke-dasharray:5,5;" x1="706.1387" x2="706.1387" y1="118.5938" y2="604.7188"/></g></g><g class="participant-lifeline" data-entity-uid="part7" data-qualified-name="Camara" id="part7-lifeline"><g><title>Camara</title><rect fill="#000000" fill-opacity="0.00000" height="486.125" width="8" x="764.5352" y="118.5938"/><line style="stroke:#181818;stroke-width:0.5;stroke-dasharray:5,5;" x1="768.082" x2="768.082" y1="118.5938" y2="604.7188"/></g></g><g class="participant-lifeline" data-entity-uid="part8" data-qualified-name="SesionCaptura" id="part8-lifeline"><g><title>SesionCaptura</title><rect fill="#000000" fill-opacity="0.00000" height="486.125" width="8" x="859.0186" y="118.5938"/><line style="stroke:#181818;stroke-width:0.5;stroke-dasharray:5,5;" x1="862.9883" x2="862.9883" y1="118.5938" y2="604.7188"/></g></g><g class="participant-lifeline" data-entity-uid="part9" data-qualified-name="RepositorioSesiones" id="part9-lifeline"><g><title>RepositorioSesiones</title><rect fill="#000000" fill-opacity="0.00000" height="486.125" width="8" x="996.6846" y="118.5938"/><line style="stroke:#181818;stroke-width:0.5;stroke-dasharray:5,5;" x1="1000.0488" x2="1000.0488" y1="118.5938" y2="604.7188"/></g></g><g class="participant participant-head" data-entity-uid="part1" data-qualified-name="Jugador" id="part1-head"><text fill="#000000" font-family="sans-serif" font-size="14" lengthAdjust="spacing" textLength="53.6758" x="5" y="115.292">Jugador</text><ellipse cx="34.8379" cy="50.7969" fill="#E2E2F0" rx="8" ry="8" style="stroke:#181818;stroke-width:0.5;"/><path d="M34.8379,58.7969 L34.8379,85.7969 M21.8379,66.7969 L47.8379,66.7969 M34.8379,85.7969 L21.8379,100.7969 M34.8379,85.7969 L47.8379,100.7969" fill="none" style="stroke:#181818;stroke-width:0.5;"/></g><g class="participant participant-tail" data-entity-uid="part1" data-qualified-name="Jugador" id="part1-tail"><text fill="#000000" font-family="sans-serif" font-size="14" lengthAdjust="spacing" textLength="53.6758" x="5" y="616.7139">Jugador</text><ellipse cx="34.8379" cy="628.5156" fill="#E2E2F0" rx="8" ry="8" style="stroke:#181818;stroke-width:0.5;"/><path d="M34.8379,636.5156 L34.8379,663.5156 M21.8379,644.5156 L47.8379,644.5156 M34.8379,663.5156 L21.8379,678.5156 M34.8379,663.5156 L47.8379,678.5156" fill="none" style="stroke:#181818;stroke-width:0.5;"/></g><g class="participant participant-head" data-entity-uid="part2" data-qualified-name="VistaEscaneoQR" id="part2-head"><text fill="#000000" font-family="sans-serif" font-size="14" lengthAdjust="spacing" textLength="114.0439" x="146.4878" y="115.292">VistaEscaneoQR</text><path d="M186.0098,74.2969 L186.0098,98.2969 M186.0098,86.2969 L203.0098,86.2969" fill="none" style="stroke:#181818;stroke-width:0.5;"/><ellipse cx="215.0098" cy="86.2969" fill="#E2E2F0" rx="12" ry="12" style="stroke:#181818;stroke-width:0.5;"/></g><g class="participant participant-tail" data-entity-uid="part2" data-qualified-name="VistaEscaneoQR" id="part2-tail"><text fill="#000000" font-family="sans-serif" font-size="14" lengthAdjust="spacing" textLength="114.0439" x="146.4878" y="616.7139">VistaEscaneoQR</text><path d="M186.0098,624.0156 L186.0098,648.0156 M186.0098,636.0156 L203.0098,636.0156" fill="none" style="stroke:#181818;stroke-width:0.5;"/><ellipse cx="215.0098" cy="636.0156" fill="#E2E2F0" rx="12" ry="12" style="stroke:#181818;stroke-width:0.5;"/></g><g class="participant participant-head" data-entity-uid="part3" data-qualified-name="ControladorEscanearQR" id="part3-head"><text fill="#000000" font-family="sans-serif" font-size="14" lengthAdjust="spacing" textLength="167.6855" x="351.6924" y="115.292">ControladorEscanearQR</text><ellipse cx="438.5352" cy="86.2969" fill="#E2E2F0" rx="12" ry="12" style="stroke:#181818;stroke-width:0.5;"/><polygon fill="#181818" points="434.5352,74.2969,440.5352,69.2969,438.5352,74.2969,440.5352,79.2969,434.5352,74.2969" style="stroke:#181818;stroke-width:1;"/></g><g class="participant participant-tail" data-entity-uid="part3" data-qualified-name="ControladorEscanearQR" id="part3-tail"><text fill="#000000" font-family="sans-serif" font-size="14" lengthAdjust="spacing" textLength="167.6855" x="351.6924" y="616.7139">ControladorEscanearQR</text><ellipse cx="438.5352" cy="636.0156" fill="#E2E2F0" rx="12" ry="12" style="stroke:#181818;stroke-width:0.5;"/><polygon fill="#181818" points="434.5352,624.0156,440.5352,619.0156,438.5352,624.0156,440.5352,629.0156,434.5352,624.0156" style="stroke:#181818;stroke-width:1;"/></g><g class="participant participant-head" data-entity-uid="part4" data-qualified-name="CodigoQR" id="part4-head"><text fill="#000000" font-family="sans-serif" font-size="14" lengthAdjust="spacing" textLength="69.3164" x="535.3779" y="115.292">CodigoQR</text><ellipse cx="573.0361" cy="86.2969" fill="#E2E2F0" rx="12" ry="12" style="stroke:#181818;stroke-width:0.5;"/><line style="stroke:#181818;stroke-width:0.5;" x1="561.0361" x2="585.0361" y1="100.2969" y2="100.2969"/></g><g class="participant participant-tail" data-entity-uid="part4" data-qualified-name="CodigoQR" id="part4-tail"><text fill="#000000" font-family="sans-serif" font-size="14" lengthAdjust="spacing" textLength="69.3164" x="535.3779" y="616.7139">CodigoQR</text><ellipse cx="573.0361" cy="636.0156" fill="#E2E2F0" rx="12" ry="12" style="stroke:#181818;stroke-width:0.5;"/><line style="stroke:#181818;stroke-width:0.5;" x1="561.0361" x2="585.0361" y1="650.0156" y2="650.0156"/></g><g class="participant participant-head" data-entity-uid="part5" data-qualified-name="Campo" id="part5-head"><text fill="#000000" font-family="sans-serif" font-size="14" lengthAdjust="spacing" textLength="49.4443" x="620.6943" y="115.292">Campo</text><ellipse cx="648.4165" cy="86.2969" fill="#E2E2F0" rx="12" ry="12" style="stroke:#181818;stroke-width:0.5;"/><line style="stroke:#181818;stroke-width:0.5;" x1="636.4165" x2="660.4165" y1="100.2969" y2="100.2969"/></g><g class="participant participant-tail" data-entity-uid="part5" data-qualified-name="Campo" id="part5-tail"><text fill="#000000" font-family="sans-serif" font-size="14" lengthAdjust="spacing" textLength="49.4443" x="620.6943" y="616.7139">Campo</text><ellipse cx="648.4165" cy="636.0156" fill="#E2E2F0" rx="12" ry="12" style="stroke:#181818;stroke-width:0.5;"/><line style="stroke:#181818;stroke-width:0.5;" x1="636.4165" x2="660.4165" y1="650.0156" y2="650.0156"/></g><g class="participant participant-head" data-entity-uid="part6" data-qualified-name="Hoyo" id="part6-head"><text fill="#000000" font-family="sans-serif" font-size="14" lengthAdjust="spacing" textLength="35.9434" x="686.1387" y="115.292">Hoyo</text><ellipse cx="707.1104" cy="86.2969" fill="#E2E2F0" rx="12" ry="12" style="stroke:#181818;stroke-width:0.5;"/><line style="stroke:#181818;stroke-width:0.5;" x1="695.1104" x2="719.1104" y1="100.2969" y2="100.2969"/></g><g class="participant participant-tail" data-entity-uid="part6" data-qualified-name="Hoyo" id="part6-tail"><text fill="#000000" font-family="sans-serif" font-size="14" lengthAdjust="spacing" textLength="35.9434" x="686.1387" y="616.7139">Hoyo</text><ellipse cx="707.1104" cy="636.0156" fill="#E2E2F0" rx="12" ry="12" style="stroke:#181818;stroke-width:0.5;"/><line style="stroke:#181818;stroke-width:0.5;" x1="695.1104" x2="719.1104" y1="650.0156" y2="650.0156"/></g><g class="participant participant-head" data-entity-uid="part7" data-qualified-name="Camara" id="part7-head"><text fill="#000000" font-family="sans-serif" font-size="14" lengthAdjust="spacing" textLength="54.9063" x="738.082" y="115.292">Camara</text><ellipse cx="768.5352" cy="86.2969" fill="#E2E2F0" rx="12" ry="12" style="stroke:#181818;stroke-width:0.5;"/><line style="stroke:#181818;stroke-width:0.5;" x1="756.5352" x2="780.5352" y1="100.2969" y2="100.2969"/></g><g class="participant participant-tail" data-entity-uid="part7" data-qualified-name="Camara" id="part7-tail"><text fill="#000000" font-family="sans-serif" font-size="14" lengthAdjust="spacing" textLength="54.9063" x="738.082" y="616.7139">Camara</text><ellipse cx="768.5352" cy="636.0156" fill="#E2E2F0" rx="12" ry="12" style="stroke:#181818;stroke-width:0.5;"/><line style="stroke:#181818;stroke-width:0.5;" x1="756.5352" x2="780.5352" y1="650.0156" y2="650.0156"/></g><g class="participant participant-head" data-entity-uid="part8" data-qualified-name="SesionCaptura" id="part8-head"><text fill="#000000" font-family="sans-serif" font-size="14" lengthAdjust="spacing" textLength="102.0605" x="808.9883" y="115.292">SesionCaptura</text><ellipse cx="863.0186" cy="86.2969" fill="#E2E2F0" rx="12" ry="12" style="stroke:#181818;stroke-width:0.5;"/><line style="stroke:#181818;stroke-width:0.5;" x1="851.0186" x2="875.0186" y1="100.2969" y2="100.2969"/></g><g class="participant participant-tail" data-entity-uid="part8" data-qualified-name="SesionCaptura" id="part8-tail"><text fill="#000000" font-family="sans-serif" font-size="14" lengthAdjust="spacing" textLength="102.0605" x="808.9883" y="616.7139">SesionCaptura</text><ellipse cx="863.0186" cy="636.0156" fill="#E2E2F0" rx="12" ry="12" style="stroke:#181818;stroke-width:0.5;"/><line style="stroke:#181818;stroke-width:0.5;" x1="851.0186" x2="875.0186" y1="650.0156" y2="650.0156"/></g><g class="participant participant-head" data-entity-uid="part9" data-qualified-name="RepositorioSesiones" id="part9-head"><text fill="#000000" font-family="sans-serif" font-size="14" lengthAdjust="spacing" textLength="141.2715" x="927.0488" y="115.292">RepositorioSesiones</text><path d="M982.6846,66.2969 C982.6846,56.2969 1000.6846,56.2969 1000.6846,56.2969 C1000.6846,56.2969 1018.6846,56.2969 1018.6846,66.2969 L1018.6846,92.2969 C1018.6846,102.2969 1000.6846,102.2969 1000.6846,102.2969 C1000.6846,102.2969 982.6846,102.2969 982.6846,92.2969 L982.6846,66.2969" fill="#E2E2F0" style="stroke:#181818;stroke-width:0.5;"/><path d="M982.6846,66.2969 C982.6846,76.2969 1000.6846,76.2969 1000.6846,76.2969 C1000.6846,76.2969 1018.6846,76.2969 1018.6846,66.2969" fill="none" style="stroke:#181818;stroke-width:0.5;"/></g><g class="participant participant-tail" data-entity-uid="part9" data-qualified-name="RepositorioSesiones" id="part9-tail"><text fill="#000000" font-family="sans-serif" font-size="14" lengthAdjust="spacing" textLength="141.2715" x="927.0488" y="616.7139">RepositorioSesiones</text><path d="M982.6846,630.0156 C982.6846,620.0156 1000.6846,620.0156 1000.6846,620.0156 C1000.6846,620.0156 1018.6846,620.0156 1018.6846,630.0156 L1018.6846,656.0156 C1018.6846,666.0156 1000.6846,666.0156 1000.6846,666.0156 C1000.6846,666.0156 982.6846,666.0156 982.6846,656.0156 L982.6846,630.0156" fill="#E2E2F0" style="stroke:#181818;stroke-width:0.5;"/><path d="M982.6846,630.0156 C982.6846,640.0156 1000.6846,640.0156 1000.6846,640.0156 C1000.6846,640.0156 1018.6846,640.0156 1018.6846,630.0156" fill="none" style="stroke:#181818;stroke-width:0.5;"/></g><g class="message" data-entity-1="part1" data-entity-2="part2" id="msg1"><polygon fill="#181818" points="194.5098,145.7266,204.5098,149.7266,194.5098,153.7266,198.5098,149.7266" style="stroke:#181818;stroke-width:1;"/><line style="stroke:#181818;stroke-width:1;" x1="34.8379" x2="200.5098" y1="149.7266" y2="149.7266"/><text fill="#000000" font-family="sans-serif" font-size="13" lengthAdjust="spacing" textLength="133.9419" x="41.8379" y="144.6606">escanearCodigoQR()</text></g><g class="message" data-entity-1="part2" data-entity-2="part3" id="msg2"><polygon fill="#181818" points="426.5352,174.8594,436.5352,178.8594,426.5352,182.8594,430.5352,178.8594" style="stroke:#181818;stroke-width:1;"/><line style="stroke:#181818;stroke-width:1;" x1="206.5098" x2="432.5352" y1="178.8594" y2="178.8594"/><text fill="#000000" font-family="sans-serif" font-size="13" lengthAdjust="spacing" textLength="138.0234" x="213.5098" y="173.7935">procesarQR(valorQR)</text></g><g class="message" data-entity-1="part3" data-entity-2="part4" id="msg3"><polygon fill="#181818" points="561.0361,203.9922,571.0361,207.9922,561.0361,211.9922,565.0361,207.9922" style="stroke:#181818;stroke-width:1;"/><line style="stroke:#181818;stroke-width:1;" x1="438.5352" x2="567.0361" y1="207.9922" y2="207.9922"/><text fill="#000000" font-family="sans-serif" font-size="13" lengthAdjust="spacing" textLength="106.4248" x="445.5352" y="202.9263">validar(valorQR)</text></g><g class="message" data-entity-1="part4" data-entity-2="part3" id="msg4"><polygon fill="#181818" points="449.5352,233.125,439.5352,237.125,449.5352,241.125,445.5352,237.125" style="stroke:#181818;stroke-width:1;"/><line style="stroke:#181818;stroke-width:1;stroke-dasharray:2,2;" x1="443.5352" x2="572.0361" y1="237.125" y2="237.125"/><text fill="#000000" font-family="sans-serif" font-size="13" lengthAdjust="spacing" textLength="62.4863" x="455.5352" y="232.0591">QR v&#225;lido</text></g><g class="message" data-entity-1="part3" data-entity-2="part6" id="msg5"><polygon fill="#181818" points="695.1104,262.2578,705.1104,266.2578,695.1104,270.2578,699.1104,266.2578" style="stroke:#181818;stroke-width:1;"/><line style="stroke:#181818;stroke-width:1;" x1="438.5352" x2="701.1104" y1="266.2578" y2="266.2578"/><text fill="#000000" font-family="sans-serif" font-size="13" lengthAdjust="spacing" textLength="152.9531" x="445.5352" y="261.1919">obtenerHoyoAsociado()</text></g><g class="message" data-entity-1="part6" data-entity-2="part3" id="msg6"><polygon fill="#181818" points="449.5352,291.3906,439.5352,295.3906,449.5352,299.3906,445.5352,295.3906" style="stroke:#181818;stroke-width:1;"/><line style="stroke:#181818;stroke-width:1;stroke-dasharray:2,2;" x1="443.5352" x2="706.1104" y1="295.3906" y2="295.3906"/><text fill="#000000" font-family="sans-serif" font-size="13" lengthAdjust="spacing" textLength="31.8398" x="455.5352" y="290.3247">hoyo</text></g><g class="message" data-entity-1="part3" data-entity-2="part5" id="msg7"><polygon fill="#181818" points="636.4165,320.5234,646.4165,324.5234,636.4165,328.5234,640.4165,324.5234" style="stroke:#181818;stroke-width:1;"/><line style="stroke:#181818;stroke-width:1;" x1="438.5352" x2="642.4165" y1="324.5234" y2="324.5234"/><text fill="#000000" font-family="sans-serif" font-size="13" lengthAdjust="spacing" textLength="106.939" x="445.5352" y="319.4575">obtenerCampo()</text></g><g class="message" data-entity-1="part5" data-entity-2="part3" id="msg8"><polygon fill="#181818" points="449.5352,349.6563,439.5352,353.6563,449.5352,357.6563,445.5352,353.6563" style="stroke:#181818;stroke-width:1;"/><line style="stroke:#181818;stroke-width:1;stroke-dasharray:2,2;" x1="443.5352" x2="647.4165" y1="353.6563" y2="353.6563"/><text fill="#000000" font-family="sans-serif" font-size="13" lengthAdjust="spacing" textLength="43.9829" x="455.5352" y="348.5903">campo</text></g><g class="message" data-entity-1="part3" data-entity-2="part7" id="msg9"><polygon fill="#181818" points="756.5352,378.7891,766.5352,382.7891,756.5352,386.7891,760.5352,382.7891" style="stroke:#181818;stroke-width:1;"/><line style="stroke:#181818;stroke-width:1;" x1="438.5352" x2="762.5352" y1="382.7891" y2="382.7891"/><text fill="#000000" font-family="sans-serif" font-size="13" lengthAdjust="spacing" textLength="205.6196" x="445.5352" y="377.7231">obtenerCamarasDelHoyo(hoyo)</text></g><g class="message" data-entity-1="part7" data-entity-2="part3" id="msg10"><polygon fill="#181818" points="449.5352,407.9219,439.5352,411.9219,449.5352,415.9219,445.5352,411.9219" style="stroke:#181818;stroke-width:1;"/><line style="stroke:#181818;stroke-width:1;stroke-dasharray:2,2;" x1="443.5352" x2="767.5352" y1="411.9219" y2="411.9219"/><text fill="#000000" font-family="sans-serif" font-size="13" lengthAdjust="spacing" textLength="84.8174" x="455.5352" y="406.856">listaCamaras</text></g><g class="message" data-entity-1="part3" data-entity-2="part8" id="msg11"><polygon fill="#181818" points="851.0186,437.0547,861.0186,441.0547,851.0186,445.0547,855.0186,441.0547" style="stroke:#181818;stroke-width:1;"/><line style="stroke:#181818;stroke-width:1;" x1="438.5352" x2="857.0186" y1="441.0547" y2="441.0547"/><text fill="#000000" font-family="sans-serif" font-size="13" lengthAdjust="spacing" textLength="248.5171" x="445.5352" y="435.9888">crear(usuario, campo, hoyo, camaras)</text></g><g class="message" data-entity-1="part8" data-entity-2="part3" id="msg12"><polygon fill="#181818" points="449.5352,466.1875,439.5352,470.1875,449.5352,474.1875,445.5352,470.1875" style="stroke:#181818;stroke-width:1;"/><line style="stroke:#181818;stroke-width:1;stroke-dasharray:2,2;" x1="443.5352" x2="862.0186" y1="470.1875" y2="470.1875"/><text fill="#000000" font-family="sans-serif" font-size="13" lengthAdjust="spacing" textLength="81.7578" x="455.5352" y="465.1216">sesionActiva</text></g><g class="message" data-entity-1="part3" data-entity-2="part9" id="msg13"><polygon fill="#181818" points="988.6846,495.3203,998.6846,499.3203,988.6846,503.3203,992.6846,499.3203" style="stroke:#181818;stroke-width:1;"/><line style="stroke:#181818;stroke-width:1;" x1="438.5352" x2="994.6846" y1="499.3203" y2="499.3203"/><text fill="#000000" font-family="sans-serif" font-size="13" lengthAdjust="spacing" textLength="143.2666" x="445.5352" y="494.2544">guardar(sesionActiva)</text></g><g class="message" data-entity-1="part9" data-entity-2="part3" id="msg14"><polygon fill="#181818" points="449.5352,524.4531,439.5352,528.4531,449.5352,532.4531,445.5352,528.4531" style="stroke:#181818;stroke-width:1;"/><line style="stroke:#181818;stroke-width:1;stroke-dasharray:2,2;" x1="443.5352" x2="999.6846" y1="528.4531" y2="528.4531"/><text fill="#000000" font-family="sans-serif" font-size="13" lengthAdjust="spacing" textLength="84.4556" x="455.5352" y="523.3872">confirmacion</text></g><g class="message" data-entity-1="part3" data-entity-2="part2" id="msg15"><polygon fill="#181818" points="217.5098,553.5859,207.5098,557.5859,217.5098,561.5859,213.5098,557.5859" style="stroke:#181818;stroke-width:1;"/><line style="stroke:#181818;stroke-width:1;stroke-dasharray:2,2;" x1="211.5098" x2="437.5352" y1="557.5859" y2="557.5859"/><text fill="#000000" font-family="sans-serif" font-size="13" lengthAdjust="spacing" textLength="208.0254" x="223.5098" y="552.52">contextoActivado(campo, hoyo)</text></g><g class="message" data-entity-1="part2" data-entity-2="part1" id="msg16"><polygon fill="#181818" points="45.8379,582.7188,35.8379,586.7188,45.8379,590.7188,41.8379,586.7188" style="stroke:#181818;stroke-width:1;"/><line style="stroke:#181818;stroke-width:1;stroke-dasharray:2,2;" x1="39.8379" x2="205.5098" y1="586.7188" y2="586.7188"/><text fill="#000000" font-family="sans-serif" font-size="13" lengthAdjust="spacing" textLength="147.6719" x="51.8379" y="581.6528">mostrarConfirmacion()</text></g><?plantuml-src VLFDQiCm3BxxANHCe86nOm-3qWx6RktOxggZPOOa2hPJriVP8umzGbziijEiFqjzIP3rwVi-Ix8tlYPO6QmiDWWbWIFTKwjD34hZwF3DKC3ojRYxXqUdiIMqe0y_fQaOrXk1rV31UrOAjMSBpts59LkrvRujqUxXpJYFGoMlDqfpwotNi1p-0JlIIfPQR_nUae7-BCQcup5u2cgd15eSenToXjibThwNmn8zRj4HRAXZPyISuG51JgcZJoWUhXp27EXeQBIHvUeA8rMJ5v3Yph8c5u9iXpNBFrTg6XnP1Waf5BIHZfsg_d95Gau-kyENL7929RHCiBprr98DqSAn3BbakLfCfYI6yTw-GXZEYJs6GZiSftXrd6gIM8PxmIonMr4TB6V1LfG9e9HE7MPtB4x8NMnFi6SbbVMkHrcSsU1s5fiHWy2MgykYb0iNaGljpGuJBYQMLOehCH5suvmaLrFOPCEvVJUsGItGcnQc7aHujFJfUH2MhJbhnl-t8GpZwvf3myxRy9HEqbd-2m00?></g></svg>