<?plantuml 1.2026.2?><svg xmlns="http://www.w3.org/2000/svg" xmlns:xlink="http://www.w3.org/1999/xlink" contentStyleType="text/css" data-diagram-type="CLASS" height="651px" preserveAspectRatio="none" style="width:1790px;height:651px;background:#FFFFFF;" version="1.1" viewBox="0 0 1790 651" width="1790px" zoomAndPan="magnify"><title>Diagrama de clases vista</title><defs/><g><g class="title" data-source-line="1"><text fill="#000000" font-family="sans-serif" font-size="14" font-weight="bold" lengthAdjust="spacing" textLength="197.5176" x="789.3921" y="22.9951">Diagrama de clases vista</text></g><!--class Vista--><g class="entity" data-qualified-name="Vista" data-source-line="9" id="ent0002"><rect fill="#F1F1F1" height="88.8594" rx="2.5" ry="2.5" style="stroke:#181818;stroke-width:0.5;" width="188.0459" x="781.5" y="44.2969"/><ellipse cx="851.4937" cy="64.4297" fill="#A9DCDF" rx="11" ry="11" style="stroke:#181818;stroke-width:1;"/><path d="M851.603,59.7734 L850.4468,64.8516 L852.7749,64.8516 L851.603,59.7734 Z M850.1187,57.5391 L853.103,57.5391 L856.4624,69.9297 L854.0093,69.9297 L853.2437,66.8672 L849.9624,66.8672 L849.2124,69.9297 L846.7749,69.9297 L850.1187,57.5391 Z " fill="#000000"/><text fill="#000000" font-family="sans-serif" font-size="12" font-style="italic" lengthAdjust="spacing" textLength="43.5586" x="869.9937" y="60.4355">&#171;vista&#187;</text><text fill="#000000" font-family="sans-serif" font-size="14" font-style="italic" lengthAdjust="spacing" textLength="34.8291" x="874.3584" y="76.2607">Vista</text><line style="stroke:#181818;stroke-width:0.5;" x1="782.5" x2="968.5459" y1="84.5625" y2="84.5625"/><line style="stroke:#181818;stroke-width:0.5;" x1="782.5" x2="968.5459" y1="92.5625" y2="92.5625"/><text fill="#000000" font-family="sans-serif" font-size="14" lengthAdjust="spacing" textLength="161.2256" x="787.5" y="109.5576">+mostrarInformacion()</text><text fill="#000000" font-family="sans-serif" font-size="14" lengthAdjust="spacing" textLength="176.0459" x="787.5" y="125.8545">+recogerAccionUsuario()</text></g><!--class VistaLogin--><g class="entity" data-qualified-name="VistaLogin" data-source-line="14" id="ent0003"><rect fill="#F1F1F1" height="88.8594" rx="2.5" ry="2.5" style="stroke:#181818;stroke-width:0.5;" width="192.8105" x="7" y="209.2969"/><ellipse cx="62.7334" cy="229.4297" fill="#ADD1B2" rx="11" ry="11" style="stroke:#181818;stroke-width:1;"/><path d="M65.7021,235.0703 Q65.124,235.3672 64.4834,235.5078 Q63.8428,235.6641 63.1396,235.6641 Q60.6396,235.6641 59.3115,234.0234 Q57.999,232.3672 57.999,229.2422 Q57.999,226.1172 59.3115,224.4609 Q60.6396,222.8047 63.1396,222.8047 Q63.8428,222.8047 64.4834,222.9609 Q65.1396,223.1172 65.7021,223.4141 L65.7021,226.1328 Q65.0771,225.5547 64.4834,225.2891 Q63.8896,225.0078 63.2646,225.0078 Q61.9209,225.0078 61.2334,226.0859 Q60.5459,227.1484 60.5459,229.2422 Q60.5459,231.3359 61.2334,232.4141 Q61.9209,233.4766 63.2646,233.4766 Q63.8896,233.4766 64.4834,233.2109 Q65.0771,232.9297 65.7021,232.3516 L65.7021,235.0703 Z " fill="#000000"/><text fill="#000000" font-family="sans-serif" font-size="12" font-style="italic" lengthAdjust="spacing" textLength="43.5586" x="97.876" y="225.4355">&#171;vista&#187;</text><text fill="#000000" font-family="sans-serif" font-size="14" lengthAdjust="spacing" textLength="72.8438" x="83.2334" y="241.2607">VistaLogin</text><line style="stroke:#181818;stroke-width:0.5;" x1="8" x2="198.8105" y1="249.5625" y2="249.5625"/><line style="stroke:#181818;stroke-width:0.5;" x1="8" x2="198.8105" y1="257.5625" y2="257.5625"/><text fill="#000000" font-family="sans-serif" font-size="14" lengthAdjust="spacing" textLength="180.8105" x="13" y="274.5576">+introducirCredenciales()</text><text fill="#000000" font-family="sans-serif" font-size="14" lengthAdjust="spacing" textLength="157.1309" x="13" y="290.8545">+enviarCredenciales()</text></g><!--class VistaJugador--><g class="entity" data-qualified-name="VistaJugador" data-source-line="19" id="ent0004"><rect fill="#F1F1F1" height="121.4531" rx="2.5" ry="2.5" style="stroke:#181818;stroke-width:0.5;" width="249.6445" x="501.5" y="193.2969"/><ellipse cx="577.8198" cy="213.4297" fill="#ADD1B2" rx="11" ry="11" style="stroke:#181818;stroke-width:1;"/><path d="M580.7886,219.0703 Q580.2104,219.3672 579.5698,219.5078 Q578.9292,219.6641 578.2261,219.6641 Q575.7261,219.6641 574.3979,218.0234 Q573.0854,216.3672 573.0854,213.2422 Q573.0854,210.1172 574.3979,208.4609 Q575.7261,206.8047 578.2261,206.8047 Q578.9292,206.8047 579.5698,206.9609 Q580.2261,207.1172 580.7886,207.4141 L580.7886,210.1328 Q580.1636,209.5547 579.5698,209.2891 Q578.9761,209.0078 578.3511,209.0078 Q577.0073,209.0078 576.3198,210.0859 Q575.6323,211.1484 575.6323,213.2422 Q575.6323,215.3359 576.3198,216.4141 Q577.0073,217.4766 578.3511,217.4766 Q578.9761,217.4766 579.5698,217.2109 Q580.1636,216.9297 580.7886,216.3516 L580.7886,219.0703 Z " fill="#000000"/><text fill="#000000" font-family="sans-serif" font-size="12" font-style="italic" lengthAdjust="spacing" textLength="43.5586" x="620.793" y="209.4355">&#171;vista&#187;</text><text fill="#000000" font-family="sans-serif" font-size="14" lengthAdjust="spacing" textLength="88.5049" x="598.3198" y="225.2607">VistaJugador</text><line style="stroke:#181818;stroke-width:0.5;" x1="502.5" x2="750.1445" y1="233.5625" y2="233.5625"/><line style="stroke:#181818;stroke-width:0.5;" x1="502.5" x2="750.1445" y1="241.5625" y2="241.5625"/><text fill="#000000" font-family="sans-serif" font-size="14" lengthAdjust="spacing" textLength="169.8457" x="507.5" y="258.5576">+mostrarMenuJugador()</text><text fill="#000000" font-family="sans-serif" font-size="14" lengthAdjust="spacing" textLength="157.7119" x="507.5" y="274.8545">+accederEscaneoQR()</text><text fill="#000000" font-family="sans-serif" font-size="14" lengthAdjust="spacing" textLength="112.2324" x="507.5" y="291.1514">+accederClips()</text><text fill="#000000" font-family="sans-serif" font-size="14" lengthAdjust="spacing" textLength="237.6445" x="507.5" y="307.4482">+accederEstadisticasPersonales()</text></g><!--class VistaAdministrador--><g class="entity" data-qualified-name="VistaAdministrador" data-source-line="26" id="ent0005"><rect fill="#F1F1F1" height="121.4531" rx="2.5" ry="2.5" style="stroke:#181818;stroke-width:0.5;" width="234.291" x="1140.5" y="193.2969"/><ellipse cx="1186.4409" cy="213.4297" fill="#ADD1B2" rx="11" ry="11" style="stroke:#181818;stroke-width:1;"/><path d="M1189.4097,219.0703 Q1188.8315,219.3672 1188.1909,219.5078 Q1187.5503,219.6641 1186.8472,219.6641 Q1184.3472,219.6641 1183.019,218.0234 Q1181.7065,216.3672 1181.7065,213.2422 Q1181.7065,210.1172 1183.019,208.4609 Q1184.3472,206.8047 1186.8472,206.8047 Q1187.5503,206.8047 1188.1909,206.9609 Q1188.8472,207.1172 1189.4097,207.4141 L1189.4097,210.1328 Q1188.7847,209.5547 1188.1909,209.2891 Q1187.5972,209.0078 1186.9722,209.0078 Q1185.6284,209.0078 1184.9409,210.0859 Q1184.2534,211.1484 1184.2534,213.2422 Q1184.2534,215.3359 1184.9409,216.4141 Q1185.6284,217.4766 1186.9722,217.4766 Q1187.5972,217.4766 1188.1909,217.2109 Q1188.7847,216.9297 1189.4097,216.3516 L1189.4097,219.0703 Z " fill="#000000"/><text fill="#000000" font-family="sans-serif" font-size="12" font-style="italic" lengthAdjust="spacing" textLength="43.5586" x="1252.1162" y="209.4355">&#171;vista&#187;</text><text fill="#000000" font-family="sans-serif" font-size="14" lengthAdjust="spacing" textLength="133.9092" x="1206.9409" y="225.2607">VistaAdministrador</text><line style="stroke:#181818;stroke-width:0.5;" x1="1141.5" x2="1373.791" y1="233.5625" y2="233.5625"/><line style="stroke:#181818;stroke-width:0.5;" x1="1141.5" x2="1373.791" y1="241.5625" y2="241.5625"/><text fill="#000000" font-family="sans-serif" font-size="14" lengthAdjust="spacing" textLength="215.25" x="1146.5" y="258.5576">+mostrarMenuAdministrador()</text><text fill="#000000" font-family="sans-serif" font-size="14" lengthAdjust="spacing" textLength="165.8057" x="1146.5" y="274.8545">+accederGestionClips()</text><text fill="#000000" font-family="sans-serif" font-size="14" lengthAdjust="spacing" textLength="138.9951" x="1146.5" y="291.1514">+accederUsuarios()</text><text fill="#000000" font-family="sans-serif" font-size="14" lengthAdjust="spacing" textLength="222.291" x="1146.5" y="307.4482">+accederEstadisticasGlobales()</text></g><!--class VistaEscaneoQR--><g class="entity" data-qualified-name="VistaEscaneoQR" data-source-line="33" id="ent0006"><rect fill="#F1F1F1" height="105.1563" rx="2.5" ry="2.5" style="stroke:#181818;stroke-width:0.5;" width="209.3262" x="307" y="374.2969"/><ellipse cx="350.477" cy="394.4297" fill="#ADD1B2" rx="11" ry="11" style="stroke:#181818;stroke-width:1;"/><path d="M353.4458,400.0703 Q352.8676,400.3672 352.227,400.5078 Q351.5864,400.6641 350.8833,400.6641 Q348.3833,400.6641 347.0551,399.0234 Q345.7426,397.3672 345.7426,394.2422 Q345.7426,391.1172 347.0551,389.4609 Q348.3833,387.8047 350.8833,387.8047 Q351.5864,387.8047 352.227,387.9609 Q352.8833,388.1172 353.4458,388.4141 L353.4458,391.1328 Q352.8208,390.5547 352.227,390.2891 Q351.6333,390.0078 351.0083,390.0078 Q349.6645,390.0078 348.977,391.0859 Q348.2895,392.1484 348.2895,394.2422 Q348.2895,396.3359 348.977,397.4141 Q349.6645,398.4766 351.0083,398.4766 Q351.6333,398.4766 352.227,398.2109 Q352.8208,397.9297 353.4458,397.3516 L353.4458,400.0703 Z " fill="#000000"/><text fill="#000000" font-family="sans-serif" font-size="12" font-style="italic" lengthAdjust="spacing" textLength="43.5586" x="406.0479" y="390.4355">&#171;vista&#187;</text><text fill="#000000" font-family="sans-serif" font-size="14" lengthAdjust="spacing" textLength="114.0439" x="370.8052" y="406.2607">VistaEscaneoQR</text><line style="stroke:#181818;stroke-width:0.5;" x1="308" x2="515.3262" y1="414.5625" y2="414.5625"/><line style="stroke:#181818;stroke-width:0.5;" x1="308" x2="515.3262" y1="422.5625" y2="422.5625"/><text fill="#000000" font-family="sans-serif" font-size="14" lengthAdjust="spacing" textLength="147.1367" x="313" y="439.5576">+abrirCamaraMovil()</text><text fill="#000000" font-family="sans-serif" font-size="14" lengthAdjust="spacing" textLength="155.9756" x="313" y="455.8545">+escanearCodigoQR()</text><text fill="#000000" font-family="sans-serif" font-size="14" lengthAdjust="spacing" textLength="197.3262" x="313" y="472.1514">+mostrarContextoCaptura()</text></g><!--class VistaListadoClips--><g class="entity" data-qualified-name="VistaListadoClips" data-source-line="39" id="ent0007"><rect fill="#F1F1F1" height="88.8594" rx="2.5" ry="2.5" style="stroke:#181818;stroke-width:0.5;" width="151.0684" x="551" y="382.2969"/><ellipse cx="566" cy="402.4297" fill="#ADD1B2" rx="11" ry="11" style="stroke:#181818;stroke-width:1;"/><path d="M568.9688,408.0703 Q568.3906,408.3672 567.75,408.5078 Q567.1094,408.6641 566.4063,408.6641 Q563.9063,408.6641 562.5781,407.0234 Q561.2656,405.3672 561.2656,402.2422 Q561.2656,399.1172 562.5781,397.4609 Q563.9063,395.8047 566.4063,395.8047 Q567.1094,395.8047 567.75,395.9609 Q568.4063,396.1172 568.9688,396.4141 L568.9688,399.1328 Q568.3438,398.5547 567.75,398.2891 Q567.1563,398.0078 566.5313,398.0078 Q565.1875,398.0078 564.5,399.0859 Q563.8125,400.1484 563.8125,402.2422 Q563.8125,404.3359 564.5,405.4141 Q565.1875,406.4766 566.5313,406.4766 Q567.1563,406.4766 567.75,406.2109 Q568.3438,405.9297 568.9688,405.3516 L568.9688,408.0703 Z " fill="#000000"/><text fill="#000000" font-family="sans-serif" font-size="12" font-style="italic" lengthAdjust="spacing" textLength="43.5586" x="617.7549" y="398.4355">&#171;vista&#187;</text><text fill="#000000" font-family="sans-serif" font-size="14" lengthAdjust="spacing" textLength="119.0684" x="580" y="414.2607">VistaListadoClips</text><line style="stroke:#181818;stroke-width:0.5;" x1="552" x2="701.0684" y1="422.5625" y2="422.5625"/><line style="stroke:#181818;stroke-width:0.5;" x1="552" x2="701.0684" y1="430.5625" y2="430.5625"/><text fill="#000000" font-family="sans-serif" font-size="14" lengthAdjust="spacing" textLength="111.4668" x="557" y="447.5576">+mostrarClips()</text><text fill="#000000" font-family="sans-serif" font-size="14" lengthAdjust="spacing" textLength="128.5635" x="557" y="463.8545">+seleccionarClip()</text></g><!--class VistaDetalleClip--><g class="entity" data-qualified-name="VistaDetalleClip" data-source-line="44" id="ent0008"><rect fill="#F1F1F1" height="105.1563" rx="2.5" ry="2.5" style="stroke:#181818;stroke-width:0.5;" width="218.5342" x="331" y="539.2969"/><ellipse cx="380.4546" cy="559.4297" fill="#ADD1B2" rx="11" ry="11" style="stroke:#181818;stroke-width:1;"/><path d="M383.4233,565.0703 Q382.8452,565.3672 382.2046,565.5078 Q381.564,565.6641 380.8608,565.6641 Q378.3608,565.6641 377.0327,564.0234 Q375.7202,562.3672 375.7202,559.2422 Q375.7202,556.1172 377.0327,554.4609 Q378.3608,552.8047 380.8608,552.8047 Q381.564,552.8047 382.2046,552.9609 Q382.8608,553.1172 383.4233,553.4141 L383.4233,556.1328 Q382.7983,555.5547 382.2046,555.2891 Q381.6108,555.0078 380.9858,555.0078 Q379.6421,555.0078 378.9546,556.0859 Q378.2671,557.1484 378.2671,559.2422 Q378.2671,561.3359 378.9546,562.4141 Q379.6421,563.4766 380.9858,563.4766 Q381.6108,563.4766 382.2046,563.2109 Q382.7983,562.9297 383.4233,562.3516 L383.4233,565.0703 Z " fill="#000000"/><text fill="#000000" font-family="sans-serif" font-size="12" font-style="italic" lengthAdjust="spacing" textLength="43.5586" x="434.7378" y="555.4355">&#171;vista&#187;</text><text fill="#000000" font-family="sans-serif" font-size="14" lengthAdjust="spacing" textLength="111.125" x="400.9546" y="571.2607">VistaDetalleClip</text><line style="stroke:#181818;stroke-width:0.5;" x1="332" x2="548.5342" y1="579.5625" y2="579.5625"/><line style="stroke:#181818;stroke-width:0.5;" x1="332" x2="548.5342" y1="587.5625" y2="587.5625"/><text fill="#000000" font-family="sans-serif" font-size="14" lengthAdjust="spacing" textLength="154.0273" x="337" y="604.5576">+mostrarDetalleClip()</text><text fill="#000000" font-family="sans-serif" font-size="14" lengthAdjust="spacing" textLength="121.7754" x="337" y="620.8545">+reproducirClip()</text><text fill="#000000" font-family="sans-serif" font-size="14" lengthAdjust="spacing" textLength="206.5342" x="337" y="637.1514">+marcarDesmarcarFavorito()</text></g><!--class VistaEstadisticasPersonales--><g class="entity" data-qualified-name="VistaEstadisticasPersonales" data-source-line="50" id="ent0009"><rect fill="#F1F1F1" height="88.8594" rx="2.5" ry="2.5" style="stroke:#181818;stroke-width:0.5;" width="225.9766" x="737.5" y="382.2969"/><ellipse cx="752.5" cy="402.4297" fill="#ADD1B2" rx="11" ry="11" style="stroke:#181818;stroke-width:1;"/><path d="M755.4688,408.0703 Q754.8906,408.3672 754.25,408.5078 Q753.6094,408.6641 752.9063,408.6641 Q750.4063,408.6641 749.0781,407.0234 Q747.7656,405.3672 747.7656,402.2422 Q747.7656,399.1172 749.0781,397.4609 Q750.4063,395.8047 752.9063,395.8047 Q753.6094,395.8047 754.25,395.9609 Q754.9063,396.1172 755.4688,396.4141 L755.4688,399.1328 Q754.8438,398.5547 754.25,398.2891 Q753.6563,398.0078 753.0313,398.0078 Q751.6875,398.0078 751,399.0859 Q750.3125,400.1484 750.3125,402.2422 Q750.3125,404.3359 751,405.4141 Q751.6875,406.4766 753.0313,406.4766 Q753.6563,406.4766 754.25,406.2109 Q754.8438,405.9297 755.4688,405.3516 L755.4688,408.0703 Z " fill="#000000"/><text fill="#000000" font-family="sans-serif" font-size="12" font-style="italic" lengthAdjust="spacing" textLength="43.5586" x="841.709" y="398.4355">&#171;vista&#187;</text><text fill="#000000" font-family="sans-serif" font-size="14" lengthAdjust="spacing" textLength="193.9766" x="766.5" y="414.2607">VistaEstadisticasPersonales</text><line style="stroke:#181818;stroke-width:0.5;" x1="738.5" x2="962.4766" y1="422.5625" y2="422.5625"/><line style="stroke:#181818;stroke-width:0.5;" x1="738.5" x2="962.4766" y1="430.5625" y2="430.5625"/><text fill="#000000" font-family="sans-serif" font-size="14" lengthAdjust="spacing" textLength="203.376" x="743.5" y="447.5576">+mostrarResumenPersonal()</text><text fill="#000000" font-family="sans-serif" font-size="14" lengthAdjust="spacing" textLength="202.0703" x="743.5" y="463.8545">+mostrarResumenPorHoyo()</text></g><!--class VistaGestionClips--><g class="entity" data-qualified-name="VistaGestionClips" data-source-line="55" id="ent0010"><rect fill="#F1F1F1" height="105.1563" rx="2.5" ry="2.5" style="stroke:#181818;stroke-width:0.5;" width="206.4482" x="1069.5" y="374.2969"/><ellipse cx="1108.0397" cy="394.4297" fill="#ADD1B2" rx="11" ry="11" style="stroke:#181818;stroke-width:1;"/><path d="M1111.0085,400.0703 Q1110.4304,400.3672 1109.7897,400.5078 Q1109.1491,400.6641 1108.446,400.6641 Q1105.946,400.6641 1104.6179,399.0234 Q1103.3054,397.3672 1103.3054,394.2422 Q1103.3054,391.1172 1104.6179,389.4609 Q1105.946,387.8047 1108.446,387.8047 Q1109.1491,387.8047 1109.7897,387.9609 Q1110.446,388.1172 1111.0085,388.4141 L1111.0085,391.1328 Q1110.3835,390.5547 1109.7897,390.2891 Q1109.196,390.0078 1108.571,390.0078 Q1107.2272,390.0078 1106.5397,391.0859 Q1105.8522,392.1484 1105.8522,394.2422 Q1105.8522,396.3359 1106.5397,397.4141 Q1107.2272,398.4766 1108.571,398.4766 Q1109.196,398.4766 1109.7897,398.2109 Q1110.3835,397.9297 1111.0085,397.3516 L1111.0085,400.0703 Z " fill="#000000"/><text fill="#000000" font-family="sans-serif" font-size="12" font-style="italic" lengthAdjust="spacing" textLength="43.5586" x="1166.5604" y="390.4355">&#171;vista&#187;</text><text fill="#000000" font-family="sans-serif" font-size="14" lengthAdjust="spacing" textLength="122.1377" x="1127.2708" y="406.2607">VistaGestionClips</text><line style="stroke:#181818;stroke-width:0.5;" x1="1070.5" x2="1274.9482" y1="414.5625" y2="414.5625"/><line style="stroke:#181818;stroke-width:0.5;" x1="1070.5" x2="1274.9482" y1="422.5625" y2="422.5625"/><text fill="#000000" font-family="sans-serif" font-size="14" lengthAdjust="spacing" textLength="194.4482" x="1075.5" y="439.5576">+mostrarClipsRegistrados()</text><text fill="#000000" font-family="sans-serif" font-size="14" lengthAdjust="spacing" textLength="163.9668" x="1075.5" y="455.8545">+consultarDetalleClip()</text><text fill="#000000" font-family="sans-serif" font-size="14" lengthAdjust="spacing" textLength="106.2236" x="1075.5" y="472.1514">+eliminarClip()</text></g><!--class VistaUsuariosAdministrador--><g class="entity" data-qualified-name="VistaUsuariosAdministrador" data-source-line="61" id="ent0011"><rect fill="#F1F1F1" height="88.8594" rx="2.5" ry="2.5" style="stroke:#181818;stroke-width:0.5;" width="226.4072" x="1310.5" y="382.2969"/><ellipse cx="1325.5" cy="402.4297" fill="#ADD1B2" rx="11" ry="11" style="stroke:#181818;stroke-width:1;"/><path d="M1328.4688,408.0703 Q1327.8906,408.3672 1327.25,408.5078 Q1326.6094,408.6641 1325.9063,408.6641 Q1323.4063,408.6641 1322.0781,407.0234 Q1320.7656,405.3672 1320.7656,402.2422 Q1320.7656,399.1172 1322.0781,397.4609 Q1323.4063,395.8047 1325.9063,395.8047 Q1326.6094,395.8047 1327.25,395.9609 Q1327.9063,396.1172 1328.4688,396.4141 L1328.4688,399.1328 Q1327.8438,398.5547 1327.25,398.2891 Q1326.6563,398.0078 1326.0313,398.0078 Q1324.6875,398.0078 1324,399.0859 Q1323.3125,400.1484 1323.3125,402.2422 Q1323.3125,404.3359 1324,405.4141 Q1324.6875,406.4766 1326.0313,406.4766 Q1326.6563,406.4766 1327.25,406.2109 Q1327.8438,405.9297 1328.4688,405.3516 L1328.4688,408.0703 Z " fill="#000000"/><text fill="#000000" font-family="sans-serif" font-size="12" font-style="italic" lengthAdjust="spacing" textLength="43.5586" x="1414.9243" y="398.4355">&#171;vista&#187;</text><text fill="#000000" font-family="sans-serif" font-size="14" lengthAdjust="spacing" textLength="194.4072" x="1339.5" y="414.2607">VistaUsuariosAdministrador</text><line style="stroke:#181818;stroke-width:0.5;" x1="1311.5" x2="1535.9072" y1="422.5625" y2="422.5625"/><line style="stroke:#181818;stroke-width:0.5;" x1="1311.5" x2="1535.9072" y1="430.5625" y2="430.5625"/><text fill="#000000" font-family="sans-serif" font-size="14" lengthAdjust="spacing" textLength="138.2295" x="1316.5" y="447.5576">+mostrarUsuarios()</text><text fill="#000000" font-family="sans-serif" font-size="14" lengthAdjust="spacing" textLength="155.3262" x="1316.5" y="463.8545">+seleccionarUsuario()</text></g><!--class VistaGestionUsuarios--><g class="entity" data-qualified-name="VistaGestionUsuarios" data-source-line="66" id="ent0012"><rect fill="#F1F1F1" height="88.8594" rx="2.5" ry="2.5" style="stroke:#181818;stroke-width:0.5;" width="192.79" x="1123" y="547.2969"/><ellipse cx="1143.3503" cy="567.4297" fill="#ADD1B2" rx="11" ry="11" style="stroke:#181818;stroke-width:1;"/><path d="M1146.3191,573.0703 Q1145.741,573.3672 1145.1003,573.5078 Q1144.4597,573.6641 1143.7566,573.6641 Q1141.2566,573.6641 1139.9285,572.0234 Q1138.616,570.3672 1138.616,567.2422 Q1138.616,564.1172 1139.9285,562.4609 Q1141.2566,560.8047 1143.7566,560.8047 Q1144.4597,560.8047 1145.1003,560.9609 Q1145.7566,561.1172 1146.3191,561.4141 L1146.3191,564.1328 Q1145.6941,563.5547 1145.1003,563.2891 Q1144.5066,563.0078 1143.8816,563.0078 Q1142.5378,563.0078 1141.8503,564.0859 Q1141.1628,565.1484 1141.1628,567.2422 Q1141.1628,569.3359 1141.8503,570.4141 Q1142.5378,571.4766 1143.8816,571.4766 Q1144.5066,571.4766 1145.1003,571.2109 Q1145.6941,570.9297 1146.3191,570.3516 L1146.3191,573.0703 Z " fill="#000000"/><text fill="#000000" font-family="sans-serif" font-size="12" font-style="italic" lengthAdjust="spacing" textLength="43.5586" x="1211.2102" y="563.4355">&#171;vista&#187;</text><text fill="#000000" font-family="sans-serif" font-size="14" lengthAdjust="spacing" textLength="148.9004" x="1158.5393" y="579.2607">VistaGestionUsuarios</text><line style="stroke:#181818;stroke-width:0.5;" x1="1124" x2="1314.79" y1="587.5625" y2="587.5625"/><line style="stroke:#181818;stroke-width:0.5;" x1="1124" x2="1314.79" y1="595.5625" y2="595.5625"/><text fill="#000000" font-family="sans-serif" font-size="14" lengthAdjust="spacing" textLength="180.79" x="1129" y="612.5576">+mostrarDetalleUsuario()</text><text fill="#000000" font-family="sans-serif" font-size="14" lengthAdjust="spacing" textLength="132.9863" x="1129" y="628.8545">+eliminarUsuario()</text></g><!--class VistaEstadisticasGlobales--><g class="entity" data-qualified-name="VistaEstadisticasGlobales" data-source-line="71" id="ent0013"><rect fill="#F1F1F1" height="105.1563" rx="2.5" ry="2.5" style="stroke:#181818;stroke-width:0.5;" width="211.3018" x="1572" y="374.2969"/><ellipse cx="1587.3054" cy="394.4297" fill="#ADD1B2" rx="11" ry="11" style="stroke:#181818;stroke-width:1;"/><path d="M1590.2742,400.0703 Q1589.696,400.3672 1589.0554,400.5078 Q1588.4148,400.6641 1587.7117,400.6641 Q1585.2117,400.6641 1583.8835,399.0234 Q1582.571,397.3672 1582.571,394.2422 Q1582.571,391.1172 1583.8835,389.4609 Q1585.2117,387.8047 1587.7117,387.8047 Q1588.4148,387.8047 1589.0554,387.9609 Q1589.7117,388.1172 1590.2742,388.4141 L1590.2742,391.1328 Q1589.6492,390.5547 1589.0554,390.2891 Q1588.4617,390.0078 1587.8367,390.0078 Q1586.4929,390.0078 1585.8054,391.0859 Q1585.1179,392.1484 1585.1179,394.2422 Q1585.1179,396.3359 1585.8054,397.4141 Q1586.4929,398.4766 1587.8367,398.4766 Q1588.4617,398.4766 1589.0554,398.2109 Q1589.6492,397.9297 1590.2742,397.3516 L1590.2742,400.0703 Z " fill="#000000"/><text fill="#000000" font-family="sans-serif" font-size="12" font-style="italic" lengthAdjust="spacing" textLength="43.5586" x="1668.9055" y="390.4355">&#171;vista&#187;</text><text fill="#000000" font-family="sans-serif" font-size="14" lengthAdjust="spacing" textLength="178.623" x="1601.3733" y="406.2607">VistaEstadisticasGlobales</text><line style="stroke:#181818;stroke-width:0.5;" x1="1573" x2="1782.3018" y1="414.5625" y2="414.5625"/><line style="stroke:#181818;stroke-width:0.5;" x1="1573" x2="1782.3018" y1="422.5625" y2="422.5625"/><text fill="#000000" font-family="sans-serif" font-size="14" lengthAdjust="spacing" textLength="188.0225" x="1578" y="439.5576">+mostrarResumenGlobal()</text><text fill="#000000" font-family="sans-serif" font-size="14" lengthAdjust="spacing" textLength="170.1738" x="1578" y="455.8545">+mostrarClipsPorHoyo()</text><text fill="#000000" font-family="sans-serif" font-size="14" lengthAdjust="spacing" textLength="199.3018" x="1578" y="472.1514">+mostrarActividadSistema()</text></g><!--reverse link Vista to VistaLogin--><g class="link" data-entity-1="ent0002" data-entity-2="ent0003" data-link-type="extension" data-source-line="77" id="lnk14"><path codeLine="77" d="M763.22,89.2969 C557.28,89.2969 103.5,89.2969 103.5,89.2969 C103.5,89.2969 103.5,160.5669 103.5,209.2769" fill="none" id="Vista-backto-VistaLogin" style="stroke:#181818;stroke-width:1;"/><polygon fill="none" points="781.22,89.2969,763.22,83.2969,763.22,95.2969,781.22,89.2969" style="stroke:#181818;stroke-width:1;"/></g><!--reverse link Vista to VistaJugador--><g class="link" data-entity-1="ent0002" data-entity-2="ent0004" data-link-type="extension" data-source-line="78" id="lnk15"><path codeLine="78" d="M807.5,151.6969 C807.5,206.5969 807.5,274.2969 807.5,274.2969 C807.5,274.2969 782.84,274.2969 751.72,274.2969" fill="none" id="Vista-backto-VistaJugador" style="stroke:#181818;stroke-width:1;"/><polygon fill="none" points="807.5,133.6969,801.5,151.6969,813.5,151.6969,807.5,133.6969" style="stroke:#181818;stroke-width:1;"/></g><!--reverse link Vista to VistaAdministrador--><g class="link" data-entity-1="ent0002" data-entity-2="ent0005" data-link-type="extension" data-source-line="79" id="lnk16"><path codeLine="79" d="M937.5,151.6369 C937.5,194.3869 937.5,234.2969 937.5,234.2969 C937.5,234.2969 1048.83,234.2969 1140.16,234.2969" fill="none" id="Vista-backto-VistaAdministrador" style="stroke:#181818;stroke-width:1;"/><polygon fill="none" points="937.5,133.6369,931.5,151.6369,943.5,151.6369,937.5,133.6369" style="stroke:#181818;stroke-width:1;"/></g><!--reverse link Vista to VistaEscaneoQR--><g class="link" data-entity-1="ent0002" data-entity-2="ent0006" data-link-type="extension" data-source-line="80" id="lnk17"><path codeLine="80" d="M885.5,151.3969 C885.5,232.6069 885.5,378.2969 885.5,378.2969 C885.5,378.2969 655.7,378.2969 516.11,378.2969" fill="none" id="Vista-backto-VistaEscaneoQR" style="stroke:#181818;stroke-width:1;"/><polygon fill="none" points="885.5,133.3969,879.5,151.3969,891.5,151.3969,885.5,133.3969" style="stroke:#181818;stroke-width:1;"/></g><!--reverse link Vista to VistaListadoClips--><g class="link" data-entity-1="ent0002" data-entity-2="ent0007" data-link-type="extension" data-source-line="81" id="lnk18"><path codeLine="81" d="M859.5,151.5369 C859.5,227.1969 859.5,354.2969 859.5,354.2969 C859.5,354.2969 651.67,354.2969 651.67,354.2969 C651.67,354.2969 651.67,367.1969 651.67,382.1169" fill="none" id="Vista-backto-VistaListadoClips" style="stroke:#181818;stroke-width:1;"/><polygon fill="none" points="859.5,133.5369,853.5,151.5369,865.5,151.5369,859.5,133.5369" style="stroke:#181818;stroke-width:1;"/></g><!--reverse link Vista to VistaDetalleClip--><g class="link" data-entity-1="ent0002" data-entity-2="ent0008" data-link-type="extension" data-source-line="82" id="lnk19"><path codeLine="82" d="M833.5,151.5369 C833.5,222.3469 833.5,334.2969 833.5,334.2969 C833.5,334.2969 527.33,334.2969 527.33,334.2969 C527.33,334.2969 527.33,463.7269 527.33,539.0669" fill="none" id="Vista-backto-VistaDetalleClip" style="stroke:#181818;stroke-width:1;"/><polygon fill="none" points="833.5,133.5369,827.5,151.5369,839.5,151.5369,833.5,133.5369" style="stroke:#181818;stroke-width:1;"/></g><!--reverse link Vista to VistaEstadisticasPersonales--><g class="link" data-entity-1="ent0002" data-entity-2="ent0009" data-link-type="extension" data-source-line="83" id="lnk20"><path codeLine="83" d="M911.5,151.3369 C911.5,216.0469 911.5,317.3969 911.5,382.1669" fill="none" id="Vista-backto-VistaEstadisticasPersonales" style="stroke:#181818;stroke-width:1;"/><polygon fill="none" points="911.5,133.3369,905.5,151.3369,917.5,151.3369,911.5,133.3369" style="stroke:#181818;stroke-width:1;"/></g><!--reverse link Vista to VistaGestionClips--><g class="link" data-entity-1="ent0002" data-entity-2="ent0010" data-link-type="extension" data-source-line="84" id="lnk21"><path codeLine="84" d="M987.51,116.2969 C1050.89,116.2969 1105,116.2969 1105,116.2969 C1105,116.2969 1105,285.5369 1105,374.1269" fill="none" id="Vista-backto-VistaGestionClips" style="stroke:#181818;stroke-width:1;"/><polygon fill="none" points="969.51,116.2969,987.51,122.2969,987.51,110.2969,969.51,116.2969" style="stroke:#181818;stroke-width:1;"/></g><!--reverse link Vista to VistaUsuariosAdministrador--><g class="link" data-entity-1="ent0002" data-entity-2="ent0011" data-link-type="extension" data-source-line="85" id="lnk22"><path codeLine="85" d="M987.65,80.2969 C1151.91,80.2969 1455.5,80.2969 1455.5,80.2969 C1455.5,80.2969 1455.5,288.6269 1455.5,382.2069" fill="none" id="Vista-backto-VistaUsuariosAdministrador" style="stroke:#181818;stroke-width:1;"/><polygon fill="none" points="969.65,80.2969,987.65,86.2969,987.65,74.2969,969.65,80.2969" style="stroke:#181818;stroke-width:1;"/></g><!--reverse link Vista to VistaGestionUsuarios--><g class="link" data-entity-1="ent0002" data-entity-2="ent0012" data-link-type="extension" data-source-line="86" id="lnk23"><path codeLine="86" d="M987.54,98.2969 C1014.86,98.2969 1019.5,98.2969 1019.5,98.2969 C1019.5,98.2969 1019.5,592.2969 1019.5,592.2969 C1019.5,592.2969 1071.67,592.2969 1122.72,592.2969" fill="none" id="Vista-backto-VistaGestionUsuarios" style="stroke:#181818;stroke-width:1;"/><polygon fill="none" points="969.54,98.2969,987.54,104.2969,987.54,92.2969,969.54,98.2969" style="stroke:#181818;stroke-width:1;"/></g><!--reverse link Vista to VistaEstadisticasGlobales--><g class="link" data-entity-1="ent0002" data-entity-2="ent0013" data-link-type="extension" data-source-line="87" id="lnk24"><path codeLine="87" d="M987.86,62.2969 C1199.86,62.2969 1677.5,62.2969 1677.5,62.2969 C1677.5,62.2969 1677.5,273.2469 1677.5,374.1869" fill="none" id="Vista-backto-VistaEstadisticasGlobales" style="stroke:#181818;stroke-width:1;"/><polygon fill="none" points="969.86,62.2969,987.86,68.2969,987.86,56.2969,969.86,62.2969" style="stroke:#181818;stroke-width:1;"/></g><!--link VistaJugador to VistaEscaneoQR--><g class="link" data-entity-1="ent0004" data-entity-2="ent0006" data-link-type="dependency" data-source-line="89" id="lnk25"><path codeLine="89" d="M508.75,314.3069 C508.75,333.7869 508.75,349.2169 508.75,368.0969" fill="none" id="VistaJugador-to-VistaEscaneoQR" style="stroke:#181818;stroke-width:1;"/><polygon fill="#181818" points="508.75,374.0969,512.75,365.0969,508.75,369.0969,504.75,365.0969,508.75,374.0969" style="stroke:#181818;stroke-width:1;"/><text fill="#000000" font-family="sans-serif" font-size="13" lengthAdjust="spacing" textLength="46.5093" x="461.75" y="340.2638">accede</text></g><!--link VistaJugador to VistaListadoClips--><g class="link" data-entity-1="ent0004" data-entity-2="ent0007" data-link-type="dependency" data-source-line="90" id="lnk26"><path codeLine="90" d="M601.33,314.3069 C601.33,336.6169 601.33,355.4769 601.33,376.1369" fill="none" id="VistaJugador-to-VistaListadoClips" style="stroke:#181818;stroke-width:1;"/><polygon fill="#181818" points="601.33,382.1369,605.33,373.1369,601.33,377.1369,597.33,373.1369,601.33,382.1369" style="stroke:#181818;stroke-width:1;"/><text fill="#000000" font-family="sans-serif" font-size="13" lengthAdjust="spacing" textLength="55.0278" x="545.33" y="344.2838">consulta</text></g><!--link VistaJugador to VistaEstadisticasPersonales--><g class="link" data-entity-1="ent0004" data-entity-2="ent0009" data-link-type="dependency" data-source-line="91" id="lnk27"><path codeLine="91" d="M744.5,314.3069 C744.5,336.6169 744.5,355.4769 744.5,376.1369" fill="none" id="VistaJugador-to-VistaEstadisticasPersonales" style="stroke:#181818;stroke-width:1;"/><polygon fill="#181818" points="744.5,382.1369,748.5,373.1369,744.5,377.1369,740.5,373.1369,744.5,382.1369" style="stroke:#181818;stroke-width:1;"/><text fill="#000000" font-family="sans-serif" font-size="13" lengthAdjust="spacing" textLength="55.0278" x="688.5" y="344.2838">consulta</text></g><!--link VistaListadoClips to VistaDetalleClip--><g class="link" data-entity-1="ent0007" data-entity-2="ent0008" data-link-type="dependency" data-source-line="92" id="lnk28"><path codeLine="92" d="M550.88,427.2969 C543.49,427.2969 538.67,427.2969 538.67,427.2969 C538.67,427.2969 538.67,485.1569 538.67,533.2969" fill="none" id="VistaListadoClips-to-VistaDetalleClip" style="stroke:#181818;stroke-width:1;"/><polygon fill="#181818" points="538.67,539.2969,542.67,530.2969,538.67,534.2969,534.67,530.2969,538.67,539.2969" style="stroke:#181818;stroke-width:1;"/><text fill="#000000" font-family="sans-serif" font-size="13" lengthAdjust="spacing" textLength="29.561" x="539.67" y="490.2538">abre</text></g><!--link VistaAdministrador to VistaGestionClips--><g class="link" data-entity-1="ent0005" data-entity-2="ent0010" data-link-type="dependency" data-source-line="94" id="lnk29"><path codeLine="94" d="M1208,314.3069 C1208,333.7869 1208,349.2169 1208,368.0969" fill="none" id="VistaAdministrador-to-VistaGestionClips" style="stroke:#181818;stroke-width:1;"/><polygon fill="#181818" points="1208,374.0969,1212,365.0969,1208,369.0969,1204,365.0969,1208,374.0969" style="stroke:#181818;stroke-width:1;"/><text fill="#000000" font-family="sans-serif" font-size="13" lengthAdjust="spacing" textLength="55.8911" x="1152" y="340.2638">gestiona</text></g><!--link VistaAdministrador to VistaUsuariosAdministrador--><g class="link" data-entity-1="ent0005" data-entity-2="ent0011" data-link-type="dependency" data-source-line="95" id="lnk30"><path codeLine="95" d="M1331.83,314.3069 C1331.83,336.6169 1331.83,355.4769 1331.83,376.1369" fill="none" id="VistaAdministrador-to-VistaUsuariosAdministrador" style="stroke:#181818;stroke-width:1;"/><polygon fill="#181818" points="1331.83,382.1369,1335.83,373.1369,1331.83,377.1369,1327.83,373.1369,1331.83,382.1369" style="stroke:#181818;stroke-width:1;"/><text fill="#000000" font-family="sans-serif" font-size="13" lengthAdjust="spacing" textLength="55.0278" x="1275.83" y="344.2838">consulta</text></g><!--link VistaUsuariosAdministrador to VistaGestionUsuarios--><g class="link" data-entity-1="ent0011" data-entity-2="ent0012" data-link-type="dependency" data-source-line="96" id="lnk31"><path codeLine="96" d="M1310.33,427.2969 C1299.81,427.2969 1293,427.2969 1293,427.2969 C1293,427.2969 1293,492.5669 1293,541.2769" fill="none" id="VistaUsuariosAdministrador-to-VistaGestionUsuarios" style="stroke:#181818;stroke-width:1;"/><polygon fill="#181818" points="1293,547.2769,1297,538.2769,1293,542.2769,1289,538.2769,1293,547.2769" style="stroke:#181818;stroke-width:1;"/><text fill="#000000" font-family="sans-serif" font-size="13" lengthAdjust="spacing" textLength="29.561" x="1263" y="491.6938">abre</text></g><!--link VistaAdministrador to VistaEstadisticasGlobales--><g class="link" data-entity-1="ent0005" data-entity-2="ent0013" data-link-type="dependency" data-source-line="97" id="lnk32"><path codeLine="97" d="M1353.17,314.5869 C1353.17,346.1869 1353.17,378.2969 1353.17,378.2969 C1353.17,378.2969 1471.1,378.2969 1565.75,378.2969" fill="none" id="VistaAdministrador-to-VistaEstadisticasGlobales" style="stroke:#181818;stroke-width:1;"/><polygon fill="#181818" points="1571.75,378.2969,1562.75,374.2969,1566.75,378.2969,1562.75,382.2969,1571.75,378.2969" style="stroke:#181818;stroke-width:1;"/><text fill="#000000" font-family="sans-serif" font-size="13" lengthAdjust="spacing" textLength="55.0278" x="1374.6" y="374.3638">consulta</text></g><?plantuml-src ZLHDRzim3BtxL-YuOGYmSr442DAjwx02MuBjJikiIrGM3KdEbdtyzycnxCYsRFGIEEJJqnFvI4TEeRWZA0rK80eKKe55Aqva7MIPVI5TWyzTudRddA6ySVWWMH_fDuht4SG-Gy4_IPVY2PJ5AAD8eplNADYuPuuIDSWNAF7epbw6GUb0bmepnxLmB79sZYjHK9iXrba6kNK6fElaY1-jId5xUr6xtOe_cH3lAcunva4_iQb0-dDlthPnJy8bcfriGzzj0uROP_vbMKJsXKlIKqRIpd3HI39xWmLgIQ3GTgoeJmJJ-9ZpSrFwmfW5dO-ecu3e645AJsO-M0aQ-TjX5Dqhgkq4vw3ml2J1VaLZMIT5x8gADBKthaiPuKONtQDjcp1N46gvBEjUSPuKDRnnAWXouuljBMdWaK-aGgqlS5zjBgWSAXF4xrax_ELu3xLh3Cmxs_uKV96_yFxeQHOLNepIHMTiT-X0AMnp2sGHelTVtRjeYFa7oXPgku-FS693ZXE5IZLvuUO3sgP2tUD6LUfpR3xnUNvFtEEr8Xsm31u9zVBxm3RA9PwDYhoZ5ihOM-SrxXpRB6hGqYo7n_Jdrljq9OaqBp6dpBtUZ0urDcnRo6iZhecTNtOdAg0uUZwiWfN3hlkxsKIRQXODcsGM7nLubXtcS7vBD3MpPDJh16NAiJDORBXPCkcE9OeUlAgaRrOePx-PDvljT27TY6wHBG17s-H6zFPVf4sEx_JSY7Gu7AyQhoet6DIFXsR0ZsRuHfJTNrWzavx3gRuqQdhnC6z1xDgzoK6wNliV?></g></svg>